<svg width="269" height="273" viewBox="0 0 269 273" fill="none" xmlns="http://www.w3.org/2000/svg">
<path fill-rule="evenodd" clip-rule="evenodd" d="M152.635 273L269 117.644L114.795 0L43 95.8507L81.2715 90.495L120.144 38.5971L230.728 123L147.285 234.403L95.7985 195.301L57.5269 200.657L152.635 273ZM8.97611 155.703L12.0426 149.406H22.5319L25.6124 155.703H34.6355L17.2943 121L0 155.703H8.97611ZM13.6465 143.389H20.963L17.2943 135.04L13.6465 143.389ZM38.0827 123.052V155.703H46.3069V141.428L57.8678 155.703H67.5018L53.4502 138.352L66.7969 123.052H57.4918L46.3069 135.933V123.052H38.0827ZM79.0259 123.052V148.66H93.0305V123.052H101.114V148.66H106.283V162H98.67V155.703H70.9427V123.052H79.0259ZM141.688 155.703V121.42L118.943 141.107V123.052H111.329V157.336L134.028 137.689V155.703H141.688ZM179 121.42V155.703H171.34V137.689L148.641 157.336V123.052H156.254V141.107L179 121.42Z" fill="#FF8B02"/>
</svg>
