<svg width="87" height="75" viewBox="0 0 87 75" fill="none" xmlns="http://www.w3.org/2000/svg">
<path fill-rule="evenodd" clip-rule="evenodd" d="M59.5734 21.7834H67.7367V23.9245H59.5734V24.8954L52.6641 22.854L59.5734 20.8125V21.7834Z" fill="#FF8B02"/>
<path fill-rule="evenodd" clip-rule="evenodd" d="M19.5625 22.8795L42.1592 0L56.1008 14.0912H49.7079L42.1592 6.47297L25.9555 22.8795L42.1592 39.3108L49.7079 31.6678H56.1008L42.1592 45.7838L19.5625 22.8795Z" fill="url(#paint0_linear_1196_37010)"/>
<path fill-rule="evenodd" clip-rule="evenodd" d="M32.1328 22.8793L42.1649 12.7217L52.1969 22.8793L42.1649 33.0368L32.1328 22.8793ZM35.1326 22.8793L42.1649 15.759L49.1972 22.8793L42.1649 29.9995L35.1326 22.8793Z" fill="#FF8B02"/>
<path fill-rule="evenodd" clip-rule="evenodd" d="M63.2809 28.855L56.3716 30.8964V29.9753H44.5938V27.8342H56.3716V26.8135L63.2809 28.855Z" fill="#FF8B02"/>
<path fill-rule="evenodd" clip-rule="evenodd" d="M63.2809 16.8549L56.3716 18.8964V17.9504H44.5938V15.7844H56.3716V14.8135L63.2809 16.8549Z" fill="#FF8B02"/>
<path d="M10.8621 54.2236C11.0834 54.0244 11.2555 53.8003 11.3784 53.5265C11.5014 53.2526 11.5751 52.9539 11.5751 52.6053C11.5751 52.2568 11.5014 51.9082 11.3784 51.6344C11.2555 51.3356 11.0588 51.0866 10.8129 50.8875C10.567 50.6883 10.2965 50.514 10.0015 50.4145C9.68184 50.3149 9.36219 50.2402 8.99336 50.2402H5.79688V58.5306H9.23925C9.60807 58.5306 9.95231 58.4808 10.272 58.3563C10.5916 58.2318 10.8621 58.0824 11.108 57.8584C11.3538 57.6343 11.5506 57.3853 11.6735 57.0866C11.7964 56.7878 11.8702 56.4642 11.8702 56.0908C11.8702 55.8169 11.821 55.543 11.7473 55.319C11.6735 55.0949 11.5506 54.8708 11.403 54.6966C11.2555 54.5223 11.0834 54.3729 10.8621 54.2236ZM8.99336 52.0078C9.14089 52.0078 9.26384 52.0327 9.36219 52.1074C9.46054 52.1821 9.5589 52.2568 9.60807 52.3563C9.65725 52.4559 9.70643 52.5804 9.70643 52.7298C9.70643 52.8792 9.68184 53.0036 9.60807 53.1032C9.5589 53.2028 9.46054 53.3024 9.36219 53.3522C9.26384 53.402 9.14089 53.4518 8.99336 53.4518H7.66559V51.9829L8.99336 52.0078ZM9.23925 56.7629H7.66559V55.1696H9.23925C9.38678 55.1696 9.53431 55.1945 9.65725 55.2692C9.78019 55.3439 9.85396 55.4435 9.92772 55.543C10.0015 55.6675 10.0261 55.792 10.0261 55.9414C10.0261 56.0908 10.0015 56.2401 9.92772 56.3397C9.85396 56.4642 9.78019 56.5638 9.65725 56.6136C9.53431 56.7132 9.38678 56.7629 9.23925 56.7629ZM18.6074 50.2402H12.5095V52.0576H14.6241V58.5306H16.4928V52.0576H18.6074V50.2402ZM23.6234 58.7048C24.0906 58.7048 24.5332 58.6301 24.9758 58.4808C25.3938 58.3314 25.7872 58.1322 26.1561 57.8833C26.5003 57.6343 26.8199 57.3107 27.0658 56.9621C27.3363 56.6136 27.533 56.2152 27.6805 55.7671C27.8281 55.3439 27.9018 54.8708 27.9018 54.3729C27.9018 53.875 27.8281 53.4269 27.6805 52.9787C27.533 52.5555 27.3363 52.1572 27.0658 51.7837C26.7954 51.4352 26.5003 51.1115 26.1561 50.8626C25.8118 50.6136 25.4184 50.4145 24.9758 50.2651C24.5578 50.1157 24.1152 50.0659 23.6234 50.041C23.1563 50.041 22.7137 50.1157 22.2711 50.2651C21.8531 50.4145 21.4597 50.6136 21.0908 50.8626C20.7466 51.1115 20.427 51.4352 20.1811 51.7837C19.9106 52.1323 19.7139 52.5306 19.5664 52.9787C19.4188 53.402 19.3451 53.875 19.3451 54.3729C19.3451 54.8708 19.4188 55.319 19.5664 55.7671C19.7139 56.1903 19.9106 56.5887 20.1811 56.9621C20.4515 57.3107 20.7466 57.6343 21.0908 57.8833C21.4351 58.1322 21.8285 58.3314 22.2711 58.4808C22.6891 58.6301 23.1317 58.7048 23.6234 58.7048ZM23.6234 56.8625C23.2792 56.8625 22.9842 56.8127 22.6891 56.6883C22.394 56.5638 22.1481 56.4144 21.9269 56.1903C21.7056 55.9663 21.5334 55.7173 21.4105 55.4186C21.2876 55.1198 21.2384 54.7713 21.2138 54.3978C21.2138 54.0244 21.2876 53.7007 21.4105 53.3771C21.5334 53.0783 21.7056 52.8045 21.9269 52.6053C22.1481 52.3812 22.394 52.2319 22.6891 52.1074C22.9842 51.9829 23.2792 51.9331 23.6234 51.9331C23.9677 51.9331 24.2627 51.9829 24.5578 52.1074C24.8529 52.2319 25.0988 52.3812 25.32 52.6053C25.5413 52.8294 25.7135 53.0783 25.8364 53.3771C25.9593 53.6758 26.0085 54.0244 26.0331 54.3978C26.0331 54.7713 25.9593 55.0949 25.8364 55.4186C25.7135 55.7173 25.5413 55.9912 25.32 56.1903C25.0988 56.4144 24.8529 56.5638 24.5578 56.6883C24.2627 56.7878 23.9431 56.8376 23.6234 56.8625ZM32.3031 50.2402H29.205V58.5306H31.0737V55.9165H32.3031C32.6966 55.9165 33.09 55.8418 33.4342 55.6924C33.7785 55.543 34.0735 55.3439 34.344 55.0949C34.6145 54.846 34.8112 54.5223 34.9587 54.1987C35.1062 53.8501 35.18 53.4767 35.18 53.0783C35.18 52.68 35.1062 52.3066 34.9587 51.958C34.8112 51.6095 34.6145 51.3107 34.344 51.0618C34.0735 50.8128 33.7785 50.5887 33.4342 50.4642C33.09 50.3149 32.7212 50.2402 32.3031 50.2402ZM32.3031 54.1489H31.0737V52.0078H32.3031C32.4999 52.0078 32.672 52.0576 32.8195 52.1572C32.967 52.2568 33.09 52.3812 33.1637 52.5306C33.2375 52.68 33.2867 52.8792 33.2867 53.0783C33.2867 53.2775 33.2375 53.4518 33.1637 53.626C33.09 53.7754 32.967 53.8999 32.8195 53.9995C32.672 54.0991 32.4999 54.1489 32.3031 54.1489ZM36.4094 55.8418H40.8599V54.1489H36.4094V55.8418Z" fill="url(#paint1_linear_1196_37010)"/>
<path d="M48.751 56.7132V50.2402H46.8577V56.7132H44.4234V50.2402H42.5547V58.5306H47.7428V60.124H49.6116V56.7132H48.751Z" fill="#FF8B02"/>
<path d="M52.7828 56.7132V55.2443H55.7088V53.4518H52.7828V52.0576H55.9793V50.2402H50.9141V58.5306H56.053V56.7132H52.7828Z" fill="#FF8B02"/>
<path d="M61.8333 50.2402V53.4269H59.2761V50.2402H57.3828V58.5306H59.2761V55.2443H61.8333V58.5306H63.702V50.2402H61.8333Z" fill="#FF8B02"/>
<path d="M70.9104 50.2402H64.8125V52.0576H66.9271V58.5306H68.7958V52.0576H70.9104V50.2402Z" fill="#FF8B02"/>
<path d="M75.1138 50.2402H72.0156V58.5306H73.8843V55.9165H75.1138C75.5072 55.9165 75.9006 55.8418 76.2448 55.6925C76.5891 55.5431 76.8841 55.3439 77.1546 55.095C77.4251 54.846 77.6218 54.5224 77.7693 54.1987C77.9168 53.8502 77.9906 53.4767 77.9906 53.0784C77.9906 52.68 77.9168 52.3066 77.7693 51.9581C77.6218 51.6095 77.4251 51.3108 77.1546 51.0618C76.8841 50.8128 76.5891 50.5888 76.2448 50.4643C75.9006 50.3149 75.5072 50.2402 75.1138 50.2402ZM75.1138 54.1489H73.8843V52.0079H75.1138C75.3105 52.0079 75.4826 52.0576 75.6301 52.1572C75.7776 52.2568 75.9006 52.3813 75.9744 52.5307C76.0481 52.68 76.0973 52.8792 76.0973 53.0784C76.0973 53.2775 76.0481 53.4518 75.9744 53.6261C75.9006 53.7755 75.7776 53.9 75.6301 53.9995C75.4826 54.0991 75.3105 54.1489 75.1138 54.1489Z" fill="#FF8B02"/>
<path d="M4.29059 67.15C4.29059 67.6927 4.41159 68.1693 4.65359 68.58C4.90292 68.9907 5.22559 69.3097 5.62159 69.537C6.02492 69.757 6.46125 69.867 6.93059 69.867C7.29725 69.867 7.62725 69.8193 7.92059 69.724C8.21392 69.6287 8.47792 69.5003 8.71259 69.339C8.95459 69.1703 9.16359 68.9833 9.33959 68.778V70.318C9.01692 70.582 8.66859 70.7837 8.29459 70.923C7.92059 71.0623 7.45125 71.132 6.88659 71.132C6.32192 71.132 5.79392 71.0367 5.30259 70.846C4.81859 70.6553 4.39692 70.3803 4.03759 70.021C3.67825 69.6617 3.39592 69.24 3.19059 68.756C2.99259 68.2647 2.89359 67.7293 2.89359 67.15C2.89359 66.5707 2.99259 66.039 3.19059 65.555C3.39592 65.0637 3.67825 64.6383 4.03759 64.279C4.39692 63.9197 4.81859 63.6447 5.30259 63.454C5.79392 63.2633 6.32192 63.168 6.88659 63.168C7.45125 63.168 7.92059 63.2377 8.29459 63.377C8.66859 63.5163 9.01692 63.718 9.33959 63.982V65.522C9.16359 65.3167 8.95459 65.1333 8.71259 64.972C8.47792 64.8033 8.21392 64.6713 7.92059 64.576C7.62725 64.4807 7.29725 64.433 6.93059 64.433C6.46125 64.433 6.02492 64.5467 5.62159 64.774C5.22559 64.994 4.90292 65.3093 4.65359 65.72C4.41159 66.1233 4.29059 66.6 4.29059 67.15ZM11.5881 69.504C11.5881 69.658 11.6284 69.7863 11.7091 69.889C11.7971 69.9917 11.9107 70.0723 12.0501 70.131C12.1894 70.1823 12.3471 70.208 12.5231 70.208C12.7797 70.208 13.0107 70.1677 13.2161 70.087C13.4214 70.0063 13.5827 69.878 13.7001 69.702C13.8174 69.526 13.8761 69.2913 13.8761 68.998L14.0521 69.57C14.0521 69.8927 13.9677 70.1713 13.7991 70.406C13.6304 70.6333 13.4031 70.8093 13.1171 70.934C12.8311 71.0513 12.5121 71.11 12.1601 71.11C11.8301 71.11 11.5294 71.0513 11.2581 70.934C10.9941 70.8167 10.7814 70.6443 10.6201 70.417C10.4661 70.1823 10.3891 69.8927 10.3891 69.548C10.3891 69.2033 10.4771 68.9063 10.6531 68.657C10.8291 68.4077 11.0784 68.217 11.4011 68.085C11.7311 67.953 12.1161 67.887 12.5561 67.887C12.8494 67.887 13.1097 67.9237 13.3371 67.997C13.5717 68.0703 13.7661 68.1547 13.9201 68.25C14.0741 68.3453 14.1804 68.4297 14.2391 68.503V69.13C14.0117 68.9613 13.7807 68.8403 13.5461 68.767C13.3114 68.6863 13.0401 68.646 12.7321 68.646C12.4827 68.646 12.2701 68.6827 12.0941 68.756C11.9254 68.822 11.7971 68.921 11.7091 69.053C11.6284 69.1777 11.5881 69.328 11.5881 69.504ZM11.3241 67.271L10.8511 66.424C11.0784 66.2847 11.3681 66.149 11.7201 66.017C12.0721 65.885 12.4754 65.819 12.9301 65.819C13.3481 65.819 13.7147 65.8813 14.0301 66.006C14.3454 66.1307 14.5911 66.3103 14.7671 66.545C14.9504 66.7723 15.0421 67.0547 15.0421 67.392V71H13.8761V67.524C13.8761 67.2893 13.7771 67.1097 13.5791 66.985C13.3884 66.853 13.1537 66.787 12.8751 66.787C12.6331 66.787 12.4094 66.8163 12.2041 66.875C11.9987 66.9337 11.8191 67.0033 11.6651 67.084C11.5184 67.1573 11.4047 67.2197 11.3241 67.271ZM16.9537 68.822V67.843H20.8257V68.822H16.9537ZM20.1877 65.94H21.3537V71H20.1877V65.94ZM16.4367 65.94H17.6027V71H16.4367V65.94ZM22.8273 65.94H23.9933V71H22.8273V65.94ZM25.8523 65.94H27.3043L25.1263 68.03L27.5243 71H26.0833L23.6633 68.03L25.8523 65.94ZM27.6136 65.94H30.8146V66.985H27.6136V65.94ZM28.6366 66.16H29.8026V71H28.6366V66.16ZM30.9222 68.921V67.854H33.1772V68.921H30.9222ZM39.1485 64.499H35.4305V71H34.1105V63.3H40.4575V71H39.1485V64.499ZM42.4188 68.745V67.931H45.5978C45.5685 67.689 45.5025 67.48 45.3998 67.304C45.3045 67.1207 45.1688 66.9813 44.9928 66.886C44.8168 66.7833 44.6005 66.732 44.3438 66.732C44.0798 66.732 43.8415 66.7907 43.6288 66.908C43.4162 67.018 43.2475 67.183 43.1228 67.403C42.9982 67.6157 42.9358 67.8687 42.9358 68.162L42.9138 68.47C42.9138 68.844 42.9725 69.1557 43.0898 69.405C43.2145 69.647 43.3832 69.8303 43.5958 69.955C43.8158 70.0723 44.0688 70.131 44.3548 70.131C44.5895 70.131 44.7948 70.098 44.9708 70.032C45.1542 69.966 45.3155 69.8743 45.4548 69.757C45.5942 69.6323 45.7115 69.4893 45.8068 69.328L46.8298 69.746C46.6612 70.0173 46.4668 70.2557 46.2468 70.461C46.0342 70.6663 45.7702 70.8277 45.4548 70.945C45.1468 71.055 44.7618 71.11 44.2998 71.11C43.7792 71.11 43.3245 70.9963 42.9358 70.769C42.5472 70.5417 42.2465 70.23 42.0338 69.834C41.8212 69.4307 41.7148 68.976 41.7148 68.47C41.7148 68.3747 41.7185 68.283 41.7258 68.195C41.7332 68.107 41.7442 68.019 41.7588 67.931C41.8322 67.513 41.9788 67.1463 42.1988 66.831C42.4262 66.5157 42.7232 66.27 43.0898 66.094C43.4565 65.918 43.8782 65.83 44.3548 65.83C44.8755 65.83 45.3228 65.9363 45.6968 66.149C46.0782 66.3543 46.3715 66.6513 46.5768 67.04C46.7822 67.4213 46.8848 67.8797 46.8848 68.415C46.8848 68.459 46.8848 68.5103 46.8848 68.569C46.8848 68.6203 46.8775 68.679 46.8628 68.745H42.4188ZM47.3255 65.94H50.5265V66.985H47.3255V65.94ZM48.3485 66.16H49.5145V71H48.3485V66.16ZM51.496 68.745V67.931H54.675C54.6456 67.689 54.5796 67.48 54.477 67.304C54.3816 67.1207 54.246 66.9813 54.07 66.886C53.894 66.7833 53.6776 66.732 53.421 66.732C53.157 66.732 52.9186 66.7907 52.706 66.908C52.4933 67.018 52.3246 67.183 52.2 67.403C52.0753 67.6157 52.013 67.8687 52.013 68.162L51.991 68.47C51.991 68.844 52.0496 69.1557 52.167 69.405C52.2916 69.647 52.4603 69.8303 52.673 69.955C52.893 70.0723 53.146 70.131 53.432 70.131C53.6666 70.131 53.872 70.098 54.048 70.032C54.2313 69.966 54.3926 69.8743 54.532 69.757C54.6713 69.6323 54.7886 69.4893 54.884 69.328L55.907 69.746C55.7383 70.0173 55.544 70.2557 55.324 70.461C55.1113 70.6663 54.8473 70.8277 54.532 70.945C54.224 71.055 53.839 71.11 53.377 71.11C52.8563 71.11 52.4016 70.9963 52.013 70.769C51.6243 70.5417 51.3236 70.23 51.111 69.834C50.8983 69.4307 50.792 68.976 50.792 68.47C50.792 68.3747 50.7956 68.283 50.803 68.195C50.8103 68.107 50.8213 68.019 50.836 67.931C50.9093 67.513 51.056 67.1463 51.276 66.831C51.5033 66.5157 51.8003 66.27 52.167 66.094C52.5336 65.918 52.9553 65.83 53.432 65.83C53.9526 65.83 54.4 65.9363 54.774 66.149C55.1553 66.3543 55.4486 66.6513 55.654 67.04C55.8593 67.4213 55.962 67.8797 55.962 68.415C55.962 68.459 55.962 68.5103 55.962 68.569C55.962 68.6203 55.9546 68.679 55.94 68.745H51.496ZM58.2617 73.42H57.0627V65.94H58.2617V73.42ZM62.4527 68.47C62.4527 69.0273 62.339 69.5077 62.1117 69.911C61.8843 70.307 61.5837 70.6113 61.2097 70.824C60.8357 71.0293 60.4287 71.132 59.9887 71.132C59.556 71.132 59.1783 71.0257 58.8557 70.813C58.5403 70.593 58.2947 70.285 58.1187 69.889C57.95 69.4857 57.8657 69.0127 57.8657 68.47C57.8657 67.92 57.95 67.447 58.1187 67.051C58.2947 66.655 58.5403 66.3507 58.8557 66.138C59.1783 65.918 59.556 65.808 59.9887 65.808C60.4287 65.808 60.8357 65.9143 61.2097 66.127C61.5837 66.3323 61.8843 66.633 62.1117 67.029C62.339 67.425 62.4527 67.9053 62.4527 68.47ZM61.2207 68.47C61.2207 68.1327 61.151 67.8467 61.0117 67.612C60.8723 67.37 60.6853 67.1903 60.4507 67.073C60.2233 66.9483 59.9703 66.886 59.6917 66.886C59.4643 66.886 59.2407 66.9483 59.0207 67.073C58.8007 67.1903 58.6173 67.3663 58.4707 67.601C58.3313 67.8357 58.2617 68.1253 58.2617 68.47C58.2617 68.8147 58.3313 69.1043 58.4707 69.339C58.6173 69.5737 58.8007 69.7533 59.0207 69.878C59.2407 69.9953 59.4643 70.054 59.6917 70.054C59.9703 70.054 60.2233 69.9953 60.4507 69.878C60.6853 69.7533 60.8723 69.5737 61.0117 69.339C61.151 69.097 61.2207 68.8073 61.2207 68.47ZM65.9932 66.875L66.0482 65.83C66.5615 65.83 67.0199 65.9437 67.4232 66.171C67.8265 66.3983 68.1419 66.71 68.3692 67.106C68.6039 67.502 68.7212 67.9567 68.7212 68.47C68.7212 68.976 68.6039 69.4307 68.3692 69.834C68.1345 70.23 67.8119 70.5417 67.4012 70.769C66.9979 70.9963 66.5285 71.11 65.9932 71.11C65.4652 71.11 64.9885 70.989 64.5632 70.747C64.1452 70.4977 63.8152 70.1273 63.5732 69.636C63.3312 69.1447 63.2102 68.536 63.2102 67.81L64.4752 68.47C64.4752 68.7853 64.5412 69.064 64.6732 69.306C64.8125 69.5407 64.9959 69.7277 65.2232 69.867C65.4505 69.999 65.7072 70.065 65.9932 70.065C66.2792 70.065 66.5359 69.999 66.7632 69.867C66.9905 69.7277 67.1702 69.5407 67.3022 69.306C67.4342 69.064 67.5002 68.7853 67.5002 68.47C67.5002 68.1547 67.4342 67.876 67.3022 67.634C67.1702 67.392 66.9905 67.205 66.7632 67.073C66.5359 66.941 66.2792 66.875 65.9932 66.875ZM63.9362 68.47C63.9362 68.0593 63.9875 67.6927 64.0902 67.37C64.1929 67.04 64.3359 66.7613 64.5192 66.534C64.7099 66.3067 64.9335 66.1343 65.1902 66.017C65.4469 65.8923 65.7329 65.83 66.0482 65.83L65.9932 66.875C65.8172 66.875 65.6375 66.9117 65.4542 66.985C65.2782 67.051 65.1169 67.1537 64.9702 67.293C64.8235 67.425 64.7025 67.59 64.6072 67.788C64.5192 67.986 64.4752 68.2133 64.4752 68.47H63.9362ZM63.2102 67.81C63.2102 67.1207 63.2725 66.512 63.3972 65.984C63.5292 65.456 63.7565 65.0087 64.0792 64.642C64.4092 64.268 64.8639 63.9747 65.4432 63.762C65.9419 63.5787 66.3195 63.377 66.5762 63.157C66.8329 62.9297 66.9869 62.684 67.0382 62.42H68.1932C68.1565 62.7427 68.0392 63.0433 67.8412 63.322C67.6432 63.6007 67.3829 63.8463 67.0602 64.059C66.7449 64.2643 66.3855 64.4367 65.9822 64.576C65.5275 64.7373 65.1719 64.9573 64.9152 65.236C64.6659 65.5147 64.4935 65.83 64.3982 66.182C64.3029 66.534 64.2552 66.8933 64.2552 67.26L64.3652 68.415L63.2102 67.81ZM74.3454 65.94L71.0454 73.42H69.7804L71.1004 70.406L69.0654 65.94H70.4294L72.0464 69.944L71.4854 69.911L73.0694 65.94H74.3454ZM76.2119 73.42H75.0129V65.94H76.2119V73.42ZM80.4029 68.47C80.4029 69.0273 80.2892 69.5077 80.0619 69.911C79.8345 70.307 79.5339 70.6113 79.1599 70.824C78.7859 71.0293 78.3789 71.132 77.9389 71.132C77.5062 71.132 77.1285 71.0257 76.8059 70.813C76.4905 70.593 76.2449 70.285 76.0689 69.889C75.9002 69.4857 75.8159 69.0127 75.8159 68.47C75.8159 67.92 75.9002 67.447 76.0689 67.051C76.2449 66.655 76.4905 66.3507 76.8059 66.138C77.1285 65.918 77.5062 65.808 77.9389 65.808C78.3789 65.808 78.7859 65.9143 79.1599 66.127C79.5339 66.3323 79.8345 66.633 80.0619 67.029C80.2892 67.425 80.4029 67.9053 80.4029 68.47ZM79.1709 68.47C79.1709 68.1327 79.1012 67.8467 78.9619 67.612C78.8225 67.37 78.6355 67.1903 78.4009 67.073C78.1735 66.9483 77.9205 66.886 77.6419 66.886C77.4145 66.886 77.1909 66.9483 76.9709 67.073C76.7509 67.1903 76.5675 67.3663 76.4209 67.601C76.2815 67.8357 76.2119 68.1253 76.2119 68.47C76.2119 68.8147 76.2815 69.1043 76.4209 69.339C76.5675 69.5737 76.7509 69.7533 76.9709 69.878C77.1909 69.9953 77.4145 70.054 77.6419 70.054C77.9205 70.054 78.1735 69.9953 78.4009 69.878C78.6355 69.7533 78.8225 69.5737 78.9619 69.339C79.1012 69.097 79.1709 68.8073 79.1709 68.47ZM81.5784 65.94H84.4824V66.985H82.7554V71H81.5784V65.94Z" fill="#FBFBFB"/>
<defs>
<linearGradient id="paint0_linear_1196_37010" x1="28.877" y1="36.9223" x2="51.4091" y2="13.2546" gradientUnits="userSpaceOnUse">
<stop stop-color="#C4C4C4"/>
<stop offset="0.451" stop-color="#F5F5F5"/>
<stop offset="0.6784" stop-color="#CECECE"/>
<stop offset="1" stop-color="#D4D4D4"/>
</linearGradient>
<linearGradient id="paint1_linear_1196_37010" x1="25.8012" y1="49.455" x2="19.4894" y2="58.3647" gradientUnits="userSpaceOnUse">
<stop stop-color="#C4C4C4"/>
<stop offset="0.451" stop-color="#F5F5F5"/>
<stop offset="0.6784" stop-color="#CECECE"/>
<stop offset="1" stop-color="#D4D4D4"/>
</linearGradient>
</defs>
</svg>
