<svg width="95" height="112" viewBox="0 0 95 112" fill="none" xmlns="http://www.w3.org/2000/svg">
<path d="M55.1133 110.282L6.94391 92.6898C-1.23292 89.3013 -1.0879 90.6895 1.79105 82.7014L29.4476 7.01004C33.2836 -1.27036 30.6826 -1.25432 39.8181 2.13169L88.1523 19.6557C96.2788 22.6976 96.2791 21.1984 92.7649 29.6972L65.3228 105.641C62.2956 113.465 61.6395 112.824 55.1133 110.282Z" fill="url(#paint0_linear_619_14232)"/>
<path d="M86.7272 30.5297L33.8096 11.3439L28.8174 25.0069L81.7349 44.1927L86.7272 30.5297Z" fill="#101213"/>
<path d="M85.9045 27.0989L72.821 22.3553C71.821 21.9928 71.2939 20.8524 71.6614 19.8465L71.9371 19.0921C72.3046 18.0863 73.4442 17.5502 74.4442 17.9128L87.4445 22.6261C88.4445 22.9887 88.9715 24.129 88.604 25.1349L88.3284 25.8893C88.0442 26.9254 86.9045 27.4615 85.9045 27.0989Z" fill="#101213"/>
<path d="M29.1044 60.8982L17.2708 56.6079L14.4225 64.4033L26.256 68.6937L29.1044 60.8982Z" fill="#101213"/>
<path d="M42.7713 65.8533L30.9377 61.5629L28.0894 69.3584L39.9229 73.6488L42.7713 65.8533Z" fill="#101213"/>
<path d="M56.3548 70.7782L44.5213 66.4878L41.6729 74.2833L53.5065 78.5736L56.3548 70.7782Z" fill="#101213"/>
<path d="M69.8551 75.6728L58.0215 71.3825L55.1732 79.1779L67.0067 83.4683L69.8551 75.6728Z" fill="#101213"/>
<path d="M32.6878 51.0911L20.8542 46.8007L18.0059 54.5961L29.8394 58.8865L32.6878 51.0911Z" fill="#101213"/>
<path d="M46.3547 56.0461L34.5211 51.7558L31.6728 59.5512L43.5063 63.8416L46.3547 56.0461Z" fill="#101213"/>
<path d="M59.9382 60.971L48.1047 56.6806L45.2564 64.4761L57.0899 68.7664L59.9382 60.971Z" fill="#101213"/>
<path d="M73.4385 65.8656L61.6049 61.5753L58.7566 69.3707L70.5901 73.6611L73.4385 65.8656Z" fill="#101213"/>
<path d="M36.3018 41.2L24.4683 36.9097L21.6199 44.7051L33.4535 48.9955L36.3018 41.2Z" fill="#101213"/>
<path d="M49.9687 46.1551L38.1352 41.8647L35.2868 49.6602L47.1204 53.9506L49.9687 46.1551Z" fill="#101213"/>
<path d="M63.5523 51.08L51.7187 46.7896L48.8704 54.5851L60.7039 58.8754L63.5523 51.08Z" fill="#101213"/>
<path d="M77.0525 55.9746L65.219 51.6843L62.3706 59.4797L74.2041 63.7701L77.0525 55.9746Z" fill="#101213"/>
<path d="M35.1458 37.6484L27.5624 34.8989C26.3957 34.4759 25.7632 33.1075 26.192 31.934C26.6207 30.7604 27.9883 30.1171 29.155 30.5401L36.7384 33.2896C37.9051 33.7126 38.5376 35.081 38.1088 36.2545C37.68 37.428 36.3125 38.0713 35.1458 37.6484Z" fill="#101213"/>
<path d="M48.8127 42.6034L41.2292 39.854C40.0626 39.431 39.4301 38.0625 39.8589 36.889C40.2876 35.7155 41.6552 35.0722 42.8219 35.4952L50.4053 38.2447C51.572 38.6677 52.2045 40.0361 51.7757 41.2096C51.3469 42.3831 50.0627 43.0566 48.8127 42.6034Z" fill="#101213"/>
<path d="M62.4796 47.5585L54.8961 44.809C53.7295 44.386 53.097 43.0176 53.5258 41.8441C53.9545 40.6706 55.3221 40.0273 56.4888 40.4503L64.0722 43.1998C65.2389 43.6227 65.8714 44.9912 65.4426 46.1647C64.9305 47.308 63.6463 47.9815 62.4796 47.5585Z" fill="#101213"/>
<path d="M75.8965 52.4229L68.313 49.6735C67.1464 49.2505 66.5139 47.882 66.9426 46.7085C67.3714 45.535 68.739 44.8917 69.9057 45.3147L77.4891 48.0642C78.6558 48.4872 79.2883 49.8556 78.8595 51.0291C78.4307 52.2026 77.0632 52.8459 75.8965 52.4229Z" fill="#101213"/>
<path d="M66.241 85.5638L54.4075 81.2734L51.5592 89.0689L63.3927 93.3593L66.241 85.5638Z" fill="#101213"/>
<path d="M62.5964 95.5386L50.7628 91.2483L47.9145 99.0437L59.748 103.334L62.5964 95.5386Z" fill="#101213"/>
<path d="M25.4903 70.7892L13.6568 66.4989L10.8085 74.2943L22.642 78.5847L25.4903 70.7892Z" fill="#101213"/>
<path d="M39.1572 75.7443L27.3237 71.4539L24.4754 79.2494L36.3089 83.5398L39.1572 75.7443Z" fill="#101213"/>
<path d="M52.7408 80.6692L40.9073 76.3788L38.0589 84.1742L49.8925 88.4646L52.7408 80.6692Z" fill="#101213"/>
<path d="M21.8457 80.7641L10.0122 76.4737L7.1638 84.2691L18.9973 88.5595L21.8457 80.7641Z" fill="#101213"/>
<path d="M35.5126 85.7191L23.679 81.4288L20.8307 89.2242L32.6642 93.5146L35.5126 85.7191Z" fill="#101213"/>
<path d="M49.0961 90.644L37.2626 86.3536L34.4143 94.1491L46.2478 98.4394L49.0961 90.644Z" fill="#101213"/>
<path d="M57.9104 97.257L53.827 95.7766L53.5207 96.6148L57.6041 98.0953L57.9104 97.257Z" fill="#A4A4A4"/>
<path d="M57.4816 98.4305L53.3982 96.9501L53.0919 97.7883L57.1753 99.2688L57.4816 98.4305Z" fill="#A4A4A4"/>
<path d="M61.2046 87.7247L57.4546 86.3651L57.1483 87.2033L60.8983 88.5629L61.2046 87.7247Z" fill="#A4A4A4"/>
<path d="M60.2559 85.6721L59.4225 85.3699L58.0443 89.1419L58.8777 89.4441L60.2559 85.6721Z" fill="#A4A4A4"/>
<path d="M65.9251 65.6397L65.1193 66.0189L66.797 69.6472L67.6027 69.2681L65.9251 65.6397Z" fill="#9C9C9D"/>
<path d="M68.0471 66.4077L64.4209 68.1135L64.7936 68.9199L68.4198 67.2141L68.0471 66.4077Z" fill="#A4A4A4"/>
<path d="M64.8186 77.8337L61.0686 76.4741L60.7623 77.3123L64.5124 78.6719L64.8186 77.8337Z" fill="#A4A4A4"/>
<path d="M72.0467 58.0517L68.2966 56.6921L67.9904 57.5303L71.7404 58.8899L72.0467 58.0517Z" fill="#A4A4A4"/>
<path d="M71.1642 56.5926C71.0417 56.9279 70.6692 57.1726 70.2525 57.0215C69.9192 56.9006 69.6777 56.5283 69.8309 56.1092C69.9534 55.7739 70.3259 55.5293 70.7426 55.6803C71.0453 55.885 71.2867 56.2573 71.1642 56.5926Z" fill="#A4A4A4"/>
<path d="M70.1229 59.4426C70.0004 59.7779 69.6279 60.0225 69.2112 59.8715C68.8779 59.7506 68.6364 59.3783 68.7895 58.9592C68.912 58.6239 69.2846 58.3792 69.7012 58.5303C70.0346 58.6512 70.276 59.0235 70.1229 59.4426Z" fill="#A4A4A4"/>
<path d="M13.2173 81.9074C13.6767 80.6501 14.3911 80.2446 15.1412 80.5166C15.8912 80.7885 16.1462 81.6404 15.7174 82.8139C15.258 84.0712 14.5129 84.5605 13.7629 84.2886C13.0129 84.0166 12.7885 83.081 13.2173 81.9074ZM14.9674 82.5419C15.3349 81.5361 15.1768 81.194 14.8434 81.0731C14.5101 80.9523 14.1682 81.1131 13.8007 82.1189C13.4331 83.1248 13.5606 83.5507 13.894 83.6716C14.3413 83.7388 14.5998 83.5478 14.9674 82.5419Z" fill="#FBFBFB"/>
<path d="M25.4675 86.3489C25.9269 85.0916 26.6413 84.6861 27.3914 84.958C28.1414 85.2299 28.3964 86.0818 27.9676 87.2553C27.5082 88.5126 26.7631 89.0019 26.0131 88.73C25.2631 88.4581 25.0387 87.5224 25.4675 86.3489ZM27.3009 87.0136C27.6684 86.0077 27.5103 85.6656 27.177 85.5448C26.8436 85.4239 26.5017 85.5847 26.1342 86.5906C25.7667 87.5965 25.8942 88.0224 26.2275 88.1433C26.5609 88.2641 26.9334 88.0195 27.3009 87.0136Z" fill="#FBFBFB"/>
<path d="M28.4676 87.4366C28.927 86.1793 29.6414 85.7738 30.3914 86.0457C31.1414 86.3176 31.3964 87.1695 30.9676 88.343C30.5082 89.6003 29.7632 90.0896 29.0132 89.8177C28.2938 89.462 28.0388 88.6101 28.4676 87.4366ZM30.2176 88.0711C30.5851 87.0652 30.427 86.7231 30.0937 86.6022C29.7603 86.4814 29.4185 86.6422 29.0509 87.6481C28.6834 88.6539 28.8109 89.0799 29.1442 89.2007C29.5915 89.268 29.8501 89.0769 30.2176 88.0711Z" fill="#FBFBFB"/>
<path d="M41.3624 91.9219C41.4543 91.6704 41.7962 91.5096 42.0462 91.6002C42.2962 91.6909 42.4543 92.033 42.3624 92.2844C42.2705 92.5359 41.9286 92.6967 41.6786 92.6061C41.4286 92.5154 41.2705 92.1733 41.3624 91.9219Z" fill="#FBFBFB"/>
<path d="M16.4467 73.5857L17.2801 73.8878L18.107 71.6246L17.4403 71.3829L17.5935 70.9638C17.9574 71.0008 18.2381 71.0076 18.5493 70.9306L19.1327 71.1421L18.0301 74.1597L18.6968 74.4014L18.4824 74.9882L16.2323 74.1724L16.4467 73.5857Z" fill="#FBFBFB"/>
<path d="M29.969 78.6782C31.306 78.1187 32.1343 77.6596 32.3181 77.1567C32.4406 76.8214 32.3658 76.5095 31.9491 76.3584C31.6991 76.2678 31.3879 76.3448 31.1293 76.5358L30.8658 75.9656C31.3216 75.7512 31.7469 75.6206 32.2469 75.8019C32.9135 76.0436 33.2604 76.644 33.0154 77.3146C32.7704 77.9851 31.9726 78.3604 31.0303 78.8731C31.197 78.9335 31.447 79.0242 31.6137 79.0846L32.447 79.3867L32.2326 79.9735L29.7326 79.0671L29.8857 78.648L29.969 78.6782Z" fill="#FBFBFB"/>
<path d="M43.7193 83.6635L44.2364 83.2814C44.3945 83.6235 44.5833 83.8818 44.9166 84.0026C45.2499 84.1235 45.6445 84.0767 45.767 83.7414C45.8895 83.4061 45.7314 83.064 44.9814 82.7921L45.1652 82.2892C45.8319 82.5309 46.1737 82.37 46.2656 82.1186C46.3575 81.8671 46.2521 81.639 45.9187 81.5182C45.6687 81.4275 45.3881 81.4207 45.1296 81.6118L44.9494 81.0718C45.3746 80.9412 45.7998 80.8106 46.2165 80.9616C46.9665 81.2336 47.2607 81.7199 47.0156 82.3905C46.8625 82.8096 46.5206 82.9704 46.126 83.0172C46.5121 83.2521 46.7229 83.7083 46.5391 84.2112C46.2941 84.8818 45.5576 85.0894 44.8076 84.8175C44.2022 84.4081 43.8774 84.0056 43.7193 83.6635Z" fill="#FBFBFB"/>
<path d="M19.8193 63.3224L20.0031 62.8194L22.2161 61.1537L23.1328 61.486L22.3364 63.6654L22.7531 63.8165L22.5387 64.4032L22.1221 64.2522L21.7852 65.1742L21.1185 64.9325L21.486 63.9266L19.8193 63.3224ZM21.6171 63.3097L21.8927 62.5553C21.9846 62.3038 22.1071 61.9685 22.1684 61.8009C22.0238 61.9383 21.8485 62.1596 21.6206 62.2668L20.7004 62.9773L21.6171 63.3097Z" fill="#FBFBFB"/>
<path d="M33.4997 68.757L34.0168 68.3749C34.2056 68.6332 34.3943 68.8915 34.7277 69.0123C35.1444 69.1634 35.4862 69.0026 35.6394 68.5834C35.7925 68.1643 35.6038 67.906 35.2704 67.7852C35.0204 67.6946 34.9065 67.7482 34.6258 67.7413L34.3231 67.5367L35.0803 65.7228L37.0803 66.4479L36.8659 67.0347L35.5325 66.5513L35.1736 67.2754C35.3709 67.2521 35.4542 67.2823 35.6209 67.3427C36.2042 67.5542 36.665 68.101 36.3894 68.8554C36.0831 69.6936 35.3466 69.9012 34.5966 69.6293C33.952 69.5854 33.6272 69.1829 33.4997 68.757Z" fill="#FBFBFB"/>
<path d="M47.8761 72.5453C48.3661 71.2042 49.2778 70.7753 50.0278 71.0472C50.4445 71.1983 50.7166 71.4868 50.8747 71.8289L50.3049 72.097C50.1995 71.8689 50.0634 71.7246 49.8134 71.634C49.3967 71.4829 48.9409 71.6974 48.5206 72.5892C48.7792 72.3982 49.1738 72.3514 49.4238 72.442C50.0071 72.6535 50.3846 73.1701 50.109 73.9245C49.8333 74.6789 49.1802 74.9167 48.5135 74.675C47.8689 74.6311 47.4166 73.8027 47.8761 72.5453ZM48.3896 73.2062C48.2585 73.8231 48.4167 74.1652 48.6667 74.2559C48.9167 74.3465 49.2586 74.1857 49.4117 73.7666C49.5648 73.3475 49.3761 73.0892 49.1261 72.9986C48.9594 72.9381 48.7621 72.9615 48.3896 73.2062Z" fill="#FBFBFB"/>
<path d="M26.063 51.9167L24.3963 51.3124L24.6107 50.7256L27.1108 51.6321L26.9576 52.0512C25.7567 52.7549 25.3144 53.4489 24.7938 54.8738L24.0438 54.6019C24.5032 53.3446 25.0288 52.6808 26.063 51.9167Z" fill="#FBFBFB"/>
<path d="M37.3809 58.3932C37.534 57.9741 37.9899 57.7597 38.3844 57.7129C38.1957 57.4546 38.0682 57.0287 38.1907 56.6934C38.4051 56.1066 39.0583 55.8688 39.6416 56.0803C40.3083 56.322 40.5718 56.8922 40.3574 57.479C40.2349 57.8143 39.8624 58.0589 39.5511 58.1359C39.8232 58.4244 39.9813 58.7665 39.7976 59.2694C39.5832 59.8562 38.93 60.094 38.18 59.8221C37.5967 59.6106 37.1665 58.98 37.3809 58.3932ZM39.2142 59.0579C39.3367 58.7227 39.0647 58.4342 38.6259 58.0852C38.398 58.1924 38.1394 58.3835 38.0475 58.635C37.925 58.9702 38.0832 59.3123 38.4165 59.4332C38.7805 59.4702 39.1223 59.3094 39.2142 59.0579ZM39.7741 57.2675C39.8966 56.9322 39.7912 56.7041 39.4578 56.5833C39.2078 56.4926 38.9799 56.5998 38.888 56.8513C38.7655 57.1866 38.9543 57.4449 39.3097 57.7636C39.5376 57.6564 39.6822 57.5189 39.7741 57.2675Z" fill="#FBFBFB"/>
<path d="M51 63.9955L51.5699 63.7275C51.6753 63.9555 51.8113 64.0998 52.0613 64.1904C52.478 64.3415 52.9338 64.1271 53.3541 63.2352C53.0955 63.4263 52.7009 63.473 52.4509 63.3824C51.8676 63.1709 51.4901 62.6543 51.7657 61.8999C52.0414 61.1455 52.6945 60.9077 53.3612 61.1494C54.0279 61.3911 54.5108 62.1358 54.0514 63.3931C53.5613 64.7343 52.6496 65.1631 51.8996 64.8912C51.4303 64.6261 51.1888 64.2538 51 63.9955ZM52.7487 62.8259C52.9153 62.8863 53.196 62.8931 53.4851 62.6183C53.6162 62.0013 53.4581 61.6592 53.1247 61.5383C52.8747 61.4477 52.5328 61.6085 52.3797 62.0276C52.3099 62.4769 52.4153 62.705 52.7487 62.8259Z" fill="#FBFBFB"/>
<path d="M27.3195 43.8288L28.1528 44.131L28.9797 41.8678L28.3131 41.6261L28.4662 41.207C28.8302 41.244 29.1108 41.2508 29.4221 41.1738L30.0054 41.3853L28.9028 44.4029L29.5695 44.6446L29.3551 45.2314L27.1051 44.4156L27.3195 43.8288Z" fill="#FBFBFB"/>
<path d="M40.8418 48.9213C42.1787 48.3619 43.007 47.9028 43.1908 47.3998C43.3133 47.0646 43.2385 46.7527 42.8219 46.6016C42.5719 46.511 42.2606 46.588 42.002 46.779L41.7385 46.2088C42.1944 45.9944 42.6196 45.8638 43.1196 46.0451C43.7863 46.2868 44.1331 46.8872 43.8881 47.5577C43.6431 48.2283 42.8454 48.6036 41.903 49.1163C42.0697 49.1767 42.3197 49.2673 42.4864 49.3278L43.3197 49.6299L43.1053 50.2166L40.6053 49.3102L40.7584 48.8911L40.8418 48.9213Z" fill="#FBFBFB"/>
<path d="M54.592 53.9066L55.1091 53.5246C55.2672 53.8667 55.456 54.1249 55.7893 54.2458C56.1227 54.3667 56.5172 54.3199 56.6398 53.9846C56.7623 53.6493 56.6041 53.3072 55.8541 53.0353L56.0379 52.5323C56.7046 52.774 57.0465 52.6132 57.1383 52.3617C57.2302 52.1103 57.1248 51.8822 56.7915 51.7614C56.5415 51.6707 56.2608 51.6639 56.0023 51.8549L55.8221 51.315C56.2473 51.1844 56.6725 51.0537 57.0892 51.2048C57.8392 51.4767 58.1334 51.9631 57.8884 52.6337C57.7352 53.0528 57.3933 53.2136 56.9987 53.2604C57.3848 53.4953 57.5956 53.9514 57.4118 54.4544C57.1668 55.1249 56.4304 55.3326 55.6803 55.0606C55.0749 54.6513 54.7501 54.2487 54.592 53.9066Z" fill="#FBFBFB"/>
<defs>
<linearGradient id="paint0_linear_619_14232" x1="54.1999" y1="-7.57616" x2="7.14124" y2="6.34637" gradientUnits="userSpaceOnUse">
<stop stop-color="#C4C4C4"/>
<stop offset="0.451" stop-color="#F5F5F5"/>
<stop offset="0.6784" stop-color="#CECECE"/>
<stop offset="1" stop-color="#D4D4D4"/>
</linearGradient>
</defs>
</svg>
