<svg width="549" height="201" viewBox="0 0 549 201" fill="none" xmlns="http://www.w3.org/2000/svg">
<path d="M45 73.0469H547.949" stroke="#4F4F4F"/>
<path d="M45 42.168H547.949" stroke="#4F4F4F"/>
<path d="M45 102.785H547.949" stroke="#4F4F4F"/>
<path d="M45 133.664H547.949" stroke="#4F4F4F"/>
<path d="M45 164.543H547.949" stroke="#4F4F4F"/>
<path d="M214.766 9L214.766 200" stroke="#4F4F4F"/>
<path d="M381.383 9L381.383 200" stroke="#4F4F4F"/>
<path d="M548 9L548 200" stroke="#4F4F4F"/>
<path d="M80.7523 86.32C80.7523 86.832 80.8589 87.2853 81.0723 87.68C81.2963 88.064 81.5949 88.368 81.9683 88.592C82.3523 88.816 82.7843 88.928 83.2643 88.928C83.7443 88.928 84.1709 88.816 84.5443 88.592C84.9283 88.368 85.2269 88.064 85.4403 87.68C85.6643 87.2853 85.7763 86.832 85.7763 86.32C85.7763 85.808 85.6643 85.3547 85.4403 84.96C85.2269 84.5547 84.9283 84.24 84.5443 84.016C84.1709 83.792 83.7443 83.68 83.2643 83.68C82.7843 83.68 82.3523 83.792 81.9683 84.016C81.5949 84.24 81.2963 84.5547 81.0723 84.96C80.8589 85.3547 80.7523 85.808 80.7523 86.32ZM83.9363 78.8H85.6483L82.1443 83.424L82.0483 83.344C82.2616 83.0773 82.5069 82.9013 82.7843 82.816C83.0723 82.7307 83.3976 82.688 83.7603 82.688C84.2189 82.688 84.6456 82.7787 85.0403 82.96C85.4456 83.1413 85.7976 83.3973 86.0963 83.728C86.4056 84.0587 86.6456 84.448 86.8163 84.896C86.9869 85.3333 87.0723 85.808 87.0723 86.32C87.0723 87.088 86.9016 87.76 86.5603 88.336C86.2296 88.912 85.7763 89.36 85.2003 89.68C84.6349 90 83.9896 90.16 83.2643 90.16C82.5496 90.16 81.9043 90 81.3283 89.68C80.7523 89.36 80.2936 88.912 79.9523 88.336C79.6216 87.76 79.4563 87.088 79.4563 86.32C79.4563 85.8613 79.5203 85.4347 79.6483 85.04C79.7763 84.6453 79.9469 84.2987 80.1603 84L83.9363 78.8ZM88.195 90L93.491 84.352C93.7363 84.0853 93.9443 83.824 94.115 83.568C94.2963 83.3013 94.4297 83.0347 94.515 82.768C94.611 82.4907 94.659 82.2027 94.659 81.904C94.659 81.6587 94.611 81.4187 94.515 81.184C94.419 80.9493 94.275 80.736 94.083 80.544C93.9017 80.352 93.6777 80.1973 93.411 80.08C93.1443 79.9627 92.8403 79.904 92.499 79.904C92.019 79.904 91.603 80.016 91.251 80.24C90.9097 80.4533 90.6483 80.768 90.467 81.184C90.2857 81.5893 90.195 82.0747 90.195 82.64H88.835C88.835 81.84 88.979 81.1413 89.267 80.544C89.555 79.936 89.971 79.4667 90.515 79.136C91.0697 78.7947 91.731 78.624 92.499 78.624C93.1177 78.624 93.651 78.7307 94.099 78.944C94.547 79.1467 94.915 79.4133 95.203 79.744C95.491 80.064 95.7043 80.4107 95.843 80.784C95.9817 81.1573 96.051 81.5147 96.051 81.856C96.051 82.432 95.9123 83.0027 95.635 83.568C95.3577 84.1333 95.0003 84.64 94.563 85.088L90.995 88.72H96.099V90H88.195ZM97.5444 81.2C97.5444 80.72 97.6457 80.288 97.8484 79.904C98.0617 79.52 98.3604 79.216 98.7444 78.992C99.1284 78.7573 99.571 78.64 100.072 78.64C100.584 78.64 101.027 78.7573 101.4 78.992C101.784 79.216 102.078 79.52 102.28 79.904C102.494 80.288 102.6 80.72 102.6 81.2C102.6 81.6693 102.494 82.1013 102.28 82.496C102.078 82.88 101.784 83.1893 101.4 83.424C101.027 83.648 100.584 83.76 100.072 83.76C99.571 83.76 99.1284 83.648 98.7444 83.424C98.3604 83.1893 98.0617 82.88 97.8484 82.496C97.6457 82.1013 97.5444 81.6693 97.5444 81.2ZM98.6804 81.2C98.6804 81.4667 98.7337 81.7173 98.8404 81.952C98.9577 82.1867 99.1177 82.3733 99.3204 82.512C99.5337 82.6507 99.7844 82.72 100.072 82.72C100.371 82.72 100.622 82.6507 100.824 82.512C101.027 82.3733 101.182 82.1867 101.288 81.952C101.406 81.7173 101.464 81.4667 101.464 81.2C101.464 80.9227 101.406 80.672 101.288 80.448C101.182 80.2133 101.027 80.0267 100.824 79.888C100.622 79.7493 100.371 79.68 100.072 79.68C99.7844 79.68 99.5337 79.7493 99.3204 79.888C99.1177 80.0267 98.9577 80.2133 98.8404 80.448C98.7337 80.672 98.6804 80.9227 98.6804 81.2ZM103.384 87.6C103.384 87.12 103.486 86.688 103.688 86.304C103.902 85.92 104.2 85.616 104.584 85.392C104.968 85.1573 105.411 85.04 105.912 85.04C106.424 85.04 106.867 85.1573 107.24 85.392C107.624 85.616 107.918 85.92 108.12 86.304C108.334 86.688 108.44 87.12 108.44 87.6C108.44 88.0693 108.334 88.5013 108.12 88.896C107.918 89.28 107.624 89.5893 107.24 89.824C106.867 90.048 106.424 90.16 105.912 90.16C105.411 90.16 104.968 90.048 104.584 89.824C104.2 89.5893 103.902 89.28 103.688 88.896C103.486 88.5013 103.384 88.0693 103.384 87.6ZM104.52 87.6C104.52 87.8667 104.574 88.1173 104.68 88.352C104.798 88.5867 104.958 88.7733 105.16 88.912C105.374 89.0507 105.624 89.12 105.912 89.12C106.211 89.12 106.462 89.0507 106.664 88.912C106.867 88.7733 107.022 88.5867 107.128 88.352C107.246 88.1173 107.304 87.8667 107.304 87.6C107.304 87.3227 107.246 87.072 107.128 86.848C107.022 86.6133 106.867 86.4267 106.664 86.288C106.462 86.1493 106.211 86.08 105.912 86.08C105.624 86.08 105.374 86.1493 105.16 86.288C104.958 86.4267 104.798 86.6133 104.68 86.848C104.574 87.072 104.52 87.3227 104.52 87.6ZM105.992 78.8H107.192L99.9924 90H98.7924L105.992 78.8Z" fill="#FBFBFB"/>
<path d="M199.867 150L205.163 144.352C205.408 144.085 205.616 143.824 205.787 143.568C205.968 143.301 206.102 143.035 206.187 142.768C206.283 142.491 206.331 142.203 206.331 141.904C206.331 141.659 206.283 141.419 206.187 141.184C206.091 140.949 205.947 140.736 205.755 140.544C205.574 140.352 205.35 140.197 205.083 140.08C204.816 139.963 204.512 139.904 204.171 139.904C203.691 139.904 203.275 140.016 202.923 140.24C202.582 140.453 202.32 140.768 202.139 141.184C201.958 141.589 201.867 142.075 201.867 142.64H200.507C200.507 141.84 200.651 141.141 200.939 140.544C201.227 139.936 201.643 139.467 202.187 139.136C202.742 138.795 203.403 138.624 204.171 138.624C204.79 138.624 205.323 138.731 205.771 138.944C206.219 139.147 206.587 139.413 206.875 139.744C207.163 140.064 207.376 140.411 207.515 140.784C207.654 141.157 207.723 141.515 207.723 141.856C207.723 142.432 207.584 143.003 207.307 143.568C207.03 144.133 206.672 144.64 206.235 145.088L202.667 148.72H207.771V150H199.867ZM208.976 147.76L215.184 138.8H215.744V150H214.384V147.184V147.008V141.824L211.216 146.56H214.944H215.216H217.504V147.76H208.976ZM218.544 141.2C218.544 140.72 218.646 140.288 218.848 139.904C219.062 139.52 219.36 139.216 219.744 138.992C220.128 138.757 220.571 138.64 221.072 138.64C221.584 138.64 222.027 138.757 222.4 138.992C222.784 139.216 223.078 139.52 223.28 139.904C223.494 140.288 223.6 140.72 223.6 141.2C223.6 141.669 223.494 142.101 223.28 142.496C223.078 142.88 222.784 143.189 222.4 143.424C222.027 143.648 221.584 143.76 221.072 143.76C220.571 143.76 220.128 143.648 219.744 143.424C219.36 143.189 219.062 142.88 218.848 142.496C218.646 142.101 218.544 141.669 218.544 141.2ZM219.68 141.2C219.68 141.467 219.734 141.717 219.84 141.952C219.958 142.187 220.118 142.373 220.32 142.512C220.534 142.651 220.784 142.72 221.072 142.72C221.371 142.72 221.622 142.651 221.824 142.512C222.027 142.373 222.182 142.187 222.288 141.952C222.406 141.717 222.464 141.467 222.464 141.2C222.464 140.923 222.406 140.672 222.288 140.448C222.182 140.213 222.027 140.027 221.824 139.888C221.622 139.749 221.371 139.68 221.072 139.68C220.784 139.68 220.534 139.749 220.32 139.888C220.118 140.027 219.958 140.213 219.84 140.448C219.734 140.672 219.68 140.923 219.68 141.2ZM224.384 147.6C224.384 147.12 224.486 146.688 224.688 146.304C224.902 145.92 225.2 145.616 225.584 145.392C225.968 145.157 226.411 145.04 226.912 145.04C227.424 145.04 227.867 145.157 228.24 145.392C228.624 145.616 228.918 145.92 229.12 146.304C229.334 146.688 229.44 147.12 229.44 147.6C229.44 148.069 229.334 148.501 229.12 148.896C228.918 149.28 228.624 149.589 228.24 149.824C227.867 150.048 227.424 150.16 226.912 150.16C226.411 150.16 225.968 150.048 225.584 149.824C225.2 149.589 224.902 149.28 224.688 148.896C224.486 148.501 224.384 148.069 224.384 147.6ZM225.52 147.6C225.52 147.867 225.574 148.117 225.68 148.352C225.798 148.587 225.958 148.773 226.16 148.912C226.374 149.051 226.624 149.12 226.912 149.12C227.211 149.12 227.462 149.051 227.664 148.912C227.867 148.773 228.022 148.587 228.128 148.352C228.246 148.117 228.304 147.867 228.304 147.6C228.304 147.323 228.246 147.072 228.128 146.848C228.022 146.613 227.867 146.427 227.664 146.288C227.462 146.149 227.211 146.08 226.912 146.08C226.624 146.08 226.374 146.149 226.16 146.288C225.958 146.427 225.798 146.613 225.68 146.848C225.574 147.072 225.52 147.323 225.52 147.6ZM226.992 138.8H228.192L220.992 150H219.792L226.992 138.8Z" fill="#FBFBFB"/>
<path d="M371.733 165.008V163.6L375.573 162.64V174H374.213V164.272L371.733 165.008ZM377.976 171.76L384.184 162.8H384.744V174H383.384V171.184V171.008V165.824L380.216 170.56H383.944H384.216H386.504V171.76H377.976ZM387.544 165.2C387.544 164.72 387.646 164.288 387.848 163.904C388.062 163.52 388.36 163.216 388.744 162.992C389.128 162.757 389.571 162.64 390.072 162.64C390.584 162.64 391.027 162.757 391.4 162.992C391.784 163.216 392.078 163.52 392.28 163.904C392.494 164.288 392.6 164.72 392.6 165.2C392.6 165.669 392.494 166.101 392.28 166.496C392.078 166.88 391.784 167.189 391.4 167.424C391.027 167.648 390.584 167.76 390.072 167.76C389.571 167.76 389.128 167.648 388.744 167.424C388.36 167.189 388.062 166.88 387.848 166.496C387.646 166.101 387.544 165.669 387.544 165.2ZM388.68 165.2C388.68 165.467 388.734 165.717 388.84 165.952C388.958 166.187 389.118 166.373 389.32 166.512C389.534 166.651 389.784 166.72 390.072 166.72C390.371 166.72 390.622 166.651 390.824 166.512C391.027 166.373 391.182 166.187 391.288 165.952C391.406 165.717 391.464 165.467 391.464 165.2C391.464 164.923 391.406 164.672 391.288 164.448C391.182 164.213 391.027 164.027 390.824 163.888C390.622 163.749 390.371 163.68 390.072 163.68C389.784 163.68 389.534 163.749 389.32 163.888C389.118 164.027 388.958 164.213 388.84 164.448C388.734 164.672 388.68 164.923 388.68 165.2ZM393.384 171.6C393.384 171.12 393.486 170.688 393.688 170.304C393.902 169.92 394.2 169.616 394.584 169.392C394.968 169.157 395.411 169.04 395.912 169.04C396.424 169.04 396.867 169.157 397.24 169.392C397.624 169.616 397.918 169.92 398.12 170.304C398.334 170.688 398.44 171.12 398.44 171.6C398.44 172.069 398.334 172.501 398.12 172.896C397.918 173.28 397.624 173.589 397.24 173.824C396.867 174.048 396.424 174.16 395.912 174.16C395.411 174.16 394.968 174.048 394.584 173.824C394.2 173.589 393.902 173.28 393.688 172.896C393.486 172.501 393.384 172.069 393.384 171.6ZM394.52 171.6C394.52 171.867 394.574 172.117 394.68 172.352C394.798 172.587 394.958 172.773 395.16 172.912C395.374 173.051 395.624 173.12 395.912 173.12C396.211 173.12 396.462 173.051 396.664 172.912C396.867 172.773 397.022 172.587 397.128 172.352C397.246 172.117 397.304 171.867 397.304 171.6C397.304 171.323 397.246 171.072 397.128 170.848C397.022 170.613 396.867 170.427 396.664 170.288C396.462 170.149 396.211 170.08 395.912 170.08C395.624 170.08 395.374 170.149 395.16 170.288C394.958 170.427 394.798 170.613 394.68 170.848C394.574 171.072 394.52 171.323 394.52 171.6ZM395.992 162.8H397.192L389.992 174H388.792L395.992 162.8Z" fill="#FBFBFB"/>
<rect x="45.5" y="9.5" width="502" height="190" stroke="#676767"/>
<rect x="63" y="97" width="60" height="102" fill="#FF8B02"/>
<rect x="185" y="157" width="60" height="42" fill="#FFB761"/>
<rect x="352" y="181" width="60" height="18" fill="#A4A4A4"/>
<path d="M20.5444 5.2C20.5444 4.72 20.6457 4.288 20.8484 3.904C21.0617 3.52 21.3604 3.216 21.7444 2.992C22.1284 2.75733 22.571 2.64 23.0724 2.64C23.5844 2.64 24.027 2.75733 24.4004 2.992C24.7844 3.216 25.0777 3.52 25.2804 3.904C25.4937 4.288 25.6004 4.72 25.6004 5.2C25.6004 5.66933 25.4937 6.10133 25.2804 6.496C25.0777 6.88 24.7844 7.18933 24.4004 7.424C24.027 7.648 23.5844 7.76 23.0724 7.76C22.571 7.76 22.1284 7.648 21.7444 7.424C21.3604 7.18933 21.0617 6.88 20.8484 6.496C20.6457 6.10133 20.5444 5.66933 20.5444 5.2ZM21.6804 5.2C21.6804 5.46667 21.7337 5.71733 21.8404 5.952C21.9577 6.18667 22.1177 6.37333 22.3204 6.512C22.5337 6.65067 22.7844 6.72 23.0724 6.72C23.371 6.72 23.6217 6.65067 23.8244 6.512C24.027 6.37333 24.1817 6.18667 24.2884 5.952C24.4057 5.71733 24.4644 5.46667 24.4644 5.2C24.4644 4.92267 24.4057 4.672 24.2884 4.448C24.1817 4.21333 24.027 4.02667 23.8244 3.888C23.6217 3.74933 23.371 3.68 23.0724 3.68C22.7844 3.68 22.5337 3.74933 22.3204 3.888C22.1177 4.02667 21.9577 4.21333 21.8404 4.448C21.7337 4.672 21.6804 4.92267 21.6804 5.2ZM26.3844 11.6C26.3844 11.12 26.4857 10.688 26.6884 10.304C26.9017 9.92 27.2004 9.616 27.5844 9.392C27.9684 9.15733 28.411 9.04 28.9124 9.04C29.4244 9.04 29.867 9.15733 30.2404 9.392C30.6244 9.616 30.9177 9.92 31.1204 10.304C31.3337 10.688 31.4404 11.12 31.4404 11.6C31.4404 12.0693 31.3337 12.5013 31.1204 12.896C30.9177 13.28 30.6244 13.5893 30.2404 13.824C29.867 14.048 29.4244 14.16 28.9124 14.16C28.411 14.16 27.9684 14.048 27.5844 13.824C27.2004 13.5893 26.9017 13.28 26.6884 12.896C26.4857 12.5013 26.3844 12.0693 26.3844 11.6ZM27.5204 11.6C27.5204 11.8667 27.5737 12.1173 27.6804 12.352C27.7977 12.5867 27.9577 12.7733 28.1604 12.912C28.3737 13.0507 28.6244 13.12 28.9124 13.12C29.211 13.12 29.4617 13.0507 29.6644 12.912C29.867 12.7733 30.0217 12.5867 30.1284 12.352C30.2457 12.1173 30.3044 11.8667 30.3044 11.6C30.3044 11.3227 30.2457 11.072 30.1284 10.848C30.0217 10.6133 29.867 10.4267 29.6644 10.288C29.4617 10.1493 29.211 10.08 28.9124 10.08C28.6244 10.08 28.3737 10.1493 28.1604 10.288C27.9577 10.4267 27.7977 10.6133 27.6804 10.848C27.5737 11.072 27.5204 11.3227 27.5204 11.6ZM28.9924 2.8H30.1924L22.9924 14H21.7924L28.9924 2.8Z" fill="#FBFBFB"/>
<path d="M24.4062 191.4C24.4062 192.051 24.4703 192.653 24.5983 193.208C24.7263 193.752 24.9129 194.227 25.1583 194.632C25.4036 195.027 25.6969 195.336 26.0383 195.56C26.3903 195.773 26.7796 195.88 27.2063 195.88C27.6436 195.88 28.0329 195.773 28.3743 195.56C28.7156 195.336 29.0089 195.027 29.2543 194.632C29.4996 194.227 29.6863 193.752 29.8143 193.208C29.9423 192.653 30.0063 192.051 30.0063 191.4C30.0063 190.749 29.9423 190.152 29.8143 189.608C29.6863 189.053 29.4996 188.579 29.2543 188.184C29.0089 187.779 28.7156 187.469 28.3743 187.256C28.0329 187.032 27.6436 186.92 27.2063 186.92C26.7796 186.92 26.3903 187.032 26.0383 187.256C25.6969 187.469 25.4036 187.779 25.1583 188.184C24.9129 188.579 24.7263 189.053 24.5983 189.608C24.4703 190.152 24.4062 190.749 24.4062 191.4ZM23.0463 191.4C23.0463 190.28 23.2223 189.288 23.5743 188.424C23.9263 187.56 24.4116 186.883 25.0303 186.392C25.6596 185.891 26.3849 185.64 27.2063 185.64C28.0276 185.64 28.7476 185.891 29.3663 186.392C29.9956 186.883 30.4863 187.56 30.8383 188.424C31.1903 189.288 31.3663 190.28 31.3663 191.4C31.3663 192.52 31.1903 193.512 30.8383 194.376C30.4863 195.24 29.9956 195.923 29.3663 196.424C28.7476 196.915 28.0276 197.16 27.2063 197.16C26.3849 197.16 25.6596 196.915 25.0303 196.424C24.4116 195.923 23.9263 195.24 23.5743 194.376C23.2223 193.512 23.0463 192.52 23.0463 191.4Z" fill="#FBFBFB"/>
<path d="M13.6169 167L18.9129 161.352C19.1582 161.085 19.3662 160.824 19.5369 160.568C19.7182 160.301 19.8515 160.035 19.9369 159.768C20.0329 159.491 20.0809 159.203 20.0809 158.904C20.0809 158.659 20.0329 158.419 19.9369 158.184C19.8409 157.949 19.6969 157.736 19.5049 157.544C19.3235 157.352 19.0995 157.197 18.8329 157.08C18.5662 156.963 18.2622 156.904 17.9209 156.904C17.4409 156.904 17.0249 157.016 16.6729 157.24C16.3315 157.453 16.0702 157.768 15.8889 158.184C15.7075 158.589 15.6169 159.075 15.6169 159.64H14.2569C14.2569 158.84 14.4009 158.141 14.6889 157.544C14.9769 156.936 15.3929 156.467 15.9369 156.136C16.4915 155.795 17.1529 155.624 17.9209 155.624C18.5395 155.624 19.0729 155.731 19.5209 155.944C19.9689 156.147 20.3369 156.413 20.6249 156.744C20.9129 157.064 21.1262 157.411 21.2649 157.784C21.4035 158.157 21.4729 158.515 21.4729 158.856C21.4729 159.432 21.3342 160.003 21.0569 160.568C20.7795 161.133 20.4222 161.64 19.9849 162.088L16.4169 165.72H21.5209V167H13.6169ZM24.4062 161.4C24.4062 162.051 24.4703 162.653 24.5983 163.208C24.7263 163.752 24.9129 164.227 25.1583 164.632C25.4036 165.027 25.6969 165.336 26.0383 165.56C26.3903 165.773 26.7796 165.88 27.2063 165.88C27.6436 165.88 28.0329 165.773 28.3743 165.56C28.7156 165.336 29.0089 165.027 29.2543 164.632C29.4996 164.227 29.6863 163.752 29.8143 163.208C29.9423 162.653 30.0063 162.051 30.0063 161.4C30.0063 160.749 29.9423 160.152 29.8143 159.608C29.6863 159.053 29.4996 158.579 29.2543 158.184C29.0089 157.779 28.7156 157.469 28.3743 157.256C28.0329 157.032 27.6436 156.92 27.2063 156.92C26.7796 156.92 26.3903 157.032 26.0383 157.256C25.6969 157.469 25.4036 157.779 25.1583 158.184C24.9129 158.579 24.7263 159.053 24.5983 159.608C24.4703 160.152 24.4062 160.749 24.4062 161.4ZM23.0463 161.4C23.0463 160.28 23.2223 159.288 23.5743 158.424C23.9263 157.56 24.4116 156.883 25.0303 156.392C25.6596 155.891 26.3849 155.64 27.2063 155.64C28.0276 155.64 28.7476 155.891 29.3663 156.392C29.9956 156.883 30.4863 157.56 30.8383 158.424C31.1903 159.288 31.3663 160.28 31.3663 161.4C31.3663 162.52 31.1903 163.512 30.8383 164.376C30.4863 165.24 29.9956 165.923 29.3663 166.424C28.7476 166.915 28.0276 167.16 27.2063 167.16C26.3849 167.16 25.6596 166.915 25.0303 166.424C24.4116 165.923 23.9263 165.24 23.5743 164.376C23.2223 163.512 23.0463 162.52 23.0463 161.4Z" fill="#FBFBFB"/>
<path d="M13.3981 134.76L19.6061 125.8H20.1661V137H18.8061V134.184V134.008V128.824L15.6381 133.56H19.3661H19.6381H21.9261V134.76H13.3981ZM24.4062 131.4C24.4062 132.051 24.4703 132.653 24.5983 133.208C24.7263 133.752 24.9129 134.227 25.1583 134.632C25.4036 135.027 25.6969 135.336 26.0383 135.56C26.3903 135.773 26.7796 135.88 27.2063 135.88C27.6436 135.88 28.0329 135.773 28.3743 135.56C28.7156 135.336 29.0089 135.027 29.2543 134.632C29.4996 134.227 29.6863 133.752 29.8143 133.208C29.9423 132.653 30.0063 132.051 30.0063 131.4C30.0063 130.749 29.9423 130.152 29.8143 129.608C29.6863 129.053 29.4996 128.579 29.2543 128.184C29.0089 127.779 28.7156 127.469 28.3743 127.256C28.0329 127.032 27.6436 126.92 27.2063 126.92C26.7796 126.92 26.3903 127.032 26.0383 127.256C25.6969 127.469 25.4036 127.779 25.1583 128.184C24.9129 128.579 24.7263 129.053 24.5983 129.608C24.4703 130.152 24.4062 130.749 24.4062 131.4ZM23.0463 131.4C23.0463 130.28 23.2223 129.288 23.5743 128.424C23.9263 127.56 24.4116 126.883 25.0303 126.392C25.6596 125.891 26.3849 125.64 27.2063 125.64C28.0276 125.64 28.7476 125.891 29.3663 126.392C29.9956 126.883 30.4863 127.56 30.8383 128.424C31.1903 129.288 31.3663 130.28 31.3663 131.4C31.3663 132.52 31.1903 133.512 30.8383 134.376C30.4863 135.24 29.9956 135.923 29.3663 136.424C28.7476 136.915 28.0276 137.16 27.2063 137.16C26.3849 137.16 25.6596 136.915 25.0303 136.424C24.4116 135.923 23.9263 135.24 23.5743 134.376C23.2223 133.512 23.0463 132.52 23.0463 131.4Z" fill="#FBFBFB"/>
<path d="M15.2835 103.32C15.2835 103.832 15.3902 104.285 15.6035 104.68C15.8275 105.064 16.1262 105.368 16.4995 105.592C16.8835 105.816 17.3155 105.928 17.7955 105.928C18.2755 105.928 18.7022 105.816 19.0755 105.592C19.4595 105.368 19.7582 105.064 19.9715 104.68C20.1955 104.285 20.3075 103.832 20.3075 103.32C20.3075 102.808 20.1955 102.355 19.9715 101.96C19.7582 101.555 19.4595 101.24 19.0755 101.016C18.7022 100.792 18.2755 100.68 17.7955 100.68C17.3155 100.68 16.8835 100.792 16.4995 101.016C16.1262 101.24 15.8275 101.555 15.6035 101.96C15.3902 102.355 15.2835 102.808 15.2835 103.32ZM18.4675 95.8H20.1795L16.6755 100.424L16.5795 100.344C16.7928 100.077 17.0382 99.9013 17.3155 99.816C17.6035 99.7307 17.9288 99.688 18.2915 99.688C18.7502 99.688 19.1768 99.7787 19.5715 99.96C19.9768 100.141 20.3288 100.397 20.6275 100.728C20.9368 101.059 21.1768 101.448 21.3475 101.896C21.5182 102.333 21.6035 102.808 21.6035 103.32C21.6035 104.088 21.4328 104.76 21.0915 105.336C20.7608 105.912 20.3075 106.36 19.7315 106.68C19.1662 107 18.5208 107.16 17.7955 107.16C17.0808 107.16 16.4355 107 15.8595 106.68C15.2835 106.36 14.8248 105.912 14.4835 105.336C14.1528 104.76 13.9875 104.088 13.9875 103.32C13.9875 102.861 14.0515 102.435 14.1795 102.04C14.3075 101.645 14.4782 101.299 14.6915 101L18.4675 95.8ZM24.4062 101.4C24.4062 102.051 24.4703 102.653 24.5983 103.208C24.7263 103.752 24.9129 104.227 25.1583 104.632C25.4036 105.027 25.6969 105.336 26.0383 105.56C26.3903 105.773 26.7796 105.88 27.2063 105.88C27.6436 105.88 28.0329 105.773 28.3743 105.56C28.7156 105.336 29.0089 105.027 29.2543 104.632C29.4996 104.227 29.6863 103.752 29.8143 103.208C29.9423 102.653 30.0063 102.051 30.0063 101.4C30.0063 100.749 29.9423 100.152 29.8143 99.608C29.6863 99.0533 29.4996 98.5787 29.2543 98.184C29.0089 97.7787 28.7156 97.4693 28.3743 97.256C28.0329 97.032 27.6436 96.92 27.2063 96.92C26.7796 96.92 26.3903 97.032 26.0383 97.256C25.6969 97.4693 25.4036 97.7787 25.1583 98.184C24.9129 98.5787 24.7263 99.0533 24.5983 99.608C24.4703 100.152 24.4062 100.749 24.4062 101.4ZM23.0463 101.4C23.0463 100.28 23.2223 99.288 23.5743 98.424C23.9263 97.56 24.4116 96.8827 25.0303 96.392C25.6596 95.8907 26.3849 95.64 27.2063 95.64C28.0276 95.64 28.7476 95.8907 29.3663 96.392C29.9956 96.8827 30.4863 97.56 30.8383 98.424C31.1903 99.288 31.3663 100.28 31.3663 101.4C31.3663 102.52 31.1903 103.512 30.8383 104.376C30.4863 105.24 29.9956 105.923 29.3663 106.424C28.7476 106.915 28.0276 107.16 27.2063 107.16C26.3849 107.16 25.6596 106.915 25.0303 106.424C24.4116 105.923 23.9263 105.24 23.5743 104.376C23.2223 103.512 23.0463 102.52 23.0463 101.4Z" fill="#FBFBFB"/>
<path d="M14.9519 68.504C14.9519 67.9707 15.0852 67.4907 15.3519 67.064C15.6292 66.6267 15.9972 66.28 16.4559 66.024C16.9252 65.768 17.4532 65.64 18.0399 65.64C18.6265 65.64 19.1492 65.768 19.6079 66.024C20.0772 66.28 20.4452 66.6267 20.7119 67.064C20.9892 67.4907 21.1279 67.9707 21.1279 68.504C21.1279 68.9413 21.0532 69.336 20.9039 69.688C20.7545 70.0293 20.5412 70.3227 20.2639 70.568C19.9972 70.8133 19.6719 71 19.2879 71.128C18.9145 71.256 18.4985 71.32 18.0399 71.32C17.5812 71.32 17.1599 71.256 16.7759 71.128C16.4025 71 16.0772 70.8133 15.7999 70.568C15.5332 70.3227 15.3252 70.0293 15.1759 69.688C15.0265 69.336 14.9519 68.9413 14.9519 68.504ZM16.2479 68.664C16.2479 69.016 16.3279 69.3253 16.4879 69.592C16.6585 69.8587 16.8772 70.0667 17.1439 70.216C17.4212 70.3653 17.7199 70.44 18.0399 70.44C18.3599 70.44 18.6532 70.3653 18.9199 70.216C19.1972 70.0667 19.4159 69.8587 19.5759 69.592C19.7465 69.3253 19.8319 69.016 19.8319 68.664C19.8319 68.312 19.7519 67.9973 19.5919 67.72C19.4425 67.4427 19.2345 67.2293 18.9679 67.08C18.7012 66.92 18.3919 66.84 18.0399 66.84C17.6985 66.84 17.3892 66.92 17.1119 67.08C16.8452 67.2293 16.6319 67.4427 16.4719 67.72C16.3225 67.9973 16.2479 68.312 16.2479 68.664ZM14.5519 73.96C14.5519 73.448 14.6425 72.9947 14.8239 72.6C15.0159 72.1947 15.2719 71.8587 15.5919 71.592C15.9225 71.3147 16.2959 71.1067 16.7119 70.968C17.1385 70.8293 17.5812 70.76 18.0399 70.76C18.4985 70.76 18.9359 70.8293 19.3519 70.968C19.7785 71.1067 20.1519 71.3147 20.4719 71.592C20.8025 71.8587 21.0585 72.1947 21.2399 72.6C21.4319 72.9947 21.5279 73.448 21.5279 73.96C21.5279 74.3973 21.4372 74.808 21.2559 75.192C21.0852 75.576 20.8399 75.9173 20.5199 76.216C20.2105 76.5147 19.8425 76.7493 19.4159 76.92C18.9999 77.08 18.5412 77.16 18.0399 77.16C17.5385 77.16 17.0745 77.08 16.6479 76.92C16.2319 76.7493 15.8639 76.5147 15.5439 76.216C15.2345 75.9173 14.9892 75.576 14.8079 75.192C14.6372 74.808 14.5519 74.3973 14.5519 73.96ZM15.8479 73.8C15.8479 74.2587 15.9492 74.648 16.1519 74.968C16.3652 75.288 16.6372 75.5333 16.9679 75.704C17.3092 75.8747 17.6665 75.96 18.0399 75.96C18.4132 75.96 18.7652 75.8747 19.0959 75.704C19.4372 75.5333 19.7092 75.288 19.9119 74.968C20.1252 74.648 20.2319 74.2587 20.2319 73.8C20.2319 73.3947 20.1252 73.032 19.9119 72.712C19.7092 72.3813 19.4372 72.12 19.0959 71.928C18.7652 71.736 18.4132 71.64 18.0399 71.64C17.6665 71.64 17.3092 71.736 16.9679 71.928C16.6372 72.12 16.3652 72.3813 16.1519 72.712C15.9492 73.032 15.8479 73.3947 15.8479 73.8ZM24.4062 71.4C24.4062 72.0507 24.4703 72.6533 24.5983 73.208C24.7263 73.752 24.9129 74.2267 25.1583 74.632C25.4036 75.0267 25.6969 75.336 26.0383 75.56C26.3903 75.7733 26.7796 75.88 27.2063 75.88C27.6436 75.88 28.0329 75.7733 28.3743 75.56C28.7156 75.336 29.0089 75.0267 29.2543 74.632C29.4996 74.2267 29.6863 73.752 29.8143 73.208C29.9423 72.6533 30.0063 72.0507 30.0063 71.4C30.0063 70.7493 29.9423 70.152 29.8143 69.608C29.6863 69.0533 29.4996 68.5787 29.2543 68.184C29.0089 67.7787 28.7156 67.4693 28.3743 67.256C28.0329 67.032 27.6436 66.92 27.2063 66.92C26.7796 66.92 26.3903 67.032 26.0383 67.256C25.6969 67.4693 25.4036 67.7787 25.1583 68.184C24.9129 68.5787 24.7263 69.0533 24.5983 69.608C24.4703 70.152 24.4062 70.7493 24.4062 71.4ZM23.0463 71.4C23.0463 70.28 23.2223 69.288 23.5743 68.424C23.9263 67.56 24.4116 66.8827 25.0303 66.392C25.6596 65.8907 26.3849 65.64 27.2063 65.64C28.0276 65.64 28.7476 65.8907 29.3663 66.392C29.9956 66.8827 30.4863 67.56 30.8383 68.424C31.1903 69.288 31.3663 70.28 31.3663 71.4C31.3663 72.52 31.1903 73.512 30.8383 74.376C30.4863 75.24 29.9956 75.9227 29.3663 76.424C28.7476 76.9147 28.0276 77.16 27.2063 77.16C26.3849 77.16 25.6596 76.9147 25.0303 76.424C24.4116 75.9227 23.9263 75.24 23.5743 74.376C23.2223 73.512 23.0463 72.52 23.0463 71.4Z" fill="#FBFBFB"/>
<path d="M6.88938 38.008V36.6L10.7294 35.64V47H9.36938V37.272L6.88938 38.008ZM14.8125 41.4C14.8125 42.0507 14.8765 42.6533 15.0045 43.208C15.1325 43.752 15.3192 44.2267 15.5645 44.632C15.8098 45.0267 16.1032 45.336 16.4445 45.56C16.7965 45.7733 17.1858 45.88 17.6125 45.88C18.0498 45.88 18.4392 45.7733 18.7805 45.56C19.1218 45.336 19.4152 45.0267 19.6605 44.632C19.9058 44.2267 20.0925 43.752 20.2205 43.208C20.3485 42.6533 20.4125 42.0507 20.4125 41.4C20.4125 40.7493 20.3485 40.152 20.2205 39.608C20.0925 39.0533 19.9058 38.5787 19.6605 38.184C19.4152 37.7787 19.1218 37.4693 18.7805 37.256C18.4392 37.032 18.0498 36.92 17.6125 36.92C17.1858 36.92 16.7965 37.032 16.4445 37.256C16.1032 37.4693 15.8098 37.7787 15.5645 38.184C15.3192 38.5787 15.1325 39.0533 15.0045 39.608C14.8765 40.152 14.8125 40.7493 14.8125 41.4ZM13.4525 41.4C13.4525 40.28 13.6285 39.288 13.9805 38.424C14.3325 37.56 14.8178 36.8827 15.4365 36.392C16.0658 35.8907 16.7912 35.64 17.6125 35.64C18.4338 35.64 19.1538 35.8907 19.7725 36.392C20.4018 36.8827 20.8925 37.56 21.2445 38.424C21.5965 39.288 21.7725 40.28 21.7725 41.4C21.7725 42.52 21.5965 43.512 21.2445 44.376C20.8925 45.24 20.4018 45.9227 19.7725 46.424C19.1538 46.9147 18.4338 47.16 17.6125 47.16C16.7912 47.16 16.0658 46.9147 15.4365 46.424C14.8178 45.9227 14.3325 45.24 13.9805 44.376C13.6285 43.512 13.4525 42.52 13.4525 41.4ZM24.4062 41.4C24.4062 42.0507 24.4703 42.6533 24.5983 43.208C24.7263 43.752 24.9129 44.2267 25.1583 44.632C25.4036 45.0267 25.6969 45.336 26.0383 45.56C26.3903 45.7733 26.7796 45.88 27.2063 45.88C27.6436 45.88 28.0329 45.7733 28.3743 45.56C28.7156 45.336 29.0089 45.0267 29.2543 44.632C29.4996 44.2267 29.6863 43.752 29.8143 43.208C29.9423 42.6533 30.0063 42.0507 30.0063 41.4C30.0063 40.7493 29.9423 40.152 29.8143 39.608C29.6863 39.0533 29.4996 38.5787 29.2543 38.184C29.0089 37.7787 28.7156 37.4693 28.3743 37.256C28.0329 37.032 27.6436 36.92 27.2063 36.92C26.7796 36.92 26.3903 37.032 26.0383 37.256C25.6969 37.4693 25.4036 37.7787 25.1583 38.184C24.9129 38.5787 24.7263 39.0533 24.5983 39.608C24.4703 40.152 24.4062 40.7493 24.4062 41.4ZM23.0463 41.4C23.0463 40.28 23.2223 39.288 23.5743 38.424C23.9263 37.56 24.4116 36.8827 25.0303 36.392C25.6596 35.8907 26.3849 35.64 27.2063 35.64C28.0276 35.64 28.7476 35.8907 29.3663 36.392C29.9956 36.8827 30.4863 37.56 30.8383 38.424C31.1903 39.288 31.3663 40.28 31.3663 41.4C31.3663 42.52 31.1903 43.512 30.8383 44.376C30.4863 45.24 29.9956 45.9227 29.3663 46.424C28.7476 46.9147 28.0276 47.16 27.2063 47.16C26.3849 47.16 25.6596 46.9147 25.0303 46.424C24.4116 45.9227 23.9263 45.24 23.5743 44.376C23.2223 43.512 23.0463 42.52 23.0463 41.4Z" fill="#FBFBFB"/>
</svg>
