<svg width="190" height="127" viewBox="0 0 190 127" fill="none" xmlns="http://www.w3.org/2000/svg">
<rect y="4.5" width="21" height="8" fill="#FF8B02"/>
<path d="M31.524 8.92H33.24C33.6 8.92 33.916 8.98 34.188 9.1C34.468 9.212 34.684 9.384 34.836 9.616C34.996 9.848 35.076 10.136 35.076 10.48C35.076 10.824 34.996 11.112 34.836 11.344C34.684 11.576 34.468 11.752 34.188 11.872C33.916 11.984 33.6 12.04 33.24 12.04H31.524V13H33.24C33.784 13 34.268 12.9 34.692 12.7C35.124 12.492 35.464 12.2 35.712 11.824C35.968 11.44 36.096 10.992 36.096 10.48C36.096 9.96 35.968 9.512 35.712 9.136C35.464 8.76 35.124 8.472 34.692 8.272C34.268 8.064 33.784 7.96 33.24 7.96H31.524V8.92ZM30.96 4.6V13H31.98V5.56H35.46V4.6H30.96ZM38.0382 10.54H40.0782V9.64H38.0382V10.54ZM37.4742 7.48V13H38.4342V7.48H37.4742ZM39.3942 10.24C39.3942 10.792 39.5182 11.288 39.7662 11.728C40.0222 12.16 40.3662 12.5 40.7982 12.748C41.2302 12.996 41.7142 13.12 42.2502 13.12C42.7942 13.12 43.2782 12.996 43.7022 12.748C44.1342 12.5 44.4742 12.16 44.7222 11.728C44.9782 11.288 45.1062 10.792 45.1062 10.24C45.1062 9.68 44.9782 9.184 44.7222 8.752C44.4742 8.32 44.1342 7.98 43.7022 7.732C43.2782 7.484 42.7942 7.36 42.2502 7.36C41.7142 7.36 41.2302 7.484 40.7982 7.732C40.3662 7.98 40.0222 8.32 39.7662 8.752C39.5182 9.184 39.3942 9.68 39.3942 10.24ZM40.3662 10.24C40.3662 9.856 40.4462 9.516 40.6062 9.22C40.7742 8.916 40.9982 8.68 41.2782 8.512C41.5662 8.344 41.8902 8.26 42.2502 8.26C42.6102 8.26 42.9302 8.344 43.2102 8.512C43.4982 8.68 43.7222 8.916 43.8822 9.22C44.0502 9.516 44.1342 9.856 44.1342 10.24C44.1342 10.624 44.0502 10.964 43.8822 11.26C43.7222 11.556 43.4982 11.792 43.2102 11.968C42.9302 12.136 42.6102 12.22 42.2502 12.22C41.8902 12.22 41.5662 12.136 41.2782 11.968C40.9982 11.792 40.7742 11.556 40.6062 11.26C40.4462 10.964 40.3662 10.624 40.3662 10.24ZM48.8297 9.136L50.4497 12.64H51.5297L48.8297 7.06L46.1297 12.64H47.2097L48.8297 9.136ZM51.2897 13V14.08H52.2497V12.1H45.4097V14.08H46.4297V13H51.2897ZM59.453 7.48L57.053 9.76L59.693 13H60.893L58.133 9.88L60.653 7.48H59.453ZM57.293 7.48H56.393V13H57.293V7.48ZM54.233 7.48H53.033L55.553 9.88L52.793 13H53.993L56.633 9.76L54.233 7.48ZM61.7468 10.48H66.4628C66.4708 10.432 66.4748 10.384 66.4748 10.336C66.4748 10.288 66.4748 10.24 66.4748 10.192C66.4748 9.608 66.3668 9.108 66.1508 8.692C65.9348 8.268 65.6308 7.94 65.2388 7.708C64.8468 7.476 64.3908 7.36 63.8708 7.36C63.3988 7.36 62.9708 7.456 62.5868 7.648C62.2108 7.84 61.9028 8.108 61.6628 8.452C61.4228 8.796 61.2628 9.196 61.1828 9.652C61.1668 9.748 61.1548 9.844 61.1468 9.94C61.1388 10.036 61.1348 10.136 61.1348 10.24C61.1348 10.792 61.2468 11.288 61.4708 11.728C61.7028 12.16 62.0148 12.5 62.4068 12.748C62.8068 12.996 63.2548 13.12 63.7508 13.12C64.2308 13.12 64.6308 13.064 64.9508 12.952C65.2708 12.832 65.5428 12.668 65.7668 12.46C65.9908 12.244 66.1948 11.996 66.3788 11.716L65.5988 11.224C65.4788 11.424 65.3348 11.6 65.1668 11.752C64.9988 11.896 64.8068 12.012 64.5908 12.1C64.3828 12.18 64.1428 12.22 63.8708 12.22C63.5108 12.22 63.1988 12.144 62.9348 11.992C62.6708 11.84 62.4668 11.616 62.3228 11.32C62.1788 11.024 62.1068 10.664 62.1068 10.24L62.1308 9.88C62.1308 9.536 62.2068 9.24 62.3588 8.992C62.5188 8.736 62.7308 8.54 62.9948 8.404C63.2588 8.268 63.5508 8.2 63.8708 8.2C64.1908 8.2 64.4588 8.264 64.6748 8.392C64.8988 8.512 65.0708 8.684 65.1908 8.908C65.3188 9.124 65.3988 9.376 65.4308 9.664H61.7468V10.48ZM66.9506 7.48V8.38H70.1906V7.48H66.9506ZM68.0906 7.72V13H69.0506V7.72H68.0906ZM71.7179 10.54H75.7979V9.64H71.7179V10.54ZM75.1739 7.48V13H76.1339V7.48H75.1739ZM71.1539 7.48V13H72.1139V7.48H71.1539ZM82.9191 7.48V13H83.8791V7.48H82.9191ZM77.9391 7.48V13H78.8991V7.48H77.9391ZM78.5031 10.408H80.2191C80.5711 10.408 80.8351 10.484 81.0111 10.636C81.1871 10.788 81.2751 11.004 81.2751 11.284C81.2751 11.468 81.2351 11.628 81.1551 11.764C81.0751 11.892 80.9551 11.992 80.7951 12.064C80.6431 12.128 80.4511 12.16 80.2191 12.16H78.5031V13H80.2191C80.6031 13 80.9471 12.94 81.2511 12.82C81.5551 12.7 81.7951 12.512 81.9711 12.256C82.1471 12 82.2351 11.676 82.2351 11.284C82.2351 10.692 82.0391 10.26 81.6471 9.988C81.2631 9.708 80.7871 9.568 80.2191 9.568H78.5031V10.408ZM85.8054 10.48H90.5214C90.5294 10.432 90.5334 10.384 90.5334 10.336C90.5334 10.288 90.5334 10.24 90.5334 10.192C90.5334 9.608 90.4254 9.108 90.2094 8.692C89.9934 8.268 89.6894 7.94 89.2974 7.708C88.9054 7.476 88.4494 7.36 87.9294 7.36C87.4574 7.36 87.0294 7.456 86.6454 7.648C86.2694 7.84 85.9614 8.108 85.7214 8.452C85.4814 8.796 85.3214 9.196 85.2414 9.652C85.2254 9.748 85.2134 9.844 85.2054 9.94C85.1974 10.036 85.1934 10.136 85.1934 10.24C85.1934 10.792 85.3054 11.288 85.5294 11.728C85.7614 12.16 86.0734 12.5 86.4654 12.748C86.8654 12.996 87.3134 13.12 87.8094 13.12C88.2894 13.12 88.6894 13.064 89.0094 12.952C89.3294 12.832 89.6014 12.668 89.8254 12.46C90.0494 12.244 90.2534 11.996 90.4374 11.716L89.6574 11.224C89.5374 11.424 89.3934 11.6 89.2254 11.752C89.0574 11.896 88.8654 12.012 88.6494 12.1C88.4414 12.18 88.2014 12.22 87.9294 12.22C87.5694 12.22 87.2574 12.144 86.9934 11.992C86.7294 11.84 86.5254 11.616 86.3814 11.32C86.2374 11.024 86.1654 10.664 86.1654 10.24L86.1894 9.88C86.1894 9.536 86.2654 9.24 86.4174 8.992C86.5774 8.736 86.7894 8.54 87.0534 8.404C87.3174 8.268 87.6094 8.2 87.9294 8.2C88.2494 8.2 88.5174 8.264 88.7334 8.392C88.9574 8.512 89.1294 8.684 89.2494 8.908C89.3774 9.124 89.4574 9.376 89.4894 9.664H85.8054V10.48ZM94.9669 10.24C94.9669 10.792 95.0909 11.288 95.3389 11.728C95.5949 12.16 95.9389 12.5 96.3709 12.748C96.8029 12.996 97.2869 13.12 97.8229 13.12C98.3669 13.12 98.8509 12.996 99.2749 12.748C99.7069 12.5 100.047 12.16 100.295 11.728C100.551 11.288 100.679 10.792 100.679 10.24C100.679 9.68 100.551 9.184 100.295 8.752C100.047 8.32 99.7069 7.98 99.2749 7.732C98.8509 7.484 98.3669 7.36 97.8229 7.36C97.2869 7.36 96.8029 7.484 96.3709 7.732C95.9389 7.98 95.5949 8.32 95.3389 8.752C95.0909 9.184 94.9669 9.68 94.9669 10.24ZM95.9389 10.24C95.9389 9.856 96.0189 9.516 96.1789 9.22C96.3469 8.916 96.5709 8.68 96.8509 8.512C97.1389 8.344 97.4629 8.26 97.8229 8.26C98.1829 8.26 98.5029 8.344 98.7829 8.512C99.0709 8.68 99.2949 8.916 99.4549 9.22C99.6229 9.516 99.7069 9.856 99.7069 10.24C99.7069 10.624 99.6229 10.964 99.4549 11.26C99.2949 11.556 99.0709 11.792 98.7829 11.968C98.5029 12.136 98.1829 12.22 97.8229 12.22C97.4629 12.22 97.1389 12.136 96.8509 11.968C96.5709 11.792 96.3469 11.556 96.1789 11.26C96.0189 10.964 95.9389 10.624 95.9389 10.24ZM102.898 15.64V7.48H101.938V15.64H102.898ZM107.518 10.24C107.518 9.64 107.394 9.128 107.146 8.704C106.898 8.272 106.566 7.94 106.15 7.708C105.742 7.476 105.286 7.36 104.782 7.36C104.326 7.36 103.922 7.476 103.57 7.708C103.226 7.94 102.954 8.272 102.754 8.704C102.562 9.128 102.466 9.64 102.466 10.24C102.466 10.832 102.562 11.344 102.754 11.776C102.954 12.208 103.226 12.54 103.57 12.772C103.922 13.004 104.326 13.12 104.782 13.12C105.286 13.12 105.742 13.004 106.15 12.772C106.566 12.54 106.898 12.208 107.146 11.776C107.394 11.344 107.518 10.832 107.518 10.24ZM106.546 10.24C106.546 10.664 106.458 11.024 106.282 11.32C106.114 11.616 105.886 11.84 105.598 11.992C105.318 12.144 105.006 12.22 104.662 12.22C104.382 12.22 104.106 12.144 103.834 11.992C103.562 11.84 103.338 11.616 103.162 11.32C102.986 11.024 102.898 10.664 102.898 10.24C102.898 9.816 102.986 9.456 103.162 9.16C103.338 8.864 103.562 8.64 103.834 8.488C104.106 8.336 104.382 8.26 104.662 8.26C105.006 8.26 105.318 8.336 105.598 8.488C105.886 8.64 106.114 8.864 106.282 9.16C106.458 9.456 106.546 9.816 106.546 10.24ZM108.901 7.48V13H109.861V8.38H111.841V7.48H108.901ZM113.234 11.38C113.234 11.156 113.286 10.964 113.39 10.804C113.494 10.644 113.65 10.52 113.858 10.432C114.074 10.344 114.342 10.3 114.662 10.3C115.014 10.3 115.33 10.348 115.61 10.444C115.89 10.532 116.166 10.672 116.438 10.864V10.3C116.382 10.228 116.278 10.136 116.126 10.024C115.974 9.904 115.77 9.8 115.514 9.712C115.266 9.616 114.966 9.568 114.614 9.568C114.134 9.568 113.718 9.644 113.366 9.796C113.014 9.94 112.742 10.148 112.55 10.42C112.358 10.692 112.262 11.024 112.262 11.416C112.262 11.792 112.346 12.108 112.514 12.364C112.69 12.612 112.922 12.8 113.21 12.928C113.498 13.056 113.814 13.12 114.158 13.12C114.542 13.12 114.89 13.056 115.202 12.928C115.514 12.792 115.762 12.6 115.946 12.352C116.138 12.096 116.234 11.792 116.234 11.44L116.042 10.84C116.042 11.184 115.97 11.46 115.826 11.668C115.69 11.876 115.498 12.028 115.25 12.124C115.002 12.22 114.718 12.268 114.398 12.268C114.182 12.268 113.986 12.236 113.81 12.172C113.634 12.1 113.494 12 113.39 11.872C113.286 11.736 113.234 11.572 113.234 11.38ZM113.234 8.776C113.322 8.712 113.442 8.636 113.594 8.548C113.754 8.452 113.942 8.372 114.158 8.308C114.374 8.236 114.614 8.2 114.878 8.2C115.182 8.2 115.45 8.272 115.682 8.416C115.922 8.552 116.042 8.76 116.042 9.04V13H117.002V9.04C117.002 8.68 116.91 8.376 116.726 8.128C116.55 7.88 116.302 7.692 115.982 7.564C115.67 7.428 115.302 7.36 114.878 7.36C114.382 7.36 113.958 7.436 113.606 7.588C113.254 7.74 112.974 7.892 112.766 8.044L113.234 8.776ZM119.191 10.54H123.271V9.64H119.191V10.54ZM122.647 7.48V13H123.607V7.48H122.647ZM118.627 7.48V13H119.587V7.48H118.627ZM130.032 8.44L130.092 7.06L125.532 12.04L125.472 13.42L130.032 8.44ZM126.432 7.48H125.472V13.42L126.432 12.1V7.48ZM130.092 7.06L129.132 8.38V13H130.092V7.06ZM133.907 10.24C134.539 10.24 135.031 10.108 135.383 9.844C135.743 9.58 135.923 9.248 135.923 8.848C135.923 8.576 135.839 8.328 135.671 8.104C135.511 7.88 135.287 7.7 134.999 7.564C134.711 7.428 134.387 7.36 134.027 7.36C133.643 7.36 133.299 7.44 132.995 7.6C132.691 7.752 132.451 7.96 132.275 8.224C132.099 8.488 132.011 8.776 132.011 9.088H132.983C132.983 8.96 133.019 8.832 133.091 8.704C133.163 8.568 133.275 8.456 133.427 8.368C133.587 8.272 133.787 8.224 134.027 8.224C134.315 8.224 134.539 8.288 134.699 8.416C134.859 8.536 134.939 8.704 134.939 8.92C134.939 9.12 134.859 9.292 134.699 9.436C134.539 9.572 134.275 9.64 133.907 9.64V10.24ZM134.003 13.12C134.395 13.12 134.755 13.052 135.083 12.916C135.411 12.772 135.671 12.572 135.863 12.316C136.063 12.052 136.163 11.74 136.163 11.38C136.163 10.86 135.959 10.48 135.551 10.24C135.143 10 134.595 9.88 133.907 9.88V10.48C134.187 10.48 134.423 10.516 134.615 10.588C134.815 10.66 134.963 10.764 135.059 10.9C135.163 11.036 135.215 11.2 135.215 11.392C135.215 11.568 135.167 11.724 135.071 11.86C134.975 11.996 134.835 12.1 134.651 12.172C134.475 12.244 134.259 12.28 134.003 12.28C133.587 12.28 133.287 12.176 133.103 11.968C132.919 11.76 132.799 11.524 132.743 11.26H131.771C131.835 11.796 132.059 12.24 132.443 12.592C132.835 12.944 133.355 13.12 134.003 13.12ZM138.031 11.38C138.031 11.156 138.083 10.964 138.187 10.804C138.291 10.644 138.447 10.52 138.655 10.432C138.871 10.344 139.139 10.3 139.459 10.3C139.811 10.3 140.127 10.348 140.407 10.444C140.687 10.532 140.963 10.672 141.235 10.864V10.3C141.179 10.228 141.075 10.136 140.923 10.024C140.771 9.904 140.567 9.8 140.311 9.712C140.063 9.616 139.763 9.568 139.411 9.568C138.931 9.568 138.515 9.644 138.163 9.796C137.811 9.94 137.539 10.148 137.347 10.42C137.155 10.692 137.059 11.024 137.059 11.416C137.059 11.792 137.143 12.108 137.311 12.364C137.487 12.612 137.719 12.8 138.007 12.928C138.295 13.056 138.611 13.12 138.955 13.12C139.339 13.12 139.687 13.056 139.999 12.928C140.311 12.792 140.559 12.6 140.743 12.352C140.935 12.096 141.031 11.792 141.031 11.44L140.839 10.84C140.839 11.184 140.767 11.46 140.623 11.668C140.487 11.876 140.295 12.028 140.047 12.124C139.799 12.22 139.515 12.268 139.195 12.268C138.979 12.268 138.783 12.236 138.607 12.172C138.431 12.1 138.291 12 138.187 11.872C138.083 11.736 138.031 11.572 138.031 11.38ZM138.031 8.776C138.119 8.712 138.239 8.636 138.391 8.548C138.551 8.452 138.739 8.372 138.955 8.308C139.171 8.236 139.411 8.2 139.675 8.2C139.979 8.2 140.247 8.272 140.479 8.416C140.719 8.552 140.839 8.76 140.839 9.04V13H141.799V9.04C141.799 8.68 141.707 8.376 141.523 8.128C141.347 7.88 141.099 7.692 140.779 7.564C140.467 7.428 140.099 7.36 139.675 7.36C139.179 7.36 138.755 7.436 138.403 7.588C138.051 7.74 137.771 7.892 137.563 8.044L138.031 8.776ZM147.923 12.1V7.48H146.963V12.1H144.383V7.48H143.423V13H148.043V14.08H148.883V12.1H147.923ZM154.829 8.44L154.889 7.06L150.329 12.04L150.269 13.42L154.829 8.44ZM151.229 7.48H150.269V13.42L151.229 12.1V7.48ZM154.889 7.06L153.929 8.38V13H154.889V7.06ZM161.368 8.44L161.428 7.06L156.868 12.04L156.808 13.42L161.368 8.44ZM157.768 7.48H156.808V13.42L157.768 12.1V7.48ZM161.428 7.06L160.468 8.38V13H161.428V7.06Z" fill="#FBFBFB"/>
<rect y="26.5" width="21" height="8" fill="#FFB761"/>
<path d="M32.124 29.324L34.86 34.22L37.596 29.324L38.22 35H39.24L38.22 26.18L34.86 32.264L31.5 26.18L30.48 35H31.5L32.124 29.324ZM40.7468 32.48H45.4628C45.4708 32.432 45.4748 32.384 45.4748 32.336C45.4748 32.288 45.4748 32.24 45.4748 32.192C45.4748 31.608 45.3668 31.108 45.1508 30.692C44.9348 30.268 44.6308 29.94 44.2388 29.708C43.8468 29.476 43.3908 29.36 42.8708 29.36C42.3988 29.36 41.9708 29.456 41.5868 29.648C41.2108 29.84 40.9028 30.108 40.6628 30.452C40.4228 30.796 40.2628 31.196 40.1828 31.652C40.1668 31.748 40.1548 31.844 40.1468 31.94C40.1388 32.036 40.1348 32.136 40.1348 32.24C40.1348 32.792 40.2468 33.288 40.4708 33.728C40.7028 34.16 41.0148 34.5 41.4068 34.748C41.8068 34.996 42.2548 35.12 42.7508 35.12C43.2308 35.12 43.6308 35.064 43.9508 34.952C44.2708 34.832 44.5428 34.668 44.7668 34.46C44.9908 34.244 45.1948 33.996 45.3788 33.716L44.5988 33.224C44.4788 33.424 44.3348 33.6 44.1668 33.752C43.9988 33.896 43.8068 34.012 43.5908 34.1C43.3828 34.18 43.1428 34.22 42.8708 34.22C42.5108 34.22 42.1988 34.144 41.9348 33.992C41.6708 33.84 41.4668 33.616 41.3228 33.32C41.1788 33.024 41.1068 32.664 41.1068 32.24L41.1308 31.88C41.1308 31.536 41.2068 31.24 41.3588 30.992C41.5188 30.736 41.7308 30.54 41.9948 30.404C42.2588 30.268 42.5508 30.2 42.8708 30.2C43.1908 30.2 43.4588 30.264 43.6748 30.392C43.8988 30.512 44.0708 30.684 44.1908 30.908C44.3188 31.124 44.3988 31.376 44.4308 31.664H40.7468V32.48ZM45.9506 29.48V30.38H49.1906V29.48H45.9506ZM47.0906 29.72V35H48.0506V29.72H47.0906ZM50.5859 33.38C50.5859 33.156 50.6379 32.964 50.7419 32.804C50.8459 32.644 51.0019 32.52 51.2099 32.432C51.4259 32.344 51.6939 32.3 52.0139 32.3C52.3659 32.3 52.6819 32.348 52.9619 32.444C53.2419 32.532 53.5179 32.672 53.7899 32.864V32.3C53.7339 32.228 53.6299 32.136 53.4779 32.024C53.3259 31.904 53.1219 31.8 52.8659 31.712C52.6179 31.616 52.3179 31.568 51.9659 31.568C51.4859 31.568 51.0699 31.644 50.7179 31.796C50.3659 31.94 50.0939 32.148 49.9019 32.42C49.7099 32.692 49.6139 33.024 49.6139 33.416C49.6139 33.792 49.6979 34.108 49.8659 34.364C50.0419 34.612 50.2739 34.8 50.5619 34.928C50.8499 35.056 51.1659 35.12 51.5099 35.12C51.8939 35.12 52.2419 35.056 52.5539 34.928C52.8659 34.792 53.1139 34.6 53.2979 34.352C53.4899 34.096 53.5859 33.792 53.5859 33.44L53.3939 32.84C53.3939 33.184 53.3219 33.46 53.1779 33.668C53.0419 33.876 52.8499 34.028 52.6019 34.124C52.3539 34.22 52.0699 34.268 51.7499 34.268C51.5339 34.268 51.3379 34.236 51.1619 34.172C50.9859 34.1 50.8459 34 50.7419 33.872C50.6379 33.736 50.5859 33.572 50.5859 33.38ZM50.5859 30.776C50.6739 30.712 50.7939 30.636 50.9459 30.548C51.1059 30.452 51.2939 30.372 51.5099 30.308C51.7259 30.236 51.9659 30.2 52.2299 30.2C52.5339 30.2 52.8019 30.272 53.0339 30.416C53.2739 30.552 53.3939 30.76 53.3939 31.04V35H54.3539V31.04C54.3539 30.68 54.2619 30.376 54.0779 30.128C53.9019 29.88 53.6539 29.692 53.3339 29.564C53.0219 29.428 52.6539 29.36 52.2299 29.36C51.7339 29.36 51.3099 29.436 50.9579 29.588C50.6059 29.74 50.3259 29.892 50.1179 30.044L50.5859 30.776ZM60.8141 29.48H56.0741V33.08C56.0741 33.472 55.9861 33.744 55.8101 33.896C55.6421 34.048 55.4381 34.124 55.1981 34.124V35C55.6141 35 55.9581 34.932 56.2301 34.796C56.5021 34.652 56.7021 34.44 56.8301 34.16C56.9661 33.872 57.0341 33.512 57.0341 33.08V30.38H59.8541V35H60.8141V29.48ZM67.5055 29.48H62.7655V33.08C62.7655 33.472 62.6775 33.744 62.5015 33.896C62.3335 34.048 62.1295 34.124 61.8895 34.124V35C62.3055 35 62.6495 34.932 62.9215 34.796C63.1935 34.652 63.3935 34.44 63.5215 34.16C63.6575 33.872 63.7255 33.512 63.7255 33.08V30.38H66.5455V35H67.5055V29.48ZM68.8809 32.24C68.8809 32.792 69.0049 33.288 69.2529 33.728C69.5089 34.16 69.8529 34.5 70.2849 34.748C70.7169 34.996 71.2009 35.12 71.7369 35.12C72.2809 35.12 72.7649 34.996 73.1889 34.748C73.6209 34.5 73.9609 34.16 74.2089 33.728C74.4649 33.288 74.5929 32.792 74.5929 32.24C74.5929 31.68 74.4649 31.184 74.2089 30.752C73.9609 30.32 73.6209 29.98 73.1889 29.732C72.7649 29.484 72.2809 29.36 71.7369 29.36C71.2009 29.36 70.7169 29.484 70.2849 29.732C69.8529 29.98 69.5089 30.32 69.2529 30.752C69.0049 31.184 68.8809 31.68 68.8809 32.24ZM69.8529 32.24C69.8529 31.856 69.9329 31.516 70.0929 31.22C70.2609 30.916 70.4849 30.68 70.7649 30.512C71.0529 30.344 71.3769 30.26 71.7369 30.26C72.0969 30.26 72.4169 30.344 72.6969 30.512C72.9849 30.68 73.2089 30.916 73.3689 31.22C73.5369 31.516 73.6209 31.856 73.6209 32.24C73.6209 32.624 73.5369 32.964 73.3689 33.26C73.2089 33.556 72.9849 33.792 72.6969 33.968C72.4169 34.136 72.0969 34.22 71.7369 34.22C71.3769 34.22 71.0529 34.136 70.7649 33.968C70.4849 33.792 70.2609 33.556 70.0929 33.26C69.9329 32.964 69.8529 32.624 69.8529 32.24ZM75.4317 32.24C75.4317 32.792 75.5557 33.288 75.8037 33.728C76.0597 34.16 76.4037 34.5 76.8357 34.748C77.2677 34.996 77.7517 35.12 78.2877 35.12C78.8317 35.12 79.3157 34.996 79.7397 34.748C80.1717 34.5 80.5117 34.16 80.7597 33.728C81.0157 33.288 81.1437 32.792 81.1437 32.24C81.1437 31.68 81.0157 31.184 80.7597 30.752C80.5117 30.32 80.1717 29.98 79.7397 29.732C79.3157 29.484 78.8317 29.36 78.2877 29.36C77.7517 29.36 77.2677 29.484 76.8357 29.732C76.4037 29.98 76.0597 30.32 75.8037 30.752C75.5557 31.184 75.4317 31.68 75.4317 32.24ZM76.4037 32.24C76.4037 31.856 76.4837 31.516 76.6437 31.22C76.8117 30.916 77.0357 30.68 77.3157 30.512C77.6037 30.344 77.9277 30.26 78.2877 30.26C78.6477 30.26 78.9677 30.344 79.2477 30.512C79.5357 30.68 79.7597 30.916 79.9197 31.22C80.0877 31.516 80.1717 31.856 80.1717 32.24C80.1717 32.624 80.0877 32.964 79.9197 33.26C79.7597 33.556 79.5357 33.792 79.2477 33.968C78.9677 34.136 78.6477 34.22 78.2877 34.22C77.9277 34.22 77.6037 34.136 77.3157 33.968C77.0357 33.792 76.8117 33.556 76.6437 33.26C76.4837 32.964 76.4037 32.624 76.4037 32.24ZM84.8385 30.26C85.1985 30.26 85.5185 30.344 85.7985 30.512C86.0865 30.68 86.3105 30.916 86.4705 31.22C86.6385 31.516 86.7225 31.856 86.7225 32.24C86.7225 32.624 86.6385 32.964 86.4705 33.26C86.3105 33.556 86.0865 33.792 85.7985 33.968C85.5185 34.136 85.1985 34.22 84.8385 34.22C84.4785 34.22 84.1545 34.136 83.8665 33.968C83.5865 33.792 83.3625 33.556 83.1945 33.26C83.0265 32.964 82.9425 32.624 82.9425 32.24L81.9825 31.52C81.9825 32.312 82.1065 32.976 82.3545 33.512C82.6105 34.048 82.9545 34.452 83.3865 34.724C83.8185 34.988 84.3025 35.12 84.8385 35.12C85.3825 35.12 85.8665 34.996 86.2905 34.748C86.7225 34.5 87.0625 34.16 87.3105 33.728C87.5665 33.288 87.6945 32.792 87.6945 32.24C87.6945 31.68 87.5665 31.184 87.3105 30.752C87.0625 30.32 86.7225 29.98 86.2905 29.732C85.8665 29.484 85.3825 29.36 84.8385 29.36V30.26ZM82.5105 32.24H82.9425C82.9425 31.92 82.9985 31.64 83.1105 31.4C83.2305 31.152 83.3825 30.944 83.5665 30.776C83.7585 30.608 83.9665 30.48 84.1905 30.392C84.4145 30.304 84.6305 30.26 84.8385 30.26V29.36C84.4945 29.36 84.1785 29.428 83.8905 29.564C83.6105 29.692 83.3665 29.88 83.1585 30.128C82.9505 30.376 82.7905 30.68 82.6785 31.04C82.5665 31.392 82.5105 31.792 82.5105 32.24ZM81.9825 31.52L82.8225 32.156V30.92C82.8225 30.52 82.8745 30.12 82.9785 29.72C83.0825 29.312 83.2705 28.948 83.5425 28.628C83.8225 28.308 84.2105 28.068 84.7065 27.908C85.1465 27.764 85.5385 27.584 85.8825 27.368C86.2345 27.152 86.5185 26.9 86.7345 26.612C86.9505 26.316 87.0785 25.992 87.1185 25.64H86.1705C86.1145 25.928 85.9505 26.204 85.6785 26.468C85.4145 26.724 85.0105 26.944 84.4665 27.128C83.8265 27.344 83.3225 27.656 82.9545 28.064C82.5945 28.464 82.3425 28.952 82.1985 29.528C82.0545 30.104 81.9825 30.768 81.9825 31.52ZM89.9133 37.64V29.48H88.9533V37.64H89.9133ZM94.5333 32.24C94.5333 31.64 94.4093 31.128 94.1613 30.704C93.9133 30.272 93.5813 29.94 93.1653 29.708C92.7573 29.476 92.3013 29.36 91.7973 29.36C91.3413 29.36 90.9373 29.476 90.5853 29.708C90.2413 29.94 89.9693 30.272 89.7693 30.704C89.5773 31.128 89.4813 31.64 89.4813 32.24C89.4813 32.832 89.5773 33.344 89.7693 33.776C89.9693 34.208 90.2413 34.54 90.5853 34.772C90.9373 35.004 91.3413 35.12 91.7973 35.12C92.3013 35.12 92.7573 35.004 93.1653 34.772C93.5813 34.54 93.9133 34.208 94.1613 33.776C94.4093 33.344 94.5333 32.832 94.5333 32.24ZM93.5613 32.24C93.5613 32.664 93.4733 33.024 93.2973 33.32C93.1293 33.616 92.9013 33.84 92.6133 33.992C92.3333 34.144 92.0213 34.22 91.6773 34.22C91.3973 34.22 91.1213 34.144 90.8493 33.992C90.5773 33.84 90.3533 33.616 90.1773 33.32C90.0013 33.024 89.9133 32.664 89.9133 32.24C89.9133 31.816 90.0013 31.456 90.1773 31.16C90.3533 30.864 90.5773 30.64 90.8493 30.488C91.1213 30.336 91.3973 30.26 91.6773 30.26C92.0213 30.26 92.3333 30.336 92.6133 30.488C92.9013 30.64 93.1293 30.864 93.2973 31.16C93.4733 31.456 93.5613 31.816 93.5613 32.24ZM96.289 33.38C96.289 33.156 96.341 32.964 96.445 32.804C96.549 32.644 96.705 32.52 96.913 32.432C97.129 32.344 97.397 32.3 97.717 32.3C98.069 32.3 98.385 32.348 98.665 32.444C98.945 32.532 99.221 32.672 99.493 32.864V32.3C99.437 32.228 99.333 32.136 99.181 32.024C99.029 31.904 98.825 31.8 98.569 31.712C98.321 31.616 98.021 31.568 97.669 31.568C97.189 31.568 96.773 31.644 96.421 31.796C96.069 31.94 95.797 32.148 95.605 32.42C95.413 32.692 95.317 33.024 95.317 33.416C95.317 33.792 95.401 34.108 95.569 34.364C95.745 34.612 95.977 34.8 96.265 34.928C96.553 35.056 96.869 35.12 97.213 35.12C97.597 35.12 97.945 35.056 98.257 34.928C98.569 34.792 98.817 34.6 99.001 34.352C99.193 34.096 99.289 33.792 99.289 33.44L99.097 32.84C99.097 33.184 99.025 33.46 98.881 33.668C98.745 33.876 98.553 34.028 98.305 34.124C98.057 34.22 97.773 34.268 97.453 34.268C97.237 34.268 97.041 34.236 96.865 34.172C96.689 34.1 96.549 34 96.445 33.872C96.341 33.736 96.289 33.572 96.289 33.38ZM96.289 30.776C96.377 30.712 96.497 30.636 96.649 30.548C96.809 30.452 96.997 30.372 97.213 30.308C97.429 30.236 97.669 30.2 97.933 30.2C98.237 30.2 98.505 30.272 98.737 30.416C98.977 30.552 99.097 30.76 99.097 31.04V35H100.057V31.04C100.057 30.68 99.965 30.376 99.781 30.128C99.605 29.88 99.357 29.692 99.037 29.564C98.725 29.428 98.357 29.36 97.933 29.36C97.437 29.36 97.013 29.436 96.661 29.588C96.309 29.74 96.029 29.892 95.821 30.044L96.289 30.776ZM104.057 30.26C104.417 30.26 104.737 30.344 105.017 30.512C105.305 30.68 105.529 30.916 105.689 31.22C105.857 31.516 105.941 31.856 105.941 32.24C105.941 32.624 105.857 32.964 105.689 33.26C105.529 33.556 105.305 33.792 105.017 33.968C104.737 34.136 104.417 34.22 104.057 34.22C103.697 34.22 103.373 34.136 103.085 33.968C102.805 33.792 102.581 33.556 102.413 33.26C102.245 32.964 102.161 32.624 102.161 32.24L101.201 31.52C101.201 32.312 101.325 32.976 101.573 33.512C101.829 34.048 102.173 34.452 102.605 34.724C103.037 34.988 103.521 35.12 104.057 35.12C104.601 35.12 105.085 34.996 105.509 34.748C105.941 34.5 106.281 34.16 106.529 33.728C106.785 33.288 106.913 32.792 106.913 32.24C106.913 31.68 106.785 31.184 106.529 30.752C106.281 30.32 105.941 29.98 105.509 29.732C105.085 29.484 104.601 29.36 104.057 29.36V30.26ZM101.729 32.24H102.161C102.161 31.92 102.217 31.64 102.329 31.4C102.449 31.152 102.601 30.944 102.785 30.776C102.977 30.608 103.185 30.48 103.409 30.392C103.633 30.304 103.849 30.26 104.057 30.26V29.36C103.713 29.36 103.397 29.428 103.109 29.564C102.829 29.692 102.585 29.88 102.377 30.128C102.169 30.376 102.009 30.68 101.897 31.04C101.785 31.392 101.729 31.792 101.729 32.24ZM101.201 31.52L102.041 32.156V30.92C102.041 30.52 102.093 30.12 102.197 29.72C102.301 29.312 102.489 28.948 102.761 28.628C103.041 28.308 103.429 28.068 103.925 27.908C104.365 27.764 104.757 27.584 105.101 27.368C105.453 27.152 105.737 26.9 105.953 26.612C106.169 26.316 106.297 25.992 106.337 25.64H105.389C105.333 25.928 105.169 26.204 104.897 26.468C104.633 26.724 104.229 26.944 103.685 27.128C103.045 27.344 102.541 27.656 102.173 28.064C101.813 28.464 101.561 28.952 101.417 29.528C101.273 30.104 101.201 30.768 101.201 31.52ZM107.752 32.24C107.752 32.792 107.876 33.288 108.124 33.728C108.38 34.16 108.724 34.5 109.156 34.748C109.588 34.996 110.072 35.12 110.608 35.12C111.152 35.12 111.636 34.996 112.06 34.748C112.492 34.5 112.832 34.16 113.08 33.728C113.336 33.288 113.464 32.792 113.464 32.24C113.464 31.68 113.336 31.184 113.08 30.752C112.832 30.32 112.492 29.98 112.06 29.732C111.636 29.484 111.152 29.36 110.608 29.36C110.072 29.36 109.588 29.484 109.156 29.732C108.724 29.98 108.38 30.32 108.124 30.752C107.876 31.184 107.752 31.68 107.752 32.24ZM108.724 32.24C108.724 31.856 108.804 31.516 108.964 31.22C109.132 30.916 109.356 30.68 109.636 30.512C109.924 30.344 110.248 30.26 110.608 30.26C110.968 30.26 111.288 30.344 111.568 30.512C111.856 30.68 112.08 30.916 112.24 31.22C112.408 31.516 112.492 31.856 112.492 32.24C112.492 32.624 112.408 32.964 112.24 33.26C112.08 33.556 111.856 33.792 111.568 33.968C111.288 34.136 110.968 34.22 110.608 34.22C110.248 34.22 109.924 34.136 109.636 33.968C109.356 33.792 109.132 33.556 108.964 33.26C108.804 32.964 108.724 32.624 108.724 32.24ZM113.943 29.48V30.38H117.183V29.48H113.943ZM115.083 29.72V35H116.043V29.72H115.083ZM120.006 33.32H121.89V32.42H120.006V33.32ZM121.206 29.48V35H122.166V29.48H121.206ZM118.806 29.48H117.846V31.064C117.846 31.6 117.91 32.036 118.038 32.372C118.166 32.7 118.386 32.94 118.698 33.092C119.018 33.244 119.454 33.32 120.006 33.32V32.42C119.702 32.42 119.462 32.376 119.286 32.288C119.11 32.192 118.986 32.044 118.914 31.844C118.842 31.644 118.806 31.384 118.806 31.064V29.48ZM128.59 30.44L128.65 29.06L124.09 34.04L124.03 35.42L128.59 30.44ZM124.99 29.48H124.03V35.42L124.99 34.1V29.48ZM128.65 29.06L127.69 30.38V35H128.65V29.06ZM130.449 29.48V35H131.409V29.48H130.449ZM133.449 29.48L131.049 31.76L133.689 35H134.889L132.249 31.76L134.649 29.48H133.449ZM140.415 30.44L140.475 29.06L135.915 34.04L135.855 35.42L140.415 30.44ZM136.815 29.48H135.855V35.42L136.815 34.1V29.48ZM140.475 29.06L139.515 30.38V35H140.475V29.06Z" fill="#FBFBFB"/>
<rect y="48.5" width="21" height="8" fill="#A4A4A4"/>
<path d="M33.396 52.86C33.86 52.86 34.28 52.804 34.656 52.692C35.04 52.58 35.368 52.428 35.64 52.236C35.912 52.036 36.12 51.808 36.264 51.552C36.416 51.288 36.492 51.008 36.492 50.712C36.492 50.312 36.384 49.944 36.168 49.608C35.952 49.272 35.644 49 35.244 48.792C34.844 48.584 34.364 48.48 33.804 48.48C33.268 48.48 32.792 48.576 32.376 48.768C31.968 48.952 31.648 49.208 31.416 49.536C31.192 49.864 31.08 50.248 31.08 50.688H32.052C32.052 50.44 32.128 50.22 32.28 50.028C32.432 49.836 32.64 49.684 32.904 49.572C33.176 49.46 33.48 49.404 33.816 49.404C34.176 49.404 34.476 49.46 34.716 49.572C34.964 49.684 35.148 49.844 35.268 50.052C35.388 50.252 35.448 50.484 35.448 50.748C35.448 51.012 35.368 51.256 35.208 51.48C35.048 51.696 34.816 51.872 34.512 52.008C34.208 52.136 33.836 52.2 33.396 52.2V52.86ZM33.756 57.12C34.38 57.12 34.912 57.024 35.352 56.832C35.8 56.64 36.14 56.368 36.372 56.016C36.612 55.664 36.732 55.252 36.732 54.78C36.732 54.22 36.584 53.772 36.288 53.436C35.992 53.092 35.592 52.84 35.088 52.68C34.584 52.52 34.02 52.44 33.396 52.44V53.1C33.836 53.1 34.228 53.16 34.572 53.28C34.916 53.392 35.188 53.564 35.388 53.796C35.588 54.028 35.688 54.316 35.688 54.66C35.688 55.116 35.532 55.48 35.22 55.752C34.908 56.024 34.42 56.16 33.756 56.16C33.316 56.16 32.952 56.1 32.664 55.98C32.384 55.86 32.168 55.696 32.016 55.488C31.872 55.28 31.784 55.044 31.752 54.78H30.72C30.72 55.108 30.784 55.416 30.912 55.704C31.048 55.984 31.244 56.232 31.5 56.448C31.756 56.656 32.072 56.82 32.448 56.94C32.824 57.06 33.26 57.12 33.756 57.12ZM38.6093 55.38C38.6093 55.156 38.6613 54.964 38.7653 54.804C38.8693 54.644 39.0253 54.52 39.2333 54.432C39.4493 54.344 39.7173 54.3 40.0373 54.3C40.3893 54.3 40.7053 54.348 40.9853 54.444C41.2653 54.532 41.5413 54.672 41.8133 54.864V54.3C41.7573 54.228 41.6533 54.136 41.5013 54.024C41.3493 53.904 41.1453 53.8 40.8893 53.712C40.6413 53.616 40.3413 53.568 39.9893 53.568C39.5093 53.568 39.0933 53.644 38.7413 53.796C38.3893 53.94 38.1173 54.148 37.9253 54.42C37.7333 54.692 37.6373 55.024 37.6373 55.416C37.6373 55.792 37.7213 56.108 37.8893 56.364C38.0653 56.612 38.2973 56.8 38.5853 56.928C38.8733 57.056 39.1893 57.12 39.5333 57.12C39.9173 57.12 40.2653 57.056 40.5773 56.928C40.8893 56.792 41.1373 56.6 41.3213 56.352C41.5133 56.096 41.6093 55.792 41.6093 55.44L41.4173 54.84C41.4173 55.184 41.3453 55.46 41.2013 55.668C41.0653 55.876 40.8733 56.028 40.6253 56.124C40.3773 56.22 40.0933 56.268 39.7733 56.268C39.5573 56.268 39.3613 56.236 39.1853 56.172C39.0093 56.1 38.8693 56 38.7653 55.872C38.6613 55.736 38.6093 55.572 38.6093 55.38ZM38.6093 52.776C38.6973 52.712 38.8173 52.636 38.9693 52.548C39.1293 52.452 39.3173 52.372 39.5333 52.308C39.7493 52.236 39.9893 52.2 40.2533 52.2C40.5573 52.2 40.8253 52.272 41.0573 52.416C41.2973 52.552 41.4173 52.76 41.4173 53.04V57H42.3773V53.04C42.3773 52.68 42.2853 52.376 42.1013 52.128C41.9253 51.88 41.6773 51.692 41.3573 51.564C41.0453 51.428 40.6773 51.36 40.2533 51.36C39.7573 51.36 39.3333 51.436 38.9813 51.588C38.6293 51.74 38.3493 51.892 38.1413 52.044L38.6093 52.776ZM44.5656 54.12V54.624H46.1616C46.3456 54.624 46.5016 54.644 46.6296 54.684C46.7656 54.716 46.8736 54.768 46.9536 54.84C47.0416 54.912 47.1056 54.992 47.1456 55.08C47.1936 55.168 47.2176 55.268 47.2176 55.38C47.2176 55.596 47.1296 55.78 46.9536 55.932C46.7856 56.084 46.5216 56.16 46.1616 56.16H44.5656V57H46.4016C47.0336 57 47.4856 56.856 47.7576 56.568C48.0376 56.272 48.1776 55.916 48.1776 55.5C48.1776 55.14 48.0896 54.86 47.9136 54.66C47.7376 54.46 47.4976 54.32 47.1936 54.24C46.8896 54.16 46.5456 54.12 46.1616 54.12H44.5656ZM44.5656 54.36H46.0416C46.3856 54.36 46.6976 54.312 46.9776 54.216C47.2656 54.112 47.4976 53.96 47.6736 53.76C47.8496 53.552 47.9376 53.292 47.9376 52.98C47.9376 52.62 47.8496 52.332 47.6736 52.116C47.4976 51.892 47.2656 51.732 46.9776 51.636C46.6976 51.532 46.3856 51.48 46.0416 51.48H44.5656V52.32H46.0416C46.3296 52.32 46.5576 52.388 46.7256 52.524C46.8936 52.652 46.9776 52.824 46.9776 53.04C46.9776 53.144 46.9536 53.244 46.9056 53.34C46.8656 53.428 46.8056 53.508 46.7256 53.58C46.6456 53.652 46.5456 53.708 46.4256 53.748C46.3136 53.78 46.1856 53.796 46.0416 53.796H44.5656V54.36ZM44.0016 51.48V57H44.9616V51.48H44.0016ZM48.9591 54.24C48.9591 54.792 49.0831 55.288 49.3311 55.728C49.5871 56.16 49.9311 56.5 50.3631 56.748C50.7951 56.996 51.2791 57.12 51.8151 57.12C52.3591 57.12 52.8431 56.996 53.2671 56.748C53.6991 56.5 54.0391 56.16 54.2871 55.728C54.5431 55.288 54.6711 54.792 54.6711 54.24C54.6711 53.68 54.5431 53.184 54.2871 52.752C54.0391 52.32 53.6991 51.98 53.2671 51.732C52.8431 51.484 52.3591 51.36 51.8151 51.36C51.2791 51.36 50.7951 51.484 50.3631 51.732C49.9311 51.98 49.5871 52.32 49.3311 52.752C49.0831 53.184 48.9591 53.68 48.9591 54.24ZM49.9311 54.24C49.9311 53.856 50.0111 53.516 50.1711 53.22C50.3391 52.916 50.5631 52.68 50.8431 52.512C51.1311 52.344 51.4551 52.26 51.8151 52.26C52.1751 52.26 52.4951 52.344 52.7751 52.512C53.0631 52.68 53.2871 52.916 53.4471 53.22C53.6151 53.516 53.6991 53.856 53.6991 54.24C53.6991 54.624 53.6151 54.964 53.4471 55.26C53.2871 55.556 53.0631 55.792 52.7751 55.968C52.4951 56.136 52.1751 56.22 51.8151 56.22C51.4551 56.22 51.1311 56.136 50.8431 55.968C50.5631 55.792 50.3391 55.556 50.1711 55.26C50.0111 54.964 49.9311 54.624 49.9311 54.24ZM58.3922 53.136L60.0122 56.64H61.0922L58.3922 51.06L55.6922 56.64H56.7722L58.3922 53.136ZM60.8522 57V58.08H61.8122V56.1H54.9722V58.08H55.9922V57H60.8522ZM68.2355 51.48V57H69.1955V51.48H68.2355ZM63.2555 51.48V57H64.2155V51.48H63.2555ZM63.8195 54.408H65.5355C65.8875 54.408 66.1515 54.484 66.3275 54.636C66.5035 54.788 66.5915 55.004 66.5915 55.284C66.5915 55.468 66.5515 55.628 66.4715 55.764C66.3915 55.892 66.2715 55.992 66.1115 56.064C65.9595 56.128 65.7675 56.16 65.5355 56.16H63.8195V57H65.5355C65.9195 57 66.2635 56.94 66.5675 56.82C66.8715 56.7 67.1115 56.512 67.2875 56.256C67.4635 56 67.5515 55.676 67.5515 55.284C67.5515 54.692 67.3555 54.26 66.9635 53.988C66.5795 53.708 66.1035 53.568 65.5355 53.568H63.8195V54.408Z" fill="#FBFBFB"/>
<rect y="70.5" width="21" height="8" fill="#FBFBFB"/>
<path d="M30.12 71.56H32.28V79H33.3V71.56H35.46V70.6H30.12V71.56ZM40.1372 74.44L40.1972 73.06L35.6372 78.04L35.5772 79.42L40.1372 74.44ZM36.5372 73.48H35.5772V79.42L36.5372 78.1V73.48ZM40.1972 73.06L39.2372 74.38V79H40.1972V73.06ZM46.5563 73.48H42.0563V79H43.0163V74.38H45.5963V79H46.5563V73.48ZM47.8809 76.24C47.8809 76.792 48.0049 77.288 48.2529 77.728C48.5089 78.16 48.8529 78.5 49.2849 78.748C49.7169 78.996 50.2009 79.12 50.7369 79.12C51.2809 79.12 51.7649 78.996 52.1889 78.748C52.6209 78.5 52.9609 78.16 53.2089 77.728C53.4649 77.288 53.5929 76.792 53.5929 76.24C53.5929 75.68 53.4649 75.184 53.2089 74.752C52.9609 74.32 52.6209 73.98 52.1889 73.732C51.7649 73.484 51.2809 73.36 50.7369 73.36C50.2009 73.36 49.7169 73.484 49.2849 73.732C48.8529 73.98 48.5089 74.32 48.2529 74.752C48.0049 75.184 47.8809 75.68 47.8809 76.24ZM48.8529 76.24C48.8529 75.856 48.9329 75.516 49.0929 75.22C49.2609 74.916 49.4849 74.68 49.7649 74.512C50.0529 74.344 50.3769 74.26 50.7369 74.26C51.0969 74.26 51.4169 74.344 51.6969 74.512C51.9849 74.68 52.2089 74.916 52.3689 75.22C52.5369 75.516 52.6209 75.856 52.6209 76.24C52.6209 76.624 52.5369 76.964 52.3689 77.26C52.2089 77.556 51.9849 77.792 51.6969 77.968C51.4169 78.136 51.0969 78.22 50.7369 78.22C50.3769 78.22 50.0529 78.136 49.7649 77.968C49.4849 77.792 49.2609 77.556 49.0929 77.26C48.9329 76.964 48.8529 76.624 48.8529 76.24ZM54.9717 73.48V79H55.9317V74.38H57.9117V73.48H54.9717ZM59.7727 81.64V73.48H58.8127V81.64H59.7727ZM64.3927 76.24C64.3927 75.64 64.2687 75.128 64.0207 74.704C63.7727 74.272 63.4407 73.94 63.0247 73.708C62.6167 73.476 62.1607 73.36 61.6567 73.36C61.2007 73.36 60.7967 73.476 60.4447 73.708C60.1007 73.94 59.8287 74.272 59.6287 74.704C59.4367 75.128 59.3407 75.64 59.3407 76.24C59.3407 76.832 59.4367 77.344 59.6287 77.776C59.8287 78.208 60.1007 78.54 60.4447 78.772C60.7967 79.004 61.2007 79.12 61.6567 79.12C62.1607 79.12 62.6167 79.004 63.0247 78.772C63.4407 78.54 63.7727 78.208 64.0207 77.776C64.2687 77.344 64.3927 76.832 64.3927 76.24ZM63.4207 76.24C63.4207 76.664 63.3327 77.024 63.1567 77.32C62.9887 77.616 62.7607 77.84 62.4727 77.992C62.1927 78.144 61.8807 78.22 61.5367 78.22C61.2567 78.22 60.9807 78.144 60.7087 77.992C60.4367 77.84 60.2127 77.616 60.0367 77.32C59.8607 77.024 59.7727 76.664 59.7727 76.24C59.7727 75.816 59.8607 75.456 60.0367 75.16C60.2127 74.864 60.4367 74.64 60.7087 74.488C60.9807 74.336 61.2567 74.26 61.5367 74.26C61.8807 74.26 62.1927 74.336 62.4727 74.488C62.7607 74.64 62.9887 74.864 63.1567 75.16C63.3327 75.456 63.4207 75.816 63.4207 76.24ZM66.1484 77.38C66.1484 77.156 66.2004 76.964 66.3044 76.804C66.4084 76.644 66.5644 76.52 66.7724 76.432C66.9884 76.344 67.2564 76.3 67.5764 76.3C67.9284 76.3 68.2444 76.348 68.5244 76.444C68.8044 76.532 69.0804 76.672 69.3524 76.864V76.3C69.2964 76.228 69.1924 76.136 69.0404 76.024C68.8884 75.904 68.6844 75.8 68.4284 75.712C68.1804 75.616 67.8804 75.568 67.5284 75.568C67.0484 75.568 66.6324 75.644 66.2804 75.796C65.9284 75.94 65.6564 76.148 65.4644 76.42C65.2724 76.692 65.1764 77.024 65.1764 77.416C65.1764 77.792 65.2604 78.108 65.4284 78.364C65.6044 78.612 65.8364 78.8 66.1244 78.928C66.4124 79.056 66.7284 79.12 67.0724 79.12C67.4564 79.12 67.8044 79.056 68.1164 78.928C68.4284 78.792 68.6764 78.6 68.8604 78.352C69.0524 78.096 69.1484 77.792 69.1484 77.44L68.9564 76.84C68.9564 77.184 68.8844 77.46 68.7404 77.668C68.6044 77.876 68.4124 78.028 68.1644 78.124C67.9164 78.22 67.6324 78.268 67.3124 78.268C67.0964 78.268 66.9004 78.236 66.7244 78.172C66.5484 78.1 66.4084 78 66.3044 77.872C66.2004 77.736 66.1484 77.572 66.1484 77.38ZM66.1484 74.776C66.2364 74.712 66.3564 74.636 66.5084 74.548C66.6684 74.452 66.8564 74.372 67.0724 74.308C67.2884 74.236 67.5284 74.2 67.7924 74.2C68.0964 74.2 68.3644 74.272 68.5964 74.416C68.8364 74.552 68.9564 74.76 68.9564 75.04V79H69.9164V75.04C69.9164 74.68 69.8244 74.376 69.6404 74.128C69.4644 73.88 69.2164 73.692 68.8964 73.564C68.5844 73.428 68.2164 73.36 67.7924 73.36C67.2964 73.36 66.8724 73.436 66.5204 73.588C66.1684 73.74 65.8884 73.892 65.6804 74.044L66.1484 74.776ZM73.6766 72.28V80.2H74.6366V72.28H73.6766ZM71.0606 76.24C71.0606 76.792 71.1886 77.288 71.4446 77.728C71.7006 78.16 72.0606 78.5 72.5246 78.748C72.9966 78.996 73.5406 79.12 74.1566 79.12C74.7806 79.12 75.3246 78.996 75.7886 78.748C76.2526 78.5 76.6126 78.16 76.8686 77.728C77.1246 77.288 77.2526 76.792 77.2526 76.24C77.2526 75.68 77.1246 75.184 76.8686 74.752C76.6126 74.32 76.2526 73.98 75.7886 73.732C75.3246 73.484 74.7806 73.36 74.1566 73.36C73.5406 73.36 72.9966 73.484 72.5246 73.732C72.0606 73.98 71.7006 74.32 71.4446 74.752C71.1886 75.184 71.0606 75.68 71.0606 76.24ZM72.0326 76.24C72.0326 75.856 72.1166 75.516 72.2846 75.22C72.4606 74.916 72.7046 74.68 73.0166 74.512C73.3366 74.344 73.7166 74.26 74.1566 74.26C74.5966 74.26 74.9726 74.344 75.2846 74.512C75.6046 74.68 75.8486 74.916 76.0166 75.22C76.1926 75.516 76.2806 75.856 76.2806 76.24C76.2806 76.624 76.1926 76.964 76.0166 77.26C75.8486 77.556 75.6046 77.792 75.2846 77.968C74.9726 78.136 74.5966 78.22 74.1566 78.22C73.7166 78.22 73.3366 78.136 73.0166 77.968C72.7046 77.792 72.4606 77.556 72.2846 77.26C72.1166 76.964 72.0326 76.624 72.0326 76.24ZM83.1919 74.44L83.2519 73.06L78.6919 78.04L78.6319 79.42L83.1919 74.44ZM79.5919 73.48H78.6319V79.42L79.5919 78.1V73.48ZM83.2519 73.06L82.2919 74.38V79H83.2519V73.06ZM89.7309 74.44L89.7909 73.06L85.2309 78.04L85.1709 79.42L89.7309 74.44ZM86.1309 73.48H85.1709V79.42L86.1309 78.1V73.48ZM89.7909 73.06L88.8309 74.38V79H89.7909V73.06Z" fill="#FBFBFB"/>
<rect y="92.5" width="21" height="8" fill="#676767"/>
<path d="M31.56 96.8C31.56 96.144 31.704 95.572 31.992 95.084C32.288 94.588 32.672 94.2 33.144 93.92C33.616 93.64 34.128 93.5 34.68 93.5C35.08 93.5 35.444 93.552 35.772 93.656C36.108 93.76 36.412 93.908 36.684 94.1C36.956 94.284 37.188 94.5 37.38 94.748V93.404C37.028 93.092 36.644 92.86 36.228 92.708C35.812 92.556 35.296 92.48 34.68 92.48C34.096 92.48 33.548 92.588 33.036 92.804C32.532 93.012 32.088 93.312 31.704 93.704C31.32 94.088 31.02 94.544 30.804 95.072C30.588 95.6 30.48 96.176 30.48 96.8C30.48 97.424 30.588 98 30.804 98.528C31.02 99.056 31.32 99.516 31.704 99.908C32.088 100.292 32.532 100.592 33.036 100.808C33.548 101.016 34.096 101.12 34.68 101.12C35.296 101.12 35.812 101.044 36.228 100.892C36.644 100.74 37.028 100.508 37.38 100.196V98.852C37.188 99.1 36.956 99.32 36.684 99.512C36.412 99.696 36.108 99.84 35.772 99.944C35.444 100.048 35.08 100.1 34.68 100.1C34.128 100.1 33.616 99.96 33.144 99.68C32.672 99.4 32.288 99.012 31.992 98.516C31.704 98.02 31.56 97.448 31.56 96.8ZM38.2748 95.48V96.38H41.5148V95.48H38.2748ZM39.4148 95.72V101H40.3748V95.72H39.4148ZM43.3781 103.64V95.48H42.4181V103.64H43.3781ZM47.9981 98.24C47.9981 97.64 47.8741 97.128 47.6261 96.704C47.3781 96.272 47.0461 95.94 46.6301 95.708C46.2221 95.476 45.7661 95.36 45.2621 95.36C44.8061 95.36 44.4021 95.476 44.0501 95.708C43.7061 95.94 43.4341 96.272 43.2341 96.704C43.0421 97.128 42.9461 97.64 42.9461 98.24C42.9461 98.832 43.0421 99.344 43.2341 99.776C43.4341 100.208 43.7061 100.54 44.0501 100.772C44.4021 101.004 44.8061 101.12 45.2621 101.12C45.7661 101.12 46.2221 101.004 46.6301 100.772C47.0461 100.54 47.3781 100.208 47.6261 99.776C47.8741 99.344 47.9981 98.832 47.9981 98.24ZM47.0261 98.24C47.0261 98.664 46.9381 99.024 46.7621 99.32C46.5941 99.616 46.3661 99.84 46.0781 99.992C45.7981 100.144 45.4861 100.22 45.1421 100.22C44.8621 100.22 44.5861 100.144 44.3141 99.992C44.0421 99.84 43.8181 99.616 43.6421 99.32C43.4661 99.024 43.3781 98.664 43.3781 98.24C43.3781 97.816 43.4661 97.456 43.6421 97.16C43.8181 96.864 44.0421 96.64 44.3141 96.488C44.5861 96.336 44.8621 96.26 45.1421 96.26C45.4861 96.26 45.7981 96.336 46.0781 96.488C46.3661 96.64 46.5941 96.864 46.7621 97.16C46.9381 97.456 47.0261 97.816 47.0261 98.24ZM48.8419 98.24C48.8419 98.792 48.9659 99.288 49.2139 99.728C49.4699 100.16 49.8139 100.5 50.2459 100.748C50.6779 100.996 51.1619 101.12 51.6979 101.12C52.2419 101.12 52.7259 100.996 53.1499 100.748C53.5819 100.5 53.9219 100.16 54.1699 99.728C54.4259 99.288 54.5539 98.792 54.5539 98.24C54.5539 97.68 54.4259 97.184 54.1699 96.752C53.9219 96.32 53.5819 95.98 53.1499 95.732C52.7259 95.484 52.2419 95.36 51.6979 95.36C51.1619 95.36 50.6779 95.484 50.2459 95.732C49.8139 95.98 49.4699 96.32 49.2139 96.752C48.9659 97.184 48.8419 97.68 48.8419 98.24ZM49.8139 98.24C49.8139 97.856 49.8939 97.516 50.0539 97.22C50.2219 96.916 50.4459 96.68 50.7259 96.512C51.0139 96.344 51.3379 96.26 51.6979 96.26C52.0579 96.26 52.3779 96.344 52.6579 96.512C52.9459 96.68 53.1699 96.916 53.3299 97.22C53.4979 97.516 53.5819 97.856 53.5819 98.24C53.5819 98.624 53.4979 98.964 53.3299 99.26C53.1699 99.556 52.9459 99.792 52.6579 99.968C52.3779 100.136 52.0579 100.22 51.6979 100.22C51.3379 100.22 51.0139 100.136 50.7259 99.968C50.4459 99.792 50.2219 99.556 50.0539 99.26C49.8939 98.964 49.8139 98.624 49.8139 98.24ZM60.4927 96.44L60.5527 95.06L55.9927 100.04L55.9327 101.42L60.4927 96.44ZM56.8927 95.48H55.9327V101.42L56.8927 100.1V95.48ZM60.5527 95.06L59.5927 96.38V101H60.5527V95.06ZM61.5717 95.48V96.38H64.8117V95.48H61.5717ZM62.7117 95.72V101H63.6717V95.72H62.7117ZM65.7312 98.48H70.4472C70.4552 98.432 70.4592 98.384 70.4592 98.336C70.4592 98.288 70.4592 98.24 70.4592 98.192C70.4592 97.608 70.3512 97.108 70.1352 96.692C69.9192 96.268 69.6152 95.94 69.2232 95.708C68.8312 95.476 68.3752 95.36 67.8552 95.36C67.3832 95.36 66.9552 95.456 66.5712 95.648C66.1952 95.84 65.8872 96.108 65.6472 96.452C65.4072 96.796 65.2472 97.196 65.1672 97.652C65.1512 97.748 65.1392 97.844 65.1312 97.94C65.1232 98.036 65.1192 98.136 65.1192 98.24C65.1192 98.792 65.2312 99.288 65.4552 99.728C65.6872 100.16 65.9992 100.5 66.3912 100.748C66.7912 100.996 67.2392 101.12 67.7352 101.12C68.2152 101.12 68.6152 101.064 68.9352 100.952C69.2552 100.832 69.5272 100.668 69.7512 100.46C69.9752 100.244 70.1792 99.996 70.3632 99.716L69.5832 99.224C69.4632 99.424 69.3192 99.6 69.1512 99.752C68.9832 99.896 68.7912 100.012 68.5752 100.1C68.3672 100.18 68.1272 100.22 67.8552 100.22C67.4952 100.22 67.1832 100.144 66.9192 99.992C66.6552 99.84 66.4512 99.616 66.3072 99.32C66.1632 99.024 66.0912 98.664 66.0912 98.24L66.1152 97.88C66.1152 97.536 66.1912 97.24 66.3432 96.992C66.5032 96.736 66.7152 96.54 66.9792 96.404C67.2432 96.268 67.5352 96.2 67.8552 96.2C68.1752 96.2 68.4432 96.264 68.6592 96.392C68.8832 96.512 69.0552 96.684 69.1752 96.908C69.3032 97.124 69.3832 97.376 69.4152 97.664H65.7312V98.48ZM76.611 95.48H71.871V99.08C71.871 99.472 71.783 99.744 71.607 99.896C71.439 100.048 71.235 100.124 70.995 100.124V101C71.411 101 71.755 100.932 72.027 100.796C72.299 100.652 72.499 100.44 72.627 100.16C72.763 99.872 72.831 99.512 72.831 99.08V96.38H75.651V101H76.611V95.48ZM78.4664 95.48V101H79.4264V95.48H78.4664ZM79.0304 98.408H80.7464C81.0984 98.408 81.3624 98.484 81.5384 98.636C81.7144 98.788 81.8024 99.004 81.8024 99.284C81.8024 99.468 81.7624 99.628 81.6824 99.764C81.6024 99.892 81.4824 99.992 81.3224 100.064C81.1704 100.128 80.9784 100.16 80.7464 100.16H79.0304V101H80.7464C81.1304 101 81.4744 100.94 81.7784 100.82C82.0824 100.7 82.3224 100.512 82.4984 100.256C82.6744 100 82.7624 99.676 82.7624 99.284C82.7624 98.692 82.5664 98.26 82.1744 97.988C81.7904 97.708 81.3144 97.568 80.7464 97.568H79.0304V98.408ZM84.8312 98.54H88.9112V97.64H84.8312V98.54ZM88.2872 95.48V101H89.2472V95.48H88.2872ZM84.2672 95.48V101H85.2272V95.48H84.2672ZM96.0323 95.48V101H96.9923V95.48H96.0323ZM91.0523 95.48V101H92.0123V95.48H91.0523ZM91.6163 98.408H93.3323C93.6843 98.408 93.9483 98.484 94.1243 98.636C94.3003 98.788 94.3883 99.004 94.3883 99.284C94.3883 99.468 94.3483 99.628 94.2683 99.764C94.1883 99.892 94.0683 99.992 93.9083 100.064C93.7563 100.128 93.5643 100.16 93.3323 100.16H91.6163V101H93.3323C93.7163 101 94.0603 100.94 94.3643 100.82C94.6683 100.7 94.9083 100.512 95.0843 100.256C95.2603 100 95.3483 99.676 95.3483 99.284C95.3483 98.692 95.1523 98.26 94.7603 97.988C94.3763 97.708 93.9003 97.568 93.3323 97.568H91.6163V98.408ZM98.9187 98.48H103.635C103.643 98.432 103.647 98.384 103.647 98.336C103.647 98.288 103.647 98.24 103.647 98.192C103.647 97.608 103.539 97.108 103.323 96.692C103.107 96.268 102.803 95.94 102.411 95.708C102.019 95.476 101.563 95.36 101.043 95.36C100.571 95.36 100.143 95.456 99.7587 95.648C99.3827 95.84 99.0747 96.108 98.8347 96.452C98.5947 96.796 98.4347 97.196 98.3547 97.652C98.3387 97.748 98.3267 97.844 98.3187 97.94C98.3107 98.036 98.3067 98.136 98.3067 98.24C98.3067 98.792 98.4187 99.288 98.6427 99.728C98.8747 100.16 99.1867 100.5 99.5787 100.748C99.9787 100.996 100.427 101.12 100.923 101.12C101.403 101.12 101.803 101.064 102.123 100.952C102.443 100.832 102.715 100.668 102.939 100.46C103.163 100.244 103.367 99.996 103.551 99.716L102.771 99.224C102.651 99.424 102.507 99.6 102.339 99.752C102.171 99.896 101.979 100.012 101.763 100.1C101.555 100.18 101.315 100.22 101.043 100.22C100.683 100.22 100.371 100.144 100.107 99.992C99.8427 99.84 99.6387 99.616 99.4947 99.32C99.3507 99.024 99.2787 98.664 99.2787 98.24L99.3027 97.88C99.3027 97.536 99.3787 97.24 99.5307 96.992C99.6907 96.736 99.9027 96.54 100.167 96.404C100.431 96.268 100.723 96.2 101.043 96.2C101.363 96.2 101.631 96.264 101.847 96.392C102.071 96.512 102.243 96.684 102.363 96.908C102.491 97.124 102.571 97.376 102.603 97.664H98.9187V98.48ZM108.5 95.48V101H109.46V95.48H108.5ZM111.5 95.48L109.1 97.76L111.74 101H112.94L110.3 97.76L112.7 95.48H111.5ZM113.19 98.24C113.19 98.792 113.314 99.288 113.562 99.728C113.818 100.16 114.162 100.5 114.594 100.748C115.026 100.996 115.51 101.12 116.046 101.12C116.59 101.12 117.074 100.996 117.498 100.748C117.93 100.5 118.27 100.16 118.518 99.728C118.774 99.288 118.902 98.792 118.902 98.24C118.902 97.68 118.774 97.184 118.518 96.752C118.27 96.32 117.93 95.98 117.498 95.732C117.074 95.484 116.59 95.36 116.046 95.36C115.51 95.36 115.026 95.484 114.594 95.732C114.162 95.98 113.818 96.32 113.562 96.752C113.314 97.184 113.19 97.68 113.19 98.24ZM114.162 98.24C114.162 97.856 114.242 97.516 114.402 97.22C114.57 96.916 114.794 96.68 115.074 96.512C115.362 96.344 115.686 96.26 116.046 96.26C116.406 96.26 116.726 96.344 117.006 96.512C117.294 96.68 117.518 96.916 117.678 97.22C117.846 97.516 117.93 97.856 117.93 98.24C117.93 98.624 117.846 98.964 117.678 99.26C117.518 99.556 117.294 99.792 117.006 99.968C116.726 100.136 116.406 100.22 116.046 100.22C115.686 100.22 115.362 100.136 115.074 99.968C114.794 99.792 114.57 99.556 114.402 99.26C114.242 98.964 114.162 98.624 114.162 98.24ZM125.464 101H126.544L125.104 95.06L124.564 96.62L125.464 101ZM122.584 100.172L122.944 101.372L125.224 96.98L125.104 95.06L122.584 100.172ZM122.944 101.372L123.304 100.172L120.82 95.06L120.7 96.98L122.944 101.372ZM119.38 101H120.46L121.36 96.62L120.82 95.06L119.38 101ZM132.009 95.48H127.509V101H128.469V96.38H131.049V101H132.009V95.48ZM134.246 99.38C134.246 99.156 134.298 98.964 134.402 98.804C134.506 98.644 134.662 98.52 134.87 98.432C135.086 98.344 135.354 98.3 135.674 98.3C136.026 98.3 136.342 98.348 136.622 98.444C136.902 98.532 137.178 98.672 137.45 98.864V98.3C137.394 98.228 137.29 98.136 137.138 98.024C136.986 97.904 136.782 97.8 136.526 97.712C136.278 97.616 135.978 97.568 135.626 97.568C135.146 97.568 134.73 97.644 134.378 97.796C134.026 97.94 133.754 98.148 133.562 98.42C133.37 98.692 133.274 99.024 133.274 99.416C133.274 99.792 133.358 100.108 133.526 100.364C133.702 100.612 133.934 100.8 134.222 100.928C134.51 101.056 134.826 101.12 135.17 101.12C135.554 101.12 135.902 101.056 136.214 100.928C136.526 100.792 136.774 100.6 136.958 100.352C137.15 100.096 137.246 99.792 137.246 99.44L137.054 98.84C137.054 99.184 136.982 99.46 136.838 99.668C136.702 99.876 136.51 100.028 136.262 100.124C136.014 100.22 135.73 100.268 135.41 100.268C135.194 100.268 134.998 100.236 134.822 100.172C134.646 100.1 134.506 100 134.402 99.872C134.298 99.736 134.246 99.572 134.246 99.38ZM134.246 96.776C134.334 96.712 134.454 96.636 134.606 96.548C134.766 96.452 134.954 96.372 135.17 96.308C135.386 96.236 135.626 96.2 135.89 96.2C136.194 96.2 136.462 96.272 136.694 96.416C136.934 96.552 137.054 96.76 137.054 97.04V101H138.014V97.04C138.014 96.68 137.922 96.376 137.738 96.128C137.562 95.88 137.314 95.692 136.994 95.564C136.682 95.428 136.314 95.36 135.89 95.36C135.394 95.36 134.97 95.436 134.618 95.588C134.266 95.74 133.986 95.892 133.778 96.044L134.246 96.776ZM140.202 98.54H144.282V97.64H140.202V98.54ZM143.658 95.48V101H144.618V95.48H143.658ZM139.638 95.48V101H140.598V95.48H139.638ZM151.043 96.44L151.103 95.06L146.543 100.04L146.483 101.42L151.043 96.44ZM147.443 95.48H146.483V101.42L147.443 100.1V95.48ZM151.103 95.06L150.143 96.38V101H151.103V95.06ZM157.583 96.44L157.643 95.06L153.083 100.04L153.023 101.42L157.583 96.44ZM153.983 95.48H153.023V101.42L153.983 100.1V95.48ZM157.643 95.06L156.683 96.38V101H157.643V95.06Z" fill="#FBFBFB"/>
<rect y="114.5" width="21" height="8" fill="#101213"/>
<path d="M31.584 119.28H36.66V118.32H31.584V119.28ZM36.66 118.8C36.66 119.448 36.516 120.02 36.228 120.516C35.94 121.012 35.556 121.4 35.076 121.68C34.604 121.96 34.092 122.1 33.54 122.1C33.148 122.1 32.784 122.048 32.448 121.944C32.112 121.84 31.808 121.696 31.536 121.512C31.272 121.32 31.04 121.1 30.84 120.852V122.196C31.192 122.508 31.576 122.74 31.992 122.892C32.416 123.044 32.932 123.12 33.54 123.12C34.124 123.12 34.668 123.016 35.172 122.808C35.684 122.592 36.132 122.292 36.516 121.908C36.9 121.516 37.2 121.056 37.416 120.528C37.632 120 37.74 119.424 37.74 118.8C37.74 118.176 37.632 117.6 37.416 117.072C37.2 116.544 36.9 116.088 36.516 115.704C36.132 115.312 35.684 115.012 35.172 114.804C34.668 114.588 34.124 114.48 33.54 114.48C32.932 114.48 32.416 114.556 31.992 114.708C31.576 114.86 31.192 115.092 30.84 115.404V116.748C31.04 116.5 31.272 116.284 31.536 116.1C31.808 115.908 32.112 115.76 32.448 115.656C32.784 115.552 33.148 115.5 33.54 115.5C34.092 115.5 34.604 115.64 35.076 115.92C35.556 116.2 35.94 116.588 36.228 117.084C36.516 117.572 36.66 118.144 36.66 118.8ZM39.6788 120.54H43.7588V119.64H39.6788V120.54ZM43.1348 117.48V123H44.0948V117.48H43.1348ZM39.1148 117.48V123H40.0748V117.48H39.1148ZM46.032 120.48H50.748C50.756 120.432 50.76 120.384 50.76 120.336C50.76 120.288 50.76 120.24 50.76 120.192C50.76 119.608 50.652 119.108 50.436 118.692C50.22 118.268 49.916 117.94 49.524 117.708C49.132 117.476 48.676 117.36 48.156 117.36C47.684 117.36 47.256 117.456 46.872 117.648C46.496 117.84 46.188 118.108 45.948 118.452C45.708 118.796 45.548 119.196 45.468 119.652C45.452 119.748 45.44 119.844 45.432 119.94C45.424 120.036 45.42 120.136 45.42 120.24C45.42 120.792 45.532 121.288 45.756 121.728C45.988 122.16 46.3 122.5 46.692 122.748C47.092 122.996 47.54 123.12 48.036 123.12C48.516 123.12 48.916 123.064 49.236 122.952C49.556 122.832 49.828 122.668 50.052 122.46C50.276 122.244 50.48 121.996 50.664 121.716L49.884 121.224C49.764 121.424 49.62 121.6 49.452 121.752C49.284 121.896 49.092 122.012 48.876 122.1C48.668 122.18 48.428 122.22 48.156 122.22C47.796 122.22 47.484 122.144 47.22 121.992C46.956 121.84 46.752 121.616 46.608 121.32C46.464 121.024 46.392 120.664 46.392 120.24L46.416 119.88C46.416 119.536 46.492 119.24 46.644 118.992C46.804 118.736 47.016 118.54 47.28 118.404C47.544 118.268 47.836 118.2 48.156 118.2C48.476 118.2 48.744 118.264 48.96 118.392C49.184 118.512 49.356 118.684 49.476 118.908C49.604 119.124 49.684 119.376 49.716 119.664H46.032V120.48ZM52.9758 125.64V117.48H52.0158V125.64H52.9758ZM57.5958 120.24C57.5958 119.64 57.4718 119.128 57.2238 118.704C56.9758 118.272 56.6438 117.94 56.2278 117.708C55.8198 117.476 55.3638 117.36 54.8598 117.36C54.4038 117.36 53.9998 117.476 53.6478 117.708C53.3038 117.94 53.0318 118.272 52.8318 118.704C52.6398 119.128 52.5438 119.64 52.5438 120.24C52.5438 120.832 52.6398 121.344 52.8318 121.776C53.0318 122.208 53.3038 122.54 53.6478 122.772C53.9998 123.004 54.4038 123.12 54.8598 123.12C55.3638 123.12 55.8198 123.004 56.2278 122.772C56.6438 122.54 56.9758 122.208 57.2238 121.776C57.4718 121.344 57.5958 120.832 57.5958 120.24ZM56.6238 120.24C56.6238 120.664 56.5358 121.024 56.3598 121.32C56.1918 121.616 55.9638 121.84 55.6758 121.992C55.3958 122.144 55.0838 122.22 54.7398 122.22C54.4598 122.22 54.1838 122.144 53.9118 121.992C53.6398 121.84 53.4158 121.616 53.2398 121.32C53.0638 121.024 52.9758 120.664 52.9758 120.24C52.9758 119.816 53.0638 119.456 53.2398 119.16C53.4158 118.864 53.6398 118.64 53.9118 118.488C54.1838 118.336 54.4598 118.26 54.7398 118.26C55.0838 118.26 55.3958 118.336 55.6758 118.488C55.9638 118.64 56.1918 118.864 56.3598 119.16C56.5358 119.456 56.6238 119.816 56.6238 120.24ZM58.9795 117.48V123H59.9395V118.38H61.9195V117.48H58.9795ZM62.8367 120.48H67.5527C67.5607 120.432 67.5647 120.384 67.5647 120.336C67.5647 120.288 67.5647 120.24 67.5647 120.192C67.5647 119.608 67.4567 119.108 67.2407 118.692C67.0247 118.268 66.7207 117.94 66.3287 117.708C65.9367 117.476 65.4807 117.36 64.9607 117.36C64.4887 117.36 64.0607 117.456 63.6767 117.648C63.3007 117.84 62.9927 118.108 62.7527 118.452C62.5127 118.796 62.3527 119.196 62.2727 119.652C62.2567 119.748 62.2447 119.844 62.2367 119.94C62.2287 120.036 62.2247 120.136 62.2247 120.24C62.2247 120.792 62.3367 121.288 62.5607 121.728C62.7927 122.16 63.1047 122.5 63.4967 122.748C63.8967 122.996 64.3447 123.12 64.8407 123.12C65.3207 123.12 65.7207 123.064 66.0407 122.952C66.3607 122.832 66.6327 122.668 66.8567 122.46C67.0807 122.244 67.2847 121.996 67.4687 121.716L66.6887 121.224C66.5687 121.424 66.4247 121.6 66.2567 121.752C66.0887 121.896 65.8967 122.012 65.6807 122.1C65.4727 122.18 65.2327 122.22 64.9607 122.22C64.6007 122.22 64.2887 122.144 64.0247 121.992C63.7607 121.84 63.5567 121.616 63.4127 121.32C63.2687 121.024 63.1967 120.664 63.1967 120.24L63.2207 119.88C63.2207 119.536 63.2967 119.24 63.4487 118.992C63.6087 118.736 63.8207 118.54 64.0847 118.404C64.3487 118.268 64.6407 118.2 64.9607 118.2C65.2807 118.2 65.5487 118.264 65.7647 118.392C65.9887 118.512 66.1607 118.684 66.2807 118.908C66.4087 119.124 66.4887 119.376 66.5207 119.664H62.8367V120.48ZM68.0405 117.48V118.38H71.2805V117.48H68.0405ZM69.1805 117.72V123H70.1405V117.72H69.1805ZM76.8638 118.44L76.9238 117.06L72.3638 122.04L72.3038 123.42L76.8638 118.44ZM73.2638 117.48H72.3038V123.42L73.2638 122.1V117.48ZM76.9238 117.06L75.9638 118.38V123H76.9238V117.06ZM80.6428 121.32H82.5268V120.42H80.6428V121.32ZM81.8428 117.48V123H82.8028V117.48H81.8428ZM79.4428 117.48H78.4828V119.064C78.4828 119.6 78.5468 120.036 78.6748 120.372C78.8028 120.7 79.0228 120.94 79.3348 121.092C79.6548 121.244 80.0908 121.32 80.6428 121.32V120.42C80.3388 120.42 80.0988 120.376 79.9228 120.288C79.7468 120.192 79.6228 120.044 79.5508 119.844C79.4788 119.644 79.4428 119.384 79.4428 119.064V117.48ZM84.739 120.48H89.455C89.463 120.432 89.467 120.384 89.467 120.336C89.467 120.288 89.467 120.24 89.467 120.192C89.467 119.608 89.359 119.108 89.143 118.692C88.927 118.268 88.623 117.94 88.231 117.708C87.839 117.476 87.383 117.36 86.863 117.36C86.391 117.36 85.963 117.456 85.579 117.648C85.203 117.84 84.895 118.108 84.655 118.452C84.415 118.796 84.255 119.196 84.175 119.652C84.159 119.748 84.147 119.844 84.139 119.94C84.131 120.036 84.127 120.136 84.127 120.24C84.127 120.792 84.239 121.288 84.463 121.728C84.695 122.16 85.007 122.5 85.399 122.748C85.799 122.996 86.247 123.12 86.743 123.12C87.223 123.12 87.623 123.064 87.943 122.952C88.263 122.832 88.535 122.668 88.759 122.46C88.983 122.244 89.187 121.996 89.371 121.716L88.591 121.224C88.471 121.424 88.327 121.6 88.159 121.752C87.991 121.896 87.799 122.012 87.583 122.1C87.375 122.18 87.135 122.22 86.863 122.22C86.503 122.22 86.191 122.144 85.927 121.992C85.663 121.84 85.459 121.616 85.315 121.32C85.171 121.024 85.099 120.664 85.099 120.24L85.123 119.88C85.123 119.536 85.199 119.24 85.351 118.992C85.511 118.736 85.723 118.54 85.987 118.404C86.251 118.268 86.543 118.2 86.863 118.2C87.183 118.2 87.451 118.264 87.667 118.392C87.891 118.512 88.063 118.684 88.183 118.908C88.311 119.124 88.391 119.376 88.423 119.664H84.739V120.48ZM91.2148 120.24C91.2148 119.856 91.2948 119.516 91.4548 119.22C91.6228 118.916 91.8468 118.68 92.1268 118.512C92.4148 118.344 92.7388 118.26 93.0988 118.26C93.3948 118.26 93.6708 118.308 93.9268 118.404C94.1908 118.492 94.4188 118.612 94.6108 118.764C94.8028 118.916 94.9388 119.084 95.0188 119.268V118.068C94.8268 117.844 94.5508 117.672 94.1908 117.552C93.8388 117.424 93.4748 117.36 93.0988 117.36C92.5628 117.36 92.0788 117.484 91.6468 117.732C91.2148 117.98 90.8708 118.32 90.6148 118.752C90.3668 119.184 90.2428 119.68 90.2428 120.24C90.2428 120.792 90.3668 121.288 90.6148 121.728C90.8708 122.16 91.2148 122.5 91.6468 122.748C92.0788 122.996 92.5628 123.12 93.0988 123.12C93.4748 123.12 93.8388 123.06 94.1908 122.94C94.5508 122.812 94.8268 122.636 95.0188 122.412V121.212C94.9388 121.388 94.8028 121.556 94.6108 121.716C94.4188 121.868 94.1908 121.992 93.9268 122.088C93.6708 122.176 93.3948 122.22 93.0988 122.22C92.7388 122.22 92.4148 122.136 92.1268 121.968C91.8468 121.792 91.6228 121.556 91.4548 121.26C91.2948 120.964 91.2148 120.624 91.2148 120.24ZM96.4533 117.48V123H97.4133V117.48H96.4533ZM99.4533 117.48L97.0533 119.76L99.6933 123H100.893L98.2533 119.76L100.653 117.48H99.4533ZM106.418 118.44L106.478 117.06L101.918 122.04L101.858 123.42L106.418 118.44ZM102.818 117.48H101.858V123.42L102.818 122.1V117.48ZM106.478 117.06L105.518 118.38V123H106.478V117.06ZM108.47 120.48H113.186C113.194 120.432 113.198 120.384 113.198 120.336C113.198 120.288 113.198 120.24 113.198 120.192C113.198 119.608 113.09 119.108 112.874 118.692C112.658 118.268 112.354 117.94 111.962 117.708C111.57 117.476 111.114 117.36 110.594 117.36C110.122 117.36 109.694 117.456 109.31 117.648C108.934 117.84 108.626 118.108 108.386 118.452C108.146 118.796 107.986 119.196 107.906 119.652C107.89 119.748 107.878 119.844 107.87 119.94C107.862 120.036 107.858 120.136 107.858 120.24C107.858 120.792 107.97 121.288 108.194 121.728C108.426 122.16 108.738 122.5 109.13 122.748C109.53 122.996 109.978 123.12 110.474 123.12C110.954 123.12 111.354 123.064 111.674 122.952C111.994 122.832 112.266 122.668 112.49 122.46C112.714 122.244 112.918 121.996 113.102 121.716L112.322 121.224C112.202 121.424 112.058 121.6 111.89 121.752C111.722 121.896 111.53 122.012 111.314 122.1C111.106 122.18 110.866 122.22 110.594 122.22C110.234 122.22 109.922 122.144 109.658 121.992C109.394 121.84 109.19 121.616 109.046 121.32C108.902 121.024 108.83 120.664 108.83 120.24L108.854 119.88C108.854 119.536 108.93 119.24 109.082 118.992C109.242 118.736 109.454 118.54 109.718 118.404C109.982 118.268 110.274 118.2 110.594 118.2C110.914 118.2 111.182 118.264 111.398 118.392C111.622 118.512 111.794 118.684 111.914 118.908C112.042 119.124 112.122 119.376 112.154 119.664H108.47V120.48ZM122.611 117.48H118.111V123H119.071V118.38H121.651V123H122.611V117.48ZM125.316 125.64V117.48H124.356V125.64H125.316ZM129.936 120.24C129.936 119.64 129.812 119.128 129.564 118.704C129.316 118.272 128.984 117.94 128.568 117.708C128.16 117.476 127.704 117.36 127.2 117.36C126.744 117.36 126.34 117.476 125.988 117.708C125.644 117.94 125.372 118.272 125.172 118.704C124.98 119.128 124.884 119.64 124.884 120.24C124.884 120.832 124.98 121.344 125.172 121.776C125.372 122.208 125.644 122.54 125.988 122.772C126.34 123.004 126.744 123.12 127.2 123.12C127.704 123.12 128.16 123.004 128.568 122.772C128.984 122.54 129.316 122.208 129.564 121.776C129.812 121.344 129.936 120.832 129.936 120.24ZM128.964 120.24C128.964 120.664 128.876 121.024 128.7 121.32C128.532 121.616 128.304 121.84 128.016 121.992C127.736 122.144 127.424 122.22 127.08 122.22C126.8 122.22 126.524 122.144 126.252 121.992C125.98 121.84 125.756 121.616 125.58 121.32C125.404 121.024 125.316 120.664 125.316 120.24C125.316 119.816 125.404 119.456 125.58 119.16C125.756 118.864 125.98 118.64 126.252 118.488C126.524 118.336 126.8 118.26 127.08 118.26C127.424 118.26 127.736 118.336 128.016 118.488C128.304 118.64 128.532 118.864 128.7 119.16C128.876 119.456 128.964 119.816 128.964 120.24ZM131.391 120.48H136.107C136.115 120.432 136.119 120.384 136.119 120.336C136.119 120.288 136.119 120.24 136.119 120.192C136.119 119.608 136.011 119.108 135.795 118.692C135.579 118.268 135.275 117.94 134.883 117.708C134.491 117.476 134.035 117.36 133.515 117.36C133.043 117.36 132.615 117.456 132.231 117.648C131.855 117.84 131.547 118.108 131.307 118.452C131.067 118.796 130.907 119.196 130.827 119.652C130.811 119.748 130.799 119.844 130.791 119.94C130.783 120.036 130.779 120.136 130.779 120.24C130.779 120.792 130.891 121.288 131.115 121.728C131.347 122.16 131.659 122.5 132.051 122.748C132.451 122.996 132.899 123.12 133.395 123.12C133.875 123.12 134.275 123.064 134.595 122.952C134.915 122.832 135.187 122.668 135.411 122.46C135.635 122.244 135.839 121.996 136.023 121.716L135.243 121.224C135.123 121.424 134.979 121.6 134.811 121.752C134.643 121.896 134.451 122.012 134.235 122.1C134.027 122.18 133.787 122.22 133.515 122.22C133.155 122.22 132.843 122.144 132.579 121.992C132.315 121.84 132.111 121.616 131.967 121.32C131.823 121.024 131.751 120.664 131.751 120.24L131.775 119.88C131.775 119.536 131.851 119.24 132.003 118.992C132.163 118.736 132.375 118.54 132.639 118.404C132.903 118.268 133.195 118.2 133.515 118.2C133.835 118.2 134.103 118.264 134.319 118.392C134.543 118.512 134.715 118.684 134.835 118.908C134.963 119.124 135.043 119.376 135.075 119.664H131.391V120.48ZM139.838 119.136L141.458 122.64H142.538L139.838 117.06L137.138 122.64H138.218L139.838 119.136ZM142.298 123V124.08H143.258V122.1H136.418V124.08H137.438V123H142.298ZM149.201 117.48H144.701V123H145.661V118.38H148.241V123H149.201V117.48ZM151.905 125.64V117.48H150.945V125.64H151.905ZM156.525 120.24C156.525 119.64 156.401 119.128 156.153 118.704C155.905 118.272 155.573 117.94 155.157 117.708C154.749 117.476 154.293 117.36 153.789 117.36C153.333 117.36 152.929 117.476 152.577 117.708C152.233 117.94 151.961 118.272 151.761 118.704C151.569 119.128 151.473 119.64 151.473 120.24C151.473 120.832 151.569 121.344 151.761 121.776C151.961 122.208 152.233 122.54 152.577 122.772C152.929 123.004 153.333 123.12 153.789 123.12C154.293 123.12 154.749 123.004 155.157 122.772C155.573 122.54 155.905 122.208 156.153 121.776C156.401 121.344 156.525 120.832 156.525 120.24ZM155.553 120.24C155.553 120.664 155.465 121.024 155.289 121.32C155.121 121.616 154.893 121.84 154.605 121.992C154.325 122.144 154.013 122.22 153.669 122.22C153.389 122.22 153.113 122.144 152.841 121.992C152.569 121.84 152.345 121.616 152.169 121.32C151.993 121.024 151.905 120.664 151.905 120.24C151.905 119.816 151.993 119.456 152.169 119.16C152.345 118.864 152.569 118.64 152.841 118.488C153.113 118.336 153.389 118.26 153.669 118.26C154.013 118.26 154.325 118.336 154.605 118.488C154.893 118.64 155.121 118.864 155.289 119.16C155.465 119.456 155.553 119.816 155.553 120.24ZM162.469 118.44L162.529 117.06L157.969 122.04L157.909 123.42L162.469 118.44ZM158.869 117.48H157.909V123.42L158.869 122.1V117.48ZM162.529 117.06L161.569 118.38V123H162.529V117.06ZM165.18 123L167.22 120.12H166.164L164.124 123H165.18ZM168.684 123V117.48H167.724V123H168.684ZM168.12 119.952H166.404C166.172 119.952 165.976 119.924 165.816 119.868C165.664 119.804 165.548 119.712 165.468 119.592C165.388 119.472 165.348 119.32 165.348 119.136C165.348 118.952 165.388 118.8 165.468 118.68C165.548 118.56 165.664 118.472 165.816 118.416C165.976 118.352 166.172 118.32 166.404 118.32H168.12V117.48H166.404C166.028 117.48 165.684 117.536 165.372 117.648C165.068 117.76 164.828 117.936 164.652 118.176C164.476 118.416 164.388 118.736 164.388 119.136C164.388 119.528 164.476 119.848 164.652 120.096C164.828 120.336 165.068 120.512 165.372 120.624C165.684 120.736 166.028 120.792 166.404 120.792H168.12V119.952ZM169.349 117.48V118.38H172.589V117.48H169.349ZM170.489 117.72V123H171.449V117.72H170.489ZM178.172 118.44L178.232 117.06L173.672 122.04L173.612 123.42L178.172 118.44ZM174.572 117.48H173.612V123.42L174.572 122.1V117.48ZM178.232 117.06L177.272 118.38V123H178.232V117.06ZM180.883 123L182.923 120.12H181.867L179.827 123H180.883ZM184.387 123V117.48H183.427V123H184.387ZM183.823 119.952H182.107C181.875 119.952 181.679 119.924 181.519 119.868C181.367 119.804 181.251 119.712 181.171 119.592C181.091 119.472 181.051 119.32 181.051 119.136C181.051 118.952 181.091 118.8 181.171 118.68C181.251 118.56 181.367 118.472 181.519 118.416C181.679 118.352 181.875 118.32 182.107 118.32H183.823V117.48H182.107C181.731 117.48 181.387 117.536 181.075 117.648C180.771 117.76 180.531 117.936 180.355 118.176C180.179 118.416 180.091 118.736 180.091 119.136C180.091 119.528 180.179 119.848 180.355 120.096C180.531 120.336 180.771 120.512 181.075 120.624C181.387 120.736 181.731 120.792 182.107 120.792H183.823V119.952Z" fill="#FBFBFB"/>
</svg>
