<svg width="284" height="284" viewBox="0 0 284 284" fill="none" xmlns="http://www.w3.org/2000/svg">
<mask id="mask0_3992_82416" style="mask-type:alpha" maskUnits="userSpaceOnUse" x="0" y="0" width="284" height="284">
<rect width="284" height="284" fill="#D9D9D9"/>
</mask>
<g mask="url(#mask0_3992_82416)">
<path d="M283.425 141.999C283.425 166.041 277.296 189.686 265.617 210.7C253.938 231.714 237.094 249.404 216.677 262.099C196.261 274.793 172.945 282.073 148.932 283.251C124.919 284.429 101.003 279.466 79.4416 268.83L142.003 141.999H283.425Z" fill="#FFB761"/>
<path d="M79.549 268.885C60.0092 259.268 42.9545 245.268 29.7145 227.977C16.4745 210.685 7.4069 190.569 3.21857 169.198C-0.969749 147.826 -0.165624 125.776 5.56827 104.766C11.3022 83.7559 21.8109 64.3542 36.2752 48.073C50.7396 31.7919 68.7687 19.0713 88.957 10.9029C109.145 2.73454 130.948 -0.660912 152.664 0.981264C174.38 2.62344 195.424 9.25887 214.154 20.3703C232.885 31.4817 248.796 46.7688 260.647 65.04L142 142L79.549 268.885Z" fill="#676767"/>
<path d="M105.397 5.39746C126.551 -0.270548 148.731 -0.948507 170.191 3.41702C191.651 7.78251 211.804 17.0722 229.062 30.554C246.32 44.0358 260.211 61.3413 269.64 81.1068C279.07 100.872 283.78 122.558 283.4 144.454L142 142L105.397 5.39746Z" fill="#FF8B02"/>
<path d="M79.7356 268.975C54.3405 256.521 33.2631 236.739 19.2262 212.183C5.18943 187.628 -1.1618 159.427 0.993045 131.225L142.003 141.999L79.7356 268.975Z" fill="#A4A4A4"/>
<path d="M0.997266 131.17C3.29017 101.315 15.0001 72.9576 34.4405 50.1832L142.003 141.999L0.997266 131.17Z" fill="#FBFBFB"/>
<path d="M75.8039 17.029C85.546 11.8684 95.8581 7.86464 106.53 5.09932L142.003 141.999L75.8039 17.029Z" fill="#101213"/>
</g>
</svg>
