<svg width="261" height="61" viewBox="0 0 261 61" fill="none" xmlns="http://www.w3.org/2000/svg">
<rect y="4.5" width="21" height="8" fill="#FF8B02"/>
<path d="M34.188 4.6H35.208V13H34.188V4.6ZM37.896 8.8C37.896 8.304 37.776 7.892 37.536 7.564C37.296 7.236 36.964 6.992 36.54 6.832C36.116 6.664 35.628 6.58 35.076 6.58H34.32C33.768 6.58 33.28 6.664 32.856 6.832C32.432 6.992 32.1 7.236 31.86 7.564C31.62 7.892 31.5 8.304 31.5 8.8C31.5 9.288 31.62 9.7 31.86 10.036C32.1 10.364 32.432 10.612 32.856 10.78C33.28 10.94 33.768 11.02 34.32 11.02H35.076C35.628 11.02 36.116 10.94 36.54 10.78C36.964 10.612 37.296 10.364 37.536 10.036C37.776 9.7 37.896 9.288 37.896 8.8ZM38.916 8.8C38.916 9.472 38.748 10.052 38.412 10.54C38.084 11.02 37.628 11.392 37.044 11.656C36.468 11.912 35.812 12.04 35.076 12.04H34.32C33.584 12.04 32.924 11.912 32.34 11.656C31.764 11.392 31.308 11.02 30.972 10.54C30.644 10.052 30.48 9.472 30.48 8.8C30.48 8.12 30.644 7.54 30.972 7.06C31.308 6.58 31.764 6.212 32.34 5.956C32.924 5.692 33.584 5.56 34.32 5.56H35.076C35.812 5.56 36.468 5.692 37.044 5.956C37.628 6.212 38.084 6.58 38.412 7.06C38.748 7.54 38.916 8.12 38.916 8.8ZM44.9184 8.44L40.3584 13.42L40.4184 12.04L44.9784 7.06L44.9184 8.44ZM41.3184 7.48V12.1L40.3584 13.42V7.48H41.3184ZM44.9784 7.06V13H44.0184V8.38L44.9784 7.06ZM48.7935 10.24V9.64C49.1615 9.64 49.4255 9.572 49.5855 9.436C49.7455 9.292 49.8255 9.12 49.8255 8.92C49.8255 8.704 49.7455 8.536 49.5855 8.416C49.4255 8.288 49.2015 8.224 48.9135 8.224C48.6735 8.224 48.4735 8.272 48.3135 8.368C48.1615 8.456 48.0495 8.568 47.9775 8.704C47.9055 8.832 47.8695 8.96 47.8695 9.088H46.8975C46.8975 8.776 46.9855 8.488 47.1615 8.224C47.3375 7.96 47.5775 7.752 47.8815 7.6C48.1855 7.44 48.5295 7.36 48.9135 7.36C49.2735 7.36 49.5975 7.428 49.8855 7.564C50.1735 7.7 50.3975 7.88 50.5575 8.104C50.7255 8.328 50.8095 8.576 50.8095 8.848C50.8095 9.248 50.6295 9.58 50.2695 9.844C49.9175 10.108 49.4255 10.24 48.7935 10.24ZM48.8895 13.12C48.2415 13.12 47.7215 12.944 47.3295 12.592C46.9455 12.24 46.7215 11.796 46.6575 11.26H47.6295C47.6855 11.524 47.8055 11.76 47.9895 11.968C48.1735 12.176 48.4735 12.28 48.8895 12.28C49.1455 12.28 49.3615 12.244 49.5375 12.172C49.7215 12.1 49.8615 11.996 49.9575 11.86C50.0535 11.724 50.1015 11.568 50.1015 11.392C50.1015 11.2 50.0495 11.036 49.9455 10.9C49.8495 10.764 49.7015 10.66 49.5015 10.588C49.3095 10.516 49.0735 10.48 48.7935 10.48V9.88C49.4815 9.88 50.0295 10 50.4375 10.24C50.8455 10.48 51.0495 10.86 51.0495 11.38C51.0495 11.74 50.9495 12.052 50.7495 12.316C50.5575 12.572 50.2975 12.772 49.9695 12.916C49.6415 13.052 49.2815 13.12 48.8895 13.12ZM57.1059 8.44L52.5459 13.42L52.6059 12.04L57.1659 7.06L57.1059 8.44ZM53.5059 7.48V12.1L52.5459 13.42V7.48H53.5059ZM57.1659 7.06V13H56.2059V8.38L57.1659 7.06ZM60.885 11.32V10.42H62.769V11.32H60.885ZM62.085 7.48H63.045V13H62.085V7.48ZM59.685 7.48V9.064C59.685 9.384 59.721 9.644 59.793 9.844C59.865 10.044 59.989 10.192 60.165 10.288C60.341 10.376 60.581 10.42 60.885 10.42V11.32C60.333 11.32 59.897 11.244 59.577 11.092C59.265 10.94 59.045 10.7 58.917 10.372C58.789 10.036 58.725 9.6 58.725 9.064V7.48H59.685ZM64.9812 10.48V9.664H68.6652C68.6332 9.376 68.5532 9.124 68.4252 8.908C68.3052 8.684 68.1332 8.512 67.9092 8.392C67.6932 8.264 67.4252 8.2 67.1052 8.2C66.7852 8.2 66.4932 8.268 66.2292 8.404C65.9652 8.54 65.7532 8.736 65.5932 8.992C65.4412 9.24 65.3652 9.536 65.3652 9.88L65.3412 10.24C65.3412 10.664 65.4132 11.024 65.5572 11.32C65.7012 11.616 65.9052 11.84 66.1692 11.992C66.4332 12.144 66.7452 12.22 67.1052 12.22C67.3772 12.22 67.6172 12.18 67.8252 12.1C68.0412 12.012 68.2332 11.896 68.4012 11.752C68.5692 11.6 68.7132 11.424 68.8332 11.224L69.6132 11.716C69.4292 11.996 69.2252 12.244 69.0012 12.46C68.7772 12.668 68.5052 12.832 68.1852 12.952C67.8652 13.064 67.4652 13.12 66.9852 13.12C66.4892 13.12 66.0412 12.996 65.6412 12.748C65.2492 12.5 64.9372 12.16 64.7052 11.728C64.4812 11.288 64.3692 10.792 64.3692 10.24C64.3692 10.136 64.3732 10.036 64.3812 9.94C64.3892 9.844 64.4012 9.748 64.4172 9.652C64.4972 9.196 64.6572 8.796 64.8972 8.452C65.1372 8.108 65.4452 7.84 65.8212 7.648C66.2052 7.456 66.6332 7.36 67.1052 7.36C67.6252 7.36 68.0812 7.476 68.4732 7.708C68.8652 7.94 69.1692 8.268 69.3852 8.692C69.6012 9.108 69.7092 9.608 69.7092 10.192C69.7092 10.24 69.7092 10.288 69.7092 10.336C69.7092 10.384 69.7052 10.432 69.6972 10.48H64.9812ZM71.457 10.24C71.457 10.624 71.537 10.964 71.697 11.26C71.865 11.556 72.089 11.792 72.369 11.968C72.657 12.136 72.981 12.22 73.341 12.22C73.637 12.22 73.913 12.176 74.169 12.088C74.433 11.992 74.661 11.868 74.853 11.716C75.045 11.556 75.181 11.388 75.261 11.212V12.412C75.069 12.636 74.793 12.812 74.433 12.94C74.081 13.06 73.717 13.12 73.341 13.12C72.805 13.12 72.321 12.996 71.889 12.748C71.457 12.5 71.113 12.16 70.857 11.728C70.609 11.288 70.485 10.792 70.485 10.24C70.485 9.68 70.609 9.184 70.857 8.752C71.113 8.32 71.457 7.98 71.889 7.732C72.321 7.484 72.805 7.36 73.341 7.36C73.717 7.36 74.081 7.424 74.433 7.552C74.793 7.672 75.069 7.844 75.261 8.068V9.268C75.181 9.084 75.045 8.916 74.853 8.764C74.661 8.612 74.433 8.492 74.169 8.404C73.913 8.308 73.637 8.26 73.341 8.26C72.981 8.26 72.657 8.344 72.369 8.512C72.089 8.68 71.865 8.916 71.697 9.22C71.537 9.516 71.457 9.856 71.457 10.24ZM76.6955 7.48H77.6555V13H76.6955V7.48ZM79.6955 7.48H80.8955L78.4955 9.76L81.1355 13H79.9355L77.2955 9.76L79.6955 7.48ZM86.6606 8.44L82.1006 13.42L82.1606 12.04L86.7206 7.06L86.6606 8.44ZM83.0606 7.48V12.1L82.1006 13.42V7.48H83.0606ZM86.7206 7.06V13H85.7606V8.38L86.7206 7.06ZM88.7117 10.48V9.664H92.3957C92.3637 9.376 92.2837 9.124 92.1557 8.908C92.0357 8.684 91.8637 8.512 91.6397 8.392C91.4237 8.264 91.1557 8.2 90.8357 8.2C90.5157 8.2 90.2237 8.268 89.9597 8.404C89.6957 8.54 89.4837 8.736 89.3237 8.992C89.1717 9.24 89.0957 9.536 89.0957 9.88L89.0717 10.24C89.0717 10.664 89.1437 11.024 89.2877 11.32C89.4317 11.616 89.6357 11.84 89.8997 11.992C90.1637 12.144 90.4757 12.22 90.8357 12.22C91.1077 12.22 91.3477 12.18 91.5557 12.1C91.7717 12.012 91.9637 11.896 92.1317 11.752C92.2997 11.6 92.4437 11.424 92.5637 11.224L93.3437 11.716C93.1597 11.996 92.9557 12.244 92.7317 12.46C92.5077 12.668 92.2357 12.832 91.9157 12.952C91.5957 13.064 91.1957 13.12 90.7157 13.12C90.2197 13.12 89.7717 12.996 89.3717 12.748C88.9797 12.5 88.6677 12.16 88.4357 11.728C88.2117 11.288 88.0997 10.792 88.0997 10.24C88.0997 10.136 88.1037 10.036 88.1117 9.94C88.1197 9.844 88.1317 9.748 88.1477 9.652C88.2277 9.196 88.3877 8.796 88.6277 8.452C88.8677 8.108 89.1757 7.84 89.5517 7.648C89.9357 7.456 90.3637 7.36 90.8357 7.36C91.3557 7.36 91.8117 7.476 92.2037 7.708C92.5957 7.94 92.8997 8.268 93.1157 8.692C93.3317 9.108 93.4397 9.608 93.4397 10.192C93.4397 10.24 93.4397 10.288 93.4397 10.336C93.4397 10.384 93.4357 10.432 93.4277 10.48H88.7117ZM103.189 7.48V13H102.229V8.38H99.4091V11.08C99.4091 11.512 99.3411 11.872 99.2051 12.16C99.0771 12.44 98.8771 12.652 98.6051 12.796C98.3331 12.932 97.9891 13 97.5731 13V12.124C97.8131 12.124 98.0171 12.048 98.1851 11.896C98.3611 11.744 98.4491 11.472 98.4491 11.08V7.48H103.189ZM109.665 8.44L105.105 13.42L105.165 12.04L109.725 7.06L109.665 8.44ZM106.065 7.48V12.1L105.105 13.42V7.48H106.065ZM109.725 7.06V13H108.765V8.38L109.725 7.06ZM116.084 12.1H117.044V14.08H116.204V13H111.584V7.48H112.544V12.1H115.124V7.48H116.084V12.1ZM118.801 11.38C118.801 11.572 118.853 11.736 118.957 11.872C119.061 12 119.201 12.1 119.377 12.172C119.553 12.236 119.749 12.268 119.965 12.268C120.285 12.268 120.569 12.22 120.817 12.124C121.065 12.028 121.257 11.876 121.393 11.668C121.537 11.46 121.609 11.184 121.609 10.84L121.801 11.44C121.801 11.792 121.705 12.096 121.513 12.352C121.329 12.6 121.081 12.792 120.769 12.928C120.457 13.056 120.109 13.12 119.725 13.12C119.381 13.12 119.065 13.056 118.777 12.928C118.489 12.8 118.257 12.612 118.081 12.364C117.913 12.108 117.829 11.792 117.829 11.416C117.829 11.024 117.925 10.692 118.117 10.42C118.309 10.148 118.581 9.94 118.933 9.796C119.285 9.644 119.701 9.568 120.181 9.568C120.533 9.568 120.833 9.616 121.081 9.712C121.337 9.8 121.541 9.904 121.693 10.024C121.845 10.136 121.949 10.228 122.005 10.3V10.864C121.733 10.672 121.457 10.532 121.177 10.444C120.897 10.348 120.581 10.3 120.229 10.3C119.909 10.3 119.641 10.344 119.425 10.432C119.217 10.52 119.061 10.644 118.957 10.804C118.853 10.964 118.801 11.156 118.801 11.38ZM118.801 8.776L118.333 8.044C118.541 7.892 118.821 7.74 119.173 7.588C119.525 7.436 119.949 7.36 120.445 7.36C120.869 7.36 121.237 7.428 121.549 7.564C121.869 7.692 122.117 7.88 122.293 8.128C122.477 8.376 122.569 8.68 122.569 9.04V13H121.609V9.04C121.609 8.76 121.489 8.552 121.249 8.416C121.017 8.272 120.749 8.2 120.445 8.2C120.181 8.2 119.941 8.236 119.725 8.308C119.509 8.372 119.321 8.452 119.161 8.548C119.009 8.636 118.889 8.712 118.801 8.776Z" fill="#FBFBFB"/>
<rect y="26.5" width="21" height="8" fill="#FFB761"/>
<path d="M30.96 26.6H35.1V27.56H31.98V35H30.96V26.6ZM34.4395 32.24C34.4395 31.68 34.5635 31.184 34.8115 30.752C35.0675 30.32 35.4115 29.98 35.8435 29.732C36.2755 29.484 36.7595 29.36 37.2955 29.36C37.8395 29.36 38.3235 29.484 38.7475 29.732C39.1795 29.98 39.5195 30.32 39.7675 30.752C40.0235 31.184 40.1515 31.68 40.1515 32.24C40.1515 32.792 40.0235 33.288 39.7675 33.728C39.5195 34.16 39.1795 34.5 38.7475 34.748C38.3235 34.996 37.8395 35.12 37.2955 35.12C36.7595 35.12 36.2755 34.996 35.8435 34.748C35.4115 34.5 35.0675 34.16 34.8115 33.728C34.5635 33.288 34.4395 32.792 34.4395 32.24ZM35.4115 32.24C35.4115 32.624 35.4915 32.964 35.6515 33.26C35.8195 33.556 36.0435 33.792 36.3235 33.968C36.6115 34.136 36.9355 34.22 37.2955 34.22C37.6555 34.22 37.9755 34.136 38.2555 33.968C38.5435 33.792 38.7675 33.556 38.9275 33.26C39.0955 32.964 39.1795 32.624 39.1795 32.24C39.1795 31.856 39.0955 31.516 38.9275 31.22C38.7675 30.916 38.5435 30.68 38.2555 30.512C37.9755 30.344 37.6555 30.26 37.2955 30.26C36.9355 30.26 36.6115 30.344 36.3235 30.512C36.0435 30.68 35.8195 30.916 35.6515 31.22C35.4915 31.516 35.4115 31.856 35.4115 32.24ZM41.9023 32.24C41.9023 32.624 41.9823 32.964 42.1423 33.26C42.3103 33.556 42.5343 33.792 42.8143 33.968C43.1023 34.136 43.4263 34.22 43.7863 34.22C44.0823 34.22 44.3583 34.176 44.6143 34.088C44.8783 33.992 45.1063 33.868 45.2983 33.716C45.4903 33.556 45.6263 33.388 45.7063 33.212V34.412C45.5143 34.636 45.2383 34.812 44.8783 34.94C44.5263 35.06 44.1623 35.12 43.7863 35.12C43.2503 35.12 42.7663 34.996 42.3343 34.748C41.9023 34.5 41.5583 34.16 41.3023 33.728C41.0543 33.288 40.9303 32.792 40.9303 32.24C40.9303 31.68 41.0543 31.184 41.3023 30.752C41.5583 30.32 41.9023 29.98 42.3343 29.732C42.7663 29.484 43.2503 29.36 43.7863 29.36C44.1623 29.36 44.5263 29.424 44.8783 29.552C45.2383 29.672 45.5143 29.844 45.7063 30.068V31.268C45.6263 31.084 45.4903 30.916 45.2983 30.764C45.1063 30.612 44.8783 30.492 44.6143 30.404C44.3583 30.308 44.0823 30.26 43.7863 30.26C43.4263 30.26 43.1023 30.344 42.8143 30.512C42.5343 30.68 42.3103 30.916 42.1423 31.22C41.9823 31.516 41.9023 31.856 41.9023 32.24ZM51.5808 29.48L47.9808 37.64H46.9008L48.4128 34.22L46.3008 29.48H47.4408L49.1928 33.8L48.7968 33.752L50.5008 29.48H51.5808ZM54.7711 31.136L53.1511 34.64H52.0711L54.7711 29.06L57.4711 34.64H56.3911L54.7711 31.136ZM57.2311 35H52.3711V36.08H51.3511V34.1H58.1911V36.08H57.2311V35ZM60.0664 33.38C60.0664 33.572 60.1184 33.736 60.2224 33.872C60.3264 34 60.4664 34.1 60.6424 34.172C60.8184 34.236 61.0144 34.268 61.2304 34.268C61.5504 34.268 61.8344 34.22 62.0824 34.124C62.3304 34.028 62.5224 33.876 62.6584 33.668C62.8024 33.46 62.8744 33.184 62.8744 32.84L63.0664 33.44C63.0664 33.792 62.9704 34.096 62.7784 34.352C62.5944 34.6 62.3464 34.792 62.0344 34.928C61.7224 35.056 61.3744 35.12 60.9904 35.12C60.6464 35.12 60.3304 35.056 60.0424 34.928C59.7544 34.8 59.5224 34.612 59.3464 34.364C59.1784 34.108 59.0944 33.792 59.0944 33.416C59.0944 33.024 59.1904 32.692 59.3824 32.42C59.5744 32.148 59.8464 31.94 60.1984 31.796C60.5504 31.644 60.9664 31.568 61.4464 31.568C61.7984 31.568 62.0984 31.616 62.3464 31.712C62.6024 31.8 62.8064 31.904 62.9584 32.024C63.1104 32.136 63.2144 32.228 63.2704 32.3V32.864C62.9984 32.672 62.7224 32.532 62.4424 32.444C62.1624 32.348 61.8464 32.3 61.4944 32.3C61.1744 32.3 60.9064 32.344 60.6904 32.432C60.4824 32.52 60.3264 32.644 60.2224 32.804C60.1184 32.964 60.0664 33.156 60.0664 33.38ZM60.0664 30.776L59.5984 30.044C59.8064 29.892 60.0864 29.74 60.4384 29.588C60.7904 29.436 61.2144 29.36 61.7104 29.36C62.1344 29.36 62.5024 29.428 62.8144 29.564C63.1344 29.692 63.3824 29.88 63.5584 30.128C63.7424 30.376 63.8344 30.68 63.8344 31.04V35H62.8744V31.04C62.8744 30.76 62.7544 30.552 62.5144 30.416C62.2824 30.272 62.0144 30.2 61.7104 30.2C61.4464 30.2 61.2064 30.236 60.9904 30.308C60.7744 30.372 60.5864 30.452 60.4264 30.548C60.2744 30.636 60.1544 30.712 60.0664 30.776ZM66.3586 37.64H65.3986V29.48H66.3586V37.64ZM70.9786 32.24C70.9786 32.832 70.8546 33.344 70.6066 33.776C70.3586 34.208 70.0266 34.54 69.6106 34.772C69.2026 35.004 68.7466 35.12 68.2426 35.12C67.7866 35.12 67.3826 35.004 67.0306 34.772C66.6866 34.54 66.4146 34.208 66.2146 33.776C66.0226 33.344 65.9266 32.832 65.9266 32.24C65.9266 31.64 66.0226 31.128 66.2146 30.704C66.4146 30.272 66.6866 29.94 67.0306 29.708C67.3826 29.476 67.7866 29.36 68.2426 29.36C68.7466 29.36 69.2026 29.476 69.6106 29.708C70.0266 29.94 70.3586 30.272 70.6066 30.704C70.8546 31.128 70.9786 31.64 70.9786 32.24ZM70.0066 32.24C70.0066 31.816 69.9186 31.456 69.7426 31.16C69.5746 30.864 69.3466 30.64 69.0586 30.488C68.7786 30.336 68.4666 30.26 68.1226 30.26C67.8426 30.26 67.5666 30.336 67.2946 30.488C67.0226 30.64 66.7986 30.864 66.6226 31.16C66.4466 31.456 66.3586 31.816 66.3586 32.24C66.3586 32.664 66.4466 33.024 66.6226 33.32C66.7986 33.616 67.0226 33.84 67.2946 33.992C67.5666 34.144 67.8426 34.22 68.1226 34.22C68.4666 34.22 68.7786 34.144 69.0586 33.992C69.3466 33.84 69.5746 33.616 69.7426 33.32C69.9186 33.024 70.0066 32.664 70.0066 32.24ZM72.7343 32.24C72.7343 32.624 72.8143 32.964 72.9743 33.26C73.1423 33.556 73.3663 33.792 73.6463 33.968C73.9343 34.136 74.2583 34.22 74.6183 34.22C74.9143 34.22 75.1903 34.176 75.4463 34.088C75.7103 33.992 75.9383 33.868 76.1303 33.716C76.3223 33.556 76.4583 33.388 76.5383 33.212V34.412C76.3463 34.636 76.0703 34.812 75.7103 34.94C75.3583 35.06 74.9943 35.12 74.6183 35.12C74.0823 35.12 73.5983 34.996 73.1663 34.748C72.7343 34.5 72.3903 34.16 72.1343 33.728C71.8863 33.288 71.7623 32.792 71.7623 32.24C71.7623 31.68 71.8863 31.184 72.1343 30.752C72.3903 30.32 72.7343 29.98 73.1663 29.732C73.5983 29.484 74.0823 29.36 74.6183 29.36C74.9943 29.36 75.3583 29.424 75.7103 29.552C76.0703 29.672 76.3463 29.844 76.5383 30.068V31.268C76.4583 31.084 76.3223 30.916 76.1303 30.764C75.9383 30.612 75.7103 30.492 75.4463 30.404C75.1903 30.308 74.9143 30.26 74.6183 30.26C74.2583 30.26 73.9343 30.344 73.6463 30.512C73.3663 30.68 73.1423 30.916 72.9743 31.22C72.8143 31.516 72.7343 31.856 72.7343 32.24ZM77.1928 29.48H80.4328V30.38H77.1928V29.48ZM78.3328 29.72H79.2928V35H78.3328V29.72ZM81.9601 32.12H83.5561C83.9401 32.12 84.2841 32.16 84.5881 32.24C84.8921 32.32 85.1321 32.46 85.3081 32.66C85.4841 32.86 85.5721 33.14 85.5721 33.5C85.5721 33.916 85.4321 34.272 85.1521 34.568C84.8801 34.856 84.4281 35 83.7961 35H81.9601V34.16H83.5561C83.9161 34.16 84.1801 34.084 84.3481 33.932C84.5241 33.78 84.6121 33.596 84.6121 33.38C84.6121 33.268 84.5881 33.168 84.5401 33.08C84.5001 32.992 84.4361 32.912 84.3481 32.84C84.2681 32.768 84.1601 32.716 84.0241 32.684C83.8961 32.644 83.7401 32.624 83.5561 32.624H81.9601V32.12ZM81.9601 32.36V31.796H83.4361C83.5801 31.796 83.7081 31.78 83.8201 31.748C83.9401 31.708 84.0401 31.652 84.1201 31.58C84.2001 31.508 84.2601 31.428 84.3001 31.34C84.3481 31.244 84.3721 31.144 84.3721 31.04C84.3721 30.824 84.2881 30.652 84.1201 30.524C83.9521 30.388 83.7241 30.32 83.4361 30.32H81.9601V29.48H83.4361C83.7801 29.48 84.0921 29.532 84.3721 29.636C84.6601 29.732 84.8921 29.892 85.0681 30.116C85.2441 30.332 85.3321 30.62 85.3321 30.98C85.3321 31.292 85.2441 31.552 85.0681 31.76C84.8921 31.96 84.6601 32.112 84.3721 32.216C84.0921 32.312 83.7801 32.36 83.4361 32.36H81.9601ZM81.3961 29.48H82.3561V35H81.3961V29.48ZM86.9656 32.48V31.664H90.6496C90.6176 31.376 90.5376 31.124 90.4096 30.908C90.2896 30.684 90.1176 30.512 89.8936 30.392C89.6776 30.264 89.4096 30.2 89.0896 30.2C88.7696 30.2 88.4776 30.268 88.2136 30.404C87.9496 30.54 87.7376 30.736 87.5776 30.992C87.4256 31.24 87.3496 31.536 87.3496 31.88L87.3256 32.24C87.3256 32.664 87.3976 33.024 87.5416 33.32C87.6856 33.616 87.8896 33.84 88.1536 33.992C88.4176 34.144 88.7296 34.22 89.0896 34.22C89.3616 34.22 89.6016 34.18 89.8096 34.1C90.0256 34.012 90.2176 33.896 90.3856 33.752C90.5536 33.6 90.6976 33.424 90.8176 33.224L91.5976 33.716C91.4136 33.996 91.2096 34.244 90.9856 34.46C90.7616 34.668 90.4896 34.832 90.1696 34.952C89.8496 35.064 89.4496 35.12 88.9696 35.12C88.4736 35.12 88.0256 34.996 87.6256 34.748C87.2336 34.5 86.9216 34.16 86.6896 33.728C86.4656 33.288 86.3536 32.792 86.3536 32.24C86.3536 32.136 86.3576 32.036 86.3656 31.94C86.3736 31.844 86.3856 31.748 86.4016 31.652C86.4816 31.196 86.6416 30.796 86.8816 30.452C87.1216 30.108 87.4296 29.84 87.8056 29.648C88.1896 29.456 88.6176 29.36 89.0896 29.36C89.6096 29.36 90.0656 29.476 90.4576 29.708C90.8496 29.94 91.1536 30.268 91.3696 30.692C91.5856 31.108 91.6936 31.608 91.6936 32.192C91.6936 32.24 91.6936 32.288 91.6936 32.336C91.6936 32.384 91.6896 32.432 91.6816 32.48H86.9656ZM93.5734 32.54V31.64H97.6534V32.54H93.5734ZM97.0294 29.48H97.9894V35H97.0294V29.48ZM93.0094 29.48H93.9694V35H93.0094V29.48ZM100.359 32.54V31.64H104.439V32.54H100.359ZM103.815 29.48H104.775V35H103.815V29.48ZM99.7945 29.48H100.755V35H99.7945V29.48ZM111.56 29.48H112.52V35H111.56V29.48ZM106.58 29.48H107.54V35H106.58V29.48ZM107.144 32.408V31.568H108.86C109.428 31.568 109.904 31.708 110.288 31.988C110.68 32.26 110.876 32.692 110.876 33.284C110.876 33.676 110.788 34 110.612 34.256C110.436 34.512 110.196 34.7 109.892 34.82C109.588 34.94 109.244 35 108.86 35H107.144V34.16H108.86C109.092 34.16 109.284 34.128 109.436 34.064C109.596 33.992 109.716 33.892 109.796 33.764C109.876 33.628 109.916 33.468 109.916 33.284C109.916 33.004 109.828 32.788 109.652 32.636C109.476 32.484 109.212 32.408 108.86 32.408H107.144ZM114.446 32.48V31.664H118.13C118.098 31.376 118.018 31.124 117.89 30.908C117.77 30.684 117.598 30.512 117.374 30.392C117.158 30.264 116.89 30.2 116.57 30.2C116.25 30.2 115.958 30.268 115.694 30.404C115.43 30.54 115.218 30.736 115.058 30.992C114.906 31.24 114.83 31.536 114.83 31.88L114.806 32.24C114.806 32.664 114.878 33.024 115.022 33.32C115.166 33.616 115.37 33.84 115.634 33.992C115.898 34.144 116.21 34.22 116.57 34.22C116.842 34.22 117.082 34.18 117.29 34.1C117.506 34.012 117.698 33.896 117.866 33.752C118.034 33.6 118.178 33.424 118.298 33.224L119.078 33.716C118.894 33.996 118.69 34.244 118.466 34.46C118.242 34.668 117.97 34.832 117.65 34.952C117.33 35.064 116.93 35.12 116.45 35.12C115.954 35.12 115.506 34.996 115.106 34.748C114.714 34.5 114.402 34.16 114.17 33.728C113.946 33.288 113.834 32.792 113.834 32.24C113.834 32.136 113.838 32.036 113.846 31.94C113.854 31.844 113.866 31.748 113.882 31.652C113.962 31.196 114.122 30.796 114.362 30.452C114.602 30.108 114.91 29.84 115.286 29.648C115.67 29.456 116.098 29.36 116.57 29.36C117.09 29.36 117.546 29.476 117.938 29.708C118.33 29.94 118.634 30.268 118.85 30.692C119.066 31.108 119.174 31.608 119.174 32.192C119.174 32.24 119.174 32.288 119.174 32.336C119.174 32.384 119.17 32.432 119.162 32.48H114.446ZM128.588 29.48V35H127.628V30.38H125.048V35H124.088V29.48H128.588ZM131.292 37.64H130.332V29.48H131.292V37.64ZM135.912 32.24C135.912 32.832 135.788 33.344 135.54 33.776C135.292 34.208 134.96 34.54 134.544 34.772C134.136 35.004 133.68 35.12 133.176 35.12C132.72 35.12 132.316 35.004 131.964 34.772C131.62 34.54 131.348 34.208 131.148 33.776C130.956 33.344 130.86 32.832 130.86 32.24C130.86 31.64 130.956 31.128 131.148 30.704C131.348 30.272 131.62 29.94 131.964 29.708C132.316 29.476 132.72 29.36 133.176 29.36C133.68 29.36 134.136 29.476 134.544 29.708C134.96 29.94 135.292 30.272 135.54 30.704C135.788 31.128 135.912 31.64 135.912 32.24ZM134.94 32.24C134.94 31.816 134.852 31.456 134.676 31.16C134.508 30.864 134.28 30.64 133.992 30.488C133.712 30.336 133.4 30.26 133.056 30.26C132.776 30.26 132.5 30.336 132.228 30.488C131.956 30.64 131.732 30.864 131.556 31.16C131.38 31.456 131.292 31.816 131.292 32.24C131.292 32.664 131.38 33.024 131.556 33.32C131.732 33.616 131.956 33.84 132.228 33.992C132.5 34.144 132.776 34.22 133.056 34.22C133.4 34.22 133.712 34.144 133.992 33.992C134.28 33.84 134.508 33.616 134.676 33.32C134.852 33.024 134.94 32.664 134.94 32.24ZM137.368 32.48V31.664H141.052C141.02 31.376 140.94 31.124 140.812 30.908C140.692 30.684 140.52 30.512 140.296 30.392C140.08 30.264 139.812 30.2 139.492 30.2C139.172 30.2 138.88 30.268 138.616 30.404C138.352 30.54 138.14 30.736 137.98 30.992C137.828 31.24 137.752 31.536 137.752 31.88L137.728 32.24C137.728 32.664 137.8 33.024 137.944 33.32C138.088 33.616 138.292 33.84 138.556 33.992C138.82 34.144 139.132 34.22 139.492 34.22C139.764 34.22 140.004 34.18 140.212 34.1C140.428 34.012 140.62 33.896 140.788 33.752C140.956 33.6 141.1 33.424 141.22 33.224L142 33.716C141.816 33.996 141.612 34.244 141.388 34.46C141.164 34.668 140.892 34.832 140.572 34.952C140.252 35.064 139.852 35.12 139.372 35.12C138.876 35.12 138.428 34.996 138.028 34.748C137.636 34.5 137.324 34.16 137.092 33.728C136.868 33.288 136.756 32.792 136.756 32.24C136.756 32.136 136.76 32.036 136.768 31.94C136.776 31.844 136.788 31.748 136.804 31.652C136.884 31.196 137.044 30.796 137.284 30.452C137.524 30.108 137.832 29.84 138.208 29.648C138.592 29.456 139.02 29.36 139.492 29.36C140.012 29.36 140.468 29.476 140.86 29.708C141.252 29.94 141.556 30.268 141.772 30.692C141.988 31.108 142.096 31.608 142.096 32.192C142.096 32.24 142.096 32.288 142.096 32.336C142.096 32.384 142.092 32.432 142.084 32.48H137.368ZM145.814 31.136L144.194 34.64H143.114L145.814 29.06L148.514 34.64H147.434L145.814 31.136ZM148.274 35H143.414V36.08H142.394V34.1H149.234V36.08H148.274V35ZM155.177 29.48V35H154.217V30.38H151.637V35H150.677V29.48H155.177ZM157.882 37.64H156.922V29.48H157.882V37.64ZM162.502 32.24C162.502 32.832 162.378 33.344 162.13 33.776C161.882 34.208 161.55 34.54 161.134 34.772C160.726 35.004 160.27 35.12 159.766 35.12C159.31 35.12 158.906 35.004 158.554 34.772C158.21 34.54 157.938 34.208 157.738 33.776C157.546 33.344 157.45 32.832 157.45 32.24C157.45 31.64 157.546 31.128 157.738 30.704C157.938 30.272 158.21 29.94 158.554 29.708C158.906 29.476 159.31 29.36 159.766 29.36C160.27 29.36 160.726 29.476 161.134 29.708C161.55 29.94 161.882 30.272 162.13 30.704C162.378 31.128 162.502 31.64 162.502 32.24ZM161.53 32.24C161.53 31.816 161.442 31.456 161.266 31.16C161.098 30.864 160.87 30.64 160.582 30.488C160.302 30.336 159.99 30.26 159.646 30.26C159.366 30.26 159.09 30.336 158.818 30.488C158.546 30.64 158.322 30.864 158.146 31.16C157.97 31.456 157.882 31.816 157.882 32.24C157.882 32.664 157.97 33.024 158.146 33.32C158.322 33.616 158.546 33.84 158.818 33.992C159.09 34.144 159.366 34.22 159.646 34.22C159.99 34.22 160.302 34.144 160.582 33.992C160.87 33.84 161.098 33.616 161.266 33.32C161.442 33.024 161.53 32.664 161.53 32.24ZM168.446 30.44L163.886 35.42L163.946 34.04L168.506 29.06L168.446 30.44ZM164.846 29.48V34.1L163.886 35.42V29.48H164.846ZM168.506 29.06V35H167.546V30.38L168.506 29.06ZM171.157 35H170.101L172.141 32.12H173.197L171.157 35ZM174.661 35H173.701V29.48H174.661V35ZM174.097 31.952V32.792H172.381C172.005 32.792 171.661 32.736 171.349 32.624C171.045 32.512 170.805 32.336 170.629 32.096C170.453 31.848 170.365 31.528 170.365 31.136C170.365 30.736 170.453 30.416 170.629 30.176C170.805 29.936 171.045 29.76 171.349 29.648C171.661 29.536 172.005 29.48 172.381 29.48H174.097V30.32H172.381C172.149 30.32 171.953 30.352 171.793 30.416C171.641 30.472 171.525 30.56 171.445 30.68C171.365 30.8 171.325 30.952 171.325 31.136C171.325 31.32 171.365 31.472 171.445 31.592C171.525 31.712 171.641 31.804 171.793 31.868C171.953 31.924 172.149 31.952 172.381 31.952H174.097ZM175.326 29.48H178.566V30.38H175.326V29.48ZM176.466 29.72H177.426V35H176.466V29.72ZM184.149 30.44L179.589 35.42L179.649 34.04L184.209 29.06L184.149 30.44ZM180.549 29.48V34.1L179.589 35.42V29.48H180.549ZM184.209 29.06V35H183.249V30.38L184.209 29.06ZM186.86 35H185.804L187.844 32.12H188.9L186.86 35ZM190.364 35H189.404V29.48H190.364V35ZM189.8 31.952V32.792H188.084C187.708 32.792 187.364 32.736 187.052 32.624C186.748 32.512 186.508 32.336 186.332 32.096C186.156 31.848 186.068 31.528 186.068 31.136C186.068 30.736 186.156 30.416 186.332 30.176C186.508 29.936 186.748 29.76 187.052 29.648C187.364 29.536 187.708 29.48 188.084 29.48H189.8V30.32H188.084C187.852 30.32 187.656 30.352 187.496 30.416C187.344 30.472 187.228 30.56 187.148 30.68C187.068 30.8 187.028 30.952 187.028 31.136C187.028 31.32 187.068 31.472 187.148 31.592C187.228 31.712 187.344 31.804 187.496 31.868C187.656 31.924 187.852 31.952 188.084 31.952H189.8Z" fill="#FBFBFB"/>
<rect y="48.5" width="21" height="8" fill="#A4A4A4"/>
<path d="M31.524 52.92V51.96H34.164V52.92H31.524ZM30.96 48.6H31.98V57H30.96V48.6ZM34.44 52.8C34.44 53.432 34.576 53.996 34.848 54.492C35.128 54.988 35.508 55.38 35.988 55.668C36.468 55.956 37.012 56.1 37.62 56.1C38.236 56.1 38.78 55.956 39.252 55.668C39.732 55.38 40.108 54.988 40.38 54.492C40.66 53.996 40.8 53.432 40.8 52.8C40.8 52.168 40.66 51.604 40.38 51.108C40.108 50.612 39.732 50.22 39.252 49.932C38.78 49.644 38.236 49.5 37.62 49.5C37.012 49.5 36.468 49.644 35.988 49.932C35.508 50.22 35.128 50.612 34.848 51.108C34.576 51.604 34.44 52.168 34.44 52.8ZM33.36 52.8C33.36 52.184 33.464 51.616 33.672 51.096C33.888 50.568 34.188 50.112 34.572 49.728C34.956 49.336 35.408 49.032 35.928 48.816C36.448 48.592 37.012 48.48 37.62 48.48C38.236 48.48 38.8 48.592 39.312 48.816C39.832 49.032 40.284 49.336 40.668 49.728C41.052 50.112 41.348 50.568 41.556 51.096C41.772 51.616 41.88 52.184 41.88 52.8C41.88 53.408 41.772 53.976 41.556 54.504C41.348 55.032 41.052 55.492 40.668 55.884C40.284 56.268 39.832 56.572 39.312 56.796C38.8 57.012 38.236 57.12 37.62 57.12C37.012 57.12 36.448 57.012 35.928 56.796C35.408 56.572 34.956 56.268 34.572 55.884C34.188 55.492 33.888 55.032 33.672 54.504C33.464 53.976 33.36 53.408 33.36 52.8ZM44.1633 59.64H43.2033V51.48H44.1633V59.64ZM48.7833 54.24C48.7833 54.832 48.6593 55.344 48.4113 55.776C48.1633 56.208 47.8313 56.54 47.4153 56.772C47.0073 57.004 46.5513 57.12 46.0473 57.12C45.5913 57.12 45.1873 57.004 44.8353 56.772C44.4913 56.54 44.2193 56.208 44.0193 55.776C43.8273 55.344 43.7313 54.832 43.7313 54.24C43.7313 53.64 43.8273 53.128 44.0193 52.704C44.2193 52.272 44.4913 51.94 44.8353 51.708C45.1873 51.476 45.5913 51.36 46.0473 51.36C46.5513 51.36 47.0073 51.476 47.4153 51.708C47.8313 51.94 48.1633 52.272 48.4113 52.704C48.6593 53.128 48.7833 53.64 48.7833 54.24ZM47.8113 54.24C47.8113 53.816 47.7233 53.456 47.5473 53.16C47.3793 52.864 47.1513 52.64 46.8633 52.488C46.5833 52.336 46.2713 52.26 45.9273 52.26C45.6473 52.26 45.3713 52.336 45.0993 52.488C44.8273 52.64 44.6033 52.864 44.4273 53.16C44.2513 53.456 44.1633 53.816 44.1633 54.24C44.1633 54.664 44.2513 55.024 44.4273 55.32C44.6033 55.616 44.8273 55.84 45.0993 55.992C45.3713 56.144 45.6473 56.22 45.9273 56.22C46.2713 56.22 46.5833 56.144 46.8633 55.992C47.1513 55.84 47.3793 55.616 47.5473 55.32C47.7233 55.024 47.8113 54.664 47.8113 54.24ZM54.727 52.44L50.167 57.42L50.227 56.04L54.787 51.06L54.727 52.44ZM51.127 51.48V56.1L50.167 57.42V51.48H51.127ZM54.787 51.06V57H53.827V52.38L54.787 51.06ZM59.6461 53.136L58.0261 56.64H56.9461L59.6461 51.06L62.3461 56.64H61.2661L59.6461 53.136ZM62.1061 57H57.2461V58.08H56.2261V56.1H63.0661V58.08H62.1061V57ZM69.1294 52.44L64.5694 57.42L64.6294 56.04L69.1894 51.06L69.1294 52.44ZM65.5294 51.48V56.1L64.5694 57.42V51.48H65.5294ZM69.1894 51.06V57H68.2294V52.38L69.1894 51.06ZM72.9084 55.32V54.42H74.7924V55.32H72.9084ZM74.1084 51.48H75.0684V57H74.1084V51.48ZM71.7084 51.48V53.064C71.7084 53.384 71.7444 53.644 71.8164 53.844C71.8884 54.044 72.0124 54.192 72.1884 54.288C72.3644 54.376 72.6044 54.42 72.9084 54.42V55.32C72.3564 55.32 71.9204 55.244 71.6004 55.092C71.2884 54.94 71.0684 54.7 70.9404 54.372C70.8124 54.036 70.7484 53.6 70.7484 53.064V51.48H71.7084ZM77.0047 54.48V53.664H80.6887C80.6567 53.376 80.5767 53.124 80.4487 52.908C80.3287 52.684 80.1567 52.512 79.9327 52.392C79.7167 52.264 79.4487 52.2 79.1287 52.2C78.8087 52.2 78.5167 52.268 78.2527 52.404C77.9887 52.54 77.7767 52.736 77.6167 52.992C77.4647 53.24 77.3887 53.536 77.3887 53.88L77.3647 54.24C77.3647 54.664 77.4367 55.024 77.5807 55.32C77.7247 55.616 77.9287 55.84 78.1927 55.992C78.4567 56.144 78.7687 56.22 79.1287 56.22C79.4007 56.22 79.6407 56.18 79.8487 56.1C80.0647 56.012 80.2567 55.896 80.4247 55.752C80.5927 55.6 80.7367 55.424 80.8567 55.224L81.6367 55.716C81.4527 55.996 81.2487 56.244 81.0247 56.46C80.8007 56.668 80.5287 56.832 80.2087 56.952C79.8887 57.064 79.4887 57.12 79.0087 57.12C78.5127 57.12 78.0647 56.996 77.6647 56.748C77.2727 56.5 76.9607 56.16 76.7287 55.728C76.5047 55.288 76.3927 54.792 76.3927 54.24C76.3927 54.136 76.3967 54.036 76.4047 53.94C76.4127 53.844 76.4247 53.748 76.4407 53.652C76.5207 53.196 76.6807 52.796 76.9207 52.452C77.1607 52.108 77.4687 51.84 77.8447 51.648C78.2287 51.456 78.6567 51.36 79.1287 51.36C79.6487 51.36 80.1047 51.476 80.4967 51.708C80.8887 51.94 81.1927 52.268 81.4087 52.692C81.6247 53.108 81.7327 53.608 81.7327 54.192C81.7327 54.24 81.7327 54.288 81.7327 54.336C81.7327 54.384 81.7287 54.432 81.7207 54.48H77.0047ZM83.4804 54.24C83.4804 54.624 83.5604 54.964 83.7204 55.26C83.8884 55.556 84.1124 55.792 84.3924 55.968C84.6804 56.136 85.0044 56.22 85.3644 56.22C85.6604 56.22 85.9364 56.176 86.1924 56.088C86.4564 55.992 86.6844 55.868 86.8764 55.716C87.0684 55.556 87.2044 55.388 87.2844 55.212V56.412C87.0924 56.636 86.8164 56.812 86.4564 56.94C86.1044 57.06 85.7404 57.12 85.3644 57.12C84.8284 57.12 84.3444 56.996 83.9124 56.748C83.4804 56.5 83.1364 56.16 82.8804 55.728C82.6324 55.288 82.5084 54.792 82.5084 54.24C82.5084 53.68 82.6324 53.184 82.8804 52.752C83.1364 52.32 83.4804 51.98 83.9124 51.732C84.3444 51.484 84.8284 51.36 85.3644 51.36C85.7404 51.36 86.1044 51.424 86.4564 51.552C86.8164 51.672 87.0924 51.844 87.2844 52.068V53.268C87.2044 53.084 87.0684 52.916 86.8764 52.764C86.6844 52.612 86.4564 52.492 86.1924 52.404C85.9364 52.308 85.6604 52.26 85.3644 52.26C85.0044 52.26 84.6804 52.344 84.3924 52.512C84.1124 52.68 83.8884 52.916 83.7204 53.22C83.5604 53.516 83.4804 53.856 83.4804 54.24ZM88.7189 51.48H89.6789V57H88.7189V51.48ZM91.7189 51.48H92.9189L90.5189 53.76L93.1589 57H91.9589L89.3189 53.76L91.7189 51.48ZM98.6841 52.44L94.1241 57.42L94.1841 56.04L98.7441 51.06L98.6841 52.44ZM95.0841 51.48V56.1L94.1241 57.42V51.48H95.0841ZM98.7441 51.06V57H97.7841V52.38L98.7441 51.06ZM100.735 54.48V53.664H104.419C104.387 53.376 104.307 53.124 104.179 52.908C104.059 52.684 103.887 52.512 103.663 52.392C103.447 52.264 103.179 52.2 102.859 52.2C102.539 52.2 102.247 52.268 101.983 52.404C101.719 52.54 101.507 52.736 101.347 52.992C101.195 53.24 101.119 53.536 101.119 53.88L101.095 54.24C101.095 54.664 101.167 55.024 101.311 55.32C101.455 55.616 101.659 55.84 101.923 55.992C102.187 56.144 102.499 56.22 102.859 56.22C103.131 56.22 103.371 56.18 103.579 56.1C103.795 56.012 103.987 55.896 104.155 55.752C104.323 55.6 104.467 55.424 104.587 55.224L105.367 55.716C105.183 55.996 104.979 56.244 104.755 56.46C104.531 56.668 104.259 56.832 103.939 56.952C103.619 57.064 103.219 57.12 102.739 57.12C102.243 57.12 101.795 56.996 101.395 56.748C101.003 56.5 100.691 56.16 100.459 55.728C100.235 55.288 100.123 54.792 100.123 54.24C100.123 54.136 100.127 54.036 100.135 53.94C100.143 53.844 100.155 53.748 100.171 53.652C100.251 53.196 100.411 52.796 100.651 52.452C100.891 52.108 101.199 51.84 101.575 51.648C101.959 51.456 102.387 51.36 102.859 51.36C103.379 51.36 103.835 51.476 104.227 51.708C104.619 51.94 104.923 52.268 105.139 52.692C105.355 53.108 105.463 53.608 105.463 54.192C105.463 54.24 105.463 54.288 105.463 54.336C105.463 54.384 105.459 54.432 105.451 54.48H100.735ZM115.213 51.48V57H114.253V52.38H111.433V55.08C111.433 55.512 111.365 55.872 111.229 56.16C111.101 56.44 110.901 56.652 110.629 56.796C110.357 56.932 110.013 57 109.597 57V56.124C109.837 56.124 110.041 56.048 110.209 55.896C110.385 55.744 110.473 55.472 110.473 55.08V51.48H115.213ZM121.688 52.44L117.128 57.42L117.188 56.04L121.748 51.06L121.688 52.44ZM118.088 51.48V56.1L117.128 57.42V51.48H118.088ZM121.748 51.06V57H120.788V52.38L121.748 51.06ZM128.107 56.1H129.067V58.08H128.227V57H123.607V51.48H124.567V56.1H127.147V51.48H128.107V56.1ZM130.824 55.38C130.824 55.572 130.876 55.736 130.98 55.872C131.084 56 131.224 56.1 131.4 56.172C131.576 56.236 131.772 56.268 131.988 56.268C132.308 56.268 132.592 56.22 132.84 56.124C133.088 56.028 133.28 55.876 133.416 55.668C133.56 55.46 133.632 55.184 133.632 54.84L133.824 55.44C133.824 55.792 133.728 56.096 133.536 56.352C133.352 56.6 133.104 56.792 132.792 56.928C132.48 57.056 132.132 57.12 131.748 57.12C131.404 57.12 131.088 57.056 130.8 56.928C130.512 56.8 130.28 56.612 130.104 56.364C129.936 56.108 129.852 55.792 129.852 55.416C129.852 55.024 129.948 54.692 130.14 54.42C130.332 54.148 130.604 53.94 130.956 53.796C131.308 53.644 131.724 53.568 132.204 53.568C132.556 53.568 132.856 53.616 133.104 53.712C133.36 53.8 133.564 53.904 133.716 54.024C133.868 54.136 133.972 54.228 134.028 54.3V54.864C133.756 54.672 133.48 54.532 133.2 54.444C132.92 54.348 132.604 54.3 132.252 54.3C131.932 54.3 131.664 54.344 131.448 54.432C131.24 54.52 131.084 54.644 130.98 54.804C130.876 54.964 130.824 55.156 130.824 55.38ZM130.824 52.776L130.356 52.044C130.564 51.892 130.844 51.74 131.196 51.588C131.548 51.436 131.972 51.36 132.468 51.36C132.892 51.36 133.26 51.428 133.572 51.564C133.892 51.692 134.14 51.88 134.316 52.128C134.5 52.376 134.592 52.68 134.592 53.04V57H133.632V53.04C133.632 52.76 133.512 52.552 133.272 52.416C133.04 52.272 132.772 52.2 132.468 52.2C132.204 52.2 131.964 52.236 131.748 52.308C131.532 52.372 131.344 52.452 131.184 52.548C131.032 52.636 130.912 52.712 130.824 52.776Z" fill="#FBFBFB"/>
</svg>
