<svg width="262" height="171" viewBox="0 0 262 171" fill="none" xmlns="http://www.w3.org/2000/svg">
<path d="M43 56H260.978" stroke="#4F4F4F"/>
<path d="M43 29H260.978" stroke="#4F4F4F"/>
<path d="M43 82H260.978" stroke="#4F4F4F"/>
<path d="M43 109H260.978" stroke="#4F4F4F"/>
<path d="M43 136H260.978" stroke="#4F4F4F"/>
<path d="M116.576 0L116.576 167" stroke="#4F4F4F"/>
<path d="M188.787 0L188.787 167" stroke="#4F4F4F"/>
<path d="M261 0L261 167" stroke="#4F4F4F"/>
<rect x="43.5" y="0.5" width="217" height="166" stroke="#676767"/>
<rect x="61" y="36" width="37" height="130" fill="#FF8B02"/>
<rect x="132" y="56" width="37" height="110" fill="#FFB761"/>
<rect x="206" y="86" width="37" height="80" fill="#A4A4A4"/>
<path d="M22.3047 164.8C22.3047 164.312 22.3527 163.864 22.4487 163.456C22.5447 163.04 22.6847 162.684 22.8687 162.388C23.0527 162.084 23.2727 161.852 23.5287 161.692C23.7927 161.524 24.0847 161.44 24.4047 161.44C24.7327 161.44 25.0247 161.524 25.2807 161.692C25.5367 161.852 25.7567 162.084 25.9407 162.388C26.1247 162.684 26.2647 163.04 26.3607 163.456C26.4567 163.864 26.5047 164.312 26.5047 164.8C26.5047 165.288 26.4567 165.74 26.3607 166.156C26.2647 166.564 26.1247 166.92 25.9407 167.224C25.7567 167.52 25.5367 167.752 25.2807 167.92C25.0247 168.08 24.7327 168.16 24.4047 168.16C24.0847 168.16 23.7927 168.08 23.5287 167.92C23.2727 167.752 23.0527 167.52 22.8687 167.224C22.6847 166.92 22.5447 166.564 22.4487 166.156C22.3527 165.74 22.3047 165.288 22.3047 164.8ZM21.2847 164.8C21.2847 165.64 21.4167 166.384 21.6807 167.032C21.9447 167.68 22.3087 168.192 22.7727 168.568C23.2447 168.936 23.7887 169.12 24.4047 169.12C25.0207 169.12 25.5607 168.936 26.0247 168.568C26.4967 168.192 26.8647 167.68 27.1287 167.032C27.3927 166.384 27.5247 165.64 27.5247 164.8C27.5247 163.96 27.3927 163.216 27.1287 162.568C26.8647 161.92 26.4967 161.412 26.0247 161.044C25.5607 160.668 25.0207 160.48 24.4047 160.48C23.7887 160.48 23.2447 160.668 22.7727 161.044C22.3087 161.412 21.9447 161.92 21.6807 162.568C21.4167 163.216 21.2847 163.96 21.2847 164.8Z" fill="#FBFBFB"/>
<path d="M14.2127 138H20.1407V137.04H16.3127L18.9887 134.316C19.3167 133.98 19.5847 133.6 19.7927 133.176C20.0007 132.752 20.1047 132.324 20.1047 131.892C20.1047 131.636 20.0527 131.368 19.9487 131.088C19.8447 130.808 19.6847 130.548 19.4687 130.308C19.2527 130.06 18.9767 129.86 18.6407 129.708C18.3047 129.548 17.9047 129.468 17.4407 129.468C16.8647 129.468 16.3687 129.596 15.9527 129.852C15.5447 130.1 15.2327 130.452 15.0167 130.908C14.8007 131.356 14.6927 131.88 14.6927 132.48H15.7127C15.7127 132.056 15.7807 131.692 15.9167 131.388C16.0527 131.076 16.2487 130.84 16.5047 130.68C16.7687 130.512 17.0807 130.428 17.4407 130.428C17.6967 130.428 17.9247 130.472 18.1247 130.56C18.3247 130.648 18.4927 130.764 18.6287 130.908C18.7727 131.052 18.8807 131.212 18.9527 131.388C19.0247 131.564 19.0607 131.744 19.0607 131.928C19.0607 132.152 19.0247 132.368 18.9527 132.576C18.8887 132.776 18.7887 132.976 18.6527 133.176C18.5247 133.368 18.3687 133.564 18.1847 133.764L14.2127 138ZM22.3047 133.8C22.3047 133.312 22.3527 132.864 22.4487 132.456C22.5447 132.04 22.6847 131.684 22.8687 131.388C23.0527 131.084 23.2727 130.852 23.5287 130.692C23.7927 130.524 24.0847 130.44 24.4047 130.44C24.7327 130.44 25.0247 130.524 25.2807 130.692C25.5367 130.852 25.7567 131.084 25.9407 131.388C26.1247 131.684 26.2647 132.04 26.3607 132.456C26.4567 132.864 26.5047 133.312 26.5047 133.8C26.5047 134.288 26.4567 134.74 26.3607 135.156C26.2647 135.564 26.1247 135.92 25.9407 136.224C25.7567 136.52 25.5367 136.752 25.2807 136.92C25.0247 137.08 24.7327 137.16 24.4047 137.16C24.0847 137.16 23.7927 137.08 23.5287 136.92C23.2727 136.752 23.0527 136.52 22.8687 136.224C22.6847 135.92 22.5447 135.564 22.4487 135.156C22.3527 134.74 22.3047 134.288 22.3047 133.8ZM21.2847 133.8C21.2847 134.64 21.4167 135.384 21.6807 136.032C21.9447 136.68 22.3087 137.192 22.7727 137.568C23.2447 137.936 23.7887 138.12 24.4047 138.12C25.0207 138.12 25.5607 137.936 26.0247 137.568C26.4967 137.192 26.8647 136.68 27.1287 136.032C27.3927 135.384 27.5247 134.64 27.5247 133.8C27.5247 132.96 27.3927 132.216 27.1287 131.568C26.8647 130.92 26.4967 130.412 26.0247 130.044C25.5607 129.668 25.0207 129.48 24.4047 129.48C23.7887 129.48 23.2447 129.668 22.7727 130.044C22.3087 130.412 21.9447 130.92 21.6807 131.568C21.4167 132.216 21.2847 132.96 21.2847 133.8Z" fill="#FBFBFB"/>
<path d="M14.0486 109.32H20.4446V108.42H18.7286H18.5246H15.7286L18.1046 104.868V108.756V108.888V111H19.1246V102.6H18.7046L14.0486 109.32ZM22.3047 106.8C22.3047 106.312 22.3527 105.864 22.4487 105.456C22.5447 105.04 22.6847 104.684 22.8687 104.388C23.0527 104.084 23.2727 103.852 23.5287 103.692C23.7927 103.524 24.0847 103.44 24.4047 103.44C24.7327 103.44 25.0247 103.524 25.2807 103.692C25.5367 103.852 25.7567 104.084 25.9407 104.388C26.1247 104.684 26.2647 105.04 26.3607 105.456C26.4567 105.864 26.5047 106.312 26.5047 106.8C26.5047 107.288 26.4567 107.74 26.3607 108.156C26.2647 108.564 26.1247 108.92 25.9407 109.224C25.7567 109.52 25.5367 109.752 25.2807 109.92C25.0247 110.08 24.7327 110.16 24.4047 110.16C24.0847 110.16 23.7927 110.08 23.5287 109.92C23.2727 109.752 23.0527 109.52 22.8687 109.224C22.6847 108.92 22.5447 108.564 22.4487 108.156C22.3527 107.74 22.3047 107.288 22.3047 106.8ZM21.2847 106.8C21.2847 107.64 21.4167 108.384 21.6807 109.032C21.9447 109.68 22.3087 110.192 22.7727 110.568C23.2447 110.936 23.7887 111.12 24.4047 111.12C25.0207 111.12 25.5607 110.936 26.0247 110.568C26.4967 110.192 26.8647 109.68 27.1287 109.032C27.3927 108.384 27.5247 107.64 27.5247 106.8C27.5247 105.96 27.3927 105.216 27.1287 104.568C26.8647 103.92 26.4967 103.412 26.0247 103.044C25.5607 102.668 25.0207 102.48 24.4047 102.48C23.7887 102.48 23.2447 102.668 22.7727 103.044C22.3087 103.412 21.9447 103.92 21.6807 104.568C21.4167 105.216 21.2847 105.96 21.2847 106.8Z" fill="#FBFBFB"/>
<path d="M15.4626 82.24C15.4626 81.856 15.5426 81.516 15.7026 81.22C15.8706 80.916 16.0946 80.68 16.3746 80.512C16.6626 80.344 16.9866 80.26 17.3466 80.26C17.7066 80.26 18.0266 80.344 18.3066 80.512C18.5946 80.68 18.8186 80.916 18.9786 81.22C19.1466 81.516 19.2306 81.856 19.2306 82.24C19.2306 82.624 19.1466 82.964 18.9786 83.26C18.8186 83.548 18.5946 83.776 18.3066 83.944C18.0266 84.112 17.7066 84.196 17.3466 84.196C16.9866 84.196 16.6626 84.112 16.3746 83.944C16.0946 83.776 15.8706 83.548 15.7026 83.26C15.5426 82.964 15.4626 82.624 15.4626 82.24ZM17.8506 76.6L15.0186 80.5C14.8586 80.724 14.7306 80.984 14.6346 81.28C14.5386 81.576 14.4906 81.896 14.4906 82.24C14.4906 82.816 14.6146 83.32 14.8626 83.752C15.1186 84.184 15.4626 84.52 15.8946 84.76C16.3266 85 16.8106 85.12 17.3466 85.12C17.8906 85.12 18.3746 85 18.7986 84.76C19.2306 84.52 19.5706 84.184 19.8186 83.752C20.0746 83.32 20.2026 82.816 20.2026 82.24C20.2026 81.856 20.1386 81.5 20.0106 81.172C19.8826 80.836 19.7026 80.544 19.4706 80.296C19.2466 80.048 18.9826 79.856 18.6786 79.72C18.3826 79.584 18.0626 79.516 17.7186 79.516C17.4466 79.516 17.2026 79.548 16.9866 79.612C16.7786 79.676 16.5946 79.808 16.4346 80.008L16.5066 80.068L19.1346 76.6H17.8506ZM22.3047 80.8C22.3047 80.312 22.3527 79.864 22.4487 79.456C22.5447 79.04 22.6847 78.684 22.8687 78.388C23.0527 78.084 23.2727 77.852 23.5287 77.692C23.7927 77.524 24.0847 77.44 24.4047 77.44C24.7327 77.44 25.0247 77.524 25.2807 77.692C25.5367 77.852 25.7567 78.084 25.9407 78.388C26.1247 78.684 26.2647 79.04 26.3607 79.456C26.4567 79.864 26.5047 80.312 26.5047 80.8C26.5047 81.288 26.4567 81.74 26.3607 82.156C26.2647 82.564 26.1247 82.92 25.9407 83.224C25.7567 83.52 25.5367 83.752 25.2807 83.92C25.0247 84.08 24.7327 84.16 24.4047 84.16C24.0847 84.16 23.7927 84.08 23.5287 83.92C23.2727 83.752 23.0527 83.52 22.8687 83.224C22.6847 82.92 22.5447 82.564 22.4487 82.156C22.3527 81.74 22.3047 81.288 22.3047 80.8ZM21.2847 80.8C21.2847 81.64 21.4167 82.384 21.6807 83.032C21.9447 83.68 22.3087 84.192 22.7727 84.568C23.2447 84.936 23.7887 85.12 24.4047 85.12C25.0207 85.12 25.5607 84.936 26.0247 84.568C26.4967 84.192 26.8647 83.68 27.1287 83.032C27.3927 82.384 27.5247 81.64 27.5247 80.8C27.5247 79.96 27.3927 79.216 27.1287 78.568C26.8647 77.92 26.4967 77.412 26.0247 77.044C25.5607 76.668 25.0207 76.48 24.4047 76.48C23.7887 76.48 23.2447 76.668 22.7727 77.044C22.3087 77.412 21.9447 77.92 21.6807 78.568C21.4167 79.216 21.2847 79.96 21.2847 80.8Z" fill="#FBFBFB"/>
<path d="M15.2139 50.628C15.2139 50.956 15.2699 51.252 15.3819 51.516C15.4939 51.772 15.6499 51.992 15.8499 52.176C16.0579 52.36 16.3019 52.5 16.5819 52.596C16.8699 52.692 17.1859 52.74 17.5299 52.74C17.8739 52.74 18.1859 52.692 18.4659 52.596C18.7539 52.5 18.9979 52.36 19.1979 52.176C19.4059 51.992 19.5659 51.772 19.6779 51.516C19.7899 51.252 19.8459 50.956 19.8459 50.628C19.8459 50.228 19.7419 49.868 19.5339 49.548C19.3339 49.22 19.0579 48.96 18.7059 48.768C18.3619 48.576 17.9699 48.48 17.5299 48.48C17.0899 48.48 16.6939 48.576 16.3419 48.768C15.9979 48.96 15.7219 49.22 15.5139 49.548C15.3139 49.868 15.2139 50.228 15.2139 50.628ZM16.1859 50.748C16.1859 50.484 16.2419 50.248 16.3539 50.04C16.4739 49.832 16.6339 49.672 16.8339 49.56C17.0419 49.44 17.2739 49.38 17.5299 49.38C17.7939 49.38 18.0259 49.44 18.2259 49.56C18.4259 49.672 18.5819 49.832 18.6939 50.04C18.8139 50.248 18.8739 50.484 18.8739 50.748C18.8739 51.012 18.8099 51.244 18.6819 51.444C18.5619 51.644 18.3979 51.8 18.1899 51.912C17.9899 52.024 17.7699 52.08 17.5299 52.08C17.2899 52.08 17.0659 52.024 16.8579 51.912C16.6579 51.8 16.4939 51.644 16.3659 51.444C16.2459 51.244 16.1859 51.012 16.1859 50.748ZM14.9139 54.72C14.9139 55.048 14.9779 55.356 15.1059 55.644C15.2419 55.932 15.4259 56.188 15.6579 56.412C15.8979 56.636 16.1739 56.812 16.4859 56.94C16.8059 57.06 17.1539 57.12 17.5299 57.12C17.9059 57.12 18.2499 57.06 18.5619 56.94C18.8819 56.812 19.1579 56.636 19.3899 56.412C19.6299 56.188 19.8139 55.932 19.9419 55.644C20.0779 55.356 20.1459 55.048 20.1459 54.72C20.1459 54.336 20.0739 53.996 19.9299 53.7C19.7939 53.396 19.6019 53.144 19.3539 52.944C19.1139 52.736 18.8339 52.58 18.5139 52.476C18.2019 52.372 17.8739 52.32 17.5299 52.32C17.1859 52.32 16.8539 52.372 16.5339 52.476C16.2219 52.58 15.9419 52.736 15.6939 52.944C15.4539 53.144 15.2619 53.396 15.1179 53.7C14.9819 53.996 14.9139 54.336 14.9139 54.72ZM15.8859 54.6C15.8859 54.296 15.9619 54.024 16.1139 53.784C16.2739 53.536 16.4779 53.34 16.7259 53.196C16.9819 53.052 17.2499 52.98 17.5299 52.98C17.8099 52.98 18.0739 53.052 18.3219 53.196C18.5779 53.34 18.7819 53.536 18.9339 53.784C19.0939 54.024 19.1739 54.296 19.1739 54.6C19.1739 54.944 19.0939 55.236 18.9339 55.476C18.7819 55.716 18.5779 55.9 18.3219 56.028C18.0739 56.156 17.8099 56.22 17.5299 56.22C17.2499 56.22 16.9819 56.156 16.7259 56.028C16.4779 55.9 16.2739 55.716 16.1139 55.476C15.9619 55.236 15.8859 54.944 15.8859 54.6ZM22.3047 52.8C22.3047 52.312 22.3527 51.864 22.4487 51.456C22.5447 51.04 22.6847 50.684 22.8687 50.388C23.0527 50.084 23.2727 49.852 23.5287 49.692C23.7927 49.524 24.0847 49.44 24.4047 49.44C24.7327 49.44 25.0247 49.524 25.2807 49.692C25.5367 49.852 25.7567 50.084 25.9407 50.388C26.1247 50.684 26.2647 51.04 26.3607 51.456C26.4567 51.864 26.5047 52.312 26.5047 52.8C26.5047 53.288 26.4567 53.74 26.3607 54.156C26.2647 54.564 26.1247 54.92 25.9407 55.224C25.7567 55.52 25.5367 55.752 25.2807 55.92C25.0247 56.08 24.7327 56.16 24.4047 56.16C24.0847 56.16 23.7927 56.08 23.5287 55.92C23.2727 55.752 23.0527 55.52 22.8687 55.224C22.6847 54.92 22.5447 54.564 22.4487 54.156C22.3527 53.74 22.3047 53.288 22.3047 52.8ZM21.2847 52.8C21.2847 53.64 21.4167 54.384 21.6807 55.032C21.9447 55.68 22.3087 56.192 22.7727 56.568C23.2447 56.936 23.7887 57.12 24.4047 57.12C25.0207 57.12 25.5607 56.936 26.0247 56.568C26.4967 56.192 26.8647 55.68 27.1287 55.032C27.3927 54.384 27.5247 53.64 27.5247 52.8C27.5247 51.96 27.3927 51.216 27.1287 50.568C26.8647 49.92 26.4967 49.412 26.0247 49.044C25.5607 48.668 25.0207 48.48 24.4047 48.48C23.7887 48.48 23.2447 48.668 22.7727 49.044C22.3087 49.412 21.9447 49.92 21.6807 50.568C21.4167 51.216 21.2847 51.96 21.2847 52.8Z" fill="#FBFBFB"/>
<path d="M9.16703 23.256L11.027 22.704V30H12.047V21.48L9.16703 22.2V23.256ZM15.1094 25.8C15.1094 25.312 15.1574 24.864 15.2534 24.456C15.3494 24.04 15.4894 23.684 15.6734 23.388C15.8574 23.084 16.0774 22.852 16.3334 22.692C16.5974 22.524 16.8894 22.44 17.2094 22.44C17.5374 22.44 17.8294 22.524 18.0854 22.692C18.3414 22.852 18.5614 23.084 18.7454 23.388C18.9294 23.684 19.0694 24.04 19.1654 24.456C19.2614 24.864 19.3094 25.312 19.3094 25.8C19.3094 26.288 19.2614 26.74 19.1654 27.156C19.0694 27.564 18.9294 27.92 18.7454 28.224C18.5614 28.52 18.3414 28.752 18.0854 28.92C17.8294 29.08 17.5374 29.16 17.2094 29.16C16.8894 29.16 16.5974 29.08 16.3334 28.92C16.0774 28.752 15.8574 28.52 15.6734 28.224C15.4894 27.92 15.3494 27.564 15.2534 27.156C15.1574 26.74 15.1094 26.288 15.1094 25.8ZM14.0894 25.8C14.0894 26.64 14.2214 27.384 14.4854 28.032C14.7494 28.68 15.1134 29.192 15.5774 29.568C16.0494 29.936 16.5934 30.12 17.2094 30.12C17.8254 30.12 18.3654 29.936 18.8294 29.568C19.3014 29.192 19.6694 28.68 19.9334 28.032C20.1974 27.384 20.3294 26.64 20.3294 25.8C20.3294 24.96 20.1974 24.216 19.9334 23.568C19.6694 22.92 19.3014 22.412 18.8294 22.044C18.3654 21.668 17.8254 21.48 17.2094 21.48C16.5934 21.48 16.0494 21.668 15.5774 22.044C15.1134 22.412 14.7494 22.92 14.4854 23.568C14.2214 24.216 14.0894 24.96 14.0894 25.8ZM22.3047 25.8C22.3047 25.312 22.3527 24.864 22.4487 24.456C22.5447 24.04 22.6847 23.684 22.8687 23.388C23.0527 23.084 23.2727 22.852 23.5287 22.692C23.7927 22.524 24.0847 22.44 24.4047 22.44C24.7327 22.44 25.0247 22.524 25.2807 22.692C25.5367 22.852 25.7567 23.084 25.9407 23.388C26.1247 23.684 26.2647 24.04 26.3607 24.456C26.4567 24.864 26.5047 25.312 26.5047 25.8C26.5047 26.288 26.4567 26.74 26.3607 27.156C26.2647 27.564 26.1247 27.92 25.9407 28.224C25.7567 28.52 25.5367 28.752 25.2807 28.92C25.0247 29.08 24.7327 29.16 24.4047 29.16C24.0847 29.16 23.7927 29.08 23.5287 28.92C23.2727 28.752 23.0527 28.52 22.8687 28.224C22.6847 27.92 22.5447 27.564 22.4487 27.156C22.3527 26.74 22.3047 26.288 22.3047 25.8ZM21.2847 25.8C21.2847 26.64 21.4167 27.384 21.6807 28.032C21.9447 28.68 22.3087 29.192 22.7727 29.568C23.2447 29.936 23.7887 30.12 24.4047 30.12C25.0207 30.12 25.5607 29.936 26.0247 29.568C26.4967 29.192 26.8647 28.68 27.1287 28.032C27.3927 27.384 27.5247 26.64 27.5247 25.8C27.5247 24.96 27.3927 24.216 27.1287 23.568C26.8647 22.92 26.4967 22.412 26.0247 22.044C25.5607 21.668 25.0207 21.48 24.4047 21.48C23.7887 21.48 23.2447 21.668 22.7727 22.044C22.3087 22.412 21.9447 22.92 21.6807 23.568C21.4167 24.216 21.2847 24.96 21.2847 25.8Z" fill="#FBFBFB"/>
</svg>
