<svg width="220" height="183" viewBox="0 0 220 183" fill="none" xmlns="http://www.w3.org/2000/svg">
<path d="M1.53872e-06 182.739C1.5677 156.857 4.96438 144.047 13.349 118.947C23.197 95.1582 37.6315 73.5435 55.8282 55.3366C74.025 37.1296 95.6277 22.6871 119.403 12.8336C143.178 2.9801 162.651 -1.75629e-06 188.385 2.43867e-06L220 53.07L188.385 106.924C176.627 107.97 171.427 108.328 160.765 112.746C150.103 117.165 140.416 123.642 132.255 131.806C124.095 139.971 117.622 149.664 113.206 160.332C108.79 171 108.432 172.02 107.387 183L53.0404 151.367L1.53872e-06 182.739Z" fill="#D9D9D9"/>
</svg>
