<svg width="32" height="32" viewBox="0 0 32 32" fill="none" xmlns="http://www.w3.org/2000/svg">
<path d="M17.6245 18.8166L17.6245 18.8166C17.9484 18.6166 18.3664 18.5195 18.7792 18.5195C19.1914 18.5195 19.6089 18.6163 19.9326 18.8158M17.6245 18.8166L19.8814 18.9017M17.6245 18.8166L17.6231 18.8175C17.571 18.8509 17.5114 18.8519 17.4696 18.8261L9.73315 14.0425C9.72388 14.0368 9.71737 14.0264 9.71817 14.0099C9.719 13.9925 9.72799 13.977 9.74178 13.9686L9.74178 13.9686L9.74274 13.968C10.0652 13.7675 10.2431 13.4919 10.2413 13.1999C10.2395 12.9081 10.0585 12.6331 9.7343 12.4329L9.73378 12.4326C9.7216 12.4251 9.71343 12.4112 9.71265 12.3955C9.71191 12.3806 9.71769 12.3719 9.72519 12.3673L12.6683 10.5398C12.7398 10.4954 12.8392 10.5005 12.9243 10.5546L12.9243 10.5546L12.9255 10.5554C13.2495 10.7554 13.6685 10.8525 14.0817 10.8525C14.4946 10.8525 14.9125 10.7556 15.2344 10.5557M17.6245 18.8166L12.978 10.4703M19.9326 18.8158C19.9331 18.8161 19.9335 18.8163 19.9339 18.8166L19.8814 18.9017M19.9326 18.8158C19.9322 18.8156 19.9318 18.8153 19.9314 18.8151L19.8814 18.9017M19.9326 18.8158C20.0699 18.8947 20.222 18.9106 20.3308 18.8431L23.1426 17.0996C23.1663 17.0848 23.1797 17.0583 23.1775 17.0245C23.1752 16.9899 23.1567 16.9576 23.1272 16.9404L23.1251 16.9391L23.1251 16.9391C22.8009 16.7389 22.6199 16.4638 22.6181 16.1721C22.6163 15.88 22.7942 15.6044 23.1167 15.4039L23.1169 15.4038C23.1436 15.3873 23.1612 15.3563 23.1633 15.323C23.1654 15.2906 23.1529 15.2673 23.1328 15.2549L15.5018 10.5384C15.4297 10.4939 15.3272 10.5003 15.2344 10.5557M19.8814 18.9017C20.0366 18.9914 20.2311 19.0226 20.3835 18.9281L23.1953 17.1846C23.3154 17.1101 23.2997 16.9252 23.1777 16.854C22.5683 16.4777 22.5642 15.8652 23.1695 15.4889C23.2837 15.4183 23.2996 15.2404 23.1854 15.1698L15.5543 10.4533C15.441 10.3832 15.2967 10.4018 15.1824 10.4703M15.2344 10.5557C15.2347 10.5555 15.2349 10.5554 15.2352 10.5552L15.1824 10.4703M15.2344 10.5557C15.2342 10.5558 15.234 10.5559 15.2338 10.556L15.1824 10.4703M15.1824 10.4703C14.5771 10.8466 13.5874 10.8466 12.978 10.4703M12.978 10.4703C12.8678 10.4002 12.7265 10.386 12.6156 10.4549L9.67244 12.2823C9.58689 12.3354 9.59576 12.4656 9.68176 12.518L12.978 10.4703ZM26.4289 15.8985L26.4283 15.8982L14.4292 8.49063L14.4291 8.49055C14.3278 8.42826 14.2001 8.40024 14.0781 8.40024C13.9562 8.40024 13.8285 8.42826 13.7272 8.49055L13.7268 8.4908L6.57847 12.936C6.57839 12.936 6.57831 12.9361 6.57824 12.9361C6.47635 12.9989 6.40818 13.0938 6.40818 13.2055C6.40818 13.3167 6.47586 13.4124 6.57685 13.4772L6.57684 13.4772L6.57833 13.4781L18.5728 20.8854C18.5728 20.8854 18.5729 20.8855 18.573 20.8855C18.6764 20.9502 18.8044 20.9783 18.9264 20.9777C19.0486 20.9771 19.1748 20.9476 19.2753 20.8858L19.2757 20.8855L26.4282 16.4404C26.4282 16.4403 26.4283 16.4403 26.4283 16.4403C26.5296 16.3779 26.5991 16.2835 26.6 16.1716C26.6008 16.0594 26.5322 15.9633 26.4289 15.8985ZM18.7044 23.4367L18.7049 23.437C18.8876 23.5478 19.1171 23.5465 19.2986 23.4337L25.8786 19.3435C26.2512 19.1119 26.2508 18.5694 25.8778 18.3384C25.6868 18.2201 25.4452 18.2202 25.2543 18.3388L19.9279 21.6472C19.3556 22.0027 18.6314 22.0036 18.0583 21.6494L7.7333 15.2691L7.68073 15.3542L7.7333 15.2691C7.54389 15.1521 7.30457 15.1523 7.11535 15.2696C6.74497 15.4993 6.74521 16.0383 7.11579 16.2676L18.0129 23.0121L18.0132 23.0123L18.7044 23.4367ZM18.9363 13.1243L18.936 13.1241C18.2562 12.7054 17.372 12.4989 16.4941 12.4989C15.6162 12.4989 14.7339 12.7054 14.0582 13.1243L14.0581 13.1244C13.3839 13.5436 13.0302 14.1068 13.0329 14.687C13.0357 15.267 13.3946 15.8309 14.0746 16.2521L14.0747 16.2521C14.7524 16.671 15.6356 16.8774 16.513 16.8774C17.3904 16.8774 18.2727 16.671 18.9485 16.252C19.6247 15.8328 19.9785 15.2696 19.9758 14.6893C19.973 14.1094 19.6142 13.5455 18.9363 13.1243ZM16.1277 15.0126H16.1271H15.7618C15.5061 15.0126 15.2987 14.8052 15.2987 14.5495V14.4521C15.2987 14.2492 15.4637 14.085 15.6667 14.0859L15.8532 14.0868C15.9516 14.0873 16.0312 14.1672 16.0312 14.2656C16.0312 14.4745 16.2003 14.6439 16.4092 14.6444L17.97 14.6476C18.0738 14.6478 18.1578 14.732 18.1578 14.8357C18.1578 14.9401 18.0728 15.0246 17.9684 15.0239L16.1277 15.0126Z" fill="#1E2021" stroke="#1E2021" stroke-width="0.2"/>
<rect x="0.5" y="0.500244" width="31" height="31" rx="15.5" stroke="#1E2021"/>
</svg>
