<svg width="183" height="220" viewBox="0 0 183 220" fill="none" xmlns="http://www.w3.org/2000/svg">
<path d="M0.261419 6.48549e-06C26.1428 1.5677 38.9528 4.96438 64.0533 13.349C87.8418 23.197 109.457 37.6315 127.663 55.8282C145.87 74.025 160.313 95.6277 170.166 119.403C180.02 143.178 183 162.651 183 188.385L129.93 220L76.0757 188.385C75.03 176.627 74.6725 171.427 70.2538 160.765C65.835 150.103 59.3584 140.416 51.1936 132.255C43.0289 124.095 33.3359 117.622 22.6681 113.206C12.0004 108.79 10.98 108.432 -4.92854e-06 107.387L31.6328 53.0404L0.261419 6.48549e-06Z" fill="#FF8B02"/>
</svg>
