<svg width="32" height="32" viewBox="0 0 32 32" fill="none" xmlns="http://www.w3.org/2000/svg">
<g clip-path="url(#clip0_852_24220)">
<path d="M13.6439 25.5C13.312 25.4629 13.0177 25.4308 12.7236 25.397C12.655 25.3992 12.5876 25.3775 12.5327 25.3356C12.4777 25.2936 12.4384 25.2338 12.4211 25.166C12.2307 24.5459 12.223 24.5519 11.5928 24.4989C10.9907 24.4483 10.3884 24.3977 9.78822 24.329C9.58934 24.3063 9.54081 24.4296 9.50694 24.5643C9.49948 24.6198 9.48079 24.6731 9.45207 24.7209C9.42334 24.7687 9.3852 24.8098 9.34006 24.8418C9.2951 24.8661 9.26635 24.859 9.07684 24.8441C8.83916 24.8254 8.87495 24.8369 8.76167 24.8239C8.61866 24.8193 8.47732 24.7912 8.3431 24.7406C8.15013 24.6423 8.09696 24.4016 8.03249 24.1516C7.87713 23.549 7.67552 22.9587 7.52357 22.3553C7.48017 22.1765 7.49704 21.988 7.57146 21.8201C8.45326 20.0812 9.34994 18.3501 10.2463 16.6189C11.494 14.2092 12.7441 11.8007 13.9963 9.39347C14.4584 8.50798 14.9449 7.63573 15.4162 6.75521C15.5119 6.57639 15.6081 6.43139 15.8427 6.53424C15.8976 6.54463 15.9537 6.54644 16.0091 6.53961C16.6169 6.5816 16.628 6.57918 16.7679 7.18447C16.777 7.25357 16.8101 7.31705 16.8612 7.3634C16.9123 7.40974 16.978 7.43588 17.0464 7.43708C17.5413 7.51022 18.0366 7.58076 18.5232 7.65106C18.5473 7.62955 18.5654 7.62023 18.5731 7.6053C18.6848 7.39057 18.7524 7.04524 18.9155 6.98955C19.2072 6.93883 19.5064 6.95576 19.7909 7.03908C19.8682 7.05173 19.9604 7.17442 19.9882 7.26497C20.2967 8.20942 20.2619 9.23541 19.8901 10.1559C18.8484 12.7322 17.7782 15.2966 16.7291 17.8698C16.0106 19.6319 15.3101 21.4016 14.5985 23.1666C14.2851 23.9438 13.9642 24.7178 13.6439 25.5ZM9.74146 22.3352C10.3295 22.4144 10.8888 22.4823 11.4453 22.5686C11.5197 22.5902 11.5995 22.5808 11.6672 22.5424C11.7348 22.504 11.7847 22.4398 11.8059 22.3639C12.4011 21.0515 13.0015 19.7415 13.607 18.4339C14.9127 15.602 16.2194 12.7706 17.5269 9.93952C17.7545 9.44606 17.9795 8.95131 18.2149 8.437C17.7473 8.38089 17.3297 8.34901 16.92 8.27326C16.7383 8.23967 16.6778 8.3024 16.6076 8.44477C15.6452 10.3966 14.6802 12.3472 13.7127 14.2965C12.7092 16.323 11.7057 18.3495 10.7023 20.376C10.3858 21.0158 10.0736 21.6577 9.74146 22.3352Z" fill="#1E2021"/>
<path d="M17.0054 20.5219C17.6414 21.2506 18.2776 21.9793 18.914 22.7077C18.963 22.7636 19.2087 23.0405 19.7037 23.5911C19.8441 23.7482 20.0021 23.8879 20.1744 24.0075C20.246 24.0367 20.3222 24.0638 20.403 24.0879C20.7631 24.1928 21.1409 24.2187 21.5115 24.164C21.231 23.8159 21.004 23.5403 20.8586 23.3818C19.8862 22.3216 18.906 21.2689 17.9337 20.2085C17.7501 20.0083 17.5857 19.7891 17.4221 19.5711C17.4009 19.5437 17.3858 19.512 17.3777 19.4781C17.3696 19.4443 17.3687 19.4091 17.375 19.3748C17.6961 18.5806 18.0258 17.79 18.3554 16.9994C18.3649 16.9768 18.3956 16.9634 18.427 16.9368C18.9113 17.4505 19.3892 17.9655 19.8758 18.4719C20.8784 19.5153 21.8761 20.5638 22.8966 21.5888C23.0492 21.7029 23.1597 21.8661 23.2103 22.0519C23.2609 22.2378 23.2487 22.4357 23.1757 22.6137C22.8689 23.4616 22.6035 24.3252 22.3314 25.1858C22.3253 25.2249 22.3112 25.2624 22.29 25.2955C22.2687 25.3287 22.2408 25.357 22.208 25.3783C22.1753 25.3997 22.1385 25.4137 22.1 25.4195C22.0615 25.4253 22.0223 25.4227 21.9849 25.4119C21.4343 25.3269 20.8833 25.245 20.3325 25.1614C20.0114 25.1126 19.6867 25.0793 19.3709 25.0061C19.2094 24.9728 19.0605 24.8934 18.9417 24.7771C18.122 23.8713 17.3123 22.9562 16.5126 22.0318C16.4776 21.9836 16.4533 21.9282 16.4416 21.8695C16.4299 21.8108 16.431 21.7501 16.4448 21.6918C16.5776 21.2949 16.7418 20.9089 16.8945 20.5189L17.0054 20.5219Z" fill="#1E2021"/>
<path d="M10.3706 12.0807L9.70613 12.3155C9.98554 12.6319 10.2413 12.9286 10.5056 13.2171C10.553 13.26 10.5821 13.32 10.5869 13.3845C10.5917 13.4489 10.5718 13.5127 10.5314 13.5625C10.3483 13.8766 10.1787 14.1989 9.97875 14.5632C9.56063 14.0913 9.16803 13.6517 8.77949 13.2084C8.51983 12.9121 8.26076 12.615 8.01101 12.3101C7.95435 12.2563 7.91467 12.1865 7.89701 12.1097C7.87935 12.0328 7.88451 11.9524 7.91183 11.8785C7.93916 11.8046 7.98742 11.7407 8.05047 11.6949C8.11352 11.6491 8.18852 11.6234 8.26592 11.6212C8.5048 11.6033 8.74496 11.6201 8.97922 11.671C9.29946 11.7165 9.61999 11.7689 9.93418 11.845C10.0879 11.9065 10.2344 11.9855 10.3706 12.0807Z" fill="#1E2021"/>
</g>
<rect x="0.5" y="0.5" width="31" height="31" rx="15.5" stroke="#1E2021"/>
<defs>
<clipPath id="clip0_852_24220">
<rect width="18" height="19" fill="white" transform="translate(7.5 6.5)"/>
</clipPath>
</defs>
</svg>
