<svg width="32" height="32" viewBox="0 0 32 32" fill="none" xmlns="http://www.w3.org/2000/svg">
<g clip-path="url(#clip0_852_24226)">
<path d="M22.8346 13.3337H20.4596V10.167H9.3763C8.50547 10.167 7.79297 10.8795 7.79297 11.7503V20.4587H9.3763C9.3763 21.7728 10.4371 22.8337 11.7513 22.8337C13.0655 22.8337 14.1263 21.7728 14.1263 20.4587H18.8763C18.8763 21.7728 19.9371 22.8337 21.2513 22.8337C22.5655 22.8337 23.6263 21.7728 23.6263 20.4587H25.2096V16.5003L22.8346 13.3337ZM22.4388 14.5212L23.9905 16.5003H20.4596V14.5212H22.4388ZM11.7513 21.2503C11.3159 21.2503 10.9596 20.8941 10.9596 20.4587C10.9596 20.0232 11.3159 19.667 11.7513 19.667C12.1867 19.667 12.543 20.0232 12.543 20.4587C12.543 20.8941 12.1867 21.2503 11.7513 21.2503ZM13.5088 18.8753C13.0734 18.3924 12.4559 18.0837 11.7513 18.0837C11.0467 18.0837 10.4292 18.3924 9.9938 18.8753H9.3763V11.7503H18.8763V18.8753H13.5088ZM21.2513 21.2503C20.8159 21.2503 20.4596 20.8941 20.4596 20.4587C20.4596 20.0232 20.8159 19.667 21.2513 19.667C21.6867 19.667 22.043 20.0232 22.043 20.4587C22.043 20.8941 21.6867 21.2503 21.2513 21.2503Z" fill="#FBFBFB"/>
</g>
<rect x="0.5" y="0.500244" width="31" height="31" rx="15.5" stroke="#FBFBFB"/>
<defs>
<clipPath id="clip0_852_24226">
<rect width="19" height="19" fill="white" transform="translate(7 7.00024)"/>
</clipPath>
</defs>
</svg>
