<svg width="183" height="220" viewBox="0 0 183 220" fill="none" xmlns="http://www.w3.org/2000/svg">
<path d="M182.739 220C156.857 218.433 144.047 215.036 118.947 206.651C95.1582 196.803 73.5435 182.369 55.3366 164.172C37.1297 145.975 22.6871 124.373 12.8336 100.597C2.98011 76.8222 2.96412e-06 57.3496 6.03281e-06 31.6155L53.07 0.000249813L106.924 31.6154C107.97 43.3732 108.328 48.5735 112.746 59.2353C117.165 69.8971 123.642 79.5847 131.806 87.7449C139.971 95.9051 149.664 102.378 160.332 106.794C171 111.211 172.02 111.568 183 112.613L151.367 166.96L182.739 220Z" fill="#FFB761"/>
</svg>
