<svg width="220" height="183" viewBox="0 0 220 183" fill="none" xmlns="http://www.w3.org/2000/svg">
<path d="M220 0.261673C218.432 26.1431 215.036 38.9531 206.651 64.0535C196.803 87.842 182.369 109.457 164.172 127.664C145.975 145.871 124.372 160.313 100.597 170.167C76.8219 180.02 57.3493 183 31.6152 183L0 129.93L31.6152 76.076C43.3729 75.0302 48.5732 74.6727 59.2351 70.254C69.8969 65.8353 79.5844 59.3586 87.7446 51.1939C95.9048 43.0291 102.378 33.3361 106.794 22.6684C111.21 12.0006 111.568 10.9802 112.613 0.000244141L166.96 31.6331L220 0.261673Z" fill="#676767"/>
</svg>
