<svg width="20" height="20" viewBox="0 0 20 20" fill="none" xmlns="http://www.w3.org/2000/svg">
<path d="M15.4078 4.875C16.5003 4.875 17.3936 5.72782 17.4583 6.80405L17.462 6.92918V13.2823C17.462 14.3747 16.6092 15.268 15.533 15.3327L15.4078 15.3364H4.59324C3.50077 15.3364 2.60748 14.4836 2.54281 13.4074L2.53906 13.2823V6.92918C2.53906 5.83671 3.39189 4.94342 4.46811 4.87875L4.59324 4.875H15.4078ZM16.3409 9.33743H3.65878L3.65952 13.2823C3.65952 13.7657 4.02694 14.1633 4.49778 14.2112L4.59324 14.216H15.4078C15.8913 14.216 16.2889 13.8486 16.3367 13.3777L16.3415 13.2823L16.3409 9.33743ZM14.6713 11.9558C14.9807 11.9558 15.2316 12.2066 15.2316 12.516C15.2316 12.7996 15.0208 13.034 14.7473 13.0711L14.6713 13.0763H12.8039C12.4945 13.0763 12.2437 12.8254 12.2437 12.516C12.2437 12.2324 12.4544 11.998 12.7279 11.9609L12.8039 11.9558H14.6713ZM15.4078 5.99546H4.59324C4.10979 5.99546 3.71216 6.36288 3.66435 6.83371L3.65952 6.92918L3.65878 8.21696H16.3409L16.3415 6.92918C16.3415 6.44573 15.9741 6.0481 15.5033 6.00028L15.4078 5.99546Z" fill="#FF8B02"/>
</svg>
