<svg width="20" height="19" viewBox="0 0 20 19" fill="none" xmlns="http://www.w3.org/2000/svg">
<path d="M9.99935 9.49992C8.99102 9.49992 8.16602 8.67492 8.16602 7.66658C8.16602 6.65825 8.99102 5.83325 9.99935 5.83325C11.0077 5.83325 11.8327 6.65825 11.8327 7.66658C11.8327 8.67492 11.0077 9.49992 9.99935 9.49992ZM15.4993 7.84992C15.4993 4.52242 13.0702 2.16659 9.99935 2.16659C6.92852 2.16659 4.49935 4.52242 4.49935 7.84992C4.49935 9.99492 6.28685 12.8366 9.99935 16.2283C13.7118 12.8366 15.4993 9.99492 15.4993 7.84992ZM9.99935 0.333252C13.8493 0.333252 17.3327 3.28492 17.3327 7.84992C17.3327 10.8933 14.8852 14.4958 9.99935 18.6666C5.11352 14.4958 2.66602 10.8933 2.66602 7.84992C2.66602 3.28492 6.14935 0.333252 9.99935 0.333252Z" fill="#FF8B02"/>
</svg>
