<svg width="32" height="32" viewBox="0 0 32 32" fill="none" xmlns="http://www.w3.org/2000/svg">
<g clip-path="url(#clip0_1091_35008)">
<path d="M25.3307 11.3332H21.8307V6.6665H5.4974C4.21406 6.6665 3.16406 7.7165 3.16406 8.99984V21.8332H5.4974C5.4974 23.7698 7.06073 25.3332 8.9974 25.3332C10.9341 25.3332 12.4974 23.7698 12.4974 21.8332H19.4974C19.4974 23.7698 21.0607 25.3332 22.9974 25.3332C24.9341 25.3332 26.4974 23.7698 26.4974 21.8332H28.8307V15.9998L25.3307 11.3332ZM24.7474 13.0832L27.0341 15.9998H21.8307V13.0832H24.7474ZM8.9974 22.9998C8.35573 22.9998 7.83073 22.4748 7.83073 21.8332C7.83073 21.1915 8.35573 20.6665 8.9974 20.6665C9.63906 20.6665 10.1641 21.1915 10.1641 21.8332C10.1641 22.4748 9.63906 22.9998 8.9974 22.9998ZM11.5874 19.4998C10.9457 18.7882 10.0357 18.3332 8.9974 18.3332C7.95906 18.3332 7.04906 18.7882 6.4074 19.4998H5.4974V8.99984H19.4974V19.4998H11.5874ZM22.9974 22.9998C22.3557 22.9998 21.8307 22.4748 21.8307 21.8332C21.8307 21.1915 22.3557 20.6665 22.9974 20.6665C23.6391 20.6665 24.1641 21.1915 24.1641 21.8332C24.1641 22.4748 23.6391 22.9998 22.9974 22.9998Z" fill="#FF8B02"/>
</g>
<defs>
<clipPath id="clip0_1091_35008">
<rect width="28" height="28" fill="white" transform="translate(2 2)"/>
</clipPath>
</defs>
</svg>
