<svg width="32" height="32" viewBox="0 0 32 32" fill="none" xmlns="http://www.w3.org/2000/svg">
<mask id="path-1-outside-1_1092_35055" maskUnits="userSpaceOnUse" x="2.5" y="1.11133" width="27" height="30" fill="black">
<rect fill="white" x="2.5" y="1.11133" width="27" height="30"/>
<path fill-rule="evenodd" clip-rule="evenodd" d="M25.6777 11.8489L28.4726 27.7896C28.5176 28.046 28.5071 28.3094 28.4419 28.5613C28.3766 28.8131 28.2582 29.0473 28.095 29.2474C27.9317 29.4475 27.7276 29.6086 27.4969 29.7195C27.2662 29.8303 27.0146 29.8882 26.7597 29.8891H5.24042C4.7238 29.8891 4.23739 29.6518 3.90588 29.247C3.74223 29.0467 3.62355 28.8121 3.55819 28.5599C3.49283 28.3077 3.48238 28.0438 3.52759 27.787L6.32241 11.8489C6.47134 11.0003 7.19172 10.3792 8.03531 10.3792H11.773C11.1712 9.51597 10.8473 8.46555 10.8473 7.37339C10.8473 4.46976 13.1589 2.11133 16.0001 2.11133C18.8413 2.11133 21.1528 4.47106 21.1528 7.37468C21.1528 8.46689 20.829 9.51597 20.2272 10.3792H23.9648C24.8086 10.3792 25.5289 11.0003 25.6777 11.8489ZM26.7597 29.0343C27.0251 29.0343 27.2751 28.9063 27.4455 28.6983C27.5296 28.5949 27.5905 28.4739 27.6241 28.3439C27.6576 28.2139 27.663 28.0779 27.6398 27.9456L24.8449 12.0049C24.8082 11.7937 24.6999 11.6023 24.539 11.4645C24.3781 11.3266 24.1748 11.2509 23.9648 11.2508H18.2845L19.0199 10.5121C19.8498 9.67663 20.3068 8.5652 20.3068 7.37965C20.3068 4.95275 18.3748 2.9781 16.0001 2.9781C13.6253 2.9781 11.6933 4.95213 11.6933 7.37902C11.6933 8.56462 12.1504 9.67679 12.9803 10.5122L13.7157 11.2508H8.03531C7.60182 11.2508 7.23169 11.5711 7.15516 12.0072L4.36033 27.9464C4.3371 28.0786 4.34247 28.2145 4.37604 28.3443C4.40962 28.4742 4.47059 28.595 4.55469 28.6983C4.72504 28.9063 4.97496 29.0343 5.24042 29.0343H26.7597ZM14.3281 7.37961C14.3281 8.32211 15.0784 9.08887 16.0006 9.08887C16.9228 9.08887 17.673 8.32211 17.673 7.37961C17.673 6.43717 16.9228 5.67041 16.0006 5.67041C15.0784 5.67041 14.3281 6.43717 14.3281 7.37961ZM15.2687 18.1268L13.6499 19.8381L15.6405 22.9645C15.679 23.0247 15.7008 23.0944 15.7036 23.1663C15.7064 23.2381 15.6901 23.3094 15.6564 23.3725C15.5878 23.5017 15.4554 23.5783 15.3116 23.5783H14.6902C14.551 23.5783 14.4184 23.5068 14.3479 23.3839L12.8065 20.7051L11.8158 21.731V22.9664C11.8158 23.3087 11.5398 23.5861 11.2049 23.5861C10.87 23.5861 10.5939 23.3087 10.5939 22.9664V18.067C10.5939 17.7247 10.87 17.4473 11.2049 17.4473C11.5398 17.4473 11.8158 17.7247 11.8158 18.067V20.1732L14.157 17.5836C14.2313 17.5009 14.3436 17.4605 14.4533 17.4605H14.9866C15.1441 17.4605 15.2863 17.5501 15.3478 17.6982C15.3779 17.7696 15.3864 17.8485 15.3723 17.9249C15.3582 18.0012 15.3222 18.0716 15.2687 18.1268ZM21.2388 20.2764C21.4555 20.2764 21.5988 20.4743 21.5988 20.6957H21.5988V22.5589C21.5988 22.6808 21.5606 22.7965 21.4674 22.8725C21.2254 23.0699 20.9227 23.247 20.527 23.4039C20.0448 23.5951 19.5565 23.6907 19.0621 23.6907C18.434 23.6908 17.8863 23.5561 17.419 23.2866C16.9519 23.0173 16.6009 22.632 16.366 22.1309C16.1311 21.6299 16.0136 21.0848 16.0136 20.4957C16.0136 19.8563 16.1447 19.2882 16.407 18.7915C16.6692 18.2946 17.053 17.9136 17.5584 17.6482C17.9435 17.4444 18.4229 17.3425 18.9965 17.3425C19.7422 17.3425 20.3247 17.5024 20.7441 17.822C20.9223 17.9569 21.0779 18.1204 21.2048 18.3063C21.2638 18.393 21.3006 18.4934 21.3119 18.5983C21.3232 18.7033 21.3086 18.8095 21.2695 18.9072C21.2303 19.0049 21.1679 19.0911 21.0878 19.1578C21.0077 19.2246 20.9125 19.2697 20.811 19.2892L20.8095 19.2895C20.6913 19.3121 20.5692 19.2978 20.459 19.2486C20.3488 19.1994 20.2556 19.1174 20.1916 19.0134C20.1076 18.877 19.9988 18.7583 19.8711 18.6636C19.6373 18.4891 19.3456 18.4019 18.9961 18.4019C18.4657 18.402 18.0442 18.5737 17.7316 18.9169C17.4182 19.2604 17.2615 19.7699 17.2615 20.4454C17.2615 21.1741 17.4181 21.7205 17.735 22.0848C18.0519 22.4491 18.4634 22.6313 18.9771 22.6313C19.231 22.6313 19.4785 22.5803 19.7339 22.4784C19.9892 22.3765 20.2294 22.2529 20.377 22.1079V21.3491H19.5231C19.2436 21.3491 19.0172 21.0983 19.0172 20.8127C19.0172 20.5271 19.2437 20.2764 19.5231 20.2764H21.2388Z"/>
</mask>
<path fill-rule="evenodd" clip-rule="evenodd" d="M25.6777 11.8489L28.4726 27.7896C28.5176 28.046 28.5071 28.3094 28.4419 28.5613C28.3766 28.8131 28.2582 29.0473 28.095 29.2474C27.9317 29.4475 27.7276 29.6086 27.4969 29.7195C27.2662 29.8303 27.0146 29.8882 26.7597 29.8891H5.24042C4.7238 29.8891 4.23739 29.6518 3.90588 29.247C3.74223 29.0467 3.62355 28.8121 3.55819 28.5599C3.49283 28.3077 3.48238 28.0438 3.52759 27.787L6.32241 11.8489C6.47134 11.0003 7.19172 10.3792 8.03531 10.3792H11.773C11.1712 9.51597 10.8473 8.46555 10.8473 7.37339C10.8473 4.46976 13.1589 2.11133 16.0001 2.11133C18.8413 2.11133 21.1528 4.47106 21.1528 7.37468C21.1528 8.46689 20.829 9.51597 20.2272 10.3792H23.9648C24.8086 10.3792 25.5289 11.0003 25.6777 11.8489ZM26.7597 29.0343C27.0251 29.0343 27.2751 28.9063 27.4455 28.6983C27.5296 28.5949 27.5905 28.4739 27.6241 28.3439C27.6576 28.2139 27.663 28.0779 27.6398 27.9456L24.8449 12.0049C24.8082 11.7937 24.6999 11.6023 24.539 11.4645C24.3781 11.3266 24.1748 11.2509 23.9648 11.2508H18.2845L19.0199 10.5121C19.8498 9.67663 20.3068 8.5652 20.3068 7.37965C20.3068 4.95275 18.3748 2.9781 16.0001 2.9781C13.6253 2.9781 11.6933 4.95213 11.6933 7.37902C11.6933 8.56462 12.1504 9.67679 12.9803 10.5122L13.7157 11.2508H8.03531C7.60182 11.2508 7.23169 11.5711 7.15516 12.0072L4.36033 27.9464C4.3371 28.0786 4.34247 28.2145 4.37604 28.3443C4.40962 28.4742 4.47059 28.595 4.55469 28.6983C4.72504 28.9063 4.97496 29.0343 5.24042 29.0343H26.7597ZM14.3281 7.37961C14.3281 8.32211 15.0784 9.08887 16.0006 9.08887C16.9228 9.08887 17.673 8.32211 17.673 7.37961C17.673 6.43717 16.9228 5.67041 16.0006 5.67041C15.0784 5.67041 14.3281 6.43717 14.3281 7.37961ZM15.2687 18.1268L13.6499 19.8381L15.6405 22.9645C15.679 23.0247 15.7008 23.0944 15.7036 23.1663C15.7064 23.2381 15.6901 23.3094 15.6564 23.3725C15.5878 23.5017 15.4554 23.5783 15.3116 23.5783H14.6902C14.551 23.5783 14.4184 23.5068 14.3479 23.3839L12.8065 20.7051L11.8158 21.731V22.9664C11.8158 23.3087 11.5398 23.5861 11.2049 23.5861C10.87 23.5861 10.5939 23.3087 10.5939 22.9664V18.067C10.5939 17.7247 10.87 17.4473 11.2049 17.4473C11.5398 17.4473 11.8158 17.7247 11.8158 18.067V20.1732L14.157 17.5836C14.2313 17.5009 14.3436 17.4605 14.4533 17.4605H14.9866C15.1441 17.4605 15.2863 17.5501 15.3478 17.6982C15.3779 17.7696 15.3864 17.8485 15.3723 17.9249C15.3582 18.0012 15.3222 18.0716 15.2687 18.1268ZM21.2388 20.2764C21.4555 20.2764 21.5988 20.4743 21.5988 20.6957H21.5988V22.5589C21.5988 22.6808 21.5606 22.7965 21.4674 22.8725C21.2254 23.0699 20.9227 23.247 20.527 23.4039C20.0448 23.5951 19.5565 23.6907 19.0621 23.6907C18.434 23.6908 17.8863 23.5561 17.419 23.2866C16.9519 23.0173 16.6009 22.632 16.366 22.1309C16.1311 21.6299 16.0136 21.0848 16.0136 20.4957C16.0136 19.8563 16.1447 19.2882 16.407 18.7915C16.6692 18.2946 17.053 17.9136 17.5584 17.6482C17.9435 17.4444 18.4229 17.3425 18.9965 17.3425C19.7422 17.3425 20.3247 17.5024 20.7441 17.822C20.9223 17.9569 21.0779 18.1204 21.2048 18.3063C21.2638 18.393 21.3006 18.4934 21.3119 18.5983C21.3232 18.7033 21.3086 18.8095 21.2695 18.9072C21.2303 19.0049 21.1679 19.0911 21.0878 19.1578C21.0077 19.2246 20.9125 19.2697 20.811 19.2892L20.8095 19.2895C20.6913 19.3121 20.5692 19.2978 20.459 19.2486C20.3488 19.1994 20.2556 19.1174 20.1916 19.0134C20.1076 18.877 19.9988 18.7583 19.8711 18.6636C19.6373 18.4891 19.3456 18.4019 18.9961 18.4019C18.4657 18.402 18.0442 18.5737 17.7316 18.9169C17.4182 19.2604 17.2615 19.7699 17.2615 20.4454C17.2615 21.1741 17.4181 21.7205 17.735 22.0848C18.0519 22.4491 18.4634 22.6313 18.9771 22.6313C19.231 22.6313 19.4785 22.5803 19.7339 22.4784C19.9892 22.3765 20.2294 22.2529 20.377 22.1079V21.3491H19.5231C19.2436 21.3491 19.0172 21.0983 19.0172 20.8127C19.0172 20.5271 19.2437 20.2764 19.5231 20.2764H21.2388Z" fill="#FF8B02"/>
<path d="M28.4726 27.7896L28.1771 27.8414L28.1771 27.8414L28.4726 27.7896ZM25.6777 11.8489L25.9732 11.7971V11.7971L25.6777 11.8489ZM28.4419 28.5613L28.7323 28.6365V28.6365L28.4419 28.5613ZM28.095 29.2474L27.8625 29.0577V29.0577L28.095 29.2474ZM27.4969 29.7195L27.6269 29.9899H27.6269L27.4969 29.7195ZM26.7597 29.8891V30.1891L26.7607 30.1891L26.7597 29.8891ZM3.90588 29.247L3.67356 29.4368L3.67376 29.437L3.90588 29.247ZM3.55819 28.5599L3.26778 28.6351L3.26778 28.6351L3.55819 28.5599ZM3.52759 27.787L3.82304 27.839L3.82308 27.8388L3.52759 27.787ZM6.32241 11.8489L6.02693 11.7971L6.02692 11.7971L6.32241 11.8489ZM11.773 10.3792V10.6792H12.3478L12.0191 10.2076L11.773 10.3792ZM20.2272 10.3792L19.9811 10.2076L19.6523 10.6792H20.2272V10.3792ZM27.4455 28.6983L27.6775 28.8884L27.6782 28.8876L27.4455 28.6983ZM27.6241 28.3439L27.3336 28.2689L27.6241 28.3439ZM27.6398 27.9456L27.3443 27.9974L27.3443 27.9974L27.6398 27.9456ZM24.8449 12.0049L24.5494 12.0564L24.5494 12.0568L24.8449 12.0049ZM24.539 11.4645L24.7342 11.2367L24.7342 11.2367L24.539 11.4645ZM23.9648 11.2508L23.9651 10.9508H23.9648V11.2508ZM18.2845 11.2508L18.0719 11.0391L17.5626 11.5508H18.2845V11.2508ZM19.0199 10.5121L19.2325 10.7237L19.2327 10.7235L19.0199 10.5121ZM12.9803 10.5122L12.7675 10.7236L12.7677 10.7238L12.9803 10.5122ZM13.7157 11.2508V11.5508H14.4377L13.9283 11.0391L13.7157 11.2508ZM7.15516 12.0072L6.85968 11.9553L6.85967 11.9553L7.15516 12.0072ZM4.36033 27.9464L4.65581 27.9983L4.65583 27.9982L4.36033 27.9464ZM4.37604 28.3443L4.08559 28.4194H4.08559L4.37604 28.3443ZM4.55469 28.6983L4.32209 28.8877L4.32256 28.8883L4.55469 28.6983ZM13.6499 19.8381L13.4319 19.632L13.2712 19.8019L13.3968 19.9993L13.6499 19.8381ZM15.2687 18.1268L15.053 17.9183L15.0508 17.9207L15.2687 18.1268ZM15.6405 22.9645L15.3874 23.1257L15.3878 23.1262L15.6405 22.9645ZM15.7036 23.1663L15.4038 23.178V23.178L15.7036 23.1663ZM15.6564 23.3725L15.3917 23.2312L15.3914 23.2319L15.6564 23.3725ZM14.3479 23.3839L14.6082 23.2347L14.608 23.2343L14.3479 23.3839ZM12.8065 20.7051L13.0666 20.5555L12.8677 20.2099L12.5908 20.4967L12.8065 20.7051ZM11.8158 21.731L11.6 21.5226L11.5158 21.6098V21.731H11.8158ZM11.8158 20.1732H11.5158V20.9524L12.0383 20.3744L11.8158 20.1732ZM14.157 17.5836L14.3796 17.7848L14.3802 17.7841L14.157 17.5836ZM15.3478 17.6982L15.0708 17.8134L15.0714 17.8147L15.3478 17.6982ZM21.5988 20.6957H21.2988V20.9957H21.5988V20.6957ZM21.5988 20.6957H21.8988V20.3957H21.5988V20.6957ZM21.4674 22.8725L21.657 23.105L21.657 23.105L21.4674 22.8725ZM20.527 23.4039L20.4165 23.125L20.4165 23.125L20.527 23.4039ZM19.0621 23.6907V23.3907H19.0621L19.0621 23.6907ZM17.419 23.2866L17.5688 23.0267L17.5688 23.0267L17.419 23.2866ZM16.366 22.1309L16.6376 22.0036L16.6376 22.0035L16.366 22.1309ZM16.0136 20.4957H16.3136V20.4956L16.0136 20.4957ZM16.407 18.7915L16.6723 18.9315L16.6723 18.9315L16.407 18.7915ZM17.5584 17.6482L17.6979 17.9138L17.6987 17.9134L17.5584 17.6482ZM18.9965 17.3425L18.9966 17.0425H18.9965V17.3425ZM20.7441 17.822L20.5622 18.0606L20.5631 18.0613L20.7441 17.822ZM21.2048 18.3063L21.4528 18.1375L21.4526 18.1371L21.2048 18.3063ZM21.3119 18.5983L21.6102 18.5662L21.3119 18.5983ZM21.2695 18.9072L21.548 19.0188L21.548 19.0188L21.2695 18.9072ZM21.0878 19.1578L21.2798 19.3883L21.2798 19.3883L21.0878 19.1578ZM20.811 19.2892L20.7544 18.9946L20.7527 18.995L20.811 19.2892ZM20.8095 19.2895L20.8658 19.5842L20.8678 19.5838L20.8095 19.2895ZM20.1916 19.0134L20.447 18.8561L20.447 18.8561L20.1916 19.0134ZM19.8711 18.6636L19.6917 18.904L19.6924 18.9046L19.8711 18.6636ZM18.9961 18.4019V18.1019H18.996L18.9961 18.4019ZM17.7316 18.9169L17.9532 19.1191L17.9534 19.1189L17.7316 18.9169ZM17.735 22.0848L17.9614 21.888L17.9614 21.8879L17.735 22.0848ZM19.7339 22.4784L19.8451 22.7571L19.8452 22.757L19.7339 22.4784ZM20.377 22.1079L20.5872 22.3219L20.677 22.2337V22.1079H20.377ZM20.377 21.3491H20.677V21.0491H20.377V21.3491ZM28.7681 27.7378L25.9732 11.7971L25.3822 11.9008L28.1771 27.8414L28.7681 27.7378ZM28.7323 28.6365C28.8083 28.3431 28.8205 28.0364 28.7681 27.7377L28.1771 27.8414C28.2147 28.0557 28.2059 28.2757 28.1515 28.486L28.7323 28.6365ZM28.3274 29.437C28.5182 29.2032 28.6563 28.9299 28.7323 28.6365L28.1515 28.486C28.097 28.6963 27.9982 28.8914 27.8625 29.0577L28.3274 29.437ZM27.6269 29.9899C27.8976 29.8598 28.1366 29.6709 28.3274 29.437L27.8625 29.0577C27.7269 29.224 27.5576 29.3575 27.367 29.4491L27.6269 29.9899ZM26.7607 30.1891C27.0604 30.1881 27.3561 30.12 27.6269 29.9899L27.367 29.4491C27.1764 29.5407 26.9688 29.5884 26.7587 29.5891L26.7607 30.1891ZM5.24042 30.1891H26.7597V29.5891H5.24042V30.1891ZM3.67376 29.437C4.06012 29.9089 4.63054 30.1891 5.24042 30.1891V29.5891C4.81705 29.5891 4.41466 29.3948 4.13799 29.0569L3.67376 29.437ZM3.26778 28.6351C3.34392 28.929 3.48229 29.2027 3.67356 29.4368L4.1382 29.0572C4.00217 28.8907 3.90318 28.6953 3.8486 28.4846L3.26778 28.6351ZM3.23213 27.735C3.17949 28.0341 3.19164 28.3413 3.26778 28.6351L3.8486 28.4847C3.79402 28.274 3.78528 28.0536 3.82304 27.839L3.23213 27.735ZM6.02692 11.7971L3.23209 27.7352L3.82308 27.8388L6.6179 11.9008L6.02692 11.7971ZM8.03531 10.0792C7.04016 10.0792 6.20001 10.8108 6.02693 11.7971L6.6179 11.9008C6.74267 11.1898 7.34327 10.6792 8.03531 10.6792V10.0792ZM11.773 10.0792H8.03531V10.6792H11.773V10.0792ZM10.5473 7.37339C10.5473 8.52454 10.8887 9.63531 11.5269 10.5507L12.0191 10.2076C11.4537 9.39664 11.1473 8.40655 11.1473 7.37339H10.5473ZM16.0001 1.81133C12.9873 1.81133 10.5473 4.30996 10.5473 7.37339H11.1473C11.1473 4.62956 13.3304 2.41133 16.0001 2.41133V1.81133ZM21.4528 7.37468C21.4528 4.31136 19.0129 1.81133 16.0001 1.81133V2.41133C18.6697 2.41133 20.8528 4.63076 20.8528 7.37468H21.4528ZM20.4733 10.5507C21.1115 9.63537 21.4528 8.52595 21.4528 7.37468H20.8528C20.8528 8.40782 20.5465 9.39658 19.9811 10.2076L20.4733 10.5507ZM23.9648 10.0792H20.2272V10.6792H23.9648V10.0792ZM25.9732 11.7971C25.8003 10.8108 24.9601 10.0792 23.9648 10.0792V10.6792C24.657 10.6792 25.2576 11.1898 25.3822 11.9008L25.9732 11.7971ZM27.2134 28.5082C27.0948 28.653 26.9274 28.7343 26.7597 28.7343V29.3343C27.1229 29.3343 27.4553 29.1597 27.6775 28.8884L27.2134 28.5082ZM27.3336 28.2689C27.3108 28.3575 27.2693 28.4394 27.2127 28.5091L27.6782 28.8876C27.7898 28.7504 27.8703 28.5904 27.9146 28.4189L27.3336 28.2689ZM27.3443 27.9974C27.3601 28.0877 27.3565 28.1804 27.3336 28.2689L27.9146 28.4189C27.9588 28.2474 27.9659 28.0682 27.9353 27.8937L27.3443 27.9974ZM24.5494 12.0568L27.3443 27.9974L27.9353 27.8938L25.1404 11.9531L24.5494 12.0568ZM24.3437 11.6923C24.451 11.7842 24.5244 11.9129 24.5494 12.0564L25.1405 11.9535C25.0919 11.6745 24.9487 11.4205 24.7342 11.2367L24.3437 11.6923ZM23.9646 11.5508C24.1023 11.5509 24.2366 11.6004 24.3437 11.6923L24.7342 11.2367C24.5195 11.0527 24.2473 10.951 23.9651 10.9508L23.9646 11.5508ZM18.2845 11.5508H23.9648V10.9508H18.2845V11.5508ZM18.8072 10.3004L18.0719 11.0391L18.4971 11.4624L19.2325 10.7237L18.8072 10.3004ZM20.0068 7.37965C20.0068 8.48647 19.5808 9.52175 18.807 10.3006L19.2327 10.7235C20.1188 9.83151 20.6068 8.64393 20.6068 7.37965H20.0068ZM16.0001 3.2781C18.203 3.2781 20.0068 5.11223 20.0068 7.37965H20.6068C20.6068 4.79326 18.5466 2.6781 16.0001 2.6781V3.2781ZM11.9933 7.37902C11.9933 5.11167 13.7971 3.2781 16.0001 3.2781V2.6781C13.4536 2.6781 11.3933 4.79258 11.3933 7.37902H11.9933ZM13.1931 10.3007C12.4194 9.52195 11.9933 8.48595 11.9933 7.37902H11.3933C11.3933 8.64329 11.8813 9.83163 12.7675 10.7236L13.1931 10.3007ZM13.9283 11.0391L13.1929 10.3005L12.7677 10.7238L13.5031 11.4624L13.9283 11.0391ZM8.03531 11.5508H13.7157V10.9508H8.03531V11.5508ZM7.45064 12.059C7.50312 11.76 7.75394 11.5508 8.03531 11.5508V10.9508C7.4497 10.9508 6.96025 11.3822 6.85968 11.9553L7.45064 12.059ZM4.65583 27.9982L7.45065 12.059L6.85967 11.9553L4.06484 27.8946L4.65583 27.9982ZM4.66649 28.2693C4.64365 28.1809 4.63999 28.0884 4.65581 27.9983L4.06486 27.8945C4.03422 28.0689 4.04128 28.248 4.08559 28.4194L4.66649 28.2693ZM4.78729 28.5088C4.7307 28.4393 4.68933 28.3576 4.66649 28.2693L4.08559 28.4194C4.1299 28.5908 4.21048 28.7507 4.32209 28.8877L4.78729 28.5088ZM5.24042 28.7343C5.0727 28.7343 4.90531 28.653 4.78682 28.5082L4.32256 28.8883C4.54476 29.1597 4.87722 29.3343 5.24042 29.3343V28.7343ZM26.7597 28.7343H5.24042V29.3343H26.7597V28.7343ZM16.0006 8.78887C15.2502 8.78887 14.6281 8.1626 14.6281 7.37961H14.0281C14.0281 8.48161 14.9066 9.38887 16.0006 9.38887V8.78887ZM17.373 7.37961C17.373 8.16261 16.751 8.78887 16.0006 8.78887V9.38887C17.0946 9.38887 17.9731 8.48161 17.9731 7.37961H17.373ZM16.0006 5.97041C16.751 5.97041 17.373 6.59668 17.373 7.37961H17.9731C17.9731 6.27767 17.0946 5.37041 16.0006 5.37041V5.97041ZM14.6281 7.37961C14.6281 6.59668 15.2502 5.97041 16.0006 5.97041V5.37041C14.9066 5.37041 14.0281 6.27766 14.0281 7.37961H14.6281ZM13.8678 20.0443L15.4867 18.333L15.0508 17.9207L13.4319 19.632L13.8678 20.0443ZM15.8936 22.8034L13.9029 19.677L13.3968 19.9993L15.3874 23.1257L15.8936 22.8034ZM16.0034 23.1546C15.9985 23.0298 15.9606 22.9083 15.8932 22.8029L15.3878 23.1262C15.3973 23.1411 15.4031 23.159 15.4038 23.178L16.0034 23.1546ZM15.921 23.5138C15.9799 23.4035 16.0082 23.2794 16.0034 23.1546L15.4038 23.178C15.4046 23.1969 15.4002 23.2153 15.3917 23.2312L15.921 23.5138ZM15.3116 23.8783C15.5631 23.8783 15.7992 23.7433 15.9214 23.5132L15.3914 23.2319C15.3764 23.2601 15.3477 23.2783 15.3116 23.2783V23.8783ZM14.6902 23.8783H15.3116V23.2783H14.6902V23.8783ZM14.0877 23.5331C14.2149 23.755 14.4503 23.8783 14.6902 23.8783V23.2783C14.6516 23.2783 14.6219 23.2585 14.6082 23.2347L14.0877 23.5331ZM12.5465 20.8547L14.0879 23.5335L14.608 23.2343L13.0666 20.5555L12.5465 20.8547ZM12.0316 21.9394L13.0223 20.9135L12.5908 20.4967L11.6 21.5226L12.0316 21.9394ZM12.1158 22.9664V21.731H11.5158V22.9664H12.1158ZM11.2049 23.8861C11.7087 23.8861 12.1158 23.4711 12.1158 22.9664H11.5158C11.5158 23.1462 11.3708 23.2861 11.2049 23.2861V23.8861ZM10.2939 22.9664C10.2939 23.4711 10.701 23.8861 11.2049 23.8861V23.2861C11.0389 23.2861 10.8939 23.1462 10.8939 22.9664H10.2939ZM10.2939 18.067V22.9664H10.8939V18.067H10.2939ZM11.2049 17.1473C10.701 17.1473 10.2939 17.5623 10.2939 18.067H10.8939C10.8939 17.8872 11.0389 17.7473 11.2049 17.7473V17.1473ZM12.1158 18.067C12.1158 17.5623 11.7087 17.1473 11.2049 17.1473V17.7473C11.3708 17.7473 11.5158 17.8872 11.5158 18.067H12.1158ZM12.1158 20.1732V18.067H11.5158V20.1732H12.1158ZM13.9345 17.3824L11.5932 19.972L12.0383 20.3744L14.3796 17.7848L13.9345 17.3824ZM14.4533 17.1605C14.2762 17.1605 14.0759 17.225 13.9339 17.3831L14.3802 17.7841C14.3867 17.7768 14.411 17.7605 14.4533 17.7605V17.1605ZM14.9866 17.1605H14.4533V17.7605H14.9866V17.1605ZM15.6249 17.5831C15.5146 17.3178 15.2595 17.1605 14.9866 17.1605V17.7605C15.0287 17.7605 15.0579 17.7824 15.0708 17.8134L15.6249 17.5831ZM15.6673 17.9793C15.692 17.8456 15.6772 17.7073 15.6243 17.5818L15.0714 17.8147C15.0786 17.832 15.0808 17.8515 15.0773 17.8704L15.6673 17.9793ZM15.4844 18.3354C15.5793 18.2372 15.6426 18.1131 15.6673 17.9793L15.0773 17.8704C15.0738 17.8894 15.065 17.9059 15.053 17.9183L15.4844 18.3354ZM21.8988 20.6957C21.8988 20.3687 21.6755 19.9764 21.2388 19.9764V20.5764C21.2461 20.5764 21.2497 20.5778 21.252 20.579C21.2549 20.5804 21.2606 20.584 21.2676 20.5926C21.2827 20.6112 21.2988 20.6473 21.2988 20.6957H21.8988ZM21.5988 20.3957H21.5988V20.9957H21.5988V20.3957ZM21.8988 22.5589V20.6957H21.2988V22.5589H21.8988ZM21.657 23.105C21.8413 22.9546 21.8988 22.7393 21.8988 22.5589H21.2988C21.2988 22.5893 21.294 22.6102 21.2891 22.6226C21.2847 22.6336 21.2806 22.6378 21.2777 22.6401L21.657 23.105ZM20.6376 23.6828C21.0568 23.5165 21.3873 23.3249 21.657 23.105L21.2778 22.6401C21.0634 22.8148 20.7886 22.9775 20.4165 23.125L20.6376 23.6828ZM19.0621 23.9907C19.5962 23.9907 20.1219 23.8872 20.6376 23.6828L20.4165 23.125C19.9677 23.3029 19.5168 23.3907 19.0621 23.3907V23.9907ZM17.2691 23.5465C17.789 23.8463 18.3902 23.9908 19.0622 23.9907L19.0621 23.3907C18.4779 23.3908 17.9836 23.2658 17.5688 23.0267L17.2691 23.5465ZM16.0943 22.2582C16.3546 22.8134 16.7473 23.2456 17.2691 23.5465L17.5688 23.0267C17.1564 22.7889 16.8472 22.4507 16.6376 22.0036L16.0943 22.2582ZM15.7136 20.4957C15.7136 21.1259 15.8396 21.7148 16.0944 22.2582L16.6376 22.0035C16.4226 21.5449 16.3136 21.0437 16.3136 20.4957H15.7136ZM16.1417 18.6514C15.8536 19.197 15.7136 19.8143 15.7136 20.4957L16.3136 20.4956C16.3136 19.8983 16.4358 19.3795 16.6723 18.9315L16.1417 18.6514ZM17.4189 17.3826C16.8608 17.6756 16.4326 18.1001 16.1417 18.6514L16.6723 18.9315C16.9057 18.4892 17.2452 18.1515 17.6979 17.9138L17.4189 17.3826ZM18.9965 17.0425C18.3889 17.0425 17.8579 17.1503 17.4181 17.383L17.6987 17.9134C18.0291 17.7385 18.4569 17.6425 18.9965 17.6425V17.0425ZM20.9259 17.5834C20.4366 17.2104 19.7814 17.0425 18.9966 17.0425L18.9965 17.6425C19.703 17.6425 20.2129 17.7943 20.5622 18.0606L20.9259 17.5834ZM21.4526 18.1371C21.3075 17.9246 21.1294 17.7374 20.9251 17.5828L20.5631 18.0613C20.7152 18.1764 20.8483 18.3162 20.9571 18.4754L21.4526 18.1371ZM21.6102 18.5662C21.5937 18.4126 21.5397 18.2652 21.4528 18.1375L20.9568 18.4751C20.9879 18.5207 21.0076 18.5741 21.0137 18.6304L21.6102 18.5662ZM21.548 19.0188C21.6054 18.8754 21.6268 18.7198 21.6102 18.5662L21.0137 18.6304C21.0197 18.6868 21.0119 18.7436 20.991 18.7956L21.548 19.0188ZM21.2798 19.3883C21.3985 19.2894 21.4905 19.1622 21.548 19.0188L20.991 18.7956C20.9702 18.8477 20.9372 18.8928 20.8957 18.9273L21.2798 19.3883ZM20.8675 19.5838C21.0194 19.5547 21.161 19.4873 21.2798 19.3883L20.8957 18.9273C20.8543 18.9618 20.8057 18.9848 20.7544 18.9946L20.8675 19.5838ZM20.8678 19.5838L20.8693 19.5835L20.7527 18.995L20.7512 18.9952L20.8678 19.5838ZM20.3366 19.5225C20.5027 19.5967 20.6871 19.6183 20.8658 19.5842L20.7532 18.9948C20.6955 19.0059 20.6357 18.999 20.5814 18.9747L20.3366 19.5225ZM19.9361 19.1707C20.0314 19.3254 20.1706 19.4483 20.3366 19.5225L20.5814 18.9747C20.527 18.9504 20.4799 18.9094 20.447 18.8561L19.9361 19.1707ZM19.6924 18.9046C19.7892 18.9763 19.872 19.0666 19.9361 19.1707L20.447 18.8561C20.3431 18.6874 20.2084 18.5402 20.0498 18.4226L19.6924 18.9046ZM18.9961 18.7019C19.2942 18.7019 19.5194 18.7755 19.6917 18.904L20.0506 18.4232C19.7553 18.2028 19.3971 18.1019 18.9961 18.1019V18.7019ZM17.9534 19.1189C18.2008 18.8473 18.5369 18.702 18.9961 18.7019L18.996 18.1019C18.3945 18.102 17.8876 18.3001 17.5098 18.7149L17.9534 19.1189ZM17.5615 20.4454C17.5615 19.8112 17.709 19.3868 17.9532 19.1191L17.51 18.7147C17.1275 19.134 16.9615 19.7285 16.9615 20.4454H17.5615ZM17.9614 21.8879C17.7113 21.6005 17.5615 21.1381 17.5615 20.4454H16.9615C16.9615 21.21 17.1248 21.8405 17.5087 22.2818L17.9614 21.8879ZM18.9771 22.3313C18.5447 22.3313 18.2177 22.1826 17.9614 21.888L17.5087 22.2817C17.886 22.7155 18.3821 22.9313 18.9771 22.9313V22.3313ZM19.6227 22.1998C19.3987 22.2892 19.1888 22.3313 18.9771 22.3313V22.9313C19.2732 22.9313 19.5583 22.8715 19.8451 22.7571L19.6227 22.1998ZM20.1667 21.8939C20.064 21.9948 19.8712 22.1006 19.6226 22.1998L19.8452 22.757C20.1072 22.6524 20.3948 22.511 20.5872 22.3219L20.1667 21.8939ZM20.077 21.3491V22.1079H20.677V21.3491H20.077ZM19.5231 21.6491H20.377V21.0491H19.5231V21.6491ZM18.7172 20.8127C18.7172 21.2432 19.0579 21.6491 19.5231 21.6491V21.0491C19.4293 21.0491 19.3172 20.9533 19.3172 20.8127H18.7172ZM19.5231 19.9764C19.0581 19.9764 18.7172 20.3821 18.7172 20.8127H19.3172C19.3172 20.6721 19.4293 20.5764 19.5231 20.5764V19.9764ZM21.2388 19.9764H19.5231V20.5764H21.2388V19.9764Z" fill="#FF8B02" mask="url(#path-1-outside-1_1092_35055)"/>
</svg>
