<svg width="190" height="210" viewBox="0 0 190 210" fill="none" xmlns="http://www.w3.org/2000/svg">
<path fill-rule="evenodd" clip-rule="evenodd" d="M190 90.4955L100.688 210L27.6912 154.351L57.0652 150.231L96.5816 180.31L160.626 94.6152L75.7511 29.69L45.9155 69.6116L16.5415 73.7313L71.645 0L190 90.4955Z" fill="url(#paint0_linear_608_14010)"/>
<path d="M6.70269 106.039C6.70269 104.456 7.05483 103.104 7.75909 101.984C8.46336 100.864 9.3862 100.011 10.5276 99.4266C11.6933 98.8421 12.9683 98.5498 14.3525 98.5498C15.5668 98.5498 16.6353 98.7081 17.5581 99.0247C18.481 99.317 19.3067 99.731 20.0352 100.267C20.7638 100.778 21.4073 101.326 21.9659 101.911V95.262C20.9459 94.4582 19.8288 93.825 18.6145 93.3623C17.4003 92.8996 15.8582 92.6682 13.9882 92.6682C11.9483 92.6682 10.0662 92.9848 8.34194 93.618C6.61769 94.2512 5.1363 95.1645 3.89776 96.3579C2.65922 97.5513 1.69996 98.9638 1.01997 100.596C0.339991 102.227 0 104.042 0 106.039C0 108.036 0.339991 109.85 1.01997 111.482C1.69996 113.114 2.65922 114.526 3.89776 115.72C5.1363 116.913 6.61769 117.826 8.34194 118.46C10.0662 119.093 11.9483 119.41 13.9882 119.41C15.8582 119.41 17.4003 119.178 18.6145 118.715C19.8288 118.253 20.9459 117.619 21.9659 116.816V110.167C21.4073 110.751 20.7638 111.299 20.0352 111.811C19.3067 112.322 18.481 112.736 17.5581 113.053C16.6353 113.37 15.5668 113.528 14.3525 113.528C12.9683 113.528 11.6933 113.236 10.5276 112.651C9.3862 112.067 8.46336 111.214 7.75909 110.094C7.05483 108.949 6.70269 107.598 6.70269 106.039Z" fill="#FF8B02"/>
<path d="M32.0626 106.039C32.0626 104.529 32.354 103.202 32.9369 102.057C33.544 100.888 34.3818 99.9746 35.4504 99.317C36.5432 98.6594 37.8182 98.3306 39.2753 98.3306C40.7567 98.3306 42.0316 98.6594 43.1002 99.317C44.1687 99.9746 44.9944 100.888 45.5773 102.057C46.1601 103.202 46.4515 104.529 46.4515 106.039C46.4515 107.549 46.148 108.888 45.5408 110.057C44.958 111.202 44.1202 112.103 43.0273 112.761C41.9588 113.418 40.7081 113.747 39.2753 113.747C37.8182 113.747 36.5432 113.418 35.4504 112.761C34.3818 112.103 33.544 111.202 32.9369 110.057C32.354 108.888 32.0626 107.549 32.0626 106.039ZM25.5421 106.039C25.5421 108.012 25.8699 109.826 26.5256 111.482C27.2056 113.138 28.1527 114.575 29.367 115.793C30.6055 117.011 32.0626 117.96 33.7383 118.642C35.414 119.3 37.2596 119.629 39.2753 119.629C41.2667 119.629 43.1002 119.3 44.7759 118.642C46.4515 117.96 47.8965 117.011 49.1108 115.793C50.3493 114.575 51.2964 113.138 51.9521 111.482C52.6321 109.826 52.9721 108.012 52.9721 106.039C52.9721 104.066 52.6321 102.264 51.9521 100.632C51.2721 99.0004 50.3129 97.5878 49.0743 96.3944C47.8358 95.2011 46.3787 94.2878 44.703 93.6545C43.0516 92.997 41.2424 92.6682 39.2753 92.6682C37.3325 92.6682 35.5232 92.997 33.8476 93.6545C32.1719 94.2878 30.7148 95.2011 29.4762 96.3944C28.2377 97.5878 27.2663 99.0004 26.562 100.632C25.882 102.264 25.5421 104.066 25.5421 106.039Z" fill="#FF8B02"/>
<path d="M63.0731 106.112L66.4118 106.094C68.0555 106.107 69.8971 105.783 70.9415 105.381C71.8043 105.049 73.37 104.139 74.1471 103.189C74.9485 102.24 75.3492 101.095 75.3492 99.7554C75.3492 98.2941 74.9485 97.0885 74.1471 96.1387C73.37 95.1645 72.3014 94.4461 70.9415 93.9833C69.6058 93.4962 68.0515 93.2527 66.2787 93.2527H56.9168V118.825H66.898C68.9136 118.825 70.6622 118.581 72.1436 118.094C73.625 117.583 74.7664 116.804 75.5678 115.756C76.3935 114.709 76.8063 113.333 76.8063 111.628C76.8063 110.337 76.5149 109.241 75.9321 108.34C75.3735 107.415 74.6207 106.66 73.6735 106.075C72.7264 105.467 71.926 105.422 70.9415 105.381C69.6492 105.879 67.7539 106.097 67.0709 106.091L63.0731 106.112V107.705L66.2059 107.719C66.813 107.719 67.3594 107.78 67.8451 107.902C68.3551 107.999 68.8044 108.17 69.1929 108.413C69.5815 108.657 69.8851 108.974 70.1036 109.363C70.3222 109.753 70.4315 110.216 70.4315 110.751C70.4315 111.58 70.2372 112.237 69.8486 112.724C69.4844 113.187 68.9865 113.528 68.3551 113.747C67.7237 113.942 67.0073 114.039 66.2059 114.039H63.0731V98.0384H65.623C66.6916 98.0384 67.5173 98.2576 68.1001 98.696C68.6829 99.1343 68.9744 99.7919 68.9744 100.669C68.9744 101.253 68.8408 101.752 68.5737 102.166C68.3065 102.556 67.918 102.861 67.408 103.08C66.9223 103.299 66.3273 103.409 65.623 103.409H63.0731V106.112Z" fill="#FF8B02"/>
<path d="M87.0083 118.825H98.0459V113.747H87.0083V118.825ZM87.0083 98.3306H98.0459V93.2527H87.0083V98.3306ZM87.0083 107.865H97.3174V102.897L87.0083 102.911V107.865ZM81.1071 93.2527V118.825H87.0083V93.2527H81.1071Z" fill="#FF8B02"/>
<path d="M100.506 98.769H107.5V118.825H113.657V98.769H120.687V93.2527H100.506V98.769Z" fill="#FF8B02"/>
<path d="M123.621 93.2527L124.823 110.386H129.268L130.433 93.2527H123.621ZM123.621 116.56C123.621 117.486 123.937 118.241 124.568 118.825C125.224 119.41 126.05 119.702 127.045 119.702C128.041 119.702 128.855 119.41 129.486 118.825C130.142 118.241 130.47 117.486 130.47 116.56C130.47 115.635 130.142 114.88 129.486 114.295C128.855 113.711 128.041 113.418 127.045 113.418C126.05 113.418 125.224 113.711 124.568 114.295C123.937 114.88 123.621 115.635 123.621 116.56Z" fill="#FF8B02"/>
<defs>
<linearGradient id="paint0_linear_608_14010" x1="48.4356" y1="169.354" x2="150.352" y2="47.989" gradientUnits="userSpaceOnUse">
<stop stop-color="#C4C4C4"/>
<stop offset="0.451" stop-color="#F5F5F5"/>
<stop offset="0.6784" stop-color="#CECECE"/>
<stop offset="1" stop-color="#D4D4D4"/>
</linearGradient>
</defs>
</svg>
