<svg width="32" height="32" viewBox="0 0 32 32" fill="none" xmlns="http://www.w3.org/2000/svg">
<path d="M25.1034 7.37061C26.9433 7.37061 28.4478 8.80694 28.5568 10.6195L28.5631 10.8303V21.5302C28.5631 23.3702 27.1267 24.8747 25.3141 24.9836L25.1034 24.9899H6.88936C5.0494 24.9899 3.54492 23.5535 3.436 21.741L3.42969 21.5302V10.8303C3.42969 8.99032 4.86602 7.48584 6.67861 7.37692L6.88936 7.37061H25.1034ZM26.6749 14.8863H5.31552L5.31678 21.5302C5.31678 22.3444 5.93559 23.0141 6.72857 23.0947L6.88936 23.1028H25.1034C25.9176 23.1028 26.5873 22.484 26.6679 21.691L26.676 21.5302L26.6749 14.8863ZM23.863 19.2962C24.3841 19.2962 24.8065 19.7186 24.8065 20.2397C24.8065 20.7174 24.4515 21.1122 23.991 21.1746L23.863 21.1832H20.7178C20.1967 21.1832 19.7743 20.7608 19.7743 20.2397C19.7743 19.762 20.1292 19.3672 20.5898 19.3048L20.7178 19.2962H23.863ZM25.1034 9.2577H6.88936C6.07513 9.2577 5.40543 9.87651 5.3249 10.6695L5.31678 10.8303L5.31552 12.9992H26.6749L26.676 10.8303C26.676 10.016 26.0572 9.34635 25.2642 9.26582L25.1034 9.2577Z" fill="#FF8B02"/>
</svg>
