<svg width="32" height="32" viewBox="0 0 32 32" fill="none" xmlns="http://www.w3.org/2000/svg">
<path d="M12.5026 12.4999H12.5143M19.5026 19.4999H19.5143M20.6693 11.3333L11.3359 20.6666M27.6693 15.9999C27.6693 22.4432 22.4459 27.6666 16.0026 27.6666C9.55928 27.6666 4.33594 22.4432 4.33594 15.9999C4.33594 9.55659 9.55928 4.33325 16.0026 4.33325C22.4459 4.33325 27.6693 9.55659 27.6693 15.9999ZM13.0859 12.4999C13.0859 12.8221 12.8248 13.0833 12.5026 13.0833C12.1804 13.0833 11.9193 12.8221 11.9193 12.4999C11.9193 12.1778 12.1804 11.9166 12.5026 11.9166C12.8248 11.9166 13.0859 12.1778 13.0859 12.4999ZM20.0859 19.4999C20.0859 19.822 19.8247 20.0833 19.5026 20.0833C19.1805 20.0833 18.9193 19.822 18.9193 19.4999C18.9193 19.1778 19.1805 18.9166 19.5026 18.9166C19.8247 18.9166 20.0859 19.1778 20.0859 19.4999Z" stroke="#FF8B02" stroke-width="2" stroke-linecap="round" stroke-linejoin="round"/>
</svg>
