<svg width="32" height="32" viewBox="0 0 32 32" fill="none" xmlns="http://www.w3.org/2000/svg">
<path d="M2.5 5.5V7.31818H18.5312V20.9545H13.3369C12.9612 19.392 11.656 18.2273 10.0938 18.2273C8.53149 18.2273 7.22632 19.392 6.85059 20.9545H5.875V16.4091H4.1875V22.7727H6.85059C7.22632 24.3352 8.5315 25.5 10.0938 25.5C11.656 25.5 12.9612 24.3352 13.3369 22.7727H20.3506C20.7263 24.3352 22.0315 25.5 23.5938 25.5C25.156 25.5 26.4612 24.3352 26.8369 22.7727H29.5V15.358L29.4473 15.2159L27.7598 9.76136L27.5752 9.13636H20.2188V5.5H2.5ZM3.31 9.79091V11.1H10.9038V9.79091H3.31ZM20.2188 10.9545H26.3623L27.8125 15.6136V20.9545H26.8369C26.4612 19.392 25.156 18.2273 23.5938 18.2273C22.0315 18.2273 20.7263 19.392 20.3506 20.9545H20.2188V10.9545ZM4.1875 12.3V13.5364H9.25V12.3H4.1875ZM10.0938 20.0455C10.4275 20.0455 10.7538 20.1521 11.0313 20.3519C11.3088 20.5517 11.5251 20.8356 11.6528 21.1678C11.7805 21.5001 11.8139 21.8657 11.7488 22.2183C11.6837 22.571 11.523 22.895 11.287 23.1493C11.051 23.4036 10.7503 23.5767 10.423 23.6469C10.0956 23.717 9.75632 23.681 9.44797 23.5434C9.13962 23.4058 8.87607 23.1728 8.69065 22.8738C8.50522 22.5748 8.40625 22.2232 8.40625 21.8636C8.40446 21.6243 8.44688 21.387 8.53105 21.1656C8.61523 20.9441 8.73946 20.7429 8.89652 20.5737C9.05357 20.4045 9.24031 20.2706 9.44586 20.1799C9.6514 20.0892 9.87165 20.0435 10.0938 20.0455ZM23.5938 20.0455C23.9275 20.0455 24.2538 20.1521 24.5313 20.3519C24.8088 20.5517 25.0251 20.8356 25.1528 21.1678C25.2805 21.5001 25.3139 21.8657 25.2488 22.2183C25.1837 22.571 25.023 22.895 24.787 23.1493C24.551 23.4036 24.2503 23.5767 23.923 23.6469C23.5956 23.717 23.2563 23.681 22.948 23.5434C22.6396 23.4058 22.3761 23.1728 22.1906 22.8738C22.0052 22.5748 21.9062 22.2232 21.9062 21.8636C21.9045 21.6243 21.9469 21.387 22.0311 21.1656C22.1152 20.9441 22.2395 20.7429 22.3965 20.5737C22.5536 20.4045 22.7403 20.2706 22.9459 20.1799C23.1514 20.0892 23.3716 20.0435 23.5938 20.0455Z" fill="#FF8B02"/>
</svg>
