<svg width="24" height="25" viewBox="0 0 24 25" fill="none" xmlns="http://www.w3.org/2000/svg">
<rect y="0.5" width="24" height="24" rx="12" fill="#1E2021"/>
<path d="M11.3333 8.84233V16.3375C11.3333 16.8157 10.7929 17.0513 10.4798 16.7161L8.62623 14.7316H6.5C6.22385 14.7316 6 14.4919 6 14.1962V10.9836C6 10.6879 6.22385 10.4482 6.5 10.4482H8.62623L10.4798 8.46372C10.7925 8.12886 11.3333 8.36355 11.3333 8.84233ZM15.1262 7.10497C14.8121 6.89926 14.4017 7.00518 14.2096 7.34154C14.0175 7.6779 14.1164 8.11732 14.4305 8.32304C15.7701 9.2003 16.6667 10.7825 16.6667 12.5899C16.6667 14.2281 15.9151 15.7643 14.6561 16.6994C14.3536 16.9241 14.2784 17.3689 14.4883 17.6929C14.6982 18.017 15.1136 18.0973 15.416 17.8726C17.034 16.6709 18 14.696 18 12.5899C18 10.2866 16.8629 8.24234 15.1262 7.10497ZM16 12.5899C16 11.0607 15.2469 9.69468 14.0842 8.9334C13.7701 8.7277 13.3598 8.83365 13.1677 9.17003C12.9756 9.50641 13.0745 9.94581 13.3887 10.1515C14.1889 10.6755 14.6667 11.5871 14.6667 12.5899C14.6667 13.5261 14.2371 14.4041 13.5175 14.9385C13.215 15.1633 13.1399 15.608 13.3497 15.932C13.4792 16.1319 13.6869 16.2391 13.8981 16.2391C14.0337 16.2392 14.1661 16.1947 14.2775 16.1117C15.3561 15.3106 16 13.994 16 12.5899ZM14 12.5899C14 11.8377 13.642 11.1543 13.0423 10.7618C12.7281 10.5562 12.3178 10.6622 12.1258 10.9986C11.9337 11.335 12.0328 11.7744 12.3469 11.9801C12.5471 12.1111 12.6667 12.3391 12.6667 12.5899C12.6666 12.7054 12.6404 12.8192 12.5903 12.9215C12.5403 13.0238 12.4678 13.1116 12.3791 13.1774C12.0765 13.402 12.0013 13.8468 12.2111 14.1708C12.4209 14.4948 12.8362 14.5754 13.1388 14.3508C13.678 13.9504 14 13.2922 14 12.5899Z" fill="#FF8B02"/>
</svg>
