<svg width="32" height="32" viewBox="0 0 32 32" fill="none" xmlns="http://www.w3.org/2000/svg">
<path fill-rule="evenodd" clip-rule="evenodd" d="M6.40212 5.843C6.40212 6.28679 5.89168 6.53646 5.54137 6.26397L2.14339 3.62111C1.86887 3.40758 1.86887 2.99267 2.14339 2.77915L5.54137 0.136282C5.89168 -0.136192 6.40212 0.113458 6.40212 0.55727V2.13349H19.202V0.557334C19.202 0.113522 19.7125 -0.136129 20.0628 0.136346L23.4608 2.77921C23.7354 2.99273 23.7354 3.40765 23.4608 3.62117L20.0628 6.26403C19.7125 6.53652 19.202 6.28686 19.202 5.84306V4.26682H6.40212V5.843ZM20.2685 10.6665H5.3352C4.7461 10.6665 4.26853 11.1441 4.26853 11.7332V26.6666C4.26853 27.2556 4.7461 27.7332 5.3352 27.7332H20.2685C20.8576 27.7332 21.3352 27.2556 21.3352 26.6666V11.7332C21.3352 11.1441 20.8576 10.6665 20.2685 10.6665ZM5.3352 8.53319C3.56788 8.53319 2.1352 9.9659 2.1352 11.7332V26.6666C2.1352 28.4338 3.56788 29.8666 5.3352 29.8666H20.2685C22.0357 29.8666 23.4685 28.4338 23.4685 26.6666V11.7332C23.4685 9.9659 22.0357 8.53319 20.2685 8.53319H5.3352ZM31.4448 12.7999H29.8685V25.5999H31.4448C31.8885 25.5999 32.1384 26.1104 31.8657 26.4607L29.2229 29.8587C29.0094 30.1332 28.5945 30.1332 28.3809 29.8587L25.7381 26.4607C25.4657 26.1104 25.7153 25.5999 26.159 25.5999H27.7352V12.7999H26.159C25.7153 12.7999 25.4655 12.2895 25.7381 11.9392L28.3809 8.54119C28.5945 8.26667 29.0094 8.26667 29.2229 8.54121L31.8657 11.9392C32.1381 12.2895 31.8885 12.7999 31.4448 12.7999Z" fill="#FF8B02"/>
</svg>
