<svg width="32" height="32" viewBox="0 0 32 32" fill="none" xmlns="http://www.w3.org/2000/svg">
<path d="M18.4905 5.44264C18.1535 4.04247 16.9465 3 15.5 3C14.0596 3 12.8573 4.03603 12.5157 5.44264H7V7.05388H24V5.44264H18.4905ZM15.5 4.61124C16.0904 4.61124 16.5895 4.96732 16.8523 5.44264H14.174C14.4398 4.95443 14.9235 4.61124 15.5 4.61124ZM21.6818 8.63934H23.2273V25.5831C23.2273 26.9156 22.1872 28 20.9091 28H10.0909C8.81282 28 7.77273 26.9156 7.77273 25.5831V8.63934H9.31818V25.5831C9.31818 26.0262 9.66436 26.3888 10.0909 26.3888H20.9091C21.3356 26.3888 21.6818 26.0262 21.6818 25.5831V8.63934ZM13.9545 10.2506V23.1405H12.4091V10.2506H13.9545ZM18.5909 10.2506V23.1405H17.0455V10.2506H18.5909Z" fill="#FF8B02"/>
</svg>
