<svg width="32" height="32" viewBox="0 0 32 32" fill="none" xmlns="http://www.w3.org/2000/svg">
<path d="M3.82664 21.3203L3.82664 21.3203C4.02258 23.0128 4.89181 25.3924 7.88087 27.1569C9.34285 28.0203 10.8011 28.4657 12.2121 28.4657C14.2712 28.4657 15.8643 27.5329 16.9932 26.872L17.0062 26.8643L17.0063 26.8643C18.1566 26.1904 18.7442 25.8911 19.3926 26.0096C20.4883 26.2153 21.473 26.7591 22.3204 27.6348L22.3204 27.6349L23.7935 29.1565L23.9499 29.3181L24.1116 29.1617L27.1564 26.2172L27.3183 26.0607L27.1616 25.8989L25.6882 24.3778C25.6882 24.3778 25.6882 24.3778 25.6882 24.3778C24.1782 22.818 22.2994 21.7886 20.2554 21.4062L20.2553 21.4062C19.8703 21.3343 19.4812 21.2972 19.0988 21.2972C17.2446 21.2972 15.7852 22.1511 14.6525 22.8138L14.6368 22.823L14.6367 22.823C13.6378 23.4081 12.9817 23.7851 12.2119 23.7851C11.6615 23.7851 11.0469 23.5864 10.2651 23.1245L10.265 23.1245C9.52062 22.6847 9.09509 22.2417 8.84636 21.8444C8.59822 21.448 8.51742 21.0834 8.48272 20.7847L8.4827 20.7845C8.39745 20.0553 8.5534 19.2357 8.87207 18.3829C9.19009 17.5318 9.6649 16.6617 10.2011 15.8374C11.201 14.3002 12.402 12.9413 13.157 12.1889L13.845 12.8765L14.004 13.0355L14.1631 12.8765L16.7365 10.3046L16.8957 10.1454L16.7364 9.98627L16.1256 9.37581L18.0712 8.79293L18.2867 8.72837L18.2222 8.51288L17.8297 7.20146L17.7651 6.98583L17.5495 7.05044L15.5459 7.6509L17.1771 4.7894L17.2885 4.59391L17.093 4.48249L15.9035 3.80452L15.7081 3.69313L15.5967 3.88855L14.5394 5.74271V4.31117V4.08617H14.3144H12.9451H12.7201V4.31117V5.97245L12.2199 5.47265L12.0608 5.31368L11.9018 5.47269L9.32841 8.04546L9.16923 8.2046L9.32843 8.36372L9.84258 8.87757C9.20585 9.51317 7.67413 11.1277 6.31008 13.2267C4.81479 15.5275 3.49461 18.4506 3.82664 21.3203ZM13.5841 7.51562V4.95127H13.6753V8.15415V9.00291L14.0957 8.26561L16.0306 4.87257L16.11 4.91775L14.0043 8.61097L13.7258 9.09945L14.2644 8.93793L17.1843 8.06229L17.2106 8.14981L14.8515 8.85703L14.4904 8.96528L14.757 9.23172L15.6728 10.1467L14.0035 11.8152L13.3243 11.1359L13.169 10.9805L13.01 11.1321L12.7246 11.404L12.7238 11.4048C11.9486 12.1507 10.5831 13.6663 9.45739 15.412C8.33932 17.1459 7.42266 19.1601 7.62395 20.886L7.62397 20.8862C7.66904 21.2709 7.77474 21.7586 8.09758 22.2827C8.42008 22.8063 8.95076 23.3524 9.82571 23.8693C10.7112 24.3924 11.4732 24.6507 12.2117 24.6507C13.2259 24.6507 14.0628 24.161 15.0386 23.59L15.0755 23.5684L15.0756 23.5684C16.2307 22.8924 17.4862 22.1621 19.0987 22.1621C19.4268 22.1621 19.7623 22.1938 20.0967 22.2561C21.96 22.605 23.6791 23.5447 25.0672 24.9789L25.0673 24.979L26.0961 26.041L23.9701 28.0974L22.9419 27.0349L22.9418 27.0349C21.9735 26.0351 20.8322 25.4019 19.5512 25.1614L19.5509 25.1614C19.4029 25.1338 19.259 25.1207 19.1122 25.1207C18.3174 25.1207 17.586 25.525 16.5703 26.1194L16.5703 26.1195C15.4167 26.7951 14.0319 27.6025 12.213 27.6025C10.974 27.6025 9.66519 27.2075 8.32093 26.4137L8.32091 26.4137C5.61962 24.8189 4.85729 22.7057 4.68604 21.2215L4.68603 21.2214C4.37441 18.5315 5.67895 15.7184 7.18046 13.4703C8.67622 11.2309 10.338 9.59547 10.6767 9.27144C10.6768 9.27135 10.6769 9.27126 10.677 9.27117L10.9103 9.04941L11.0777 8.89034L10.9144 8.72715L10.3913 8.20455L12.0608 6.53612L13.2 7.67477L13.5841 8.0586V7.51562Z" fill="#FF8B02" stroke="#FF8B02" stroke-width="0.45"/>
</svg>
