<svg width="237" height="237" viewBox="0 0 237 237" fill="none" xmlns="http://www.w3.org/2000/svg">
<g clip-path="url(#clip0_916_24694)">
<path d="M198.014 120.339C191.312 109.397 180.272 100.549 166.927 95.4266C158.857 92.3292 150.504 90.8107 142.44 90.8978C141.498 82.8965 137.926 74.7597 132.149 67.619C125.348 59.2114 115.981 52.5519 105.063 48.3606C91.7176 43.2379 77.5933 42.4254 65.2907 46.0721C52.6337 49.8232 43.3873 57.8193 39.2542 68.5864C35.5317 78.2838 36.4249 89.2161 41.7445 99.5493L32.8139 123.226C32.3476 124.461 32.5138 125.898 33.3953 126.881C34.4416 128.049 35.7452 128.366 36.8386 128.241L66.5959 123.97C69.1797 125.361 71.8744 126.597 74.6253 127.653C74.626 127.653 74.6267 127.653 74.6274 127.653C82.5944 130.712 90.9731 132.25 99.0821 132.171C99.7621 138.079 101.879 144.057 105.401 149.807C112.103 160.749 123.144 169.596 136.489 174.719C139.253 175.78 142.099 176.669 144.965 177.366L164.539 199.717C165.659 200.961 166.758 201.184 167.993 200.935C169.272 200.678 170.352 199.831 170.827 198.616L179.729 175.836C190.596 171.717 198.575 164.189 202.297 154.492C206.431 143.725 204.909 131.596 198.014 120.339ZM77.304 120.68C77.3033 120.679 77.3019 120.679 77.3019 120.679C74.4628 119.589 71.6909 118.284 69.0635 116.802C68.1225 116.272 67.0506 116.192 66.0957 116.496L42.032 119.949L49.3064 100.666C49.3346 100.596 49.3602 100.525 49.3837 100.454C49.7142 99.4563 49.6098 98.3661 49.095 97.45C44.147 88.6372 43.1283 79.3369 46.2274 71.2632C53.1431 53.2474 78.3359 46.1016 102.386 55.3335C120.204 62.1733 133.118 76.6804 134.987 91.4511C132.314 91.825 129.695 92.385 127.154 93.1378C114.497 96.8898 105.25 104.886 101.117 115.653C99.9926 118.583 99.2904 121.615 98.997 124.702C91.8285 124.773 84.3958 123.402 77.304 120.68ZM175.67 169.357C174.676 169.694 173.868 170.435 173.447 171.397C173.419 171.459 173.394 171.522 173.37 171.585L166.107 190.171L150.248 172.061C149.737 171.233 148.907 170.606 147.881 170.377C144.936 169.721 142.003 168.835 139.165 167.746C119.47 160.186 106.558 143.951 106.325 128.424C106.328 128.35 106.324 128.275 106.322 128.2C106.298 124.843 106.865 121.521 108.09 118.33C112.54 106.738 124.558 99.6472 138.968 98.523C138.978 98.5228 138.988 98.5242 138.998 98.5241C139.155 98.5227 139.309 98.5082 139.461 98.4878C147.312 97.9513 155.85 99.1755 164.249 102.4C188.299 111.632 202.239 133.8 195.324 151.815C192.225 159.889 185.245 166.119 175.67 169.357Z" fill="#FF8B02"/>
<path d="M176.676 131.254L135.709 115.528C133.784 114.789 131.623 115.751 130.884 117.677C130.145 119.602 131.107 121.762 133.033 122.502L173.999 138.227C175.924 138.966 178.085 138.005 178.824 136.079C179.563 134.153 178.601 131.993 176.676 131.254Z" fill="#FF8B02"/>
<path d="M170.617 147.039L129.651 131.313C127.725 130.574 125.565 131.536 124.826 133.462C124.086 135.387 125.048 137.548 126.974 138.287L167.94 154.012C169.865 154.751 172.026 153.79 172.765 151.864C173.504 149.938 172.542 147.778 170.617 147.039Z" fill="#FF8B02"/>
<path d="M198.014 120.339C191.312 109.397 180.272 100.549 166.927 95.4266C158.857 92.3292 150.504 90.8107 142.44 90.8978C141.498 82.8965 137.926 74.7597 132.149 67.619C125.348 59.2114 115.981 52.5519 105.063 48.3606C91.7176 43.2379 77.5933 42.4254 65.2907 46.0721C52.6337 49.8232 43.3873 57.8193 39.2542 68.5864C35.5317 78.2838 36.4249 89.2161 41.7445 99.5493L32.8139 123.226C32.3476 124.461 32.5138 125.898 33.3953 126.881C34.4416 128.049 35.7452 128.366 36.8386 128.241L66.5959 123.97C69.1797 125.361 71.8744 126.597 74.6254 127.653L74.6274 127.653C82.5944 130.712 90.9731 132.25 99.0821 132.171C99.7621 138.079 101.879 144.057 105.401 149.807C112.103 160.749 123.144 169.596 136.489 174.719C139.253 175.78 142.099 176.669 144.965 177.366L164.539 199.717C165.659 200.961 166.758 201.184 167.993 200.935C169.272 200.678 170.352 199.831 170.827 198.616L179.729 175.836C190.596 171.717 198.575 164.189 202.297 154.492C206.431 143.725 204.909 131.596 198.014 120.339ZM77.304 120.68L77.3019 120.679C74.4628 119.589 71.6909 118.284 69.0636 116.802C68.1225 116.272 67.0506 116.192 66.0957 116.496L42.032 119.949L49.3064 100.666C49.3346 100.596 49.3602 100.525 49.3837 100.454C49.7142 99.4563 49.6098 98.3661 49.095 97.45C44.147 88.6372 43.1283 79.3369 46.2274 71.2632C53.1431 53.2474 78.3359 46.1016 102.386 55.3335C120.204 62.1733 133.118 76.6804 134.987 91.4511C132.314 91.825 129.695 92.385 127.154 93.1378C114.497 96.8898 105.25 104.886 101.117 115.653C99.9926 118.583 99.2904 121.615 98.997 124.702C91.8285 124.773 84.3958 123.402 77.304 120.68ZM175.671 169.357C174.676 169.694 173.868 170.435 173.447 171.397C173.419 171.459 173.394 171.522 173.37 171.585L166.107 190.171L150.248 172.061C149.737 171.233 148.907 170.606 147.881 170.377C144.936 169.721 142.003 168.835 139.165 167.746C119.47 160.186 106.558 143.951 106.325 128.424C106.328 128.35 106.324 128.275 106.322 128.2C106.298 124.843 106.865 121.521 108.09 118.33C115.141 99.9612 140.505 93.2852 164.249 102.4C187.993 111.514 202.24 133.8 195.324 151.816C192.225 159.889 185.245 166.119 175.671 169.357Z" fill="#FF8B02"/>
<path d="M176.676 131.254L135.709 115.528C133.784 114.789 131.623 115.751 130.884 117.677C130.145 119.602 131.107 121.762 133.033 122.502L173.999 138.227C175.924 138.966 178.085 138.005 178.824 136.079C179.563 134.153 178.601 131.993 176.676 131.254Z" fill="#FF8B02"/>
<path d="M170.617 147.039L129.651 131.313C127.725 130.574 125.565 131.536 124.826 133.462C124.086 135.387 125.048 137.548 126.974 138.287L167.94 154.012C169.865 154.751 172.026 153.79 172.765 151.864C173.504 149.938 172.542 147.778 170.617 147.039Z" fill="#FF8B02"/>
</g>
<defs>
<clipPath id="clip0_916_24694">
<rect width="183" height="183" fill="white" transform="translate(65.582) rotate(21)"/>
</clipPath>
</defs>
</svg>
