<svg width="49" height="49" viewBox="0 0 49 49" fill="none" xmlns="http://www.w3.org/2000/svg">
<path d="M36.6138 44.5H12.5745C10.3335 44.5 8.5 42.7266 8.5 40.5591V8.44089C8.5 6.2734 10.3335 4.5 12.5745 4.5H36.4101C38.651 4.5 40.4845 6.2734 40.4845 8.44089V40.3621C40.6882 42.7266 38.8547 44.5 36.6138 44.5ZM12.5745 6.47044C11.5558 6.47044 10.5372 7.45567 10.5372 8.44089V40.3621C10.5372 41.5443 11.5558 42.3325 12.5745 42.3325H36.4101C37.6324 42.3325 38.4473 41.3473 38.4473 40.3621V8.44089C38.4473 7.25862 37.4287 6.47044 36.4101 6.47044H12.5745Z" fill="#D9D9D9"/>
<path d="M33.9654 17.3079H14.6117C13.3894 17.3079 12.3707 16.3227 12.3707 15.1404V10.6084C12.3707 9.42611 13.3894 8.44089 14.6117 8.44089H33.9654C35.1877 8.44089 36.2063 9.42611 36.2063 10.6084V15.1404C36.2063 16.3227 35.1877 17.3079 33.9654 17.3079ZM14.6117 10.4113C14.408 10.4113 14.408 10.4113 14.408 10.6084V15.1404C14.408 15.3374 14.6117 15.3374 14.6117 15.3374H33.9654C34.1691 15.3374 34.1691 15.1404 34.1691 15.1404V10.6084C34.1691 10.4113 33.9654 10.4113 33.9654 10.4113H14.6117Z" fill="#D9D9D9"/>
<path d="M17.6675 31.4951H15.4266C14.8154 31.4951 14.2042 30.9039 14.2042 30.3128V28.3424C14.2042 27.7512 14.8154 27.1601 15.4266 27.1601H17.6675C18.2787 27.1601 18.8899 27.7512 18.8899 28.3424V30.3128C18.6861 30.9039 18.2787 31.4951 17.6675 31.4951Z" fill="#D9D9D9"/>
<path d="M26.2239 31.4951H23.9829C23.3718 31.4951 22.7606 30.9039 22.7606 30.3128V28.3424C22.7606 27.7512 23.3718 27.1601 23.9829 27.1601H26.2239C26.8351 27.1601 27.4462 27.7512 27.4462 28.3424V30.3128C27.4462 30.9039 26.8351 31.4951 26.2239 31.4951Z" fill="#D9D9D9"/>
<path d="M17.6675 38.5887H15.4266C14.8154 38.5887 14.2042 37.9975 14.2042 37.4064V35.436C14.2042 34.8448 14.8154 34.2537 15.4266 34.2537H17.6675C18.2787 34.2537 18.8899 34.8448 18.8899 35.436V37.4064C18.6861 37.9975 18.2787 38.5887 17.6675 38.5887Z" fill="#D9D9D9"/>
<path d="M26.2239 38.5887H23.9829C23.3718 38.5887 22.7606 37.9975 22.7606 37.4064V35.436C22.7606 34.8448 23.3718 34.2537 23.9829 34.2537H26.2239C26.8351 34.2537 27.4462 34.8448 27.4462 35.436V37.4064C27.4462 37.9975 26.8351 38.5887 26.2239 38.5887Z" fill="#D9D9D9"/>
<path d="M17.6675 24.4015H15.4266C14.8154 24.4015 14.2042 23.8103 14.2042 23.2192V21.2488C14.2042 20.6576 14.8154 20.2635 15.4266 20.2635H17.6675C18.2787 20.2635 18.6861 20.6576 18.6861 21.2488V23.2192C18.6861 24.0074 18.2787 24.4015 17.6675 24.4015Z" fill="#D9D9D9"/>
<path d="M26.2239 24.4015H23.9829C23.3718 24.4015 22.7606 24.0074 22.7606 23.2192V21.2488C22.7606 20.6576 23.3718 20.2635 23.9829 20.2635H26.2239C26.8351 20.2635 27.4462 20.6576 27.4462 21.2488V23.2192C27.4462 24.0074 26.8351 24.4015 26.2239 24.4015Z" fill="#D9D9D9"/>
<path d="M34.7803 24.4015H32.5393C31.9281 24.4015 31.317 23.8103 31.317 23.2192V21.2488C31.317 20.6576 31.9281 20.0665 32.5393 20.0665H34.7803C35.3914 20.0665 36.0026 20.6576 36.0026 21.2488V23.2192C36.0026 24.0074 35.3914 24.4015 34.7803 24.4015Z" fill="#FF8B02"/>
<path d="M34.984 38.5887H32.3356C31.7244 38.5887 31.317 38.1946 31.317 37.6034V28.1453C31.317 27.5542 31.7244 27.1601 32.3356 27.1601H34.984C35.5952 27.1601 36.0026 27.5542 36.0026 28.1453V37.6034C36.0026 37.9975 35.5952 38.5887 34.984 38.5887Z" fill="#D9D9D9"/>
</svg>
