<svg width="24" height="24" viewBox="0 0 24 24" fill="none" xmlns="http://www.w3.org/2000/svg">
<mask id="path-1-outside-1_3828_59306" maskUnits="userSpaceOnUse" x="2" y="0" width="20" height="24" fill="black">
<rect fill="white" x="2" width="20" height="24"/>
<path d="M20.9166 7.57971L14.611 1.08572C14.5 0.971428 14.3193 0.971428 14.2084 1.08572L5.84691 9.69553H5.05159C3.92051 9.69553 3 10.6435 3 11.8099V20.8856C3 22.0505 3.92051 23 5.05302 23H17.5105C18.643 23 19.5636 22.052 19.5636 20.8856V18.7332C20.0914 18.6145 20.4883 18.1295 20.4883 17.5522V15.1433C20.4883 14.5646 20.0914 14.0796 19.5636 13.9609V11.8099C19.5636 11.1491 19.2676 10.5586 18.8052 10.1703L20.918 7.99437C21.0276 7.88008 21.0276 7.694 20.9166 7.57971ZM19.9192 15.1433V17.5522C19.9192 17.8965 19.6475 18.1749 19.3146 18.1749H14.9468C14.6138 18.1749 14.3421 17.8951 14.3421 17.5522V15.1433C14.3421 14.799 14.6138 14.5206 14.9468 14.5206H19.3146C19.6475 14.5191 19.9192 14.799 19.9192 15.1433ZM18.9945 11.8099V13.9345H15.1502H14.9453C14.298 13.9345 13.7716 14.4766 13.7716 15.1433V15.3543V17.5522C13.7716 18.2189 14.298 18.761 14.9453 18.761H18.9945V20.8856C18.9945 21.7282 18.3286 22.4139 17.5105 22.4139H5.05302C4.23494 22.4139 3.5691 21.7282 3.5691 20.8856V13.0847V12.0429V11.8099C3.5691 10.9674 4.23494 10.2816 5.05302 10.2816H5.27923H6.0845H6.47576H7.079H9.14055H9.61006H10.8478H12.4186H12.9208H13.4671H14.5697H15.0392H16.8945H17.4977H17.5091C17.6272 10.2816 17.741 10.2963 17.8506 10.3227C18.0526 10.371 18.2376 10.4633 18.3983 10.5879C18.7597 10.8663 18.9945 11.3102 18.9945 11.8099ZM18.6786 8.44567L17.465 9.69553H15.0065C14.9126 9.08305 14.6366 8.49549 14.1799 8.02368C13.0289 6.83829 11.1552 6.83829 10.0027 8.02368C9.54604 8.49402 9.27002 9.08305 9.17612 9.69553H7.6481L13.7702 3.39056C14.1543 3.66016 14.6651 3.66016 15.0492 3.39056L18.6786 7.12841C18.4168 7.52403 18.4168 8.05005 18.6786 8.44567ZM11.3415 9.17243C11.481 9.11529 11.6204 9.1358 11.7612 9.23397L12.0913 8.79293C11.9149 8.66546 11.7356 8.60392 11.5521 8.60831C11.3686 8.61271 11.1879 8.68744 11.01 8.83103L10.8621 8.67864L10.6444 8.90283L10.7924 9.05521C10.6373 9.25009 10.5647 9.45816 10.5718 9.67941C10.5718 9.68527 10.5718 9.69113 10.5733 9.69553H9.65132C9.74095 9.2076 9.96859 8.74312 10.3342 8.36655C11.3031 7.36871 12.8781 7.36871 13.847 8.36655C14.2126 8.74312 14.4403 9.2076 14.5299 9.69553H11.8495L11.3415 9.17243ZM11.4155 9.69553H11.094C11.0897 9.67795 11.0854 9.66036 11.0826 9.64131C11.0698 9.55633 11.0826 9.47281 11.121 9.39076L11.4155 9.69553ZM18.3016 9.85964C18.2077 9.81861 18.1095 9.78491 18.0071 9.75853L19.1168 8.61564C19.2008 8.53065 19.2008 8.39146 19.1168 8.30501C18.8394 8.01928 18.8394 7.5548 19.1168 7.26907C19.2008 7.18262 19.2008 7.04343 19.1168 6.95844L15.2142 2.93926C15.1744 2.89823 15.1203 2.87479 15.0634 2.87479C15.0065 2.87479 14.9525 2.89823 14.9126 2.93926C14.6352 3.22498 14.1842 3.22498 13.9067 2.93926C13.8669 2.89823 13.8128 2.87479 13.7559 2.87479C13.699 2.87479 13.645 2.89823 13.6051 2.93926L7.04486 9.69553H6.6536L14.409 1.70698L20.3133 7.78777L18.3016 9.85964Z"/>
</mask>
<path d="M20.9166 7.57971L14.611 1.08572C14.5 0.971428 14.3193 0.971428 14.2084 1.08572L5.84691 9.69553H5.05159C3.92051 9.69553 3 10.6435 3 11.8099V20.8856C3 22.0505 3.92051 23 5.05302 23H17.5105C18.643 23 19.5636 22.052 19.5636 20.8856V18.7332C20.0914 18.6145 20.4883 18.1295 20.4883 17.5522V15.1433C20.4883 14.5646 20.0914 14.0796 19.5636 13.9609V11.8099C19.5636 11.1491 19.2676 10.5586 18.8052 10.1703L20.918 7.99437C21.0276 7.88008 21.0276 7.694 20.9166 7.57971ZM19.9192 15.1433V17.5522C19.9192 17.8965 19.6475 18.1749 19.3146 18.1749H14.9468C14.6138 18.1749 14.3421 17.8951 14.3421 17.5522V15.1433C14.3421 14.799 14.6138 14.5206 14.9468 14.5206H19.3146C19.6475 14.5191 19.9192 14.799 19.9192 15.1433ZM18.9945 11.8099V13.9345H15.1502H14.9453C14.298 13.9345 13.7716 14.4766 13.7716 15.1433V15.3543V17.5522C13.7716 18.2189 14.298 18.761 14.9453 18.761H18.9945V20.8856C18.9945 21.7282 18.3286 22.4139 17.5105 22.4139H5.05302C4.23494 22.4139 3.5691 21.7282 3.5691 20.8856V13.0847V12.0429V11.8099C3.5691 10.9674 4.23494 10.2816 5.05302 10.2816H5.27923H6.0845H6.47576H7.079H9.14055H9.61006H10.8478H12.4186H12.9208H13.4671H14.5697H15.0392H16.8945H17.4977H17.5091C17.6272 10.2816 17.741 10.2963 17.8506 10.3227C18.0526 10.371 18.2376 10.4633 18.3983 10.5879C18.7597 10.8663 18.9945 11.3102 18.9945 11.8099ZM18.6786 8.44567L17.465 9.69553H15.0065C14.9126 9.08305 14.6366 8.49549 14.1799 8.02368C13.0289 6.83829 11.1552 6.83829 10.0027 8.02368C9.54604 8.49402 9.27002 9.08305 9.17612 9.69553H7.6481L13.7702 3.39056C14.1543 3.66016 14.6651 3.66016 15.0492 3.39056L18.6786 7.12841C18.4168 7.52403 18.4168 8.05005 18.6786 8.44567ZM11.3415 9.17243C11.481 9.11529 11.6204 9.1358 11.7612 9.23397L12.0913 8.79293C11.9149 8.66546 11.7356 8.60392 11.5521 8.60831C11.3686 8.61271 11.1879 8.68744 11.01 8.83103L10.8621 8.67864L10.6444 8.90283L10.7924 9.05521C10.6373 9.25009 10.5647 9.45816 10.5718 9.67941C10.5718 9.68527 10.5718 9.69113 10.5733 9.69553H9.65132C9.74095 9.2076 9.96859 8.74312 10.3342 8.36655C11.3031 7.36871 12.8781 7.36871 13.847 8.36655C14.2126 8.74312 14.4403 9.2076 14.5299 9.69553H11.8495L11.3415 9.17243ZM11.4155 9.69553H11.094C11.0897 9.67795 11.0854 9.66036 11.0826 9.64131C11.0698 9.55633 11.0826 9.47281 11.121 9.39076L11.4155 9.69553ZM18.3016 9.85964C18.2077 9.81861 18.1095 9.78491 18.0071 9.75853L19.1168 8.61564C19.2008 8.53065 19.2008 8.39146 19.1168 8.30501C18.8394 8.01928 18.8394 7.5548 19.1168 7.26907C19.2008 7.18262 19.2008 7.04343 19.1168 6.95844L15.2142 2.93926C15.1744 2.89823 15.1203 2.87479 15.0634 2.87479C15.0065 2.87479 14.9525 2.89823 14.9126 2.93926C14.6352 3.22498 14.1842 3.22498 13.9067 2.93926C13.8669 2.89823 13.8128 2.87479 13.7559 2.87479C13.699 2.87479 13.645 2.89823 13.6051 2.93926L7.04486 9.69553H6.6536L14.409 1.70698L20.3133 7.78777L18.3016 9.85964Z" fill="#FF8B02"/>
<path d="M20.9166 7.57971L14.611 1.08572C14.5 0.971428 14.3193 0.971428 14.2084 1.08572L5.84691 9.69553H5.05159C3.92051 9.69553 3 10.6435 3 11.8099V20.8856C3 22.0505 3.92051 23 5.05302 23H17.5105C18.643 23 19.5636 22.052 19.5636 20.8856V18.7332C20.0914 18.6145 20.4883 18.1295 20.4883 17.5522V15.1433C20.4883 14.5646 20.0914 14.0796 19.5636 13.9609V11.8099C19.5636 11.1491 19.2676 10.5586 18.8052 10.1703L20.918 7.99437C21.0276 7.88008 21.0276 7.694 20.9166 7.57971ZM19.9192 15.1433V17.5522C19.9192 17.8965 19.6475 18.1749 19.3146 18.1749H14.9468C14.6138 18.1749 14.3421 17.8951 14.3421 17.5522V15.1433C14.3421 14.799 14.6138 14.5206 14.9468 14.5206H19.3146C19.6475 14.5191 19.9192 14.799 19.9192 15.1433ZM18.9945 11.8099V13.9345H15.1502H14.9453C14.298 13.9345 13.7716 14.4766 13.7716 15.1433V15.3543V17.5522C13.7716 18.2189 14.298 18.761 14.9453 18.761H18.9945V20.8856C18.9945 21.7282 18.3286 22.4139 17.5105 22.4139H5.05302C4.23494 22.4139 3.5691 21.7282 3.5691 20.8856V13.0847V12.0429V11.8099C3.5691 10.9674 4.23494 10.2816 5.05302 10.2816H5.27923H6.0845H6.47576H7.079H9.14055H9.61006H10.8478H12.4186H12.9208H13.4671H14.5697H15.0392H16.8945H17.4977H17.5091C17.6272 10.2816 17.741 10.2963 17.8506 10.3227C18.0526 10.371 18.2376 10.4633 18.3983 10.5879C18.7597 10.8663 18.9945 11.3102 18.9945 11.8099ZM18.6786 8.44567L17.465 9.69553H15.0065C14.9126 9.08305 14.6366 8.49549 14.1799 8.02368C13.0289 6.83829 11.1552 6.83829 10.0027 8.02368C9.54604 8.49402 9.27002 9.08305 9.17612 9.69553H7.6481L13.7702 3.39056C14.1543 3.66016 14.6651 3.66016 15.0492 3.39056L18.6786 7.12841C18.4168 7.52403 18.4168 8.05005 18.6786 8.44567ZM11.3415 9.17243C11.481 9.11529 11.6204 9.1358 11.7612 9.23397L12.0913 8.79293C11.9149 8.66546 11.7356 8.60392 11.5521 8.60831C11.3686 8.61271 11.1879 8.68744 11.01 8.83103L10.8621 8.67864L10.6444 8.90283L10.7924 9.05521C10.6373 9.25009 10.5647 9.45816 10.5718 9.67941C10.5718 9.68527 10.5718 9.69113 10.5733 9.69553H9.65132C9.74095 9.2076 9.96859 8.74312 10.3342 8.36655C11.3031 7.36871 12.8781 7.36871 13.847 8.36655C14.2126 8.74312 14.4403 9.2076 14.5299 9.69553H11.8495L11.3415 9.17243ZM11.4155 9.69553H11.094C11.0897 9.67795 11.0854 9.66036 11.0826 9.64131C11.0698 9.55633 11.0826 9.47281 11.121 9.39076L11.4155 9.69553ZM18.3016 9.85964C18.2077 9.81861 18.1095 9.78491 18.0071 9.75853L19.1168 8.61564C19.2008 8.53065 19.2008 8.39146 19.1168 8.30501C18.8394 8.01928 18.8394 7.5548 19.1168 7.26907C19.2008 7.18262 19.2008 7.04343 19.1168 6.95844L15.2142 2.93926C15.1744 2.89823 15.1203 2.87479 15.0634 2.87479C15.0065 2.87479 14.9525 2.89823 14.9126 2.93926C14.6352 3.22498 14.1842 3.22498 13.9067 2.93926C13.8669 2.89823 13.8128 2.87479 13.7559 2.87479C13.699 2.87479 13.645 2.89823 13.6051 2.93926L7.04486 9.69553H6.6536L14.409 1.70698L20.3133 7.78777L18.3016 9.85964Z" stroke="#FF8B02" stroke-width="0.2" mask="url(#path-1-outside-1_3828_59306)"/>
</svg>
