<svg width="33" height="26" viewBox="0 0 33 26" fill="none" xmlns="http://www.w3.org/2000/svg">
<path d="M25.9722 17.1455C24.9445 17.1455 23.9589 17.5592 23.2322 18.2957C22.5055 19.0322 22.0972 20.0311 22.0972 21.0727C22.0972 22.1143 22.5055 23.1132 23.2322 23.8497C23.9589 24.5862 24.9445 25 25.9722 25C26.9999 25 27.9856 24.5862 28.7123 23.8497C29.439 23.1132 29.8472 22.1143 29.8472 21.0727C29.8472 20.0311 29.439 19.0322 28.7123 18.2957C27.9856 17.5592 26.9999 17.1455 25.9722 17.1455ZM25.9722 17.1455C25.4298 17.1454 24.8935 17.2621 24.3989 17.4878C23.9043 17.7134 23.4626 18.043 23.103 18.4545H19.9444M25.9722 17.1455C26.5147 17.1454 27.0509 17.2621 27.5455 17.4878C28.0401 17.7134 28.4819 18.043 28.8414 18.4545H32V11.4727M19.9444 18.4545V4.49091H28.5556L32 11.4727M19.9444 18.4545H9.897C9.53741 18.043 9.0957 17.7134 8.60108 17.4878C8.10646 17.2621 7.57021 17.1454 7.02778 17.1455M19.9444 18.4545V2.74545C19.9444 2.28253 19.763 1.83857 19.44 1.51123C19.117 1.1839 18.679 1 18.2222 1H2.72222C2.26546 1 1.82741 1.1839 1.50443 1.51123C1.18145 1.83857 1 2.28253 1 2.74545V18.4545H4.15856C4.51814 18.043 4.95985 17.7134 5.45447 17.4878C5.94909 17.2621 6.48535 17.1454 7.02778 17.1455M32 11.4727H21.6667M7.02778 17.1455C6.00006 17.1455 5.01444 17.5592 4.28774 18.2957C3.56104 19.0322 3.15278 20.0311 3.15278 21.0727C3.15278 22.1143 3.56104 23.1132 4.28774 23.8497C5.01444 24.5862 6.00006 25 7.02778 25C8.05549 25 9.04111 24.5862 9.76782 23.8497C10.4945 23.1132 10.9028 22.1143 10.9028 21.0727C10.9028 20.0311 10.4945 19.0322 9.76782 18.2957C9.04111 17.5592 8.05549 17.1455 7.02778 17.1455Z" stroke="#FF8B02" stroke-width="2" stroke-linecap="round" stroke-linejoin="round"/>
</svg>
