<svg width="32" height="32" viewBox="0 0 32 32" fill="none" xmlns="http://www.w3.org/2000/svg">
<g clip-path="url(#clip0_850_24126)">
<path d="M25.3333 2.66699H6.66667C5.96007 2.6691 5.28302 2.95073 4.78338 3.45037C4.28374 3.95001 4.00211 4.62706 4 5.33366L4 29.3337H28V5.33366C27.9979 4.62706 27.7163 3.95001 27.2166 3.45037C26.717 2.95073 26.0399 2.6691 25.3333 2.66699ZM14.6667 26.667V21.3337H17.3333V26.667H14.6667ZM25.3333 26.667H20V20.0003C20.0107 19.8224 19.9835 19.6443 19.9203 19.4777C19.8571 19.3111 19.7592 19.1598 19.6332 19.0338C19.5072 18.9078 19.3559 18.8099 19.1893 18.7467C19.0227 18.6835 18.8446 18.6563 18.6667 18.667H13.3333C13.1554 18.6563 12.9773 18.6835 12.8107 18.7467C12.6441 18.8099 12.4928 18.9078 12.3668 19.0338C12.2408 19.1598 12.1429 19.3111 12.0797 19.4777C12.0165 19.6443 11.9893 19.8224 12 20.0003V26.667H6.66667V5.33366H25.3333V26.667ZM14.6667 10.667H12V8.00033H14.6667V10.667ZM20 10.667H17.3333V8.00033H20V10.667ZM14.6667 16.0003H12V13.3337H14.6667V16.0003ZM20 16.0003H17.3333V13.3337H20V16.0003Z" fill="#FF8B02"/>
</g>
<defs>
<clipPath id="clip0_850_24126">
<rect width="32" height="32" fill="white"/>
</clipPath>
</defs>
</svg>
