<svg width="26" height="30" viewBox="0 0 26 30" fill="none" xmlns="http://www.w3.org/2000/svg">
<path d="M23.1596 17.089L23.1712 17.041C23.3786 16.1821 23.1477 15.2382 22.4788 14.5693C22.1347 14.2252 21.7179 13.9975 21.2775 13.8852L21.2296 13.873L21.2412 13.825C21.437 13.0156 21.2558 12.0593 20.5478 11.3514C20.3103 11.1138 20.038 10.9323 19.7472 10.8052L19.6801 10.7759L19.7319 10.7241L22.4791 7.97716L23.1596 17.089ZM23.1596 17.089L23.2075 17.1012M23.1596 17.089L23.2075 17.1012M23.2075 17.1012C23.6582 17.2159 24.0717 17.4496 24.4093 17.7872L24.4093 17.7872C25.4451 18.8216 25.42 20.4826 24.4092 21.4925L24.4092 21.4925L17.4859 28.4158C16.8189 29.0828 15.9327 29.45 14.99 29.45H7.08385C6.87176 29.45 6.66831 29.3658 6.51839 29.2158L6.48564 29.2485L6.51838 29.2158L1.05744 23.7548C0.745112 23.4424 0.745112 22.9361 1.05744 22.6238L3.53868 20.1425L3.55335 20.1278L3.55332 20.1071L3.54273 9.53755C3.54252 9.32587 3.62648 9.12248 3.77574 8.97244C3.77658 8.97167 3.7771 8.97114 3.77725 8.97098L3.77729 8.97095L3.7773 8.97094C4.66976 8.07803 5.97795 7.73961 7.19117 8.08769L7.19118 8.08769C8.4047 8.43566 9.33482 9.41593 9.61845 10.6459L10.1196 12.8177L10.1399 12.9056L10.2037 12.8418L18.7734 4.27211L18.742 4.24068M23.2075 17.1012L18.742 4.24068M18.742 4.24068L18.7734 4.27211C19.7983 3.24693 21.4554 3.2487 22.4788 4.27211C23.5034 5.29659 23.5016 6.95348 22.4792 7.97713L18.742 4.24068ZM7.41516 27.8505L7.40051 27.8359L2.78931 23.2246L2.75396 23.1893L2.78931 23.1539L4.91893 21.0242C5.06912 20.874 5.15336 20.6703 5.1532 20.4579L5.14266 9.92893L5.14264 9.90277L5.16412 9.88783C5.62159 9.5697 6.20378 9.46836 6.75021 9.62516M7.41516 27.8505L4.95428 21.0596C5.11387 20.9 5.20337 20.6835 5.2032 20.4578L5.19267 9.92888C5.63793 9.61924 6.20459 9.52061 6.73642 9.67322C7.37378 9.85597 7.86227 10.3707 8.0112 11.0166M7.41516 27.8505H7.43587H14.9901C15.4981 27.8505 15.9954 27.6444 16.355 27.2847L20.2318 23.4081L20.2836 23.3564L20.2166 23.327C19.9219 23.1976 19.6507 23.0138 19.4164 22.7792L19.4164 22.7792C18.9435 22.3062 18.6745 21.6837 18.6519 21.0178L18.6504 20.9711L18.6037 20.9695C17.9633 20.9474 17.33 20.6931 16.8425 20.2055C16.3549 19.7176 16.1007 19.0838 16.0787 18.4432L16.0771 18.3966L16.0304 18.395C15.3899 18.373 14.7561 18.1189 14.2682 17.6313C13.2465 16.6096 13.2465 14.9472 14.2681 13.9257L21.3478 6.84648L21.3478 6.84646C21.7464 6.44734 21.7462 5.80145 21.3478 5.4031C20.9594 5.01464 20.3129 4.99444 19.9044 5.40305L10.8516 14.4559L10.8162 14.4913L10.8516 14.5266L10.8942 14.5693C12.9804 16.6554 12.9804 20.0499 10.8942 22.136C10.582 22.4483 10.0756 22.4484 9.76326 22.136C9.45093 21.8237 9.45093 21.3174 9.76326 21.005C11.2258 19.5424 11.2258 17.1628 9.76326 15.7002L9.76324 15.7002L9.76315 15.7001L9.7628 15.6997L9.76142 15.6984L9.75604 15.693L9.7356 15.6725L9.66268 15.5996L9.44137 15.3781L9.22005 15.1566L9.14711 15.0836L9.12667 15.0631L9.13045 15.0725C9.12655 15.0648 9.12094 15.0574 9.12048 15.0569L9.12001 15.0564L9.11999 15.0564L9.11985 15.0562L9.11984 15.0562L9.1198 15.0562L9.11942 15.0558C9.01553 14.9516 8.94024 14.8195 8.90603 14.6712L8.05992 11.0053M7.41516 27.8505L9.08402 15.0911M6.75021 9.62516L6.7365 9.67293L6.7502 9.62516C6.7502 9.62516 6.75021 9.62516 6.75021 9.62516ZM6.75021 9.62516C7.40503 9.81292 7.9069 10.3417 8.05992 11.0053M8.05992 11.0053L8.05992 11.0053L8.0112 11.0166M8.05992 11.0053L8.0112 11.0166M8.0112 11.0166L8.85731 14.6824C8.89368 14.8401 8.97373 14.9805 9.08402 15.0911M9.08402 15.0911C9.08414 15.0914 9.7279 15.7356 9.7279 15.7356L9.08402 15.0911ZM23.2432 20.3258L23.2449 20.3283L23.2782 20.3615L23.2782 20.3615L23.2783 20.3614L23.2784 20.3614C23.2786 20.3611 23.2782 20.3616 23.2773 20.3624M23.2432 20.3258L21.9555 21.6136L21.9909 21.6489L21.9909 21.6489L23.2773 20.3624M23.2432 20.3258L23.2786 20.3612C23.671 19.9692 23.6826 19.322 23.2785 18.9185M23.2432 20.3258L23.2785 18.9185M23.2773 20.3624L23.2775 20.3622L23.2768 20.3629C23.277 20.3627 23.2771 20.3625 23.2773 20.3624ZM23.2785 18.9185C23.2785 18.9185 23.2785 18.9186 23.2785 18.9186L23.2432 18.9539L23.2785 18.9185ZM23.2785 18.9185C22.8828 18.5229 22.2369 18.5165 21.8352 18.9182L21.8706 18.9535M23.2785 18.9185L21.8706 18.9535M21.8706 18.9535L21.8352 18.9182L20.5481 20.2053C20.1524 20.6009 20.1462 21.247 20.5478 21.6486L21.8706 18.9535ZM21.3478 15.7002L21.3151 15.7328L21.3478 15.7002C20.9492 15.3017 20.3035 15.3011 19.9044 15.7002L17.9734 17.6311C17.5755 18.0289 17.5756 18.6765 17.9736 19.0747L18.009 19.0393L17.9736 19.0747C18.3712 19.4724 19.0171 19.4743 19.4168 19.0745L21.3478 17.1436L21.3124 17.1083L21.3478 17.1436C21.7457 16.7456 21.7457 16.0982 21.3478 15.7002ZM15.3991 16.5002L15.3991 16.5002C15.7971 16.8979 16.4445 16.8981 16.8424 16.5002L16.8071 16.4648L16.8425 16.5001L16.8426 16.5L16.8429 16.4997L16.843 16.4996L16.8443 16.4983L16.8498 16.4928L16.8714 16.4712L16.9531 16.3895L17.2447 16.0979L18.1296 15.213L19.0145 14.3281L19.3061 14.0365L19.3878 13.9548L19.4093 13.9333L19.4148 13.9278L19.4155 13.9271L19.416 13.9266L19.4162 13.9264L19.4163 13.9263L19.4164 13.9262L19.4165 13.9261L19.4165 13.926L19.4166 13.9259L19.4166 13.9259L19.4166 13.9259C19.4166 13.9259 19.4166 13.9259 19.4166 13.9259C19.4166 13.9259 19.4166 13.9259 19.4166 13.9259C19.4166 13.9258 19.4166 13.9257 19.4166 13.9255C19.4165 13.9219 19.4153 13.8942 19.3968 13.8747C19.3996 13.8717 19.4025 13.8687 19.4052 13.8658C19.4158 13.8738 19.4252 13.885 19.4303 13.9005C19.4275 13.9097 19.4218 13.9199 19.4206 13.9215L19.4188 13.9236L19.4181 13.9243L19.4173 13.9253L19.4169 13.9256L19.4168 13.9257C19.8153 13.5273 19.816 12.8814 19.4168 12.4823C19.0192 12.0846 18.3717 12.0841 17.9734 12.4823L18.0088 12.5177L17.9734 12.4823L15.3991 15.0568C15.0011 15.4547 15.0011 16.1022 15.3991 16.5002Z" fill="#FF8B02" stroke="#676767" stroke-width="0.1"/>
<path d="M9.8144 5.83563C10.2837 5.83563 10.6641 5.45517 10.6641 4.98589V1.34526C10.6192 0.217822 9.00913 0.218672 8.96466 1.34526V4.98594C8.96466 5.45523 9.34512 5.83563 9.8144 5.83563V5.83563Z" fill="#FF8B02"/>
<path d="M5.5729 5.58676C5.90475 5.91867 6.44286 5.91856 6.7746 5.58676C7.10645 5.25491 7.10645 4.71691 6.7746 4.38506L5.86447 3.47493C5.53268 3.14308 4.99462 3.14308 4.66277 3.47493C4.33092 3.80678 4.33092 4.34478 4.66277 4.67664L5.5729 5.58676Z" fill="#FF8B02"/>
<path d="M14.056 5.58676L14.9661 4.67664C15.2979 4.34478 15.2979 3.80678 14.9661 3.47493C14.6343 3.14308 14.0962 3.14308 13.7644 3.47493L12.8543 4.38506C12.5224 4.71691 12.5224 5.25491 12.8543 5.58676C13.1861 5.91867 13.7242 5.91856 14.056 5.58676V5.58676Z" fill="#FF8B02"/>
</svg>
