<svg width="32" height="32" viewBox="0 0 32 32" fill="none" xmlns="http://www.w3.org/2000/svg">
<path d="M27.8568 6.66667L20.2 14.2325V6.66667H18.186L10.8667 14.0906V2H2V30H30V6.66667H27.8568ZM28.1333 28.1333H3.86667V3.86667H9V16.4667H11.1454L18.3333 9.46667V16.4667H20.5946L28.1333 9.0175V28.1333Z" fill="#FF8B02"/>
<path d="M9 20.5V21H11V20.5V19H9V20.5Z" fill="#FF8B02"/>
<path d="M11 23H9V25H11V23Z" fill="#FF8B02"/>
<path d="M14 20.5V21H16V20.5V19H14V20.5Z" fill="#FF8B02"/>
<path d="M16 23H14V25H16V23Z" fill="#FF8B02"/>
<path d="M18 20.5V21H20V20.5V19H18V20.5Z" fill="#FF8B02"/>
<path d="M20 23H18V25H20V23Z" fill="#FF8B02"/>
<path d="M25 19H23V21H25V19Z" fill="#FF8B02"/>
<path d="M25 23H23V25H25V23Z" fill="#FF8B02"/>
</svg>
