<svg width="32" height="26" viewBox="0 0 32 26" fill="none" xmlns="http://www.w3.org/2000/svg">
<path d="M30.5 6.14289C30.5 8.98323 26.6944 11.2858 22 11.2858C17.3056 11.2858 13.5 8.98323 13.5 6.14289M30.5 6.14289C30.5 3.30255 26.6944 1 22 1C17.3056 1 13.5 3.30255 13.5 6.14289M30.5 6.14289V13.0001M13.5 6.14289V13.0001M13.5 13.0001C13.5 15.8407 17.3063 18.143 22 18.143C26.6937 18.143 30.5 15.8407 30.5 13.0001M13.5 13.0001V19.8571C13.5 22.6977 17.3063 25 22 25C26.6937 25 30.5 22.6977 30.5 19.8571V13.0001" stroke="#FF8B02" stroke-width="2" stroke-linecap="round" stroke-linejoin="round"/>
<path d="M2.30602 8V19H4.09699V8H2.30602ZM3.31438 9.63429H5.54181C6.01338 9.63429 6.41472 9.69191 6.74582 9.80714C7.07692 9.9119 7.33779 10.0848 7.52843 10.3257C7.71906 10.5667 7.81438 10.8757 7.81438 11.2529C7.81438 11.6405 7.71906 11.9548 7.52843 12.1957C7.33779 12.4367 7.07692 12.6148 6.74582 12.73C6.41472 12.8348 6.01338 12.8871 5.54181 12.8871H3.31438V14.5214H5.54181C6.31438 14.5214 6.99666 14.4167 7.58863 14.2071C8.1806 13.9871 8.64716 13.6362 8.98829 13.1543C9.32943 12.6619 9.5 12.0281 9.5 11.2529C9.5 10.4671 9.32943 9.83857 8.98829 9.36714C8.64716 8.88524 8.1806 8.53952 7.58863 8.33C6.99666 8.11 6.31438 8 5.54181 8H3.31438V9.63429ZM3.88629 17.5229H6.97157V15.9986H3.88629V17.5229ZM0.5 14.4743H3.58528V12.95H0.5V14.4743ZM0.5 17.5229H3.58528V15.9986H0.5V17.5229Z" fill="#FF8B02"/>
</svg>
