<svg width="25" height="29" viewBox="0 0 25 29" fill="none" xmlns="http://www.w3.org/2000/svg">
<path d="M12.4998 0.25L0.287109 4.31904V16.5317C0.287109 23.2838 5.75332 28.75 12.4998 28.75C19.2463 28.75 24.7125 23.2838 24.7125 16.5373V4.31904L12.4998 0.25ZM22.4247 16.5373C22.4247 22.0202 17.9827 26.4622 12.4998 26.4622C7.01689 26.4622 2.5749 22.0147 2.5749 16.5373V6.03906L12.4998 2.53779L22.4247 6.03906V16.5373Z" fill="#FF8B02"/>
<path d="M8.2525 13.3253C7.80719 12.88 7.08356 12.8744 6.63825 13.3197L6.63268 13.3253C6.18737 13.7706 6.1818 14.4942 6.62711 14.9395L6.63268 14.9451L10.7463 19.0587L10.813 19.1255C11.2361 19.5485 11.9208 19.5485 12.3438 19.1255L19.4521 12.0172C19.8752 11.5941 19.8752 10.9095 19.4521 10.4864L19.363 10.3974C18.94 9.97432 18.2553 9.97432 17.8323 10.3974L11.5756 16.654L8.2525 13.3253Z" fill="#FF8B02"/>
</svg>
