<svg width="32" height="32" viewBox="0 0 32 32" fill="none" xmlns="http://www.w3.org/2000/svg">
<path d="M26.6654 11.333V29.9997H5.33203V11.333" stroke="#FF8B02" stroke-width="2" stroke-miterlimit="10"/>
<path d="M30.6654 14L15.9987 2L1.33203 14" stroke="#FF8B02" stroke-width="2" stroke-miterlimit="10"/>
<path d="M10.668 15.333H12.0013C13.0622 15.333 14.0796 15.7544 14.8297 16.5046C15.5799 17.2547 16.0013 18.2721 16.0013 19.333V20.6663H14.668C13.6071 20.6663 12.5897 20.2449 11.8395 19.4948C11.0894 18.7446 10.668 17.7272 10.668 16.6663V15.333Z" stroke="#FF8B02" stroke-width="2" stroke-miterlimit="10"/>
<path d="M20 20H21.3333V21.3333C21.3333 22.3942 20.9119 23.4116 20.1618 24.1618C19.4116 24.9119 18.3942 25.3333 17.3333 25.3333H16V24C16 22.9391 16.4214 21.9217 17.1716 21.1716C17.9217 20.4214 18.9391 20 20 20V20Z" stroke="#FF8B02" stroke-width="2" stroke-miterlimit="10"/>
<path d="M16 30.0003V20.667" stroke="#FF8B02" stroke-width="2" stroke-miterlimit="10"/>
</svg>
