<svg width="32" height="32" viewBox="0 0 32 32" fill="none" xmlns="http://www.w3.org/2000/svg">
<path d="M28.4099 9.99383L16.5917 3.15882C16.2257 2.94706 15.7744 2.94706 15.4083 3.15882L3.59013 9.99383C3.22496 10.205 3 10.5949 3 11.0168V27.8182C3 28.4709 3.52914 29 4.18183 29H8.90911H23.0909H27.8182C28.4709 29 29 28.4709 29 27.8182V11.0168C29 10.5949 28.7751 10.205 28.4099 9.99383ZM21.9091 26.6364H10.0909V24.2728H21.9091L21.9091 26.6364ZM21.9091 21.9091H10.0909V19.5455H21.9091L21.9091 21.9091ZM21.9091 17.1818H10.0909V14.8182H21.9091L21.9091 17.1818ZM26.6364 26.6364H24.2728V13.6364C24.2728 12.9837 23.7436 12.4545 23.0909 12.4545H8.90911C8.25642 12.4545 7.72728 12.9837 7.72728 13.6364V26.6364H5.36361V11.6985L16 5.54701L26.6364 11.6985V26.6364Z" fill="#FF8B02"/>
</svg>
