<svg width="16" height="16" viewBox="0 0 16 16" fill="none" xmlns="http://www.w3.org/2000/svg">
<path fill-rule="evenodd" clip-rule="evenodd" d="M8.5 3C5.09091 3 2.17955 5.07333 1 8C2.17955 10.9267 5.09091 13 8.5 13C11.9091 13 14.8205 10.9267 16 8C14.8205 5.07333 11.9091 3 8.5 3ZM8.50284 11.3327C6.62102 11.3327 5.09375 9.83935 5.09375 7.99935C5.09375 6.15935 6.62102 4.66602 8.50284 4.66602C10.3847 4.66602 11.9119 6.15935 11.9119 7.99935C11.9119 9.83935 10.3847 11.3327 8.50284 11.3327ZM6.46094 8C6.46094 6.89333 7.37457 6 8.50639 6C9.63821 6 10.5518 6.89333 10.5518 8C10.5518 9.10667 9.63821 10 8.50639 10C7.37457 10 6.46094 9.10667 6.46094 8Z" fill="#FF8B02"/>
</svg>
