<svg width="15" height="20" viewBox="0 0 15 20" fill="none" xmlns="http://www.w3.org/2000/svg">
<g clip-path="url(#clip0_4101_12813)">
<path d="M15 12.8811C15 16.8124 11.6406 19.9999 7.5 19.9999C3.35938 19.9999 0 16.8124 0 12.8811C0 8.68427 4.93125 2.35614 6.79688 0.115518C6.83624 0.0609484 6.89217 0.0205415 6.95634 0.00030626C7.02051 -0.019929 7.0895 -0.0189118 7.15304 0.00320661C7.21659 0.025325 7.2713 0.0673632 7.30904 0.12307C7.34678 0.178776 7.36553 0.245175 7.3625 0.312393C7.20312 2.18739 7.3125 6.19989 10.6687 8.19989C10.7359 8.24539 10.8181 8.26301 10.898 8.24901C10.9779 8.23502 11.0492 8.19051 11.0969 8.12489C11.5175 7.50519 11.7607 6.78223 11.8 6.03427C11.8037 5.96557 11.8299 5.9 11.8746 5.84773C11.9193 5.79546 11.9801 5.7594 12.0474 5.74516C12.1147 5.73092 12.1848 5.73928 12.2468 5.76895C12.3089 5.79862 12.3594 5.84794 12.3906 5.90927C13.8188 8.25927 15 10.8249 15 12.8811Z" fill="#FF7F00"/>
<path d="M2.8125 15.5499C2.8125 18.0093 4.9125 19.9999 7.5 19.9999C10.0875 19.9999 12.1875 18.0093 12.1875 15.5499C12.1875 13.0906 9.47188 9.45306 8.175 7.85931C8.13615 7.80326 8.08003 7.76147 8.0152 7.74029C7.95037 7.71912 7.8804 7.71974 7.81596 7.74205C7.75152 7.76435 7.69614 7.80713 7.65828 7.86385C7.62041 7.92056 7.60214 7.98811 7.60625 8.05618C7.65313 9.30618 7.43437 11.4218 5.62187 12.5718C5.58667 12.5951 5.5471 12.6111 5.50556 12.6187C5.46402 12.6262 5.42137 12.6253 5.38019 12.616C5.339 12.6067 5.30014 12.5891 5.26595 12.5643C5.23176 12.5395 5.20295 12.508 5.18125 12.4718C5.02372 12.202 4.91775 11.9053 4.86875 11.5968C4.86162 11.5289 4.83245 11.4652 4.7857 11.4154C4.73895 11.3657 4.67719 11.3326 4.60986 11.3213C4.54253 11.3099 4.47334 11.321 4.41287 11.3527C4.3524 11.3844 4.30398 11.435 4.275 11.4968C3.45313 12.8812 2.8125 14.3531 2.8125 15.5499Z" fill="#FFDA00"/>
<path d="M10.0781 17.5529C10.0713 17.8834 9.99893 18.2092 9.86531 18.5116C9.73169 18.8139 9.53943 19.0868 9.29967 19.3143C9.05991 19.5419 8.7774 19.7197 8.46848 19.8373C8.15957 19.955 7.83039 20.0102 7.5 19.9998C7.16961 20.0102 6.84043 19.955 6.53152 19.8373C6.2226 19.7197 5.94009 19.5419 5.70033 19.3143C5.46057 19.0868 5.26831 18.8139 5.13469 18.5116C5.00107 18.2092 4.92874 17.8834 4.92188 17.5529C4.92187 16.3435 6.10938 14.6248 6.875 13.6435C6.91238 13.5898 6.96567 13.5492 7.02737 13.5274C7.08907 13.5056 7.15606 13.5037 7.21889 13.522C7.28172 13.5403 7.33722 13.5778 7.37756 13.6294C7.41791 13.6809 7.44106 13.7438 7.44375 13.8092C7.44495 14.1898 7.5295 14.5655 7.69147 14.91C7.85343 15.2544 8.08888 15.5592 8.38125 15.8029C8.41945 15.8358 8.46504 15.859 8.51413 15.8704C8.56322 15.8819 8.61436 15.8813 8.66317 15.8687C8.71198 15.8561 8.75702 15.8319 8.79445 15.7981C8.83188 15.7644 8.86059 15.722 8.87812 15.6748C8.89679 15.6159 8.93247 15.5639 8.98067 15.5253C9.02887 15.4867 9.08742 15.4633 9.14894 15.4579C9.21046 15.4526 9.27218 15.4656 9.32632 15.4953C9.38046 15.525 9.42458 15.57 9.45312 15.6248C9.80878 16.2101 10.0228 16.8703 10.0781 17.5529Z" fill="white"/>
</g>
<defs>
<clipPath id="clip0_4101_12813">
<rect width="15" height="20" fill="white"/>
</clipPath>
</defs>
</svg>
