<svg width="88" height="106" viewBox="0 0 88 106" fill="none" xmlns="http://www.w3.org/2000/svg">
<path fill-rule="evenodd" clip-rule="evenodd" d="M42.6896 106L88 45.6787L27.9554 0L0 37.2167L14.9022 35.1373L30.0385 14.9864L73.0978 47.7582L40.6064 91.0136L20.5587 75.8311L5.6565 77.9106L42.6896 106ZM29.9154 57.987L28.1344 32.8096H38.2269L36.4999 57.987H29.9154ZM29.5376 70.3878C28.6021 69.5289 28.1344 68.4195 28.1344 67.0595C28.1344 65.6995 28.6021 64.5901 29.5376 63.7311C30.5091 62.8722 31.7324 62.4427 33.2076 62.4427C34.6828 62.4427 35.8882 62.8722 36.8237 63.7311C37.7952 64.5901 38.2809 65.6995 38.2809 67.0595C38.2809 68.4195 37.7952 69.5289 36.8237 70.3878C35.8882 71.2468 34.6828 71.6762 33.2076 71.6762C31.7324 71.6762 30.5091 71.2468 29.5376 70.3878Z" fill="#FF8B02"/>
</svg>
