<svg width="28" height="28" viewBox="0 0 28 28" fill="none" xmlns="http://www.w3.org/2000/svg">
<path d="M3.875 6.125V5.32143C3.4312 5.32143 3.07143 5.6812 3.07143 6.125H3.875ZM24.125 6.125H24.9286C24.9286 5.6812 24.5688 5.32143 24.125 5.32143V6.125ZM24.125 21.875V22.6786C24.5688 22.6786 24.9286 22.3188 24.9286 21.875H24.125ZM3.875 21.875H3.07143C3.07143 22.3188 3.4312 22.6786 3.875 22.6786V21.875ZM4.26525 7.67255C3.8773 7.45702 3.38808 7.5968 3.17255 7.98475C2.95702 8.3727 3.0968 8.86192 3.48475 9.07745L4.26525 7.67255ZM14 14L13.6097 14.7024C13.8524 14.8373 14.1476 14.8373 14.3902 14.7024L14 14ZM24.5152 9.07745C24.9032 8.86192 25.043 8.3727 24.8274 7.98475C24.6119 7.5968 24.1227 7.45702 23.7347 7.67255L24.5152 9.07745ZM3.875 6.92857L24.125 6.92857V5.32143L3.875 5.32143V6.92857ZM23.3214 6.125V21.875H24.9286V6.125H23.3214ZM24.125 21.0714H3.875V22.6786H24.125V21.0714ZM4.67857 21.875V6.125H3.07143L3.07143 21.875H4.67857ZM3.48475 9.07745L13.6097 14.7024L14.3902 13.2976L4.26525 7.67255L3.48475 9.07745ZM14.3902 14.7024L24.5152 9.07745L23.7347 7.67255L13.6097 13.2976L14.3902 14.7024Z" fill="#FF8B02"/>
</svg>
