<svg width="24" height="24" viewBox="0 0 24 24" fill="none" xmlns="http://www.w3.org/2000/svg">
<path d="M22.104 6.40585C22.104 8.19975 19.7005 9.65399 16.7356 9.65399C13.7707 9.65399 11.3672 8.19975 11.3672 6.40585M22.104 6.40585C22.104 4.61196 19.7005 3.15771 16.7356 3.15771C13.7707 3.15771 11.3672 4.61196 11.3672 6.40585M22.104 6.40585V10.7367M11.3672 6.40585V10.7367M11.3672 10.7367C11.3672 12.5308 13.7712 13.9848 16.7356 13.9848C19.7001 13.9848 22.104 12.5308 22.104 10.7367M11.3672 10.7367V15.0675C11.3672 16.8615 13.7712 18.3156 16.7356 18.3156C19.7001 18.3156 22.104 16.8615 22.104 15.0675V10.7367" stroke="#FF8B02" stroke-width="1.5" stroke-linecap="round" stroke-linejoin="round"/>
<path d="M4.29689 7.5791V14.5265H5.42803V7.5791H4.29689ZM4.93375 8.61128H6.34055C6.63838 8.61128 6.89186 8.64767 7.10098 8.72045C7.3101 8.78662 7.47486 8.89579 7.59526 9.04797C7.71566 9.20015 7.77586 9.39534 7.77586 9.63354C7.77586 9.87835 7.71566 10.0768 7.59526 10.229C7.47486 10.3812 7.3101 10.4937 7.10098 10.5665C6.89186 10.6326 6.63838 10.6657 6.34055 10.6657H4.93375V11.6979H6.34055C6.82849 11.6979 7.2594 11.6317 7.63328 11.4994C8.00716 11.3605 8.30182 11.1388 8.51728 10.8344C8.73273 10.5235 8.84046 10.1232 8.84046 9.63354C8.84046 9.1373 8.73273 8.7403 8.51728 8.44256C8.30182 8.1382 8.00716 7.91985 7.63328 7.78752C7.2594 7.64858 6.82849 7.5791 6.34055 7.5791H4.93375V8.61128ZM5.29496 13.5935H7.24356V12.6308H5.29496V13.5935ZM3.15625 11.6681H5.10485V10.7054H3.15625V11.6681ZM3.15625 13.5935H5.10485V12.6308H3.15625V13.5935Z" fill="#FF8B02"/>
</svg>
