<svg width="48" height="49" viewBox="0 0 48 49" fill="none" xmlns="http://www.w3.org/2000/svg">
<path d="M23.9995 26.5273C27.3869 26.5273 30.1329 23.8048 30.1329 20.4465C30.1329 17.0882 27.3869 14.3657 23.9995 14.3657C20.6122 14.3657 17.8662 17.0882 17.8662 20.4465C17.8662 23.8048 20.6122 26.5273 23.9995 26.5273Z" stroke="#D9D9D9" stroke-width="1.7931" stroke-miterlimit="10"/>
<path d="M24.0051 23.404C25.7407 23.404 27.1478 22.009 27.1478 20.2882C27.1478 18.5674 25.7407 17.1724 24.0051 17.1724C22.2694 17.1724 20.8623 18.5674 20.8623 20.2882C20.8623 22.009 22.2694 23.404 24.0051 23.404Z" fill="#FF8B02"/>
<path d="M12.0667 15.3462C14.0667 10.7038 18.6667 7.5 24 7.5C31.2 7.5 37 13.3192 37 20.4462C37 22.7346 36.4 25.0231 35.2 26.9846C33.5333 29.7962 31.2 32.2154 29.2 34.7654C27.6667 36.7269 26.1333 38.6885 24.6667 40.65C24.6 40.7154 24 41.5 24 41.5C24 41.5 22.2 39.1462 21.2667 37.9692C19.6667 35.9423 18.0667 33.85 16.4667 31.8231C14.9333 29.8615 13.1333 27.9654 12.1333 25.6769C11.7333 24.7615 11 22.8654 11 20.4462C11 18.6154 11.4 16.9154 12.0667 15.3462Z" stroke="#D9D9D9" stroke-width="1.7931" stroke-miterlimit="10" stroke-linecap="round" stroke-linejoin="round"/>
</svg>
