<svg width="32" height="32" viewBox="0 0 32 32" fill="none" xmlns="http://www.w3.org/2000/svg">
<mask id="path-1-outside-1_1099_34729" maskUnits="userSpaceOnUse" x="6" y="5" width="20" height="22" fill="black">
<rect fill="white" x="6" y="5" width="20" height="22"/>
<path fill-rule="evenodd" clip-rule="evenodd" d="M22.968 13.0111L24.9803 24.4883C25.0127 24.673 25.0051 24.8626 24.9581 25.0439C24.9112 25.2253 24.8259 25.3939 24.7084 25.538C24.5909 25.682 24.4439 25.7981 24.2778 25.8779C24.1117 25.9577 23.9305 25.9994 23.747 26H8.2531C7.88114 26 7.53092 25.8292 7.29223 25.5377C7.17441 25.3935 7.08896 25.2246 7.0419 25.043C6.99484 24.8614 6.98732 24.6714 7.01986 24.4865L9.03214 13.0111C9.13936 12.4 9.65804 11.9528 10.2654 11.9528H12.9566C12.5233 11.3313 12.2901 10.575 12.2901 9.78869C12.2901 7.69807 13.9544 6 16.0001 6C18.0457 6 19.71 7.69901 19.71 9.78962C19.71 10.576 19.4769 11.3313 19.0436 11.9528H21.7347C22.3422 11.9528 22.8608 12.4 22.968 13.0111ZM23.747 25.3845C23.9381 25.3845 24.118 25.2924 24.2407 25.1426C24.3013 25.0682 24.3452 24.9811 24.3693 24.8875C24.3935 24.7938 24.3974 24.696 24.3806 24.6007L22.3684 13.1234C22.3419 12.9713 22.2639 12.8335 22.148 12.7343C22.0322 12.635 21.8859 12.5805 21.7347 12.5804H17.6448L18.1743 12.0485C18.7718 11.447 19.1009 10.6468 19.1009 9.79319C19.1009 8.04582 17.7099 6.62408 16.0001 6.62408C14.2902 6.62408 12.8992 8.04537 12.8992 9.79274C12.8992 10.6464 13.2283 11.4471 13.8258 12.0486L14.3553 12.5804H10.2654C9.95331 12.5804 9.68681 12.811 9.63172 13.125L7.61944 24.6013C7.60272 24.6965 7.60657 24.7943 7.63075 24.8878C7.65492 24.9813 7.69883 25.0683 7.75938 25.1426C7.88203 25.2924 8.06197 25.3845 8.2531 25.3845H23.747ZM14.796 9.79333C14.796 10.4719 15.3362 11.024 16.0002 11.024C16.6641 11.024 17.2043 10.4719 17.2043 9.79333C17.2043 9.11477 16.6641 8.56271 16.0002 8.56271C15.3362 8.56271 14.796 9.11477 14.796 9.79333ZM15.4732 17.5313L14.3077 18.7635L15.7409 21.0145C15.7686 21.0578 15.7843 21.108 15.7863 21.1597C15.7883 21.2115 15.7766 21.2628 15.7523 21.3082C15.703 21.4012 15.6076 21.4564 15.5041 21.4564H15.0567C14.9564 21.4564 14.861 21.4049 14.8103 21.3164L13.7005 19.3877L12.9871 20.1263V21.0158C12.9871 21.2622 12.7884 21.462 12.5472 21.462C12.3061 21.462 12.1074 21.2622 12.1074 21.0158V17.4883C12.1074 17.2418 12.3061 17.042 12.5472 17.042C12.7884 17.042 12.9871 17.2418 12.9871 17.4883V19.0047L14.6728 17.1402C14.7263 17.0807 14.8071 17.0516 14.8861 17.0516H15.2701C15.3835 17.0516 15.4859 17.1161 15.5302 17.2227C15.5518 17.2741 15.558 17.331 15.5478 17.3859C15.5377 17.4409 15.5117 17.4915 15.4732 17.5313ZM19.7717 19.079C19.9277 19.079 20.0309 19.2215 20.0309 19.3809H20.0309V20.7224C20.0309 20.8102 20.0033 20.8935 19.9363 20.9482C19.762 21.0903 19.5441 21.2179 19.2592 21.3308C18.912 21.4685 18.5604 21.5373 18.2045 21.5373C17.7522 21.5374 17.3579 21.4404 17.0214 21.2464C16.6851 21.0525 16.4324 20.7751 16.2632 20.4142C16.0941 20.0535 16.0095 19.6611 16.0095 19.2369C16.0095 18.7766 16.1039 18.3676 16.2928 18.0099C16.4815 17.6522 16.7579 17.3778 17.1218 17.1867C17.3991 17.04 17.7442 16.9666 18.1572 16.9666C18.6941 16.9666 19.1135 17.0817 19.4155 17.3119C19.5438 17.409 19.6558 17.5267 19.7472 17.6605C19.7897 17.7229 19.8162 17.7952 19.8243 17.8708C19.8325 17.9464 19.822 18.0228 19.7938 18.0932C19.7656 18.1636 19.7206 18.2256 19.6629 18.2736C19.6053 18.3217 19.5368 18.3542 19.4636 18.3683L19.4626 18.3685C19.3775 18.3847 19.2896 18.3745 19.2102 18.339C19.1309 18.3036 19.0638 18.2446 19.0177 18.1697C18.9572 18.0714 18.8789 17.986 18.787 17.9178C18.6186 17.7922 18.4086 17.7294 18.1569 17.7294C17.7751 17.7295 17.4716 17.8531 17.2465 18.1002C17.0209 18.3475 16.9081 18.7143 16.9081 19.2007C16.9081 19.7254 17.0207 20.1188 17.249 20.3811C17.4771 20.6434 17.7734 20.7745 18.1432 20.7745C18.3261 20.7745 18.5042 20.7379 18.6882 20.6645C18.8719 20.5911 19.0449 20.5021 19.1512 20.3977V19.8514H18.5364C18.3352 19.8514 18.1721 19.6708 18.1721 19.4652C18.1721 19.2595 18.3352 19.079 18.5364 19.079H19.7717Z"/>
</mask>
<path fill-rule="evenodd" clip-rule="evenodd" d="M22.968 13.0111L24.9803 24.4883C25.0127 24.673 25.0051 24.8626 24.9581 25.0439C24.9112 25.2253 24.8259 25.3939 24.7084 25.538C24.5909 25.682 24.4439 25.7981 24.2778 25.8779C24.1117 25.9577 23.9305 25.9994 23.747 26H8.2531C7.88114 26 7.53092 25.8292 7.29223 25.5377C7.17441 25.3935 7.08896 25.2246 7.0419 25.043C6.99484 24.8614 6.98732 24.6714 7.01986 24.4865L9.03214 13.0111C9.13936 12.4 9.65804 11.9528 10.2654 11.9528H12.9566C12.5233 11.3313 12.2901 10.575 12.2901 9.78869C12.2901 7.69807 13.9544 6 16.0001 6C18.0457 6 19.71 7.69901 19.71 9.78962C19.71 10.576 19.4769 11.3313 19.0436 11.9528H21.7347C22.3422 11.9528 22.8608 12.4 22.968 13.0111ZM23.747 25.3845C23.9381 25.3845 24.118 25.2924 24.2407 25.1426C24.3013 25.0682 24.3452 24.9811 24.3693 24.8875C24.3935 24.7938 24.3974 24.696 24.3806 24.6007L22.3684 13.1234C22.3419 12.9713 22.2639 12.8335 22.148 12.7343C22.0322 12.635 21.8859 12.5805 21.7347 12.5804H17.6448L18.1743 12.0485C18.7718 11.447 19.1009 10.6468 19.1009 9.79319C19.1009 8.04582 17.7099 6.62408 16.0001 6.62408C14.2902 6.62408 12.8992 8.04537 12.8992 9.79274C12.8992 10.6464 13.2283 11.4471 13.8258 12.0486L14.3553 12.5804H10.2654C9.95331 12.5804 9.68681 12.811 9.63172 13.125L7.61944 24.6013C7.60272 24.6965 7.60657 24.7943 7.63075 24.8878C7.65492 24.9813 7.69883 25.0683 7.75938 25.1426C7.88203 25.2924 8.06197 25.3845 8.2531 25.3845H23.747ZM14.796 9.79333C14.796 10.4719 15.3362 11.024 16.0002 11.024C16.6641 11.024 17.2043 10.4719 17.2043 9.79333C17.2043 9.11477 16.6641 8.56271 16.0002 8.56271C15.3362 8.56271 14.796 9.11477 14.796 9.79333ZM15.4732 17.5313L14.3077 18.7635L15.7409 21.0145C15.7686 21.0578 15.7843 21.108 15.7863 21.1597C15.7883 21.2115 15.7766 21.2628 15.7523 21.3082C15.703 21.4012 15.6076 21.4564 15.5041 21.4564H15.0567C14.9564 21.4564 14.861 21.4049 14.8103 21.3164L13.7005 19.3877L12.9871 20.1263V21.0158C12.9871 21.2622 12.7884 21.462 12.5472 21.462C12.3061 21.462 12.1074 21.2622 12.1074 21.0158V17.4883C12.1074 17.2418 12.3061 17.042 12.5472 17.042C12.7884 17.042 12.9871 17.2418 12.9871 17.4883V19.0047L14.6728 17.1402C14.7263 17.0807 14.8071 17.0516 14.8861 17.0516H15.2701C15.3835 17.0516 15.4859 17.1161 15.5302 17.2227C15.5518 17.2741 15.558 17.331 15.5478 17.3859C15.5377 17.4409 15.5117 17.4915 15.4732 17.5313ZM19.7717 19.079C19.9277 19.079 20.0309 19.2215 20.0309 19.3809H20.0309V20.7224C20.0309 20.8102 20.0033 20.8935 19.9363 20.9482C19.762 21.0903 19.5441 21.2179 19.2592 21.3308C18.912 21.4685 18.5604 21.5373 18.2045 21.5373C17.7522 21.5374 17.3579 21.4404 17.0214 21.2464C16.6851 21.0525 16.4324 20.7751 16.2632 20.4142C16.0941 20.0535 16.0095 19.6611 16.0095 19.2369C16.0095 18.7766 16.1039 18.3676 16.2928 18.0099C16.4815 17.6522 16.7579 17.3778 17.1218 17.1867C17.3991 17.04 17.7442 16.9666 18.1572 16.9666C18.6941 16.9666 19.1135 17.0817 19.4155 17.3119C19.5438 17.409 19.6558 17.5267 19.7472 17.6605C19.7897 17.7229 19.8162 17.7952 19.8243 17.8708C19.8325 17.9464 19.822 18.0228 19.7938 18.0932C19.7656 18.1636 19.7206 18.2256 19.6629 18.2736C19.6053 18.3217 19.5368 18.3542 19.4636 18.3683L19.4626 18.3685C19.3775 18.3847 19.2896 18.3745 19.2102 18.339C19.1309 18.3036 19.0638 18.2446 19.0177 18.1697C18.9572 18.0714 18.8789 17.986 18.787 17.9178C18.6186 17.7922 18.4086 17.7294 18.1569 17.7294C17.7751 17.7295 17.4716 17.8531 17.2465 18.1002C17.0209 18.3475 16.9081 18.7143 16.9081 19.2007C16.9081 19.7254 17.0207 20.1188 17.249 20.3811C17.4771 20.6434 17.7734 20.7745 18.1432 20.7745C18.3261 20.7745 18.5042 20.7379 18.6882 20.6645C18.8719 20.5911 19.0449 20.5021 19.1512 20.3977V19.8514H18.5364C18.3352 19.8514 18.1721 19.6708 18.1721 19.4652C18.1721 19.2595 18.3352 19.079 18.5364 19.079H19.7717Z" fill="#FF8B02"/>
<path d="M24.9803 24.4883L24.6848 24.5402L24.6848 24.5402L24.9803 24.4883ZM22.968 13.0111L23.2635 12.9593V12.9593L22.968 13.0111ZM24.2778 25.8779L24.1478 25.6075L24.1478 25.6075L24.2778 25.8779ZM23.747 26V26.3L23.748 26.3L23.747 26ZM7.29223 25.5377L7.05991 25.7275L7.06012 25.7277L7.29223 25.5377ZM7.0419 25.043L7.33231 24.9677L7.0419 25.043ZM7.01986 24.4865L7.31532 24.5385L7.31535 24.5383L7.01986 24.4865ZM9.03214 13.0111L8.73665 12.9592L8.73665 12.9593L9.03214 13.0111ZM12.9566 11.9528V12.2528H13.5314L13.2027 11.7813L12.9566 11.9528ZM19.0436 11.9528L18.7975 11.7813L18.4687 12.2528H19.0436V11.9528ZM24.2407 25.1426L24.4728 25.3327L24.4735 25.3319L24.2407 25.1426ZM24.3806 24.6007L24.0851 24.6525L24.0852 24.6525L24.3806 24.6007ZM22.3684 13.1234L22.0728 13.1748L22.0729 13.1752L22.3684 13.1234ZM22.148 12.7343L22.3433 12.5065L22.3433 12.5065L22.148 12.7343ZM21.7347 12.5804L21.7349 12.2804H21.7347V12.5804ZM17.6448 12.5804L17.4322 12.3687L16.9229 12.8804H17.6448V12.5804ZM18.1743 12.0485L18.3869 12.2602L18.3871 12.26L18.1743 12.0485ZM13.8258 12.0486L13.613 12.26L13.6132 12.2603L13.8258 12.0486ZM14.3553 12.5804V12.8804H15.0774L14.5679 12.3687L14.3553 12.5804ZM9.63172 13.125L9.33623 13.0731L9.33622 13.0732L9.63172 13.125ZM7.61944 24.6013L7.91492 24.6532L7.91493 24.6531L7.61944 24.6013ZM7.63075 24.8878L7.3403 24.9628H7.3403L7.63075 24.8878ZM7.75938 25.1426L7.52677 25.3321L7.52725 25.3326L7.75938 25.1426ZM17.2043 9.79333L17.5043 9.79333V9.79333H17.2043ZM14.3077 18.7635L14.0897 18.5573L13.929 18.7273L14.0546 18.9246L14.3077 18.7635ZM15.4732 17.5313L15.2575 17.3228L15.2553 17.3252L15.4732 17.5313ZM15.7409 21.0145L15.4878 21.1756L15.4882 21.1761L15.7409 21.0145ZM15.7863 21.1597L16.0861 21.1481L16.0861 21.1481L15.7863 21.1597ZM15.7523 21.3082L15.4877 21.167L15.4874 21.1676L15.7523 21.3082ZM14.8103 21.3164L15.0705 21.1672L15.0703 21.1668L14.8103 21.3164ZM13.7005 19.3877L13.9605 19.2381L13.7616 18.8925L13.4847 19.1793L13.7005 19.3877ZM12.9871 20.1263L12.7713 19.9179L12.6871 20.0051V20.1263H12.9871ZM12.9871 19.0047H12.6871V19.7839L13.2096 19.2059L12.9871 19.0047ZM14.6728 17.1402L14.8953 17.3414L14.896 17.3407L14.6728 17.1402ZM15.5302 17.2227L15.2531 17.3379L15.2537 17.3392L15.5302 17.2227ZM20.0309 19.3809H19.7309V19.6809H20.0309V19.3809ZM20.0309 19.3809H20.3309V19.0809H20.0309V19.3809ZM19.9363 20.9482L20.1259 21.1807L20.1259 21.1807L19.9363 20.9482ZM19.2592 21.3308L19.1486 21.0519L19.1486 21.0519L19.2592 21.3308ZM18.2045 21.5373V21.2373H18.2044L18.2045 21.5373ZM17.0214 21.2464L17.1713 20.9865L17.1713 20.9865L17.0214 21.2464ZM16.2632 20.4142L16.5349 20.2869L16.5349 20.2869L16.2632 20.4142ZM16.0095 19.2369H16.3095V19.2369L16.0095 19.2369ZM16.2928 18.0099L16.5581 18.1499L16.5581 18.1499L16.2928 18.0099ZM17.1218 17.1867L17.2612 17.4523L17.2621 17.4519L17.1218 17.1867ZM18.1572 16.9666L18.1573 16.6666H18.1572V16.9666ZM19.4155 17.3119L19.2336 17.5505L19.2345 17.5511L19.4155 17.3119ZM19.7472 17.6605L19.9952 17.4917L19.995 17.4913L19.7472 17.6605ZM19.8243 17.8708L19.5261 17.9029V17.9029L19.8243 17.8708ZM19.7938 18.0932L20.0723 18.2048L20.0723 18.2048L19.7938 18.0932ZM19.6629 18.2736L19.855 18.5041L19.855 18.5041L19.6629 18.2736ZM19.4636 18.3683L19.4071 18.0736L19.4053 18.074L19.4636 18.3683ZM19.4626 18.3685L19.5189 18.6631L19.521 18.6627L19.4626 18.3685ZM19.2102 18.339L19.0878 18.6129L19.0878 18.6129L19.2102 18.339ZM19.0177 18.1697L19.2731 18.0124L19.2731 18.0123L19.0177 18.1697ZM18.787 17.9178L18.6075 18.1582L18.6083 18.1588L18.787 17.9178ZM18.1569 17.7294V17.4294H18.1569L18.1569 17.7294ZM17.2465 18.1002L17.4681 18.3024L17.4683 18.3022L17.2465 18.1002ZM17.249 20.3811L17.4753 20.1842L17.4753 20.1842L17.249 20.3811ZM18.6882 20.6645L18.7993 20.9431L18.7994 20.9431L18.6882 20.6645ZM19.1512 20.3977L19.3614 20.6117L19.4512 20.5235V20.3977H19.1512ZM19.1512 19.8514H19.4512V19.5514H19.1512V19.8514ZM25.2757 24.4365L23.2635 12.9593L22.6725 13.0629L24.6848 24.5402L25.2757 24.4365ZM25.2486 25.1192C25.3063 24.8963 25.3155 24.6633 25.2757 24.4365L24.6848 24.5402C24.7098 24.6826 24.7039 24.8289 24.6677 24.9687L25.2486 25.1192ZM24.9408 25.7276C25.0859 25.5498 25.1908 25.3421 25.2486 25.1192L24.6677 24.9687C24.6315 25.1085 24.5659 25.238 24.4759 25.3483L24.9408 25.7276ZM24.4077 26.1483C24.6139 26.0492 24.7957 25.9055 24.9408 25.7276L24.4759 25.3483C24.386 25.4586 24.2739 25.5469 24.1478 25.6075L24.4077 26.1483ZM23.748 26.3C23.9764 26.2992 24.2016 26.2473 24.4077 26.1483L24.1478 25.6075C24.0218 25.668 23.8847 25.6995 23.746 25.7L23.748 26.3ZM8.2531 26.3H23.747V25.7H8.2531V26.3ZM7.06012 25.7277C7.35365 26.0862 7.78788 26.3 8.2531 26.3V25.7C7.97439 25.7 7.70819 25.5721 7.52435 25.3476L7.06012 25.7277ZM6.75149 25.1182C6.80933 25.3414 6.91447 25.5495 7.05991 25.7275L7.52455 25.3479C7.43434 25.2374 7.36858 25.1077 7.33231 24.9677L6.75149 25.1182ZM6.7244 24.4345C6.68442 24.6617 6.69365 24.895 6.75149 25.1182L7.33231 24.9677C7.29603 24.8277 7.29021 24.6811 7.31532 24.5385L6.7244 24.4345ZM8.73665 12.9593L6.72437 24.4347L7.31535 24.5383L9.32763 13.0629L8.73665 12.9593ZM10.2654 11.6528C9.50648 11.6528 8.86803 12.2106 8.73665 12.9592L9.32762 13.0629C9.4107 12.5895 9.80959 12.2528 10.2654 12.2528V11.6528ZM12.9566 11.6528H10.2654V12.2528H12.9566V11.6528ZM11.9901 9.78869C11.9901 10.634 12.2408 11.4507 12.7105 12.1244L13.2027 11.7813C12.8058 11.212 12.5901 10.516 12.5901 9.78869H11.9901ZM16.0001 5.7C13.7829 5.7 11.9901 7.53827 11.9901 9.78869H12.5901C12.5901 7.85787 14.1259 6.3 16.0001 6.3V5.7ZM20.01 9.78962C20.01 7.53931 18.2174 5.7 16.0001 5.7V6.3C17.8741 6.3 19.41 7.8587 19.41 9.78962H20.01ZM19.2897 12.1244C19.7594 11.4507 20.01 10.6351 20.01 9.78962H19.41C19.41 10.5169 19.1944 11.212 18.7975 11.7813L19.2897 12.1244ZM21.7347 11.6528H19.0436V12.2528H21.7347V11.6528ZM23.2635 12.9593C23.1322 12.2106 22.4937 11.6528 21.7347 11.6528V12.2528C22.1906 12.2528 22.5895 12.5895 22.6725 13.0629L23.2635 12.9593ZM24.0087 24.9525C23.9378 25.039 23.8404 25.0845 23.747 25.0845V25.6845C24.0358 25.6845 24.2983 25.5458 24.4728 25.3327L24.0087 24.9525ZM24.0789 24.8125C24.0654 24.8646 24.0411 24.9127 24.008 24.9534L24.4735 25.3319C24.5615 25.2237 24.6249 25.0975 24.6598 24.9624L24.0789 24.8125ZM24.0852 24.6525C24.0945 24.7057 24.0923 24.7603 24.0789 24.8125L24.6598 24.9624C24.6947 24.8274 24.7002 24.6862 24.6761 24.5488L24.0852 24.6525ZM22.0729 13.1752L24.0851 24.6525L24.6761 24.5489L22.6639 13.0716L22.0729 13.1752ZM21.9528 12.9621C22.0151 13.0154 22.0581 13.0905 22.0728 13.1748L22.6639 13.072C22.6257 12.8521 22.5127 12.6517 22.3433 12.5065L21.9528 12.9621ZM21.7344 12.8804C21.8134 12.8805 21.8907 12.9088 21.9528 12.9621L22.3433 12.5065C22.1737 12.3611 21.9584 12.2806 21.7349 12.2804L21.7344 12.8804ZM17.6448 12.8804H21.7347V12.2804H17.6448V12.8804ZM17.9617 11.8369L17.4322 12.3687L17.8575 12.792L18.3869 12.2602L17.9617 11.8369ZM18.8009 9.79319C18.8009 10.5681 18.5028 11.2921 17.9615 11.8371L18.3871 12.26C19.0408 11.6019 19.4009 10.7255 19.4009 9.79319H18.8009ZM16.0001 6.92408C17.5381 6.92408 18.8009 8.20531 18.8009 9.79319H19.4009C19.4009 7.88633 17.8817 6.32408 16.0001 6.32408V6.92408ZM13.1992 9.79274C13.1992 8.20492 14.462 6.92408 16.0001 6.92408V6.32408C14.1185 6.32408 12.5992 7.88583 12.5992 9.79274H13.1992ZM14.0386 11.8372C13.4973 11.2923 13.1992 10.5677 13.1992 9.79274H12.5992C12.5992 10.725 12.9592 11.602 13.613 12.26L14.0386 11.8372ZM14.5679 12.3687L14.0384 11.8369L13.6132 12.2603L14.1427 12.7921L14.5679 12.3687ZM10.2654 12.8804H14.3553V12.2804H10.2654V12.8804ZM9.9272 13.1769C9.95825 12.9999 10.1054 12.8804 10.2654 12.8804V12.2804C9.80119 12.2804 9.41538 12.6221 9.33623 13.0731L9.9272 13.1769ZM7.91493 24.6531L9.92721 13.1768L9.33622 13.0732L7.32395 24.5494L7.91493 24.6531ZM7.9212 24.8127C7.90776 24.7607 7.9056 24.7062 7.91492 24.6532L7.32397 24.5493C7.29983 24.6867 7.30539 24.8278 7.3403 24.9628L7.9212 24.8127ZM7.99198 24.9531C7.95894 24.9126 7.93464 24.8647 7.9212 24.8127L7.3403 24.9628C7.37521 25.0979 7.43872 25.224 7.52678 25.3321L7.99198 24.9531ZM8.2531 25.0845C8.15971 25.0845 8.0623 25.039 7.99151 24.9526L7.52725 25.3326C7.70175 25.5458 7.96423 25.6845 8.2531 25.6845V25.0845ZM23.747 25.0845H8.2531V25.6845H23.747V25.0845ZM16.0002 10.724C15.508 10.724 15.096 10.3124 15.096 9.79333H14.496C14.496 10.6314 15.1644 11.324 16.0002 11.324V10.724ZM16.9043 9.79333C16.9043 10.3124 16.4923 10.724 16.0002 10.724V11.324C16.8359 11.324 17.5043 10.6314 17.5043 9.79333L16.9043 9.79333ZM16.0002 8.86271C16.4923 8.86271 16.9043 9.27428 16.9043 9.79333H17.5043C17.5043 8.95527 16.8359 8.26271 16.0002 8.26271V8.86271ZM15.096 9.79333C15.096 9.27429 15.508 8.86271 16.0002 8.86271V8.26271C15.1644 8.26271 14.496 8.95526 14.496 9.79333H15.096ZM14.5256 18.9696L15.6912 17.7375L15.2553 17.3252L14.0897 18.5573L14.5256 18.9696ZM15.994 20.8534L14.5607 18.6023L14.0546 18.9246L15.4878 21.1756L15.994 20.8534ZM16.0861 21.1481C16.082 21.0434 16.0503 20.9414 15.9936 20.8528L15.4882 21.1761C15.487 21.1742 15.4866 21.1726 15.4866 21.1714L16.0861 21.1481ZM16.017 21.4495C16.0665 21.3568 16.0902 21.2527 16.0861 21.1481L15.4866 21.1714C15.4865 21.1702 15.4867 21.1687 15.4877 21.167L16.017 21.4495ZM15.5041 21.7564C15.7153 21.7564 15.9144 21.6429 16.0173 21.4489L15.4874 21.1676C15.489 21.1645 15.492 21.1612 15.4958 21.159C15.4993 21.1569 15.5024 21.1564 15.5041 21.1564V21.7564ZM15.0567 21.7564H15.5041V21.1564H15.0567V21.7564ZM14.55 21.4656C14.6575 21.6531 14.8558 21.7564 15.0567 21.7564V21.1564C15.0577 21.1564 15.0593 21.1566 15.0615 21.1578C15.064 21.1592 15.0677 21.1623 15.0705 21.1672L14.55 21.4656ZM13.4404 19.5373L14.5502 21.466L15.0703 21.1668L13.9605 19.2381L13.4404 19.5373ZM13.2029 20.3347L13.9163 19.5961L13.4847 19.1793L12.7713 19.9179L13.2029 20.3347ZM13.2871 21.0158V20.1263H12.6871V21.0158H13.2871ZM12.5472 21.762C12.9573 21.762 13.2871 21.4247 13.2871 21.0158H12.6871C12.6871 21.0998 12.6194 21.162 12.5472 21.162V21.762ZM11.8074 21.0158C11.8074 21.4247 12.1372 21.762 12.5472 21.762V21.162C12.475 21.162 12.4074 21.0998 12.4074 21.0158H11.8074ZM11.8074 17.4883V21.0158H12.4074V17.4883H11.8074ZM12.5472 16.742C12.1372 16.742 11.8074 17.0794 11.8074 17.4883H12.4074C12.4074 17.4042 12.475 17.342 12.5472 17.342V16.742ZM13.2871 17.4883C13.2871 17.0794 12.9573 16.742 12.5472 16.742V17.342C12.6194 17.342 12.6871 17.4042 12.6871 17.4883H13.2871ZM13.2871 19.0047V17.4883H12.6871V19.0047H13.2871ZM14.4503 16.939L12.7646 18.8035L13.2096 19.2059L14.8953 17.3414L14.4503 16.939ZM14.8861 16.7516C14.7397 16.7516 14.5709 16.8047 14.4497 16.9397L14.896 17.3407C14.8885 17.349 14.8822 17.3517 14.8813 17.3521C14.8807 17.3523 14.8827 17.3516 14.8861 17.3516V16.7516ZM15.2701 16.7516H14.8861V17.3516H15.2701V16.7516ZM15.8072 17.1076C15.7142 16.8837 15.4989 16.7516 15.2701 16.7516V17.3516C15.2697 17.3516 15.2667 17.3514 15.2625 17.3487C15.2605 17.3473 15.2584 17.3456 15.2567 17.3435C15.2548 17.3413 15.2537 17.3392 15.2532 17.3379L15.8072 17.1076ZM15.8428 17.4404C15.8636 17.328 15.8511 17.2118 15.8067 17.1063L15.2537 17.3392C15.2526 17.3365 15.2524 17.3339 15.2528 17.3315L15.8428 17.4404ZM15.6889 17.7398C15.7688 17.6572 15.8221 17.5528 15.8428 17.4404L15.2528 17.3315C15.2533 17.329 15.2546 17.3259 15.2575 17.3228L15.6889 17.7398ZM20.3309 19.3809C20.3309 19.1159 20.1477 18.779 19.7717 18.779V19.379C19.7639 19.379 19.7535 19.377 19.7436 19.372C19.7342 19.3672 19.7291 19.362 19.7273 19.3598C19.7257 19.3578 19.7267 19.3584 19.7282 19.3627C19.7296 19.3669 19.7309 19.3732 19.7309 19.3809H20.3309ZM20.0309 19.0809H20.0309V19.6809H20.0309V19.0809ZM20.3309 20.7224V19.3809H19.7309V20.7224H20.3309ZM20.1259 21.1807C20.2841 21.0516 20.3309 20.8687 20.3309 20.7224H19.7309C19.7309 20.7358 19.7287 20.74 19.7298 20.7374C19.7304 20.7358 19.7319 20.7325 19.735 20.7282C19.7381 20.7238 19.742 20.7195 19.7466 20.7158L20.1259 21.1807ZM19.3698 21.6097C19.6782 21.4874 19.924 21.3454 20.1259 21.1807L19.7467 20.7157C19.6001 20.8353 19.41 20.9483 19.1486 21.0519L19.3698 21.6097ZM18.2045 21.8373C18.6001 21.8373 18.9891 21.7606 19.3698 21.6097L19.1486 21.0519C18.8349 21.1763 18.5207 21.2373 18.2045 21.2373V21.8373ZM16.8715 21.5062C17.2606 21.7306 17.7084 21.8374 18.2045 21.8373L18.2044 21.2373C17.7961 21.2374 17.4551 21.1502 17.1713 20.9865L16.8715 21.5062ZM15.9916 20.5416C16.1861 20.9564 16.4805 21.2808 16.8716 21.5063L17.1713 20.9865C16.8896 20.8241 16.6787 20.5937 16.5349 20.2869L15.9916 20.5416ZM15.7095 19.2369C15.7095 19.7022 15.8026 20.1385 15.9916 20.5416L16.5349 20.2869C16.3856 19.9686 16.3095 19.6199 16.3095 19.2369H15.7095ZM16.0275 17.8698C15.8129 18.2763 15.7095 18.7346 15.7095 19.2369L16.3095 19.2369C16.3095 18.8186 16.395 18.4588 16.5581 18.1499L16.0275 17.8698ZM16.9823 16.9211C16.5657 17.1399 16.245 17.4576 16.0274 17.8698L16.5581 18.1499C16.7181 17.8467 16.9501 17.6157 17.2612 17.4523L16.9823 16.9211ZM18.1572 16.6666C17.7102 16.6666 17.3135 16.7458 16.9815 16.9216L17.2621 17.4519C17.4847 17.3341 17.7782 17.2666 18.1572 17.2666V16.6666ZM19.5973 17.0733C19.2254 16.7898 18.7334 16.6666 18.1573 16.6666L18.1572 17.2666C18.6549 17.2666 19.0017 17.3737 19.2336 17.5505L19.5973 17.0733ZM19.995 17.4913C19.8854 17.3309 19.7509 17.1895 19.5965 17.0726L19.2345 17.5511C19.3367 17.6285 19.4263 17.7225 19.4995 17.8297L19.995 17.4913ZM20.1226 17.8387C20.1092 17.7145 20.0656 17.5952 19.9952 17.4917L19.4992 17.8293C19.5138 17.8507 19.5232 17.876 19.5261 17.9029L20.1226 17.8387ZM20.0723 18.2048C20.1188 18.0887 20.136 17.9629 20.1226 17.8387L19.5261 17.9029C19.529 17.9298 19.5252 17.957 19.5153 17.9816L20.0723 18.2048ZM19.855 18.5041C19.9513 18.4239 20.0257 18.3209 20.0723 18.2048L19.5153 17.9816C19.5054 18.0063 19.4899 18.0273 19.4709 18.0432L19.855 18.5041ZM19.5202 18.6629C19.6436 18.6392 19.7586 18.5844 19.855 18.5041L19.4709 18.0432C19.4519 18.059 19.4299 18.0693 19.4071 18.0736L19.5202 18.6629ZM19.521 18.6627L19.522 18.6625L19.4053 18.074L19.4042 18.0742L19.521 18.6627ZM19.0878 18.6129C19.223 18.6733 19.3733 18.6909 19.5189 18.6631L19.4063 18.0738C19.3817 18.0785 19.3561 18.0756 19.3326 18.0651L19.0878 18.6129ZM18.7622 18.3269C18.8396 18.4525 18.9527 18.5525 19.0878 18.6129L19.3326 18.0651C19.309 18.0546 19.288 18.0366 19.2731 18.0124L18.7622 18.3269ZM18.6083 18.1588C18.6693 18.204 18.7216 18.261 18.7622 18.327L19.2731 18.0123C19.1928 17.8819 19.0885 17.7679 18.9657 17.6768L18.6083 18.1588ZM18.1569 18.0294C18.3571 18.0294 18.5007 18.0785 18.6075 18.1582L18.9664 17.6774C18.7366 17.5059 18.4601 17.4294 18.1569 17.4294V18.0294ZM17.4683 18.3022C17.6282 18.1266 17.8463 18.0294 18.157 18.0294L18.1569 17.4294C17.7038 17.4295 17.315 17.5795 17.0247 17.8982L17.4683 18.3022ZM17.2081 19.2007C17.2081 18.7557 17.3117 18.4739 17.4681 18.3024L17.0249 17.898C16.7301 18.2211 16.6081 18.673 16.6081 19.2007H17.2081ZM17.4753 20.1842C17.314 19.9988 17.2081 19.6894 17.2081 19.2007H16.6081C16.6081 19.7613 16.7275 20.2388 17.0227 20.578L17.4753 20.1842ZM18.1432 20.4745C17.8547 20.4745 17.6429 20.3769 17.4753 20.1842L17.0226 20.578C17.3112 20.9098 17.6921 21.0745 18.1432 21.0745V20.4745ZM18.577 20.3858C18.4244 20.4467 18.2839 20.4745 18.1432 20.4745V21.0745C18.3682 21.0745 18.5841 21.029 18.7993 20.9431L18.577 20.3858ZM18.9409 20.1837C18.8795 20.244 18.754 20.3152 18.5769 20.3859L18.7994 20.9431C18.9899 20.867 19.2103 20.7602 19.3614 20.6117L18.9409 20.1837ZM18.8512 19.8514V20.3977H19.4512V19.8514H18.8512ZM18.5364 20.1514H19.1512V19.5514H18.5364V20.1514ZM17.8721 19.4652C17.8721 19.8157 18.1495 20.1514 18.5364 20.1514V19.5514C18.5285 19.5514 18.5143 19.5481 18.4984 19.531C18.4819 19.5133 18.4721 19.4889 18.4721 19.4652H17.8721ZM18.5364 18.779C18.1496 18.779 17.8721 19.1145 17.8721 19.4652H18.4721C18.4721 19.4414 18.4819 19.4171 18.4984 19.3994C18.5143 19.3822 18.5285 19.379 18.5364 19.379V18.779ZM19.7717 18.779H18.5364V19.379H19.7717V18.779Z" fill="#FF8B02" mask="url(#path-1-outside-1_1099_34729)"/>
</svg>
