<svg width="73" height="50" viewBox="0 0 73 50" fill="none" xmlns="http://www.w3.org/2000/svg">
<path d="M29.2 35.7192V14.2808L48.18 25L29.2 35.7192Z" fill="#FBFBFB"/>
<path d="M71.4599 7.80612C71.0445 6.29602 70.2311 4.91916 69.101 3.81335C67.9709 2.70755 66.5639 1.91157 65.0206 1.5051C59.3373 3.77006e-07 36.5 0 36.5 0C36.5 0 13.6627 3.77006e-07 7.97939 1.5051C6.43615 1.91157 5.02908 2.70755 3.899 3.81335C2.76892 4.91916 1.95548 6.29602 1.54009 7.80612C0.478901 13.4777 -0.0360666 19.2342 0.0019616 25C-0.0360666 30.7658 0.478901 36.5223 1.54009 42.1939C1.95548 43.704 2.76892 45.0808 3.899 46.1866C5.02908 47.2925 6.43615 48.0884 7.97939 48.4949C13.6627 50 36.5 50 36.5 50C36.5 50 59.3373 50 65.0206 48.4949C66.5639 48.0884 67.9709 47.2925 69.101 46.1866C70.2311 45.0808 71.0445 43.704 71.4599 42.1939C72.5211 36.5223 73.0361 30.7658 72.998 25C73.0361 19.2342 72.5211 13.4777 71.4599 7.80612ZM29.2004 35.7143V14.2857L48.1533 25L29.2004 35.7143Z" fill="#FF8B02"/>
</svg>
