<svg width="49" height="49" viewBox="0 0 49 49" fill="none" xmlns="http://www.w3.org/2000/svg">
<path d="M19.21 27.9617H31.21" stroke="#D9D9D9" stroke-width="2" stroke-miterlimit="10" stroke-linecap="round" stroke-linejoin="round"/>
<path d="M19.21 31.9617H31.21" stroke="#D9D9D9" stroke-width="2" stroke-miterlimit="10" stroke-linecap="round" stroke-linejoin="round"/>
<path d="M19.21 35.9617H31.21" stroke="#D9D9D9" stroke-width="2" stroke-miterlimit="10" stroke-linecap="round" stroke-linejoin="round"/>
<path d="M23.1054 11.5V21.5H24.6973V11.5H23.1054ZM24.0017 12.9857H25.9816C26.4008 12.9857 26.7575 13.0381 27.0518 13.1429C27.3462 13.2381 27.578 13.3952 27.7475 13.6143C27.9169 13.8333 28.0017 14.1143 28.0017 14.4571C28.0017 14.8095 27.9169 15.0952 27.7475 15.3143C27.578 15.5333 27.3462 15.6952 27.0518 15.8C26.7575 15.8952 26.4008 15.9429 25.9816 15.9429H24.0017V17.4286H25.9816C26.6683 17.4286 27.2748 17.3333 27.801 17.1429C28.3272 16.9429 28.7419 16.6238 29.0452 16.1857C29.3484 15.7381 29.5 15.1619 29.5 14.4571C29.5 13.7429 29.3484 13.1714 29.0452 12.7429C28.7419 12.3048 28.3272 11.9905 27.801 11.8C27.2748 11.6 26.6683 11.5 25.9816 11.5H24.0017V12.9857ZM24.51 20.1571H27.2525V18.7714H24.51V20.1571ZM21.5 17.3857H24.2425V16H21.5V17.3857ZM21.5 20.1571H24.2425V18.7714H21.5V20.1571Z" fill="#FF8B02"/>
<rect x="11.7891" y="4.5" width="26.4211" height="38" rx="3.21053" stroke="#D9D9D9" stroke-width="2"/>
</svg>
