<svg width="40" height="40" viewBox="0 0 40 40" fill="none" xmlns="http://www.w3.org/2000/svg">
<path fill-rule="evenodd" clip-rule="evenodd" d="M14.9319 27.6608C17.7432 27.6608 20.3359 26.7187 22.4123 25.1339L30.2101 32.9332C30.5202 33.2327 30.9355 33.3984 31.3665 33.3947C31.7976 33.3909 32.2099 33.218 32.5148 32.9132C32.8196 32.6084 32.9925 32.196 32.9962 31.765C33 31.3339 32.8343 30.9186 32.5348 30.6085L24.7354 22.8092C26.4228 20.5973 27.3126 17.8799 27.2602 15.0984C27.2079 12.3169 26.2165 9.63485 24.4471 7.48806C22.6777 5.34128 20.2343 3.85593 17.514 3.27338C14.7937 2.69083 11.9563 3.04532 9.46293 4.27925C6.96956 5.51318 4.96674 7.55402 3.77991 10.0701C2.59309 12.5863 2.29202 15.4298 2.92563 18.1387C3.55924 20.8475 5.09028 23.2625 7.26997 24.9912C9.44966 26.7199 12.1499 27.6607 14.9319 27.6608ZM23.9742 15.3304C23.9742 17.7285 23.0215 20.0285 21.3258 21.7242C19.63 23.42 17.3301 24.3727 14.9319 24.3727C12.5337 24.3727 10.2338 23.42 8.53801 21.7242C6.84225 20.0285 5.88958 17.7285 5.88958 15.3304C5.88958 12.9322 6.84225 10.6323 8.53801 8.93654C10.2338 7.24078 12.5337 6.28811 14.9319 6.28811C17.3301 6.28811 19.63 7.24078 21.3258 8.93654C23.0215 10.6323 23.9742 12.9322 23.9742 15.3304Z" fill="#FF8B02"/>
<rect y="18.6318" width="14.7632" height="14.7632" rx="7.38158" fill="#FF8B02"/>
<path d="M5.62712 22.3564V29.6695H6.79134V22.3564H5.62712ZM6.2826 23.443H7.73053C8.03708 23.443 8.29796 23.4813 8.5132 23.5579C8.72843 23.6275 8.89801 23.7424 9.02193 23.9026C9.14585 24.0628 9.20781 24.2683 9.20781 24.519C9.20781 24.7767 9.14585 24.9857 9.02193 25.1458C8.89801 25.306 8.72843 25.4244 8.5132 25.501C8.29796 25.5707 8.03708 25.6055 7.73053 25.6055H6.2826V26.692H7.73053C8.23274 26.692 8.67625 26.6224 9.06106 26.4831C9.44587 26.3368 9.74915 26.1035 9.97091 25.7831C10.1927 25.4558 10.3035 25.0344 10.3035 24.519C10.3035 23.9967 10.1927 23.5788 9.97091 23.2653C9.74915 22.945 9.44587 22.7151 9.06106 22.5758C8.67625 22.4296 8.23274 22.3564 7.73053 22.3564H6.2826V23.443ZM6.65437 28.6874H8.65995V27.6741H6.65437V28.6874ZM4.45312 26.6607H6.4587V25.6473H4.45312V26.6607ZM4.45312 28.6874H6.4587V27.6741H4.45312V28.6874Z" fill="#101213"/>
</svg>
