<svg width="40" height="40" viewBox="0 0 40 40" fill="none" xmlns="http://www.w3.org/2000/svg">
<g clip-path="url(#clip0_1444_44034)">
<path d="M35.2383 23.1184C34.5871 23.0718 33.243 23.771 32.8759 23.9509C31.5665 24.5835 29.7444 25.5759 28.5459 26.3684C28.4628 26.4217 28.3519 26.4949 28.2688 26.5482C27.7369 26.8757 27.1478 27.1081 26.5299 27.2342C23.052 27.9468 17.9877 28.02 17.9877 28.02L17.6898 28.0334C17.5833 28.0404 17.4778 28.0087 17.3944 27.9446C17.311 27.8804 17.2557 27.7885 17.2395 27.687C17.2316 27.6321 17.2356 27.5761 17.2511 27.5227C17.2667 27.4693 17.2935 27.4195 17.3298 27.3764C17.3662 27.3333 17.4114 27.2979 17.4626 27.2723C17.5138 27.2467 17.5699 27.2314 17.6275 27.2275L25.1581 26.5415C25.5719 26.493 25.9496 26.2911 26.211 25.9789C26.4723 25.6668 26.5967 25.2689 26.5576 24.8699C26.4675 24.0308 25.6639 23.4181 24.8325 23.5047L18.1332 23.4247C17.585 23.4051 17.041 23.3247 16.5121 23.185C12.1959 21.9729 9.75731 23.1051 8.46179 23.6378C8.31204 23.402 8.09783 23.2103 7.84251 23.0835C7.5872 22.9566 7.30056 22.8996 7.01385 22.9186L4.1249 23.1051C3.16191 23.165 2.44141 23.9375 2.50376 24.83L2.96793 30.997C3.03721 31.8894 3.86856 32.5621 4.83155 32.4955L7.7205 32.309C8.00555 32.2931 8.28036 32.2012 8.5141 32.0436C8.74783 31.886 8.93124 31.6688 9.04374 31.4166L21.7357 31.9427C23.149 32.0892 24.4723 31.9227 25.7193 31.2967L26.0795 31.1169L35.6747 25.7224C36.1458 25.456 36.4784 24.9965 36.4992 24.4903C36.52 23.8709 36.1528 23.185 35.2383 23.1184ZM24.6385 14.334C24.6385 14.1378 24.6991 13.9459 24.8125 13.7827C24.9259 13.6195 25.0871 13.4924 25.2758 13.4173C25.4644 13.3421 25.6719 13.3225 25.8722 13.3608C26.0724 13.3991 26.2564 13.4936 26.4007 13.6324C26.5451 13.7711 26.6434 13.948 26.6832 14.1404C26.7231 14.3329 26.7026 14.5325 26.6245 14.7138C26.5464 14.8951 26.414 15.0501 26.2443 15.1591C26.0745 15.2682 25.875 15.3264 25.6708 15.3264C25.3972 15.3257 25.1351 15.2209 24.9416 15.035C24.7482 14.849 24.6392 14.597 24.6385 14.334ZM13.8102 14.334C13.8102 14.1378 13.8707 13.9459 13.9841 13.7827C14.0976 13.6195 14.2588 13.4924 14.4474 13.4173C14.636 13.3421 14.8436 13.3225 15.0438 13.3608C15.244 13.3991 15.428 13.4936 15.5723 13.6324C15.7167 13.7711 15.815 13.948 15.8549 14.1404C15.8947 14.3329 15.8742 14.5325 15.7961 14.7138C15.718 14.8951 15.5857 15.0501 15.4159 15.1591C15.2462 15.2682 15.0466 15.3264 14.8424 15.3264C14.5689 15.3257 14.3067 15.2209 14.1133 15.035C13.9198 14.849 13.8108 14.597 13.8102 14.334ZM12.1475 20.1681H28.3588C28.8088 20.1674 29.2401 19.9952 29.5582 19.6894C29.8764 19.3835 30.0555 18.9689 30.0562 18.5364V10.1317C30.0555 9.69914 29.8764 9.28452 29.5582 8.97868C29.2401 8.67283 28.8088 8.5007 28.3588 8.5H12.1475C11.6975 8.5007 11.2662 8.67283 10.9481 8.97868C10.6299 9.28452 10.4508 9.69914 10.4501 10.1317V18.5364C10.4508 18.9689 10.6299 19.3835 10.9481 19.6894C11.2662 19.9952 11.6975 20.1674 12.1475 20.1681ZM11.898 11.8233C11.9984 11.8423 12.1006 11.8513 12.2029 11.8499C12.4285 11.8499 12.652 11.8072 12.8604 11.7243C13.0689 11.6413 13.2583 11.5196 13.4179 11.3662C13.5774 11.2129 13.704 11.0308 13.7903 10.8304C13.8766 10.63 13.921 10.4152 13.921 10.1983C13.9224 10.0955 13.9131 9.99289 13.8933 9.89191H26.516C26.4797 10.0245 26.4611 10.161 26.4606 10.2982C26.4605 10.5151 26.505 10.7299 26.5913 10.9303C26.6776 11.1307 26.8042 11.3128 26.9637 11.4661C27.1233 11.6195 27.3127 11.7412 27.5212 11.8242C27.7296 11.9071 27.9531 11.9498 28.1787 11.9498C28.3214 11.9493 28.4634 11.9314 28.6013 11.8965V16.9647C28.3478 16.901 28.0825 16.8943 27.8259 16.9449C27.5692 16.9956 27.3281 17.1023 27.1212 17.2568C26.9143 17.4112 26.7471 17.6094 26.6326 17.8359C26.518 18.0624 26.4592 18.3112 26.4606 18.563C26.4606 18.6296 26.4675 18.7029 26.4744 18.7695H13.8933C13.9131 18.6685 13.9224 18.5659 13.921 18.4631C13.921 18.2462 13.8766 18.0314 13.7903 17.831C13.704 17.6306 13.5774 17.4485 13.4179 17.2952C13.2583 17.1418 13.0689 17.0201 12.8604 16.9371C12.652 16.8542 12.4285 16.8115 12.2029 16.8115C12.1006 16.8104 11.9985 16.8194 11.898 16.8381V11.8233ZM18.7775 14.334C18.7775 14.0508 18.8649 13.774 19.0285 13.5385C19.1922 13.3031 19.4248 13.1195 19.697 13.0112C19.9692 12.9028 20.2687 12.8744 20.5576 12.9297C20.8465 12.9849 21.1119 13.1213 21.3202 13.3215C21.5286 13.5218 21.6704 13.7769 21.7279 14.0547C21.7854 14.3324 21.7559 14.6203 21.6431 14.882C21.5304 15.1436 21.3395 15.3673 21.0945 15.5246C20.8496 15.6819 20.5616 15.7659 20.267 15.7659C19.8721 15.7654 19.4936 15.6143 19.2144 15.3459C18.9352 15.0775 18.7781 14.7136 18.7775 14.334ZM20.267 11.9431C20.7589 11.9431 21.2398 12.0834 21.6488 12.3461C22.0578 12.6088 22.3766 12.9822 22.5648 13.4191C22.7531 13.856 22.8023 14.3367 22.7063 14.8005C22.6104 15.2643 22.3735 15.6903 22.0257 16.0246C21.6778 16.359 21.2347 16.5867 20.7522 16.679C20.2698 16.7712 19.7697 16.7239 19.3152 16.5429C18.8608 16.362 18.4723 16.0555 18.199 15.6623C17.9257 15.2692 17.7799 14.8069 17.7799 14.334C17.7805 13.7001 18.0427 13.0923 18.509 12.6441C18.9753 12.1958 19.6076 11.9438 20.267 11.9431Z" fill="#FF8B02"/>
</g>
<defs>
<clipPath id="clip0_1444_44034">
<rect width="34" height="24" fill="white" transform="translate(2.5 8.5)"/>
</clipPath>
</defs>
</svg>
