<svg width="28" height="28" viewBox="0 0 28 28" fill="none" xmlns="http://www.w3.org/2000/svg">
<path fill-rule="evenodd" clip-rule="evenodd" d="M8.92401 4.1916L12.3124 7.78698C12.7323 8.23284 12.7326 8.93146 12.3131 9.37768L10.6751 11.1198C11.7036 14.2642 14.0037 16.7796 16.9187 17.9691L17.2451 18.0958L18.7977 16.4445C19.2338 15.9806 19.9608 15.9606 20.4215 16.3996L23.8099 19.995C24.2298 20.4409 24.2301 21.1395 23.8105 21.5857L22.9679 22.4819C21.429 24.1187 19.0853 24.58 17.0269 23.6513C14.1172 22.3385 11.7694 20.7339 9.98335 18.8375C8.19732 16.9411 6.6854 14.4474 5.4476 11.3563C4.60695 9.25714 4.97157 6.87746 6.36364 5.2423L6.54299 5.04186L7.30026 4.23644C7.73635 3.77261 8.46332 3.75254 8.92401 4.1916Z" stroke="#FF8B02" stroke-width="1.60714" stroke-linecap="round" stroke-linejoin="round"/>
</svg>
