<svg width="40" height="40" viewBox="0 0 40 40" fill="none" xmlns="http://www.w3.org/2000/svg">
<mask id="path-1-outside-1_1441_43955" maskUnits="userSpaceOnUse" x="3.75" y="2.05566" width="32" height="36" fill="black">
<rect fill="white" x="3.75" y="2.05566" width="32" height="36"/>
<path fill-rule="evenodd" clip-rule="evenodd" d="M31.8068 14.9356L35.2165 34.3831C35.2714 34.696 35.2587 35.0173 35.1791 35.3246C35.0995 35.6318 34.9551 35.9175 34.7559 36.1617C34.5567 36.4058 34.3077 36.6024 34.0262 36.7376C33.7448 36.8729 33.4378 36.9435 33.1268 36.9446H6.87332C6.24303 36.9446 5.64961 36.6551 5.24517 36.1612C5.04552 35.9168 4.90073 35.6307 4.82099 35.3229C4.74125 35.0152 4.72851 34.6933 4.78365 34.38L8.19334 14.9356C8.37503 13.9002 9.2539 13.1424 10.2831 13.1424H14.843C14.1089 12.0893 13.7138 10.8078 13.7138 9.47538C13.7138 5.93295 16.5338 3.05566 20.0001 3.05566C23.4664 3.05566 26.2865 5.93453 26.2865 9.47696C26.2865 10.8094 25.8914 12.0893 25.1572 13.1424H29.7171C30.7465 13.1424 31.6253 13.9002 31.8068 14.9356ZM33.1268 35.9017C33.4507 35.9017 33.7556 35.7456 33.9635 35.4918C34.0661 35.3656 34.1404 35.2181 34.1814 35.0594C34.2223 34.9008 34.2289 34.7349 34.2005 34.5734L30.7908 15.1259C30.746 14.8681 30.6138 14.6347 30.4175 14.4665C30.2212 14.2983 29.9733 14.206 29.7171 14.2058H22.7871L23.6842 13.3046C24.6967 12.2853 25.2543 10.9294 25.2543 9.48301C25.2543 6.52219 22.8973 4.11313 20.0001 4.11313C17.1029 4.11313 14.7459 6.52144 14.7459 9.48225C14.7459 10.9287 15.3035 12.2855 16.316 13.3047L17.2132 14.2058H10.2831C9.75422 14.2058 9.30266 14.5966 9.2093 15.1286L5.79961 34.5745C5.77127 34.7358 5.77781 34.9015 5.81877 35.0599C5.85973 35.2184 5.93412 35.3658 6.03672 35.4917C6.24455 35.7456 6.54945 35.9017 6.87332 35.9017H33.1268ZM17.9621 9.48269C17.9621 10.6325 18.8774 11.568 20.0026 11.568C21.1276 11.568 22.043 10.6325 22.043 9.48269C22.043 8.33291 21.1276 7.39746 20.0026 7.39746C18.8774 7.39746 17.9621 8.33291 17.9621 9.48269ZM19.1097 22.5943L17.1347 24.6821L19.5632 28.4963C19.6102 28.5697 19.6368 28.6548 19.6402 28.7424C19.6436 28.8301 19.6237 28.917 19.5826 28.994C19.499 29.1517 19.3374 29.2451 19.162 29.2451H18.4039C18.234 29.2451 18.0722 29.1578 17.9863 29.0079L16.1058 25.7398L14.8971 26.9914V28.4986C14.8971 28.9161 14.5603 29.2546 14.1518 29.2546C13.7432 29.2546 13.4064 28.9161 13.4064 28.4986V22.5213C13.4064 22.1037 13.7432 21.7652 14.1518 21.7652C14.5603 21.7652 14.8971 22.1037 14.8971 22.5213V25.0909L17.7534 21.9315C17.844 21.8307 17.981 21.7814 18.1149 21.7814H18.7655C18.9577 21.7814 19.1311 21.8907 19.2062 22.0714C19.2429 22.1585 19.2533 22.2548 19.2361 22.3479C19.2189 22.4411 19.1749 22.5269 19.1097 22.5943ZM26.3932 25.2168C26.6576 25.2168 26.8324 25.4582 26.8324 25.7283H26.8324V28.0014C26.8324 28.1501 26.7857 28.2913 26.672 28.3841C26.3768 28.6248 26.0075 28.8409 25.5248 29.0323C24.9365 29.2656 24.3408 29.3822 23.7376 29.3822C22.9713 29.3823 22.3031 29.218 21.733 28.8892C21.1631 28.5606 20.7349 28.0907 20.4483 27.4792C20.1617 26.868 20.0184 26.203 20.0184 25.4843C20.0184 24.7043 20.1784 24.0112 20.4983 23.4051C20.8182 22.799 21.2865 22.3341 21.9031 22.0104C22.3729 21.7617 22.9577 21.6374 23.6576 21.6374C24.5673 21.6375 25.278 21.8325 25.7896 22.2224C26.007 22.387 26.1969 22.5865 26.3517 22.8132C26.4237 22.919 26.4686 23.0415 26.4824 23.1695C26.4962 23.2976 26.4784 23.4271 26.4306 23.5464C26.3828 23.6656 26.3066 23.7707 26.2089 23.8521C26.1112 23.9335 25.9951 23.9886 25.8712 24.0124L25.8695 24.0128C25.7252 24.0403 25.5762 24.0229 25.4418 23.9629C25.3074 23.9028 25.1937 23.8028 25.1156 23.6759C25.0131 23.5095 24.8804 23.3646 24.7246 23.2492C24.4394 23.0363 24.0835 22.9299 23.657 22.9299C23.01 22.93 22.4958 23.1394 22.1144 23.5582C21.7321 23.9772 21.5409 24.5988 21.5409 25.423C21.5409 26.3119 21.7319 26.9786 22.1186 27.4231C22.5051 27.8674 23.0072 28.0897 23.6338 28.0897C23.9436 28.0897 24.2456 28.0276 24.5572 27.9032C24.8686 27.7789 25.1617 27.6281 25.3417 27.4512V26.5255H24.3C23.9591 26.5255 23.6828 26.2195 23.6828 25.8711C23.6828 25.5226 23.9592 25.2168 24.3 25.2168H26.3932Z"/>
</mask>
<path fill-rule="evenodd" clip-rule="evenodd" d="M31.8068 14.9356L35.2165 34.3831C35.2714 34.696 35.2587 35.0173 35.1791 35.3246C35.0995 35.6318 34.9551 35.9175 34.7559 36.1617C34.5567 36.4058 34.3077 36.6024 34.0262 36.7376C33.7448 36.8729 33.4378 36.9435 33.1268 36.9446H6.87332C6.24303 36.9446 5.64961 36.6551 5.24517 36.1612C5.04552 35.9168 4.90073 35.6307 4.82099 35.3229C4.74125 35.0152 4.72851 34.6933 4.78365 34.38L8.19334 14.9356C8.37503 13.9002 9.2539 13.1424 10.2831 13.1424H14.843C14.1089 12.0893 13.7138 10.8078 13.7138 9.47538C13.7138 5.93295 16.5338 3.05566 20.0001 3.05566C23.4664 3.05566 26.2865 5.93453 26.2865 9.47696C26.2865 10.8094 25.8914 12.0893 25.1572 13.1424H29.7171C30.7465 13.1424 31.6253 13.9002 31.8068 14.9356ZM33.1268 35.9017C33.4507 35.9017 33.7556 35.7456 33.9635 35.4918C34.0661 35.3656 34.1404 35.2181 34.1814 35.0594C34.2223 34.9008 34.2289 34.7349 34.2005 34.5734L30.7908 15.1259C30.746 14.8681 30.6138 14.6347 30.4175 14.4665C30.2212 14.2983 29.9733 14.206 29.7171 14.2058H22.7871L23.6842 13.3046C24.6967 12.2853 25.2543 10.9294 25.2543 9.48301C25.2543 6.52219 22.8973 4.11313 20.0001 4.11313C17.1029 4.11313 14.7459 6.52144 14.7459 9.48225C14.7459 10.9287 15.3035 12.2855 16.316 13.3047L17.2132 14.2058H10.2831C9.75422 14.2058 9.30266 14.5966 9.2093 15.1286L5.79961 34.5745C5.77127 34.7358 5.77781 34.9015 5.81877 35.0599C5.85973 35.2184 5.93412 35.3658 6.03672 35.4917C6.24455 35.7456 6.54945 35.9017 6.87332 35.9017H33.1268ZM17.9621 9.48269C17.9621 10.6325 18.8774 11.568 20.0026 11.568C21.1276 11.568 22.043 10.6325 22.043 9.48269C22.043 8.33291 21.1276 7.39746 20.0026 7.39746C18.8774 7.39746 17.9621 8.33291 17.9621 9.48269ZM19.1097 22.5943L17.1347 24.6821L19.5632 28.4963C19.6102 28.5697 19.6368 28.6548 19.6402 28.7424C19.6436 28.8301 19.6237 28.917 19.5826 28.994C19.499 29.1517 19.3374 29.2451 19.162 29.2451H18.4039C18.234 29.2451 18.0722 29.1578 17.9863 29.0079L16.1058 25.7398L14.8971 26.9914V28.4986C14.8971 28.9161 14.5603 29.2546 14.1518 29.2546C13.7432 29.2546 13.4064 28.9161 13.4064 28.4986V22.5213C13.4064 22.1037 13.7432 21.7652 14.1518 21.7652C14.5603 21.7652 14.8971 22.1037 14.8971 22.5213V25.0909L17.7534 21.9315C17.844 21.8307 17.981 21.7814 18.1149 21.7814H18.7655C18.9577 21.7814 19.1311 21.8907 19.2062 22.0714C19.2429 22.1585 19.2533 22.2548 19.2361 22.3479C19.2189 22.4411 19.1749 22.5269 19.1097 22.5943ZM26.3932 25.2168C26.6576 25.2168 26.8324 25.4582 26.8324 25.7283H26.8324V28.0014C26.8324 28.1501 26.7857 28.2913 26.672 28.3841C26.3768 28.6248 26.0075 28.8409 25.5248 29.0323C24.9365 29.2656 24.3408 29.3822 23.7376 29.3822C22.9713 29.3823 22.3031 29.218 21.733 28.8892C21.1631 28.5606 20.7349 28.0907 20.4483 27.4792C20.1617 26.868 20.0184 26.203 20.0184 25.4843C20.0184 24.7043 20.1784 24.0112 20.4983 23.4051C20.8182 22.799 21.2865 22.3341 21.9031 22.0104C22.3729 21.7617 22.9577 21.6374 23.6576 21.6374C24.5673 21.6375 25.278 21.8325 25.7896 22.2224C26.007 22.387 26.1969 22.5865 26.3517 22.8132C26.4237 22.919 26.4686 23.0415 26.4824 23.1695C26.4962 23.2976 26.4784 23.4271 26.4306 23.5464C26.3828 23.6656 26.3066 23.7707 26.2089 23.8521C26.1112 23.9335 25.9951 23.9886 25.8712 24.0124L25.8695 24.0128C25.7252 24.0403 25.5762 24.0229 25.4418 23.9629C25.3074 23.9028 25.1937 23.8028 25.1156 23.6759C25.0131 23.5095 24.8804 23.3646 24.7246 23.2492C24.4394 23.0363 24.0835 22.9299 23.657 22.9299C23.01 22.93 22.4958 23.1394 22.1144 23.5582C21.7321 23.9772 21.5409 24.5988 21.5409 25.423C21.5409 26.3119 21.7319 26.9786 22.1186 27.4231C22.5051 27.8674 23.0072 28.0897 23.6338 28.0897C23.9436 28.0897 24.2456 28.0276 24.5572 27.9032C24.8686 27.7789 25.1617 27.6281 25.3417 27.4512V26.5255H24.3C23.9591 26.5255 23.6828 26.2195 23.6828 25.8711C23.6828 25.5226 23.9592 25.2168 24.3 25.2168H26.3932Z" fill="#FF8B02"/>
<path d="M35.2165 34.3831L34.921 34.435L34.9211 34.435L35.2165 34.3831ZM31.8068 14.9356L32.1023 14.8837V14.8837L31.8068 14.9356ZM35.1791 35.3246L34.8887 35.2494L35.1791 35.3246ZM33.1268 36.9446V37.2446L33.1278 37.2446L33.1268 36.9446ZM5.24517 36.1612L5.01285 36.351L5.01305 36.3512L5.24517 36.1612ZM4.82099 35.3229L5.1114 35.2477L4.82099 35.3229ZM4.78365 34.38L5.07911 34.432L5.07915 34.4318L4.78365 34.38ZM8.19334 14.9356L7.89786 14.8837L7.89785 14.8837L8.19334 14.9356ZM14.843 13.1424V13.4424H15.4179L15.0891 12.9709L14.843 13.1424ZM25.1572 13.1424L24.9111 12.9709L24.5823 13.4424H25.1572V13.1424ZM33.9635 35.4918L34.1955 35.6819L34.1962 35.6811L33.9635 35.4918ZM34.2005 34.5734L33.905 34.6253L33.905 34.6253L34.2005 34.5734ZM30.7908 15.1259L30.4953 15.1773L30.4953 15.1777L30.7908 15.1259ZM29.7171 14.2058L29.7174 13.9058H29.7171V14.2058ZM22.7871 14.2058L22.5745 13.9941L22.0651 14.5058H22.7871V14.2058ZM23.6842 13.3046L23.8968 13.5162L23.8971 13.516L23.6842 13.3046ZM16.316 13.3047L16.1031 13.5161L16.1034 13.5163L16.316 13.3047ZM17.2132 14.2058V14.5058H17.9352L17.4257 13.9941L17.2132 14.2058ZM9.2093 15.1286L8.91381 15.0767L8.9138 15.0768L9.2093 15.1286ZM5.79961 34.5745L6.09508 34.6264L6.0951 34.6263L5.79961 34.5745ZM6.03672 35.4917L5.80412 35.6812L5.80459 35.6818L6.03672 35.4917ZM17.1347 24.6821L16.9168 24.4759L16.756 24.6459L16.8816 24.8432L17.1347 24.6821ZM19.1097 22.5943L18.894 22.3858L18.8917 22.3881L19.1097 22.5943ZM19.5632 28.4963L19.3102 28.6574L19.3105 28.658L19.5632 28.4963ZM19.6402 28.7424L19.94 28.7307L19.6402 28.7424ZM19.5826 28.994L19.318 28.8528L19.3176 28.8534L19.5826 28.994ZM17.9863 29.0079L18.2466 28.8587L18.2464 28.8583L17.9863 29.0079ZM16.1058 25.7398L16.3658 25.5902L16.167 25.2446L15.89 25.5314L16.1058 25.7398ZM14.8971 26.9914L14.6813 26.783L14.5971 26.8702V26.9914H14.8971ZM14.8971 25.0909H14.5971V25.8701L15.1196 25.2921L14.8971 25.0909ZM17.7534 21.9315L17.976 22.1327L17.9766 22.132L17.7534 21.9315ZM19.2062 22.0714L18.9292 22.1865L18.9297 22.1879L19.2062 22.0714ZM19.2361 22.3479L18.9411 22.2935L18.9411 22.2935L19.2361 22.3479ZM26.8324 25.7283H26.5324V26.0283H26.8324V25.7283ZM26.8324 25.7283H27.1324V25.4283H26.8324V25.7283ZM26.672 28.3841L26.8616 28.6166L26.8617 28.6165L26.672 28.3841ZM25.5248 29.0323L25.4143 28.7534L25.4143 28.7534L25.5248 29.0323ZM23.7376 29.3822V29.0822H23.7376L23.7376 29.3822ZM21.733 28.8892L21.8829 28.6293L21.8828 28.6293L21.733 28.8892ZM20.4483 27.4792L20.72 27.3519L20.72 27.3519L20.4483 27.4792ZM20.0184 25.4843H20.3184V25.4842L20.0184 25.4843ZM20.4983 23.4051L20.7636 23.5452L20.7637 23.5452L20.4983 23.4051ZM21.9031 22.0104L22.0425 22.276L22.0434 22.2755L21.9031 22.0104ZM23.6576 21.6374L23.6576 21.3374H23.6576V21.6374ZM25.7896 22.2224L25.6078 22.461L25.6086 22.4617L25.7896 22.2224ZM26.3517 22.8132L26.5997 22.6444L26.5994 22.644L26.3517 22.8132ZM26.4824 23.1695L26.1841 23.2016L26.4824 23.1695ZM26.4306 23.5464L26.7091 23.6579L26.7091 23.6579L26.4306 23.5464ZM26.2089 23.8521L26.4009 24.0826H26.4009L26.2089 23.8521ZM25.8712 24.0124L25.8146 23.7178L25.8129 23.7182L25.8712 24.0124ZM25.8695 24.0128L25.9258 24.3074L25.9278 24.307L25.8695 24.0128ZM25.1156 23.6759L25.371 23.5186L25.371 23.5186L25.1156 23.6759ZM24.7246 23.2492L24.5452 23.4896L24.5459 23.4901L24.7246 23.2492ZM23.657 22.9299V22.6299H23.657L23.657 22.9299ZM22.1144 23.5582L22.336 23.7604L22.3362 23.7602L22.1144 23.5582ZM22.1186 27.4231L22.3449 27.2262L22.3449 27.2261L22.1186 27.4231ZM24.5572 27.9032L24.6684 28.1819L24.6685 28.1818L24.5572 27.9032ZM25.3417 27.4512L25.552 27.6652L25.6417 27.577V27.4512H25.3417ZM25.3417 26.5255H25.6417V26.2255H25.3417V26.5255ZM35.512 34.3313L32.1023 14.8837L31.5113 14.9874L34.921 34.435L35.512 34.3313ZM35.4695 35.3998C35.5598 35.051 35.5743 34.6863 35.512 34.3313L34.9211 34.435C34.9686 34.7056 34.9575 34.9836 34.8887 35.2494L35.4695 35.3998ZM34.9883 36.3513C35.2151 36.0734 35.3792 35.7486 35.4695 35.3998L34.8887 35.2494C34.8198 35.5151 34.695 35.7617 34.5234 35.972L34.9883 36.3513ZM34.1562 37.008C34.4777 36.8535 34.7616 36.6292 34.9883 36.3513L34.5234 35.972C34.3519 36.1823 34.1377 36.3512 33.8963 36.4672L34.1562 37.008ZM33.1278 37.2446C33.4837 37.2433 33.8347 37.1625 34.1562 37.008L33.8963 36.4672C33.6549 36.5832 33.392 36.6437 33.1258 36.6446L33.1278 37.2446ZM6.87332 37.2446H33.1268V36.6446H6.87332V37.2446ZM5.01305 36.3512C5.47234 36.9121 6.14978 37.2446 6.87332 37.2446V36.6446C6.33629 36.6446 5.82688 36.3981 5.47729 35.9711L5.01305 36.3512ZM4.53058 35.3982C4.6211 35.7475 4.78559 36.0728 5.01285 36.351L5.47749 35.9713C5.30546 35.7608 5.18036 35.5138 5.1114 35.2477L4.53058 35.3982ZM4.4882 34.328C4.42561 34.6836 4.44007 35.0488 4.53058 35.3982L5.1114 35.2477C5.04244 34.9815 5.03141 34.7031 5.07911 34.432L4.4882 34.328ZM7.89785 14.8837L4.48816 34.3282L5.07915 34.4318L8.48883 14.9874L7.89785 14.8837ZM10.2831 12.8424C9.10234 12.8424 8.1037 13.7107 7.89786 14.8837L8.48883 14.9874C8.64637 14.0897 9.40545 13.4424 10.2831 13.4424V12.8424ZM14.843 12.8424H10.2831V13.4424H14.843V12.8424ZM13.4138 9.47538C13.4138 10.8668 13.8264 12.2087 14.5969 13.314L15.0891 12.9709C14.3914 11.97 14.0138 10.7488 14.0138 9.47538H13.4138ZM20.0001 2.75566C16.3623 2.75566 13.4138 5.77315 13.4138 9.47538H14.0138C14.0138 6.09275 16.7053 3.35566 20.0001 3.35566V2.75566ZM26.5865 9.47696C26.5865 5.77484 23.638 2.75566 20.0001 2.75566V3.35566C23.2948 3.35566 25.9865 6.09423 25.9865 9.47696H26.5865ZM25.4033 13.314C26.1739 12.2087 26.5865 10.8685 26.5865 9.47696H25.9865C25.9865 10.7504 25.6089 11.9699 24.9111 12.9709L25.4033 13.314ZM29.7171 12.8424H25.1572V13.4424H29.7171V12.8424ZM32.1023 14.8837C31.8966 13.7107 30.898 12.8424 29.7171 12.8424V13.4424C30.5949 13.4424 31.3539 14.0897 31.5113 14.9874L32.1023 14.8837ZM33.7314 35.3017C33.5753 35.4922 33.3529 35.6017 33.1268 35.6017V36.2017C33.5484 36.2017 33.9358 35.999 34.1955 35.6819L33.7314 35.3017ZM33.8909 34.9844C33.8607 35.1016 33.8059 35.2101 33.7307 35.3026L34.1962 35.6811C34.3263 35.5211 34.4202 35.3345 34.4719 35.1344L33.8909 34.9844ZM33.905 34.6253C33.926 34.7447 33.9211 34.8673 33.8909 34.9844L34.4719 35.1344C34.5235 34.9343 34.5317 34.7252 34.496 34.5216L33.905 34.6253ZM30.4953 15.1777L33.905 34.6253L34.496 34.5216L31.0863 15.0741L30.4953 15.1777ZM30.2223 14.6943C30.365 14.8166 30.4622 14.9873 30.4953 15.1773L31.0864 15.0744C31.0297 14.7489 30.8626 14.4528 30.6127 14.2387L30.2223 14.6943ZM29.7169 14.5058C29.9008 14.5059 30.0798 14.5721 30.2223 14.6943L30.6127 14.2387C30.3627 14.0244 30.0458 13.906 29.7174 13.9058L29.7169 14.5058ZM22.7871 14.5058H29.7171V13.9058H22.7871V14.5058ZM23.4716 13.0929L22.5745 13.9941L22.9997 14.4174L23.8968 13.5162L23.4716 13.0929ZM24.9543 9.48301C24.9543 10.8507 24.4277 12.1305 23.4714 13.0931L23.8971 13.516C24.9657 12.4402 25.5543 11.0081 25.5543 9.48301H24.9543ZM20.0001 4.41313C22.7255 4.41313 24.9543 6.68168 24.9543 9.48301H25.5543C25.5543 6.36271 23.0691 3.81313 20.0001 3.81313V4.41313ZM15.0459 9.48225C15.0459 6.68098 17.2747 4.41313 20.0001 4.41313V3.81313C16.9311 3.81313 14.4459 6.36189 14.4459 9.48225H15.0459ZM16.5288 13.0932C15.5725 12.1307 15.0459 10.85 15.0459 9.48225H14.4459C14.4459 11.0074 15.0344 12.4404 16.1031 13.5161L16.5288 13.0932ZM17.4257 13.9941L16.5285 13.093L16.1034 13.5163L17.0006 14.4174L17.4257 13.9941ZM10.2831 14.5058H17.2132V13.9058H10.2831V14.5058ZM9.50478 15.1804C9.57409 14.7855 9.90634 14.5058 10.2831 14.5058V13.9058C9.6021 13.9058 9.03122 14.4077 8.91381 15.0767L9.50478 15.1804ZM6.0951 34.6263L9.50479 15.1804L8.9138 15.0768L5.50412 34.5226L6.0951 34.6263ZM6.10922 34.9849C6.07899 34.8679 6.07415 34.7455 6.09508 34.6264L5.50413 34.5226C5.46838 34.726 5.47662 34.935 5.52832 35.135L6.10922 34.9849ZM6.26933 35.3023C6.19423 35.2101 6.13945 35.1018 6.10922 34.9849L5.52832 35.135C5.58001 35.335 5.67401 35.5215 5.80412 35.6812L6.26933 35.3023ZM6.87332 35.6017C6.64719 35.6017 6.42482 35.4922 6.26885 35.3017L5.80459 35.6818C6.06427 35.999 6.45171 36.2017 6.87332 36.2017V35.6017ZM33.1268 35.6017H6.87332V36.2017H33.1268V35.6017ZM20.0026 11.268C19.0492 11.268 18.2621 10.473 18.2621 9.48269H17.6621C17.6621 10.792 18.7056 11.868 20.0026 11.868V11.268ZM21.743 9.48269C21.743 10.473 20.9558 11.268 20.0026 11.268V11.868C21.2994 11.868 22.343 10.792 22.343 9.48269H21.743ZM20.0026 7.69746C20.9558 7.69746 21.743 8.49242 21.743 9.48269H22.343C22.343 8.1734 21.2994 7.09746 20.0026 7.09746V7.69746ZM18.2621 9.48269C18.2621 8.49242 19.0492 7.69746 20.0026 7.69746V7.09746C18.7056 7.09746 17.6621 8.1734 17.6621 9.48269H18.2621ZM17.3526 24.8882L19.3276 22.8005L18.8917 22.3881L16.9168 24.4759L17.3526 24.8882ZM19.8163 28.3352L17.3877 24.521L16.8816 24.8432L19.3102 28.6574L19.8163 28.3352ZM19.94 28.7307C19.9345 28.5902 19.8919 28.4533 19.816 28.3346L19.3105 28.658C19.3286 28.6861 19.3391 28.7194 19.3405 28.7541L19.94 28.7307ZM19.8473 29.1353C19.9136 29.0111 19.9455 28.8713 19.94 28.7307L19.3405 28.7541C19.3418 28.7888 19.3339 28.823 19.318 28.8528L19.8473 29.1353ZM19.162 29.5451C19.4451 29.5451 19.7104 29.3933 19.8476 29.1347L19.3176 28.8534C19.2876 28.91 19.2297 28.9451 19.162 28.9451V29.5451ZM18.4039 29.5451H19.162V28.9451H18.4039V29.5451ZM17.7261 29.1571C17.8688 29.4061 18.1333 29.5451 18.4039 29.5451V28.9451C18.3347 28.9451 18.2757 28.9095 18.2466 28.8587L17.7261 29.1571ZM15.8458 25.8894L17.7263 29.1576L18.2464 28.8583L16.3658 25.5902L15.8458 25.8894ZM15.1129 27.1998L16.3216 25.9482L15.89 25.5314L14.6813 26.783L15.1129 27.1998ZM15.1971 28.4986V26.9914H14.5971V28.4986H15.1971ZM14.1518 29.5546C14.7293 29.5546 15.1971 29.0786 15.1971 28.4986H14.5971C14.5971 28.7537 14.3914 28.9546 14.1518 28.9546V29.5546ZM13.1064 28.4986C13.1064 29.0786 13.5743 29.5546 14.1518 29.5546V28.9546C13.9121 28.9546 13.7064 28.7537 13.7064 28.4986H13.1064ZM13.1064 22.5213V28.4986H13.7064V22.5213H13.1064ZM14.1518 21.4652C13.5743 21.4652 13.1064 21.9413 13.1064 22.5213H13.7064C13.7064 22.2662 13.9121 22.0652 14.1518 22.0652V21.4652ZM15.1971 22.5213C15.1971 21.9413 14.7293 21.4652 14.1518 21.4652V22.0652C14.3914 22.0652 14.5971 22.2662 14.5971 22.5213H15.1971ZM15.1971 25.0909V22.5213H14.5971V25.0909H15.1971ZM17.5309 21.7303L14.6746 24.8897L15.1196 25.2921L17.976 22.1327L17.5309 21.7303ZM18.1149 21.4814C17.9136 21.4814 17.6887 21.5547 17.5303 21.731L17.9766 22.132C17.9994 22.1066 18.0484 22.0814 18.1149 22.0814V21.4814ZM18.7655 21.4814H18.1149V22.0814H18.7655V21.4814ZM19.4832 21.9563C19.3594 21.6583 19.0731 21.4814 18.7655 21.4814V22.0814C18.8423 22.0814 18.9028 22.123 18.9292 22.1865L19.4832 21.9563ZM19.5311 22.4024C19.5589 22.2518 19.5421 22.0961 19.4827 21.955L18.9297 22.1879C18.9436 22.2208 18.9477 22.2577 18.9411 22.2935L19.5311 22.4024ZM19.3254 22.8028C19.432 22.6925 19.5033 22.553 19.5311 22.4024L18.9411 22.2935C18.9345 22.3292 18.9177 22.3612 18.894 22.3858L19.3254 22.8028ZM27.1324 25.7283C27.1324 25.3526 26.8775 24.9168 26.3932 24.9168V25.5168C26.426 25.5168 26.4535 25.5291 26.4794 25.5608C26.5084 25.5964 26.5324 25.6556 26.5324 25.7283H27.1324ZM26.8324 25.4283H26.8324V26.0283H26.8324V25.4283ZM27.1324 28.0014V25.7283H26.5324V28.0014H27.1324ZM26.8617 28.6165C27.0665 28.4494 27.1324 28.2086 27.1324 28.0014H26.5324C26.5324 28.0916 26.505 28.1332 26.4824 28.1516L26.8617 28.6165ZM25.6354 29.3112C26.1417 29.1105 26.5388 28.8799 26.8616 28.6166L26.4825 28.1516C26.2149 28.3698 25.8734 28.5714 25.4143 28.7534L25.6354 29.3112ZM23.7376 29.6822C24.3805 29.6822 25.0136 29.5577 25.6354 29.3112L25.4143 28.7534C24.8593 28.9734 24.301 29.0822 23.7376 29.0822V29.6822ZM21.5831 29.1491C22.2059 29.5082 22.9275 29.6823 23.7377 29.6822L23.7376 29.0822C23.0152 29.0823 22.4004 28.9277 21.8829 28.6293L21.5831 29.1491ZM20.1767 27.6066C20.4886 28.272 20.9586 28.789 21.5831 29.1491L21.8828 28.6293C21.3677 28.3323 20.9812 27.9093 20.72 27.3519L20.1767 27.6066ZM19.7184 25.4843C19.7184 26.2441 19.8702 26.953 20.1767 27.6066L20.72 27.3519C20.4532 26.783 20.3184 26.1619 20.3184 25.4843H19.7184ZM20.233 23.2651C19.8873 23.92 19.7184 24.6623 19.7184 25.4843L20.3184 25.4842C20.3184 24.7463 20.4694 24.1025 20.7636 23.5452L20.233 23.2651ZM21.7636 21.7448C21.0943 22.0962 20.5817 22.6045 20.233 23.2651L20.7637 23.5452C21.0548 22.9936 21.4787 22.572 22.0425 22.276L21.7636 21.7448ZM23.6576 21.3374C22.9238 21.3374 22.2873 21.4676 21.7627 21.7452L22.0434 22.2755C22.4585 22.0558 22.9917 21.9374 23.6576 21.9374V21.3374ZM25.9715 21.9838C25.3898 21.5405 24.6065 21.3375 23.6576 21.3374L23.6576 21.9374C24.5281 21.9375 25.1661 22.1244 25.6078 22.461L25.9715 21.9838ZM26.5994 22.644C26.4265 22.3907 26.2141 22.1674 25.9706 21.9832L25.6086 22.4617C25.8 22.6065 25.9673 22.7823 26.1039 22.9824L26.5994 22.644ZM26.7807 23.1374C26.7617 22.9607 26.6996 22.7912 26.5997 22.6444L26.1037 22.982C26.1478 23.0467 26.1756 23.1222 26.1841 23.2016L26.7807 23.1374ZM26.7091 23.6579C26.7752 23.493 26.7997 23.3141 26.7807 23.1374L26.1841 23.2016C26.1927 23.281 26.1816 23.3612 26.1521 23.4348L26.7091 23.6579ZM26.4009 24.0826C26.5373 23.969 26.643 23.8229 26.7091 23.6579L26.1521 23.4348C26.1227 23.5083 26.076 23.5724 26.0169 23.6216L26.4009 24.0826ZM25.9278 24.307C26.102 24.2736 26.2646 24.1962 26.4009 24.0826L26.0169 23.6216C25.9578 23.6708 25.8883 23.7037 25.8146 23.7178L25.9278 24.307ZM25.9278 24.307L25.9296 24.3067L25.8129 23.7182L25.8111 23.7185L25.9278 24.307ZM25.3194 24.2368C25.5097 24.3218 25.7211 24.3465 25.9258 24.3074L25.8132 23.7181C25.7294 23.7341 25.6428 23.7241 25.5642 23.689L25.3194 24.2368ZM24.8601 23.8332C24.9695 24.0108 25.1292 24.1518 25.3194 24.2368L25.5642 23.689C25.4855 23.6538 25.4179 23.5948 25.371 23.5186L24.8601 23.8332ZM24.5459 23.4901C24.6707 23.5827 24.7775 23.6991 24.8601 23.8332L25.371 23.5186C25.2486 23.3199 25.09 23.1466 24.9033 23.0082L24.5459 23.4901ZM23.657 23.2299C24.0321 23.2299 24.3215 23.3226 24.5452 23.4896L24.904 23.0087C24.5573 22.75 24.135 22.6299 23.657 22.6299V23.2299ZM22.3362 23.7602C22.6524 23.413 23.0812 23.23 23.6571 23.2299L23.657 22.6299C22.9388 22.63 22.3392 22.8659 21.8926 23.3562L22.3362 23.7602ZM21.8409 25.423C21.8409 24.6402 22.0229 24.1036 22.336 23.7604L21.8928 23.356C21.4413 23.8508 21.2409 24.5574 21.2409 25.423H21.8409ZM22.3449 27.2261C22.0251 26.8586 21.8409 26.276 21.8409 25.423H21.2409C21.2409 26.3479 21.4386 27.0986 21.8923 27.62L22.3449 27.2261ZM23.6338 27.7897C23.0884 27.7897 22.6709 27.601 22.3449 27.2262L21.8922 27.6199C22.3393 28.1339 22.9259 28.3897 23.6338 28.3897V27.7897ZM24.446 27.6246C24.1658 27.7364 23.9015 27.7897 23.6338 27.7897V28.3897C23.9858 28.3897 24.3254 28.3187 24.6684 28.1819L24.446 27.6246ZM25.1315 27.2372C24.9963 27.37 24.7506 27.5029 24.4459 27.6246L24.6685 28.1818C24.9866 28.0548 25.3271 27.8862 25.552 27.6652L25.1315 27.2372ZM25.0417 26.5255V27.4512H25.6417V26.5255H25.0417ZM24.3 26.8255H25.3417V26.2255H24.3V26.8255ZM23.3828 25.8711C23.3828 26.3644 23.7734 26.8255 24.3 26.8255V26.2255C24.1448 26.2255 23.9828 26.0745 23.9828 25.8711H23.3828ZM24.3 24.9168C23.7735 24.9168 23.3828 25.3776 23.3828 25.8711H23.9828C23.9828 25.6676 24.1448 25.5168 24.3 25.5168V24.9168ZM26.3932 24.9168H24.3V25.5168H26.3932V24.9168Z" fill="#FF8B02" mask="url(#path-1-outside-1_1441_43955)"/>
</svg>
