<svg width="40" height="40" viewBox="0 0 40 40" fill="none" xmlns="http://www.w3.org/2000/svg">
<path fill-rule="evenodd" clip-rule="evenodd" d="M33.2865 12.675L32.665 14.145H32L34.275 9L36.55 14.145H35.885L35.2603 12.675H33.2865ZM35.0256 12.115H33.5263L34.275 10.351L35.0256 12.115ZM37.5344 10.925V12.885C37.5344 13.1417 37.5927 13.34 37.7094 13.48C37.826 13.62 37.9964 13.69 38.2204 13.69C38.3837 13.69 38.526 13.6573 38.6474 13.592C38.7734 13.522 38.869 13.4263 38.9344 13.305C39.0044 13.1837 39.0394 13.0437 39.0394 12.885V10.925H39.5994V14.145H39.0394V13.641C38.932 13.8323 38.799 13.977 38.6404 14.075C38.4817 14.1683 38.295 14.215 38.0804 14.215C37.7444 14.215 37.476 14.1007 37.2754 13.872C37.0747 13.6433 36.9744 13.3377 36.9744 12.955V10.925H37.5344ZM32 21.115V16.215H32.595V21.115H32ZM33.6808 17.895H34.2408V18.2632C34.3104 18.1596 34.3898 18.0718 34.4788 18C34.6235 17.8833 34.7705 17.825 34.9198 17.825C35.0365 17.825 35.1438 17.8413 35.2418 17.874C35.3445 17.902 35.4378 17.9603 35.5218 18.049L35.2138 18.511C35.1392 18.455 35.0715 18.4153 35.0108 18.392C34.9502 18.364 34.8732 18.35 34.7798 18.35C34.6398 18.35 34.5302 18.385 34.4508 18.455C34.3715 18.525 34.3155 18.6207 34.2828 18.742C34.2548 18.8633 34.2408 19.001 34.2408 19.155V21.115H33.6808V17.895ZM32.63 25.635C32.63 25.2663 32.7093 24.9373 32.868 24.648C33.0313 24.3587 33.253 24.13 33.533 23.962C33.813 23.794 34.1303 23.71 34.485 23.71C34.8443 23.71 35.1617 23.794 35.437 23.962C35.717 24.13 35.9363 24.3587 36.095 24.648C36.2583 24.9373 36.34 25.2663 36.34 25.635C36.34 26.0037 36.2583 26.3327 36.095 26.622C35.9363 26.9113 35.717 27.14 35.437 27.308C35.1617 27.476 34.8443 27.56 34.485 27.56C34.1303 27.56 33.813 27.476 33.533 27.308C33.253 27.14 33.0313 26.9113 32.868 26.622C32.7093 26.3327 32.63 26.0037 32.63 25.635ZM32 25.635C32 25.9897 32.0607 26.321 32.182 26.629C32.308 26.937 32.483 27.2053 32.707 27.434C32.931 27.658 33.1947 27.8353 33.498 27.966C33.8013 28.092 34.1303 28.155 34.485 28.155C34.8443 28.155 35.1733 28.092 35.472 27.966C35.7753 27.8353 36.039 27.658 36.263 27.434C36.487 27.2053 36.6597 26.937 36.781 26.629C36.907 26.321 36.97 25.9897 36.97 25.635C36.97 25.2757 36.907 24.9443 36.781 24.641C36.6597 24.333 36.487 24.067 36.263 23.843C36.039 23.6143 35.7753 23.437 35.472 23.311C35.1733 23.1803 34.8443 23.115 34.485 23.115C34.1303 23.115 33.8013 23.1803 33.498 23.311C33.1947 23.437 32.931 23.6143 32.707 23.843C32.483 24.067 32.308 24.333 32.182 24.641C32.0607 24.9443 32 25.2757 32 25.635ZM37.9083 27.098L37.4673 27.371C37.5279 27.497 37.6166 27.6207 37.7333 27.742C37.8546 27.8633 38.0016 27.9637 38.1743 28.043C38.3469 28.1177 38.5406 28.155 38.7553 28.155C39.0866 28.155 39.3526 28.0617 39.5533 27.875C39.7586 27.6883 39.8613 27.455 39.8613 27.175C39.8613 26.9837 39.8146 26.8273 39.7213 26.706C39.6326 26.5847 39.5113 26.482 39.3573 26.398C39.2033 26.3093 39.0329 26.2277 38.8463 26.153C38.7343 26.1063 38.6269 26.0573 38.5243 26.006C38.4216 25.9547 38.3376 25.8963 38.2723 25.831C38.2069 25.7657 38.1743 25.691 38.1743 25.607C38.1743 25.4997 38.2163 25.4203 38.3003 25.369C38.3843 25.3177 38.4846 25.292 38.6013 25.292C38.7693 25.292 38.9186 25.3317 39.0493 25.411C39.1846 25.4903 39.2966 25.5907 39.3853 25.712L39.8333 25.425C39.7679 25.3037 39.6769 25.1963 39.5603 25.103C39.4436 25.0097 39.3083 24.935 39.1543 24.879C39.0049 24.823 38.8439 24.795 38.6713 24.795C38.4986 24.795 38.3306 24.8253 38.1673 24.886C38.0086 24.9467 37.8779 25.04 37.7753 25.166C37.6773 25.292 37.6283 25.4507 37.6283 25.642C37.6283 25.8287 37.6749 25.985 37.7683 26.111C37.8663 26.2323 37.9853 26.3327 38.1253 26.412C38.2699 26.4867 38.4123 26.552 38.5523 26.608C38.6783 26.6547 38.7973 26.706 38.9093 26.762C39.0213 26.8133 39.1123 26.8787 39.1823 26.958C39.2569 27.0327 39.2943 27.126 39.2943 27.238C39.2943 27.364 39.2476 27.4643 39.1543 27.539C39.0656 27.609 38.9419 27.644 38.7833 27.644C38.6526 27.644 38.5313 27.6207 38.4193 27.574C38.3119 27.5227 38.2163 27.455 38.1323 27.371C38.0483 27.287 37.9736 27.196 37.9083 27.098ZM6.0707 11L6.78882 11.3379L7.78765 11.808L8.47099 12.1255L9.17093 12.4507L8.82577 13.1411L8.25406 14.2845L6.31341 18.8579L10.3921 14.4498L10.6472 14.1742L11.0207 14.2133L10.9426 14.9592L11.0207 14.2133L11.0208 14.2133L11.0212 14.2133L11.0226 14.2135L11.028 14.214L11.049 14.2162L11.1299 14.2248C11.2005 14.2324 11.3033 14.2434 11.433 14.2576C11.6924 14.286 12.0593 14.3268 12.4902 14.3768C13.351 14.4767 14.471 14.6134 15.4992 14.7603C16.4811 14.9006 17.9279 14.9989 19.1497 15.062C19.7562 15.0933 20.2999 15.1156 20.6918 15.1301C20.8877 15.1373 21.0456 15.1426 21.1542 15.146L21.2789 15.1499L21.3109 15.1508L21.3189 15.151L21.3208 15.1511L21.3213 15.1511L21.3214 15.1511L22.0507 15.1713V15.9008V16.0975L23.5599 16.6805L24.0396 16.8658V17.3801V21.6612V22.1106L23.6433 22.3225L22.3094 23.036L22.1436 23.1247H22.0507V23.6543H21.3007H14.0716V23.9486L13.6956 24.165C13.6387 24.1977 13.4957 24.2887 13.3441 24.4023C13.1806 24.5249 13.0719 24.6261 13.0323 24.6773C12.9643 24.7654 12.8838 24.9051 12.8201 25.0485C12.7894 25.1176 12.7681 25.1753 12.7559 25.2153L12.7527 25.2263V25.2263V25.2269V25.2274V25.228V25.2286V25.2291V25.2297V25.2302V25.2308V25.2313V25.2319V25.2324V25.2329V25.2334V25.234V25.2345V25.235V25.2355V25.236V25.2365V25.237V25.2375V25.238V25.2385V25.239V25.2395V25.2395V25.2397V25.2399V25.24V25.2401V25.2404V25.2405V25.2406V25.2408V25.2409V25.2411V25.2413V25.2414V25.2415V25.2418V25.2419V25.242V25.2422V25.2423V25.2425V25.2427V25.2428V25.2429V25.2432V25.2432V25.2434V25.2436V25.2437V25.2439V25.2441V25.2441V25.2443V25.2446V25.2446V25.2448V25.245V25.2453V25.2455V25.2457V25.2459V25.246V25.2462V25.2463V25.2464V25.2466V25.2468V25.2469V25.2471V25.2472V25.2473V25.2476V25.2476V25.2478V25.248V25.248V25.2483V25.2485V25.2485V25.2487V25.2489V25.2489V25.2492V25.2493V25.2494V25.2496V25.2497V25.2499V25.2501V25.2503V25.2505V25.2505V25.2508V25.2509V25.251V25.2512V25.2513V25.2514V25.2517V25.2519V25.2521V25.2521V25.2523V25.2524V25.2526V25.2528V25.2528V25.253V25.2532V25.2532V25.2535V25.2536V25.2537V25.2539V25.254V25.2541V25.2543V25.2543V25.2546V25.2547V25.2548V25.255V25.255V25.2552V25.2554V25.2554V25.2556V25.2558V25.2559V25.2561V25.2561V25.2563V25.2565V25.2565V25.2567V25.2568V25.2569V25.2572V25.2574V25.2575V25.2576V25.2578V25.2578V25.258V25.2582V25.2582V25.2584V25.2585V25.2586V25.2588V25.2588V25.259V25.2591V25.2593V25.2595V25.2597V25.2598V25.2599V25.2601V25.2603V25.2604V25.2605V25.2607V25.2607V25.2609V25.261V25.2611V25.2613V25.2613V25.2615V25.2616V25.2617V25.2619V25.2619V25.2621V25.2622V25.2623V25.2625V25.2625V25.2627V25.2628V25.2629V25.2631V25.2633V25.2633V25.2634V25.2636V25.2638V25.2639V25.264V25.2642V25.2642V25.2644V25.2644V25.2646V25.2647V25.2648V25.2649V25.265V25.2651V25.2652V25.2653V25.2655V25.2657V25.2657V25.2659V25.266V25.266V25.2662V25.2663V25.2664V25.2665V25.2666V25.2667V25.2669V25.267V25.2671V25.2672V25.2673V25.2674V25.2675V25.2676V25.2677V25.2678V25.2679V25.2679V25.2681V25.2681V25.2683V25.2684V25.2684V25.2686V25.2686V25.2688V25.2688V25.2689V25.269V25.2691V25.2692V25.2693V25.2694V25.2694V25.2696V25.2697V25.2697V25.2699V25.2699V25.27V25.2701V25.2702V25.2703V25.2703V25.2705V25.2705V25.2707V25.2708V25.2708V25.2709V25.271V25.2711V25.2712V25.2714V25.2714V25.2715V25.2716V25.2717V25.2718V25.2718V25.2719V25.2721V25.2721V25.2722V25.2723V25.2723V25.2724V25.2725V25.2726V25.2727V25.2728V25.2729V25.2729V25.273V25.2731V25.2731V25.2732V25.2734V25.2734V25.2735V25.2735V25.2736V25.2737V25.2737V25.2738V25.2739V25.274V25.2741V25.2741V25.2742V25.2743V25.2743V25.2744V25.2744V25.2745V25.2746V25.2747V25.2748V25.2749V25.2749V25.275V25.275V25.2751V25.2751V25.2752V25.2753V25.2754V25.2755V25.2755V25.2756V25.2756V25.2756V25.2757V25.2757V25.2758V25.2758V25.2759V25.276V25.2761V25.2761V25.2762V25.2762V25.2763V25.2763V25.2763V25.2764V25.2764V25.2765V25.2765V25.2766V25.2766V25.2767V25.2768V25.2768V25.2769V25.2769V25.2769V25.277V25.277V25.277V25.2771V25.2771V25.2771V25.2772V25.2772V25.2772V25.2773V25.2774V25.2774V25.2775V25.2775V25.2776V25.2776V25.2776V25.2776V25.2777V25.2777V25.2777V25.2777V25.2777V25.2778V25.2778V25.2778V25.2779V25.2779V25.2779V25.278V25.278V25.278V25.278V25.2781V25.2781V25.2781V25.2781V25.2781V25.2782V25.2782L12.1389 25.2782C12.0949 25.4324 12.0486 25.6001 12.0027 25.7764V25.9895H11.9486C11.791 26.6266 11.6522 27.3462 11.6522 27.9428C11.6522 28.5036 11.7174 28.9435 11.7849 29.3002C11.8021 29.3908 11.8193 29.4761 11.8364 29.5598L11.8403 29.5788C11.8557 29.6545 11.8714 29.7314 11.8851 29.804C11.9133 29.9531 11.9437 30.1346 11.9437 30.3139C11.9437 30.6143 11.8589 30.8887 11.7787 31.085C11.6968 31.2857 11.5968 31.4597 11.5159 31.5748L11.2919 31.8937H10.9022H7.11296H6.85961L6.65816 31.7401C6.55034 31.6579 6.38885 31.5204 6.24874 31.3321C6.10995 31.1456 5.95463 30.8579 5.95424 30.4925C5.95389 30.1616 6.03366 29.7767 6.12737 29.423C6.22485 29.0551 6.35432 28.6606 6.48508 28.2904C6.61631 27.9188 6.75255 27.5613 6.8649 27.2684L6.89322 27.1946C6.99527 26.9287 7.06629 26.7435 7.09951 26.6422C7.13849 26.5233 7.19106 26.3711 7.25248 26.1932C7.35775 25.8884 7.48905 25.5082 7.62258 25.0911C7.7229 24.7779 7.81198 24.4806 7.87178 24.2425C7.90181 24.1229 7.92161 24.0293 7.93226 23.9623L7.93456 23.9472L7.92874 23.9357C7.90596 23.8919 7.87018 23.8358 7.82165 23.7711C7.79128 23.7307 7.75921 23.6913 7.72739 23.6543H2.5267H2.40499L2.28952 23.6158C2.0818 23.5465 1.77378 23.4069 1.51389 23.1868C1.26871 22.9793 0.891599 22.5381 1.02947 21.9176C1.09801 21.6092 1.32602 21.0919 1.52873 20.6561C1.74781 20.1851 1.99376 19.6931 2.1541 19.3824L2.25418 19.1884L2.44271 19.0784L2.92725 18.7958L5.77389 11.7361L6.0707 11ZM22.0507 21.4733V17.7055L22.5396 17.8944V21.2118L22.0507 21.4733ZM11.2372 15.7452L5.66636 21.7658L5.43777 22.0128L5.10124 22.0063L4.60853 21.9966L3.87316 21.9823V21.2468V20.8878V20.7271L3.93896 20.5806L4.19307 20.0146L6.88237 13.677L6.89151 13.6555L6.90196 13.6346L7.13899 13.1605L6.86825 13.0331L4.22243 19.5947L4.12645 19.8328L3.90475 19.9621L3.38839 20.2633C3.24226 20.5517 3.05646 20.9283 2.88879 21.2888C2.72859 21.6332 2.60912 21.9127 2.54441 22.0867C2.56622 22.1008 2.59098 22.1153 2.61826 22.1296C2.63539 22.1386 2.65219 22.1468 2.66827 22.1543H20.5507V16.6258C20.1615 16.6112 19.6448 16.5895 19.0723 16.56C17.8498 16.4968 16.3428 16.3961 15.2871 16.2452C14.2778 16.1011 13.1725 15.966 12.3174 15.8668C11.8903 15.8173 11.5267 15.7768 11.2699 15.7487L11.2372 15.7452ZM9.25797 19.75H9.33438H19H19.25L19.25 20L19.2499 20.9882L19.2498 21.2364L19.0017 21.2382C17.1647 21.2515 14.4138 21.2515 12.1228 21.2482C10.9771 21.2465 9.94623 21.244 9.20174 21.2419L8.32125 21.2393L8.08234 21.2385L8.02025 21.2383L8.00443 21.2382L8.00044 21.2382L7.99943 21.2382L7.99918 21.2382L8 20.9882L7.84737 20.7902L7.84741 20.7902L7.84754 20.7901L7.84806 20.7897L7.85008 20.7881L7.85791 20.7821L7.88786 20.7591L7.9977 20.6749C8.09035 20.6042 8.2183 20.5068 8.35947 20.4005C8.64004 20.1892 8.97862 19.9384 9.19461 19.7927L9.25797 19.75ZM8 20.9882L7.99909 21.2382L7.26971 21.2356L7.84736 20.7902L8 20.9882ZM8.73923 20.7406L9.20313 20.7419C9.94746 20.744 10.9781 20.7465 12.1235 20.7482C14.3134 20.7513 16.9218 20.7515 18.7499 20.7399L18.75 20.25H9.41167C9.22823 20.3769 8.97352 20.5648 8.73923 20.7406ZM9.42935 23.7484C9.42489 23.7167 9.41922 23.6854 9.41247 23.6544H11.1373C11.0301 23.8394 10.941 24.0347 10.8824 24.2333C10.8703 24.2746 10.8558 24.3228 10.8394 24.3774C10.6384 25.0474 10.1522 26.6676 10.1522 27.9428C10.1522 28.6268 10.2328 29.165 10.311 29.5789C10.3303 29.6809 10.3495 29.7753 10.3666 29.8593L10.3699 29.8757C10.386 29.9544 10.3996 30.0212 10.4112 30.0828C10.4377 30.2226 10.4437 30.2856 10.4437 30.3139C10.4437 30.3302 10.4404 30.3573 10.4314 30.3937H7.45947C7.47233 30.2594 7.5095 30.0632 7.57734 29.8072C7.66018 29.4945 7.77497 29.1424 7.89946 28.7899C8.02348 28.4388 8.15348 28.0974 8.26542 27.8056L8.29975 27.7161C8.39366 27.4716 8.47916 27.2489 8.52487 27.1095C8.54741 27.0407 8.59033 26.9161 8.64475 26.758C8.75716 26.4314 8.91866 25.9623 9.05114 25.5486C9.15486 25.2246 9.25524 24.8921 9.32661 24.6078C9.36216 24.4663 9.39337 24.3255 9.41369 24.1976C9.43081 24.0898 9.45318 23.9181 9.42935 23.7484ZM30.0438 14.1146L25.0178 17.7047L24.4366 16.8909L29.4626 13.3009L30.0438 14.1146ZM25.0178 21.1989L30.0438 24.7889L29.4626 25.6027L24.4366 22.0127L25.0178 21.1989ZM29.7532 19.4518H24.7272V18.4518H29.7532V19.4518Z" fill="#FF8B02"/>
</svg>
