<svg width="19" height="19" viewBox="0 0 19 19" fill="none" xmlns="http://www.w3.org/2000/svg">
<path d="M15.4117 11.6777C14.7852 11.0593 14.0032 11.0593 13.3807 11.6777C12.9059 12.1485 12.4311 12.6193 11.9642 13.0981C11.8366 13.2298 11.7288 13.2577 11.5732 13.17C11.266 13.0024 10.9388 12.8667 10.6435 12.6832C9.26694 11.8174 8.11381 10.7042 7.09235 9.45131C6.58561 8.82887 6.13473 8.16255 5.81952 7.41244C5.75567 7.26082 5.76765 7.16107 5.89134 7.03738C6.36616 6.57853 6.82901 6.10772 7.29584 5.6369C7.94623 4.98254 7.94623 4.21647 7.29185 3.55813C6.92078 3.18307 6.5497 2.81599 6.17862 2.44093C5.79558 2.0579 5.41652 1.67087 5.02948 1.29182C4.40304 0.681359 3.62098 0.681359 2.99853 1.29581C2.51972 1.76663 2.06086 2.24942 1.57407 2.71225C1.1232 3.13918 0.895761 3.66187 0.84788 4.27233C0.772069 5.26583 1.01546 6.20348 1.35861 7.11718C2.06086 9.00842 3.1302 10.6882 4.42698 12.2283C6.17862 14.3111 8.26942 15.9589 10.7153 17.148C11.8166 17.6826 12.9578 18.0936 14.1987 18.1614C15.0526 18.2093 15.7947 17.9938 16.3892 17.3275C16.7962 16.8727 17.2551 16.4577 17.686 16.0228C18.3244 15.3764 18.3284 14.5944 17.694 13.956C16.9359 13.1939 16.1738 12.4358 15.4117 11.6777Z" fill="#FBFBFB"/>
</svg>
