<svg width="32" height="32" viewBox="0 0 32 32" fill="none" xmlns="http://www.w3.org/2000/svg">
<path d="M7.19048 3V5.26087H5V29H28V9.78261H19.2381V5.26087H17.0476V3H7.19048ZM8.28571 4.13043H15.9524V6.3913H18.1429V27.8696H13.2143V23.913H11.0238V27.8696H6.09524V6.3913H8.28571V4.13043ZM8.28571 7.52174V8.65217H9.38095V7.52174H8.28571ZM10.4762 7.52174V8.65217H11.5714V7.52174H10.4762ZM12.6667 7.52174V8.65217H13.7619V7.52174H12.6667ZM14.8571 7.52174V8.65217H15.9524V7.52174H14.8571ZM8.28571 10.3478V12.6087H9.38095V10.3478H8.28571ZM10.4762 10.3478V12.6087H11.5714V10.3478H10.4762ZM12.6667 10.3478V12.6087H13.7619V10.3478H12.6667ZM14.8571 10.3478V12.6087H15.9524V10.3478H14.8571ZM19.2381 10.913H26.9048V27.8696H19.2381V10.913ZM20.3333 12.0435V13.1739H21.4286V12.0435H20.3333ZM22.5238 12.0435V13.1739H23.619V12.0435H22.5238ZM24.7143 12.0435V13.1739H25.8095V12.0435H24.7143ZM8.28571 13.7391V16H9.38095V13.7391H8.28571ZM10.4762 13.7391V16H11.5714V13.7391H10.4762ZM12.6667 13.7391V16H13.7619V13.7391H12.6667ZM14.8571 13.7391V16H15.9524V13.7391H14.8571ZM20.3333 14.3043V15.4348H21.4286V14.3043H20.3333ZM22.5238 14.3043V15.4348H23.619V14.3043H22.5238ZM24.7143 14.3043V15.4348H25.8095V14.3043H24.7143ZM20.3333 16.5652V17.6957H21.4286V16.5652H20.3333ZM22.5238 16.5652V17.6957H23.619V16.5652H22.5238ZM24.7143 16.5652V17.6957H25.8095V16.5652H24.7143ZM8.28571 17.1304V19.3913H9.38095V17.1304H8.28571ZM10.4762 17.1304V19.3913H11.5714V17.1304H10.4762ZM12.6667 17.1304V19.3913H13.7619V17.1304H12.6667ZM14.8571 17.1304V19.3913H15.9524V17.1304H14.8571ZM20.3333 18.8261V19.9565H21.4286V18.8261H20.3333ZM22.5238 18.8261V19.9565H23.619V18.8261H22.5238ZM24.7143 18.8261V19.9565H25.8095V18.8261H24.7143ZM8.28571 20.5217V22.7826H9.38095V20.5217H8.28571ZM10.4762 20.5217V22.7826H11.5714V20.5217H10.4762ZM12.6667 20.5217V22.7826H13.7619V20.5217H12.6667ZM14.8571 20.5217V22.7826H15.9524V20.5217H14.8571ZM20.3333 21.087V22.2174H21.4286V21.087H20.3333ZM22.5238 21.087V22.2174H23.619V21.087H22.5238ZM24.7143 21.087V22.2174H25.8095V21.087H24.7143ZM20.3333 23.3478V24.4783H21.4286V23.3478H20.3333ZM22.5238 23.3478V24.4783H23.619V23.3478H22.5238ZM24.7143 23.3478V24.4783H25.8095V23.3478H24.7143ZM8.28571 23.913V26.7391H9.38095V23.913H8.28571ZM14.8571 23.913V26.7391H15.9524V23.913H14.8571ZM20.3333 25.6087V26.7391H21.4286V25.6087H20.3333ZM22.5238 25.6087V26.7391H23.619V25.6087H22.5238ZM24.7143 25.6087V26.7391H25.8095V25.6087H24.7143Z" fill="#FF8B02"/>
</svg>
