<svg width="40" height="41" viewBox="0 0 40 41" fill="none" xmlns="http://www.w3.org/2000/svg">
<path d="M24.5482 26.6445L25.2641 27.3426C26.1191 26.4658 26.9897 25.6025 27.8673 24.7323L27.868 24.7316C28.2918 24.3105 28.6975 24.1659 29.0352 24.1659C29.373 24.1659 29.7811 24.3108 30.209 24.7327C31.6156 26.132 33.0201 27.529 34.4168 28.9331C34.856 29.375 35.0014 29.7872 35 30.1263C34.9986 30.4672 34.848 30.8872 34.4008 31.3403C34.1565 31.5869 33.8926 31.8435 33.6209 32.1076C33.0703 32.6431 32.4878 33.2095 31.9721 33.7858L31.9712 33.7868C31.1227 34.7378 30.0785 35.0693 28.7293 34.9937L28.7279 34.9936C26.6246 34.8786 24.655 34.1807 22.6797 33.2217C18.2936 31.0896 14.5445 28.1358 11.3985 24.3951L11.3982 24.3946C9.06023 21.618 7.15373 18.6149 5.90601 15.2547L5.9047 15.2512C5.29275 13.6217 4.89908 12.0506 5.02267 10.4279C5.0937 9.52479 5.41785 8.79894 6.05388 8.19671L6.05537 8.19529C6.59984 7.67761 7.14564 7.12652 7.67895 6.58803C8.02489 6.23875 8.36556 5.89476 8.69722 5.56865L8.69861 5.56728C9.12166 5.14966 9.52852 5.00439 9.86947 5.00391C10.2108 5.00342 10.6199 5.14792 11.0468 5.56365C11.5181 6.02521 11.9788 6.48918 12.4452 6.95881C12.6807 7.19592 12.9176 7.43448 13.158 7.6749C13.502 8.0225 13.8456 8.36611 14.187 8.70754L14.1875 8.70805C14.5304 9.05088 14.871 9.39152 15.2114 9.73552L15.213 9.73715C15.681 10.208 15.8287 10.6256 15.8292 10.9552C15.8297 11.2844 15.6835 11.6989 15.2203 12.165L15.2195 12.1658C15.095 12.2914 14.971 12.4166 14.8472 12.5416C14.11 13.286 13.384 14.019 12.6417 14.7363L12.6356 14.7423L12.6296 14.7483C12.4372 14.9407 12.2242 15.2204 12.1557 15.6085C12.0886 15.9892 12.1894 16.3147 12.2822 16.5352C12.9137 18.0381 13.8076 19.3508 14.7784 20.5433L14.7789 20.5438C16.7137 22.9169 18.921 25.0541 21.5775 26.7249L21.582 26.7277C21.8978 26.9241 22.2214 27.0891 22.516 27.235C22.5824 27.2678 22.6467 27.2995 22.7094 27.3303C22.935 27.4413 23.1397 27.5419 23.3424 27.6523C23.6083 27.8008 23.9754 27.9288 24.4027 27.8433C24.8078 27.7623 25.09 27.5222 25.266 27.3407L24.5482 26.6445ZM24.5482 26.6445C25.41 25.7606 26.2866 24.8914 27.1632 24.0222L32.7174 34.4526C31.6198 35.6827 30.2497 36.0805 28.6733 35.9921C26.3824 35.8669 24.2756 35.1082 22.2425 34.1211C17.727 31.926 13.867 28.8838 10.6332 25.0387C8.23918 22.1954 6.26501 19.0943 4.96854 15.6027C4.33504 13.9159 3.88569 12.1849 4.02565 10.3507C4.11405 9.22371 4.53393 8.25875 5.36632 7.47058C5.90544 6.95798 6.42601 6.43214 6.9471 5.90576C7.29464 5.55469 7.64242 5.20338 7.99609 4.85561M24.5482 26.6445C24.3124 26.8876 24.1135 26.9392 23.8263 26.7771C23.6015 26.6545 23.3709 26.5412 23.1405 26.4279C22.7896 26.2554 22.439 26.083 22.1099 25.8785C19.5685 24.28 17.4397 22.2249 15.5539 19.9119C14.6184 18.7628 13.786 17.5327 13.2041 16.1478C13.0862 15.8679 13.1083 15.6838 13.3367 15.4554C14.0875 14.7299 14.822 13.9881 15.5589 13.244C15.6824 13.1194 15.8059 12.9947 15.9296 12.8699C17.1303 11.6619 17.1303 10.2476 15.9222 9.03219C15.5797 8.68599 15.2372 8.34347 14.8946 8.00095C14.5521 7.65842 14.2096 7.31589 13.867 6.96968C13.6313 6.73396 13.3964 6.49742 13.1615 6.26088C12.6917 5.78782 12.2219 5.31476 11.7455 4.84825C10.589 3.72123 9.14523 3.72123 7.99609 4.85561M7.99609 4.85561L7.9961 4.85563L7.99609 4.85561Z" stroke="#FF8B02" stroke-width="2"/>
</svg>
