<svg width="40" height="41" viewBox="0 0 40 41" fill="none" xmlns="http://www.w3.org/2000/svg">
<g clip-path="url(#clip0_1229_35592)">
<path d="M32.2235 12.8099L25.2789 4.98171C25.004 4.64136 24.6636 4.50391 24.2578 4.50391H7.7833C7.03713 4.50391 6.42188 5.11917 6.42188 5.86533V35.1425C6.42188 35.8886 7.03713 36.5039 7.7833 36.5039H31.2089C31.9551 36.5039 32.5049 35.8886 32.5704 35.2079V13.7001C32.5638 13.3597 32.4329 13.0848 32.2235 12.8099ZM25.5538 9.32125L28.2177 12.3386H25.5538V9.32125ZM29.841 33.8531H9.14472V7.1613H22.8964V13.6281C22.8964 14.3742 23.5117 14.9895 24.2578 14.9895H29.841V33.8531Z" fill="#FF8B02"/>
<path d="M12.4141 19.8927C12.4141 20.6388 13.0293 21.2541 13.7755 21.2541H25.2167C25.9628 21.2541 26.5781 20.6388 26.5781 19.8927C26.5781 19.1465 25.9628 18.5312 25.2167 18.5312H13.7755C13.0293 18.5313 12.4141 19.1465 12.4141 19.8927Z" fill="#FF8B02"/>
<path d="M25.2167 26.9746H13.7755C13.0293 26.9746 12.4141 27.5899 12.4141 28.336C12.4141 29.0822 13.0293 29.6975 13.7755 29.6975H25.2167C25.9628 29.6975 26.5781 29.0822 26.5781 28.336C26.5781 27.5899 25.9628 26.9746 25.2167 26.9746Z" fill="#FF8B02"/>
</g>
<defs>
<clipPath id="clip0_1229_35592">
<rect width="32" height="32" fill="white" transform="translate(3.5 4.50391)"/>
</clipPath>
</defs>
</svg>
