<svg width="40" height="40" viewBox="0 0 40 40" fill="none" xmlns="http://www.w3.org/2000/svg">
<path d="M30.1745 6.16797L26.2791 10.0634L26.6413 10.4395C26.3833 10.6478 26.1222 10.8511 25.8687 11.0316C25.4597 11.3237 25.067 11.5581 24.8009 11.668C24.7837 11.6757 24.7113 11.696 24.5677 11.6954C24.3384 11.6979 23.9547 11.6395 23.4846 11.5677C23.0126 11.4966 22.4479 11.4191 21.8114 11.4184C21.2561 11.4166 20.6437 11.4839 19.999 11.6611C19.3555 11.4845 18.7444 11.4184 18.1905 11.4191C17.5533 11.4191 16.9886 11.4966 16.5166 11.5684C16.0465 11.6402 15.6634 11.6987 15.4341 11.6961C15.2899 11.6973 15.2181 11.6758 15.2035 11.6687C14.9195 11.5525 14.4913 11.2933 14.0505 10.9725C13.8225 10.8067 13.59 10.625 13.3594 10.4383L13.7209 10.0634L9.82547 6.16805L0 16.3447L3.89539 20.2401L5.03562 19.0591L7.5525 21.2558C7.62297 21.677 7.75578 22.0746 7.90891 22.452C8.00859 22.6922 8.11789 22.9234 8.22977 23.1406C7.98641 23.5434 7.85367 24.0034 7.85492 24.4696C7.8543 24.9321 7.98133 25.4047 8.24242 25.8246C8.63945 26.463 9.27539 26.8645 9.96203 26.9916C9.96594 27.4458 10.0917 27.9089 10.3477 28.3205C10.8337 29.1019 11.6748 29.5352 12.5323 29.5338C12.5654 29.5338 12.5991 29.5287 12.632 29.5275C12.6752 29.8909 12.7947 30.253 12.9992 30.582C13.4852 31.3634 14.3269 31.7966 15.1832 31.7953C15.2684 31.7953 15.3529 31.7864 15.4386 31.7781C15.4792 32.1053 15.5879 32.4318 15.7715 32.7266C16.2143 33.4381 16.9804 33.8332 17.7598 33.8313C18.1803 33.832 18.611 33.7176 18.9934 33.48L20.1611 32.7534C20.3911 32.902 20.6324 33.0328 20.8859 33.1395C21.3579 33.3384 21.868 33.4603 22.3984 33.4609C22.9803 33.4635 23.5946 33.3041 24.1231 32.9324C24.4674 32.6923 24.759 32.3632 24.9978 31.9752C25.0347 31.9764 25.0645 31.9828 25.1027 31.9834C25.3447 31.9834 25.6102 31.9472 25.8733 31.8652C26.1381 31.7846 26.4012 31.6638 26.682 31.5032C27.3515 31.1259 27.753 30.5706 27.948 30.0948C27.9912 29.9907 28.0223 29.8928 28.0503 29.7982C28.2123 29.7468 28.3673 29.6838 28.5077 29.6026C29.0254 29.3046 29.3627 28.8517 29.5705 28.3969C29.7788 27.9375 29.8703 27.4605 29.8716 27.0019C29.8716 26.9567 29.8659 26.9129 29.8639 26.8684C30.2025 26.73 30.5067 26.5375 30.7659 26.3107C31.0315 26.0781 31.2545 25.8076 31.4202 25.4988C31.5855 25.1914 31.696 24.8395 31.6966 24.4539C31.6973 24.203 31.6458 23.9387 31.5334 23.6909C31.4971 23.6122 31.4457 23.5398 31.3987 23.4667C31.5963 23.1128 31.7976 22.714 31.9627 22.2833C32.0866 21.9573 32.1909 21.6156 32.2505 21.2566L34.8748 18.9666L36.1046 20.2402L40 16.3447L30.1745 6.16797ZM10.8394 25.0331L10.7942 25.0617C10.6767 25.1342 10.5534 25.1666 10.4264 25.1672C10.1907 25.1659 9.96453 25.0509 9.8318 24.8369C9.75937 24.7194 9.72633 24.5955 9.72633 24.4697C9.72758 24.2327 9.84195 24.0078 10.0554 23.8751L11.5984 22.9165C11.7159 22.8434 11.8392 22.8117 11.9649 22.8104C12.2019 22.8129 12.4268 22.926 12.5602 23.1413L13.3549 22.6477L12.5602 23.142C12.6327 23.2588 12.665 23.382 12.6657 23.5079C12.6644 23.673 12.6053 23.8306 12.4987 23.9577L11.1734 24.7809C11.0528 24.8559 10.9429 24.9429 10.8394 25.0331ZM12.8995 27.5569C12.782 27.6294 12.6587 27.6624 12.5323 27.6624C12.2959 27.6612 12.0698 27.5468 11.937 27.3327C11.8645 27.2152 11.8322 27.0907 11.8316 26.9649C11.8321 26.8011 11.8912 26.6435 11.9973 26.5177L13.3231 25.6926C13.4432 25.6182 13.5519 25.5319 13.6554 25.4416L13.7037 25.4124C13.8212 25.3394 13.9451 25.307 14.0702 25.307C14.3078 25.3082 14.532 25.4226 14.6654 25.6373C14.7378 25.7548 14.7702 25.8773 14.7709 26.0038C14.7696 26.2395 14.6559 26.4656 14.4399 26.5997L12.8995 27.5569ZM17.0915 28.8605L15.5504 29.8185C15.4335 29.891 15.3102 29.924 15.1832 29.924C14.9475 29.9227 14.7213 29.8084 14.5886 29.5943C14.5162 29.4762 14.4838 29.3529 14.4831 29.2265C14.4851 28.9895 14.5987 28.7653 14.8122 28.6319L16.3552 27.6733C16.4727 27.6002 16.596 27.5685 16.7217 27.5685C16.9587 27.5691 17.1836 27.6834 17.317 27.8982C17.3894 28.0158 17.4218 28.139 17.4225 28.2654C17.4212 28.5009 17.3075 28.7258 17.0915 28.8605ZM19.4807 30.4232C19.5295 30.5013 19.5505 30.5827 19.5512 30.6677C19.5499 30.8259 19.4743 30.9765 19.3288 31.0673L18.0055 31.8893C17.9268 31.9388 17.8455 31.9598 17.7597 31.9598C17.6009 31.9591 17.4504 31.8823 17.3608 31.7387C17.3119 31.6593 17.2909 31.578 17.2902 31.493C17.2921 31.3334 17.3677 31.1841 17.5106 31.0952H17.5112L18.8358 30.2719C18.9165 30.2218 18.9972 30.2008 19.0816 30.2008C19.2411 30.202 19.3904 30.2777 19.4799 30.4219L20.2752 29.9289L19.4807 30.4232ZM29.7712 24.6138C29.7032 24.7453 29.5482 24.9168 29.352 25.0369C29.1556 25.1583 28.9276 25.2294 28.7091 25.2287C28.6315 25.2287 28.5566 25.242 28.4835 25.2611C28.3501 25.2319 28.2166 25.1912 28.0852 25.1391C27.678 24.9803 27.2976 24.723 27.0288 24.5058C26.8941 24.3972 26.7874 24.2994 26.7162 24.2314L26.6375 24.1533L26.6203 24.1355L26.6177 24.133H26.6172C26.3554 23.8484 25.912 23.8293 25.6268 24.091C25.3416 24.3528 25.3219 24.7962 25.5843 25.0833C25.6077 25.1074 25.9604 25.4923 26.5378 25.8888C26.8275 26.087 27.1737 26.2891 27.572 26.4453C27.6641 26.4816 27.76 26.5152 27.8585 26.5457C27.8859 26.6073 27.9208 26.6658 27.962 26.721L27.9602 26.7223C27.9652 26.7261 28.0034 26.8469 28.0002 27.0019C28.0047 27.2604 27.9106 27.599 27.7753 27.7857C27.7093 27.881 27.642 27.9413 27.5766 27.9788C27.5098 28.0157 27.4425 28.0398 27.3161 28.0417L27.2709 28.0411C27.2442 28.0398 27.2189 28.0443 27.1928 28.0455C27.1916 28.0455 27.1909 28.0455 27.1909 28.0455C26.5823 28.0481 26.0158 27.787 25.5977 27.5012C25.3894 27.3602 25.2223 27.2166 25.1098 27.1112C25.0545 27.0591 25.012 27.0159 24.9859 26.9892L24.9587 26.96L24.9542 26.9543H24.9536C24.7002 26.6634 24.2587 26.6316 23.9658 26.8851C23.6723 27.1391 23.6405 27.5819 23.8946 27.8754L23.894 27.8748C23.9213 27.9053 24.2453 28.2787 24.8088 28.6625C25.1798 28.9134 25.6638 29.1732 26.2387 29.3231C26.2324 29.3397 26.2286 29.3562 26.2209 29.3727C26.1473 29.5391 26.0418 29.7106 25.7547 29.8784C25.5609 29.989 25.4224 30.0467 25.3252 30.0759C25.2274 30.1052 25.1728 30.1109 25.1029 30.1115C25.0121 30.1128 24.8755 30.0924 24.648 30.046C24.6068 30.0372 24.5655 30.0346 24.5242 30.0321C24.5089 30.0257 24.4944 30.02 24.4778 30.0117C24.2453 29.9024 23.962 29.7048 23.753 29.5366C23.6481 29.4534 23.5592 29.3771 23.4982 29.3231L23.4296 29.2609L23.4138 29.2456L23.4105 29.2431C23.1304 28.9751 22.6857 28.9852 22.4177 29.2653C22.1502 29.5455 22.1604 29.9902 22.4405 30.2576C22.4552 30.2709 22.7505 30.5543 23.1647 30.8516C23.2384 30.9037 23.3197 30.9564 23.401 31.0084C23.2866 31.1908 23.1673 31.3159 23.0504 31.3991C22.8636 31.5275 22.6603 31.5884 22.3986 31.5898C22.1642 31.5904 21.8884 31.5326 21.6128 31.4157C21.5213 31.3776 21.4318 31.3236 21.3416 31.2734C21.3943 31.0765 21.4235 30.8726 21.4229 30.668C21.4235 30.2468 21.3079 29.8161 21.0703 29.4343C20.667 28.7857 19.9942 28.4045 19.2897 28.3423C19.2897 28.3168 19.2941 28.2915 19.2941 28.2654C19.2947 27.8036 19.1677 27.3297 18.9072 26.9104V26.9117C18.4206 26.1278 17.5782 25.6945 16.7219 25.6964C16.6889 25.6964 16.6552 25.7021 16.6222 25.7034C16.579 25.3394 16.4595 24.9786 16.2551 24.6495H16.2556C15.8586 24.0098 15.2221 23.6084 14.5354 23.4826C14.531 23.0284 14.4059 22.5652 14.1498 22.1536H14.1504C13.6645 21.3716 12.8214 20.9377 11.9651 20.939C11.502 20.939 11.03 21.0661 10.6101 21.3265L9.70867 21.8868C9.68703 21.8373 9.65977 21.789 9.64008 21.7394C9.4832 21.364 9.38469 20.9936 9.37391 20.7383L9.35297 20.3431L6.3375 17.7107L12.0547 11.7895C12.347 12.029 12.6468 12.2666 12.9543 12.4889C13.4637 12.8561 13.9688 13.1801 14.4846 13.3973C14.8156 13.5339 15.1383 13.5676 15.4344 13.5682C15.9083 13.5663 16.3427 13.485 16.7957 13.4189C16.8249 13.4138 16.8554 13.4113 16.8852 13.4068C16.2627 13.941 15.7195 14.5191 15.2602 15.0573C14.8734 15.5115 14.5469 15.9396 14.2883 16.289C14.033 16.6365 13.836 16.9166 13.7496 17.0272C13.324 17.5811 13.1411 18.2437 13.1373 18.9075C13.1391 19.525 13.303 20.1678 13.7287 20.711C13.9409 20.9797 14.2229 21.2148 14.5595 21.3748C14.8956 21.5362 15.2805 21.6187 15.6814 21.6187C16.1788 21.6174 16.7003 21.4968 17.2524 21.2648C18.9854 20.5318 20.7717 20.0433 22.1159 19.7422C22.788 19.5923 23.3502 19.4881 23.7421 19.4227C23.8159 19.4105 23.8774 19.4004 23.9384 19.3903L29.819 24.4597L29.8215 24.4609L29.8234 24.4641C29.8227 24.4823 29.8137 24.5351 29.7712 24.6138ZM30.4516 20.343L30.4312 20.7382C30.4204 20.9643 30.3435 21.2832 30.2145 21.6136C30.1491 21.7863 30.0691 21.9605 29.9852 22.1319L24.8352 17.6927C24.6352 17.52 24.3684 17.4399 24.106 17.473C24.0603 17.4819 20.283 17.9558 16.5242 19.5402C16.1501 19.6983 15.8693 19.7472 15.6812 19.7459C15.5282 19.7459 15.4348 19.7186 15.3655 19.6855C15.2652 19.6366 15.1934 19.5673 15.1223 19.4346C15.0543 19.3038 15.0079 19.1107 15.0086 18.9074C15.0048 18.6152 15.109 18.3179 15.2258 18.177C15.3713 17.9889 15.5491 17.7323 15.7944 17.4006C16.1583 16.9077 16.6526 16.2698 17.242 15.6492C17.8302 15.0286 18.5145 14.4277 19.2316 14.0058C20.2017 13.436 21.0282 13.293 21.8115 13.2905C22.2936 13.2898 22.756 13.3502 23.2071 13.4181C23.6594 13.4848 24.0952 13.5648 24.5678 13.5674C24.8632 13.5668 25.184 13.5331 25.5137 13.3984L25.5181 13.3972C26.034 13.1799 26.539 12.8559 27.0484 12.4887C27.3541 12.2677 27.6552 12.0288 27.9461 11.79L33.5738 17.6184L30.4516 20.343Z" fill="#FF8B02"/>
</svg>
