<svg width="40" height="40" viewBox="0 0 40 40" fill="none" xmlns="http://www.w3.org/2000/svg">
<path d="M7.13047 5.71055H29.9875V21.4246H32.8449V2.85352H4.27344V37.1391H19.9875V34.282H7.13047V5.71055Z" fill="#FF8B02"/>
<path d="M9.98438 8.56836H27.1273V11.4254H9.98438V8.56836ZM9.98438 14.2828H24.2699V17.1398H9.98438V14.2828ZM9.98438 19.9969H18.5559V22.8539H9.98438V19.9969ZM28.5527 22.8543C24.6078 22.8543 21.4098 26.0523 21.4098 29.9973C21.4098 33.9422 24.6078 37.1402 28.5527 37.1402C32.4977 37.1402 35.6957 33.9422 35.6957 29.9973C35.6957 26.0523 32.4977 22.8543 28.5527 22.8543ZM28.5527 34.2828C26.1895 34.2828 24.2672 32.3602 24.2672 29.9973C24.2672 27.634 26.1898 25.7117 28.5527 25.7117C30.916 25.7117 32.8383 27.6344 32.8383 29.9973C32.8383 32.3602 30.9156 34.2828 28.5527 34.2828Z" fill="#FF8B02"/>
<path d="M28.0453 30.3777L26.3832 28.8883L24.9531 30.4844L28.2352 33.4246L32.2578 28.7969L30.641 27.3906L28.0453 30.3777Z" fill="#FF8B02"/>
</svg>
