<svg width="40" height="41" viewBox="0 0 40 41" fill="none" xmlns="http://www.w3.org/2000/svg">
<g clip-path="url(#clip0_1229_35588)">
<path d="M30.6693 14.6693H26.6693V9.33594H8.0026C6.53594 9.33594 5.33594 10.5359 5.33594 12.0026V26.6693H8.0026C8.0026 28.8826 9.78927 30.6693 12.0026 30.6693C14.2159 30.6693 16.0026 28.8826 16.0026 26.6693H24.0026C24.0026 28.8826 25.7893 30.6693 28.0026 30.6693C30.2159 30.6693 32.0026 28.8826 32.0026 26.6693H34.6693V20.0026L30.6693 14.6693ZM30.0026 16.6693L32.6159 20.0026H26.6693V16.6693H30.0026ZM12.0026 28.0026C11.2693 28.0026 10.6693 27.4026 10.6693 26.6693C10.6693 25.9359 11.2693 25.3359 12.0026 25.3359C12.7359 25.3359 13.3359 25.9359 13.3359 26.6693C13.3359 27.4026 12.7359 28.0026 12.0026 28.0026ZM14.9626 24.0026C14.2293 23.1893 13.1893 22.6693 12.0026 22.6693C10.8159 22.6693 9.77594 23.1893 9.0426 24.0026H8.0026V12.0026H24.0026V24.0026H14.9626ZM28.0026 28.0026C27.2693 28.0026 26.6693 27.4026 26.6693 26.6693C26.6693 25.9359 27.2693 25.3359 28.0026 25.3359C28.7359 25.3359 29.3359 25.9359 29.3359 26.6693C29.3359 27.4026 28.7359 28.0026 28.0026 28.0026Z" fill="#FF8B02"/>
</g>
<defs>
<clipPath id="clip0_1229_35588">
<rect width="32" height="32" fill="white" transform="translate(4 4.00195)"/>
</clipPath>
</defs>
</svg>
