<svg width="24" height="24" viewBox="0 0 24 24" fill="none" xmlns="http://www.w3.org/2000/svg">
<path d="M8.70736 5.5V18.5H10.8963V5.5H8.70736ZM9.9398 7.43143H12.6622C13.2386 7.43143 13.7291 7.49952 14.1338 7.63571C14.5385 7.75952 14.8573 7.96381 15.0903 8.24857C15.3233 8.53333 15.4398 8.89857 15.4398 9.34429C15.4398 9.80238 15.3233 10.1738 15.0903 10.4586C14.8573 10.7433 14.5385 10.9538 14.1338 11.09C13.7291 11.2138 13.2386 11.2757 12.6622 11.2757H9.9398V13.2071H12.6622C13.6065 13.2071 14.4404 13.0833 15.1639 12.8357C15.8874 12.5757 16.4576 12.161 16.8746 11.5914C17.2915 11.0095 17.5 10.2605 17.5 9.34429C17.5 8.41571 17.2915 7.67286 16.8746 7.11571C16.4576 6.54619 15.8874 6.13762 15.1639 5.89C14.4404 5.63 13.6065 5.5 12.6622 5.5H9.9398V7.43143ZM10.6388 16.7543H14.4097V14.9529H10.6388V16.7543ZM6.5 13.1514H10.2709V11.35H6.5V13.1514ZM6.5 16.7543H10.2709V14.9529H6.5V16.7543Z" fill="#FF8B02"/>
</svg>
