<svg width="40" height="40" viewBox="0 0 40 40" fill="none" xmlns="http://www.w3.org/2000/svg">
<path d="M32.9121 38.15L32.9116 38.15L7.08851 38.15C6.42251 38.15 5.79691 37.8471 5.37147 37.3328L5.37136 37.3326C5.16106 37.0778 5.00864 36.7795 4.92472 36.4589C4.8408 36.1383 4.82739 35.803 4.8854 35.4765L32.9121 38.15ZM32.9121 38.15C33.2402 38.1489 33.564 38.0751 33.8608 37.9339C34.1575 37.7928 34.42 37.5876 34.6297 37.333C34.8395 37.0785 34.9916 36.7806 35.0754 36.4605C35.1591 36.1403 35.1726 35.8056 35.1148 35.4796C35.1148 35.4796 35.1148 35.4796 35.1148 35.4796L31.761 16.5421L31.6133 16.5683L31.761 16.5421C31.5701 15.4641 30.6449 14.6722 29.5578 14.6722H25.3536C25.9923 13.6683 26.3334 12.4823 26.3334 11.2529C26.3334 7.72208 23.494 4.85 20.0001 4.85C16.5063 4.85 13.6668 7.72048 13.6668 11.2513C13.6668 12.4807 14.0079 13.6681 14.6467 14.6722H10.4424C9.35544 14.6722 8.43028 15.4641 8.2392 16.5421L8.23919 16.5421L4.88542 35.4765L32.9121 38.15ZM26.6547 29.7813L26.6547 29.7813C26.3504 30.0269 25.9733 30.2445 25.4868 30.4355C24.8915 30.6691 24.287 30.7865 23.6741 30.7865C22.8987 30.7866 22.215 30.6218 21.628 30.2868M26.6547 29.7813L21.628 30.2868M26.6547 29.7813C26.8123 29.654 26.8682 29.4665 26.8682 29.292L26.8682 27.0785C26.8682 26.7612 26.6549 26.4304 26.2861 26.4304H24.2273C23.8006 26.4304 23.4702 26.8042 23.4702 27.2175C23.4702 27.6307 23.8004 28.0047 24.2273 28.0047H25.1019M26.6547 29.7813L25.1019 28.0047M21.628 30.2868C21.0402 29.9512 20.5979 29.4702 20.3032 28.8477M21.628 30.2868L20.3032 28.8477M20.3032 28.8477L20.4387 28.7835L20.3032 28.8477C20.3032 28.8477 20.3032 28.8477 20.3032 28.8477ZM20.3032 28.8477C20.0112 28.2312 19.8659 27.5615 19.8659 26.8409C19.8659 26.0601 20.0278 25.3604 20.3556 24.7457M20.3032 28.8477L20.3556 24.7457M25.1019 28.0047V28.6899C24.9437 28.8243 24.7003 28.9481 24.4251 29.0569C24.1342 29.1718 23.8559 29.2279 23.572 29.2279C22.9957 29.2279 22.5441 29.0279 22.1943 28.6298L22.1943 28.6298C21.8477 28.2354 21.6634 27.6286 21.6634 26.7812C21.6634 25.9996 21.8467 25.4371 22.1878 25.067L22.1879 25.0669C22.5303 24.6947 22.9935 24.5036 23.5949 24.5035C23.9889 24.5035 24.3059 24.6004 24.5558 24.785L24.5562 24.7853C24.6939 24.8864 24.8113 25.0133 24.9021 25.1591C24.9021 25.1592 24.9021 25.1592 24.9021 25.1592L25.0295 25.0799M25.1019 28.0047L25.8007 25.555L25.7727 25.4076M25.0295 25.0799C25.1063 25.2035 25.2181 25.3009 25.3504 25.3594C25.4826 25.4179 25.6291 25.4348 25.771 25.408L25.7727 25.4076M25.0295 25.0799C24.9286 24.9179 24.7981 24.7768 24.6449 24.6644L25.0295 25.0799ZM25.7727 25.4076L25.8016 25.5548L25.8011 25.5549L20.3556 24.7457M25.7727 25.4076C25.8946 25.3845 26.0088 25.3308 26.1049 25.2515C26.201 25.1722 26.276 25.0699 26.323 24.9538C26.3699 24.8377 26.3875 24.7115 26.3739 24.5868C26.3603 24.4621 26.3161 24.3428 26.2453 24.2399C26.0931 24.0191 25.9063 23.8248 25.6925 23.6646M25.6925 23.6646L25.7828 23.5449C25.7828 23.5448 25.7827 23.5448 25.7827 23.5447C25.7826 23.5447 25.7825 23.5446 25.7824 23.5445L25.6925 23.6646ZM25.6925 23.6646C25.1892 23.2849 24.4902 23.095 23.5954 23.0949C22.907 23.0949 22.3318 23.2159 21.8697 23.4581M21.8697 23.4581L21.8005 23.325C21.8003 23.3251 21.8002 23.3251 21.8 23.3252L21.8697 23.4581ZM21.8697 23.4581C21.2631 23.7733 20.8026 24.2261 20.4879 24.8163M20.4879 24.8163L20.3556 24.7457C20.3556 24.7457 20.3556 24.7457 20.3556 24.7457M20.4879 24.8163L20.3556 24.7457M20.4879 24.8163L20.3556 24.7457M17.3695 26.0779L19.6942 29.6925C19.755 29.7866 19.7894 29.8956 19.7938 30.0077C19.7982 30.1198 19.7725 30.2311 19.7193 30.3297C19.6098 30.5337 19.399 30.6531 19.1735 30.6531H18.4278C18.2111 30.6531 18.0005 30.5428 17.8873 30.3473L16.1369 27.3357L15.1285 28.3695V29.7761C15.1285 30.2653 14.7303 30.6623 14.2454 30.6623C13.7605 30.6623 13.3623 30.2653 13.3623 29.7761V23.9556C13.3623 23.4664 13.7605 23.0694 14.2454 23.0694C14.7303 23.0694 15.1285 23.4664 15.1285 23.9556V26.0711L17.6769 23.2805C17.677 23.2804 17.6771 23.2803 17.6771 23.2803L17.6772 23.2801L17.788 23.3813C17.8771 23.2831 18.0118 23.2351 18.1436 23.2351H18.7835L17.3695 26.0779ZM17.3695 26.0779L19.2294 24.1315C19.2296 24.1313 19.2297 24.1311 19.2299 24.1309C19.3146 24.044 19.3716 23.9337 19.3938 23.8143C19.4161 23.6947 19.4027 23.5711 19.3551 23.4591L17.3695 26.0779ZM33.82 35.7172L33.82 35.7173C33.8441 35.8532 33.8386 35.9929 33.8038 36.1265C33.769 36.2598 33.7059 36.3838 33.619 36.4897C33.4406 36.7053 33.1819 36.8345 32.9116 36.8345H7.08851C6.81835 36.8345 6.55973 36.7054 6.38146 36.49C6.29441 36.3842 6.2312 36.2603 6.19638 36.1269C6.16156 35.9936 6.156 35.8541 6.18009 35.7183L6.1801 35.7182L9.53389 16.7824C9.6134 16.3339 9.99709 16.0076 10.4424 16.0076H17.2588H17.6224L17.3646 15.7513L16.4822 14.8739C15.5146 13.9097 14.982 12.6267 14.982 11.258C14.982 8.45607 17.2349 6.17973 20.0001 6.17973C22.7653 6.17973 25.0182 8.45678 25.0182 11.2588C25.0182 12.6274 24.4856 13.9095 23.518 14.8738L22.6356 15.7513L22.3779 16.0076H22.7414H29.5577C29.774 16.0078 29.9836 16.0849 30.1497 16.2259C30.3159 16.3669 30.4281 16.5628 30.4662 16.7796L30.4662 16.7798L33.82 35.7172ZM17.8433 11.259C17.8433 12.4599 18.8091 13.4396 20.0003 13.4396C21.1914 13.4396 22.1572 12.4599 22.1572 11.259C22.1572 10.0582 21.1914 9.07846 20.0003 9.07846C18.8091 9.07846 17.8433 10.0582 17.8433 11.259Z" fill="#FF8B02" stroke="#FF8B02" stroke-width="0.3"/>
</svg>
