<svg width="40" height="40" viewBox="0 0 40 40" fill="none" xmlns="http://www.w3.org/2000/svg">
<path d="M26.6547 29.7813L26.6547 29.7813C26.3504 30.0269 25.9733 30.2445 25.4868 30.4355C24.8915 30.6691 24.287 30.7865 23.6741 30.7865C22.8987 30.7866 22.215 30.6218 21.628 30.2868C21.0402 29.9513 20.5979 29.4702 20.3032 28.8477C20.0112 28.2312 19.8659 27.5615 19.8659 26.8409C19.8659 26.0601 20.0278 25.3604 20.3556 24.7457C20.6848 24.1281 21.1677 23.6539 21.8005 23.325L21.8697 23.4581M26.6547 29.7813L25.0295 25.0799M26.6547 29.7813C26.8123 29.654 26.8682 29.4665 26.8682 29.292L26.8682 27.0785C26.8682 26.7612 26.6549 26.4304 26.2861 26.4304H24.2273C23.8006 26.4304 23.4702 26.8042 23.4702 27.2175C23.4702 27.6307 23.8004 28.0047 24.2273 28.0047H25.1019M26.6547 29.7813L25.1019 28.0047M21.8697 23.4581L21.8 23.3252C22.2894 23.0688 22.8902 22.9449 23.5954 22.9449C24.5095 22.945 25.2445 23.1387 25.7827 23.5447M21.8697 23.4581C22.3318 23.2159 22.907 23.0949 23.5954 23.0949C24.4902 23.095 25.1892 23.2849 25.6925 23.6646M21.8697 23.4581C21.2631 23.7733 20.8026 24.2261 20.4879 24.8163C20.1732 25.4065 20.0159 26.0813 20.0159 26.8409C20.0159 27.5408 20.1568 28.1883 20.4387 28.7835L25.6925 23.6646M25.7827 23.5447C26.0095 23.7147 26.2074 23.9207 26.3688 24.1547L26.3689 24.1549C26.4539 24.2784 26.5068 24.4213 26.523 24.5706C26.5393 24.7199 26.5183 24.871 26.462 25.0101C26.4057 25.1492 26.3158 25.272 26.2003 25.3672C26.085 25.4624 25.9479 25.5269 25.8013 25.5549C25.8011 25.5549 25.8009 25.5549 25.8008 25.555L25.7999 25.5552L25.7989 25.5554C25.6271 25.5878 25.4497 25.5673 25.2897 25.4965L25.3504 25.3594L25.2897 25.4965C25.1297 25.4258 24.9947 25.3081 24.9021 25.1591M25.7827 23.5447C25.7826 23.5447 25.7825 23.5446 25.7824 23.5445L25.6925 23.6646M25.7827 23.5447C25.7827 23.5448 25.7828 23.5448 25.7828 23.5449L25.6925 23.6646M24.9021 25.1591L25.0295 25.0799M24.9021 25.1591C24.9021 25.1592 24.9021 25.1592 24.9021 25.1592L25.0295 25.0799M24.9021 25.1591C24.8113 25.0133 24.6939 24.8864 24.5562 24.7853L24.5558 24.785C24.3059 24.6004 23.9889 24.5035 23.5949 24.5035C22.9935 24.5036 22.5303 24.6947 22.1879 25.0669L22.1878 25.067C21.8467 25.4371 21.6634 25.9996 21.6634 26.7812C21.6634 27.6286 21.8477 28.2354 22.1943 28.6298L22.1943 28.6298C22.5441 29.0279 22.9957 29.2279 23.572 29.2279C23.8559 29.2279 24.1342 29.1718 24.4251 29.0569M25.0295 25.0799C24.9286 24.9179 24.7981 24.7768 24.6449 24.6644C24.3644 24.4571 24.0144 24.3535 23.5949 24.3535C22.9584 24.3536 22.4526 24.5575 22.0775 24.9653C21.7015 25.3733 21.5134 25.9786 21.5134 26.7812C21.5134 27.6468 21.7012 28.296 22.0816 28.7288C22.4618 29.1615 22.9556 29.3779 23.572 29.3779C23.8768 29.3779 24.1737 29.3175 24.4803 29.1964M24.4251 29.0569L24.4803 29.1964M24.4251 29.0569C24.7003 28.9481 24.9437 28.8243 25.1019 28.6899V28.0047M24.4251 29.0569C24.4251 29.0569 24.4251 29.0569 24.4251 29.0569L24.4803 29.1964M24.4803 29.1964C24.7866 29.0753 25.0748 28.9285 25.2519 28.7562V28.0047H25.1019M14.6467 14.6722H10.4424C9.35544 14.6722 8.43028 15.4641 8.2392 16.5421L8.23919 16.5421L4.88542 35.4765L14.6467 14.6722ZM14.6467 14.6722C14.0079 13.6681 13.6668 12.4807 13.6668 11.2513C13.6668 7.72048 16.5063 4.85 20.0001 4.85C23.494 4.85 26.3334 7.72208 26.3334 11.2529C26.3334 12.4823 25.9923 13.6683 25.3536 14.6722M14.6467 14.6722H25.3536M25.3536 14.6722H29.5578C30.6449 14.6722 31.57 15.4641 31.761 16.5421L35.1148 35.4796C35.1726 35.8055 35.1591 36.1403 35.0754 36.4605C34.9916 36.7806 34.8395 37.0785 34.6297 37.333C34.42 37.5876 34.1575 37.7928 33.8608 37.9339C33.564 38.0751 33.2402 38.1489 32.9121 38.15L32.9116 38.15H7.08851C6.42251 38.15 5.79691 37.8471 5.37147 37.3328L5.37136 37.3326C5.16106 37.0778 5.00864 36.7795 4.92472 36.4589C4.8408 36.1383 4.82739 35.803 4.8854 35.4766L25.3536 14.6722ZM33.82 35.7173L33.82 35.7172L30.4662 16.7798L30.4662 16.7796C30.4281 16.5628 30.3159 16.3669 30.1497 16.2259C29.9836 16.0849 29.774 16.0078 29.5577 16.0076H22.7414H22.3779L22.6356 15.7513L23.518 14.8738L23.5181 14.8737M33.82 35.7173L23.5181 14.8737M33.82 35.7173C33.8441 35.8532 33.8386 35.9929 33.8038 36.1265C33.769 36.2598 33.7059 36.3838 33.619 36.4897C33.4406 36.7053 33.1819 36.8345 32.9116 36.8345H7.08851C6.81828 36.8345 6.55959 36.7053 6.38132 36.4898C6.29434 36.3841 6.23118 36.2602 6.19638 36.1269C6.16156 35.9936 6.156 35.8541 6.18009 35.7183L6.1801 35.7182L9.53389 16.7824M33.82 35.7173L9.53389 16.7824M23.5181 14.8737C24.4856 13.9094 25.0182 12.6273 25.0182 11.2588C25.0182 8.45678 22.7653 6.17973 20.0001 6.17973C17.2349 6.17973 14.982 8.45607 14.982 11.258C14.982 12.6266 15.5146 13.9096 16.4821 14.8738M23.5181 14.8737L16.4821 14.8738M16.4821 14.8738C16.4821 14.8739 16.4822 14.8739 16.4822 14.8739M16.4821 14.8738L16.3763 14.9802L16.4822 14.8739M16.4821 14.8738L16.4822 14.8739M16.4821 14.8738L9.53389 16.7824M16.4822 14.8739L17.3646 15.7513L17.6224 16.0076H17.2588H10.4424C9.99709 16.0076 9.61341 16.3339 9.53389 16.7824M17.3695 26.0779L19.6942 29.6925L17.3695 26.0779ZM17.3695 26.0779L19.2294 24.1315C19.2295 24.1313 19.2297 24.1311 19.2299 24.1309C19.3146 24.044 19.3715 23.9337 19.3938 23.8143C19.4161 23.6947 19.4027 23.5711 19.3551 23.4591C19.2564 23.2244 19.0292 23.0851 18.7835 23.0851H18.1436C17.9787 23.0851 17.8003 23.1447 17.6771 23.2803L17.6772 23.2801L17.788 23.3813L17.6769 23.2805L17.3695 26.0779ZM16.1369 27.3357L17.8873 30.3473L16.1369 27.3357ZM16.1369 27.3357L15.1285 28.3695V29.7761C15.1285 30.2653 14.7303 30.6623 14.2454 30.6623C13.7605 30.6623 13.3623 30.2653 13.3623 29.7761V23.9556C13.3623 23.4664 13.7605 23.0694 14.2454 23.0694C14.7303 23.0694 15.1285 23.4664 15.1285 23.9556V26.0711L16.1369 27.3357ZM17.8433 11.259C17.8433 12.4599 18.8091 13.4396 20.0003 13.4396C21.1914 13.4396 22.1572 12.4599 22.1572 11.259C22.1572 10.0582 21.1914 9.07846 20.0003 9.07846C18.8091 9.07846 17.8433 10.0582 17.8433 11.259ZM19.7938 30.0077C19.7894 29.8957 19.7551 29.7868 19.6943 29.6928L17.8874 30.3475C18.0007 30.5429 18.2112 30.6531 18.4278 30.6531H19.1735C19.399 30.6531 19.6098 30.5337 19.7193 30.3297C19.7725 30.2311 19.7982 30.1198 19.7938 30.0077Z" fill="#FF8B02" stroke="#FF8B02" stroke-width="0.3"/>
</svg>
