<svg width="32" height="31" viewBox="0 0 32 31" fill="none" xmlns="http://www.w3.org/2000/svg">
<g clip-path="url(#clip0_3593_40475)">
<path d="M15.9993 15.4997C14.5785 15.4997 13.416 14.3372 13.416 12.9163C13.416 11.4955 14.5785 10.333 15.9993 10.333C17.4202 10.333 18.5827 11.4955 18.5827 12.9163C18.5827 14.3372 17.4202 15.4997 15.9993 15.4997ZM23.7493 13.1747C23.7493 8.48592 20.3264 5.16634 15.9993 5.16634C11.6723 5.16634 8.24935 8.48592 8.24935 13.1747C8.24935 16.1972 10.7681 20.2013 15.9993 24.9805C21.2306 20.2013 23.7493 16.1972 23.7493 13.1747ZM15.9993 2.58301C21.4243 2.58301 26.3327 6.74217 26.3327 13.1747C26.3327 17.463 22.8839 22.5393 15.9993 28.4163C9.11477 22.5393 5.66602 17.463 5.66602 13.1747C5.66602 6.74217 10.5743 2.58301 15.9993 2.58301Z" fill="#FBFBFB"/>
</g>
<defs>
<clipPath id="clip0_3593_40475">
<rect width="31" height="31" fill="white" transform="translate(0.5)"/>
</clipPath>
</defs>
</svg>
