<svg width="30" height="29" viewBox="0 0 30 29" fill="none" xmlns="http://www.w3.org/2000/svg">
<g clip-path="url(#clip0_3593_40530)">
<path d="M24.6663 9.66634H21.0413V4.83301H4.12467C2.79551 4.83301 1.70801 5.92051 1.70801 7.24967V20.5413H4.12467C4.12467 22.5472 5.74384 24.1663 7.74967 24.1663C9.75551 24.1663 11.3747 22.5472 11.3747 20.5413H18.6247C18.6247 22.5472 20.2438 24.1663 22.2497 24.1663C24.2555 24.1663 25.8747 22.5472 25.8747 20.5413H28.2913V14.4997L24.6663 9.66634ZM24.0622 11.4788L26.4305 14.4997H21.0413V11.4788H24.0622ZM7.74967 21.7497C7.08509 21.7497 6.54134 21.2059 6.54134 20.5413C6.54134 19.8768 7.08509 19.333 7.74967 19.333C8.41426 19.333 8.95801 19.8768 8.95801 20.5413C8.95801 21.2059 8.41426 21.7497 7.74967 21.7497ZM10.4322 18.1247C9.76759 17.3876 8.82509 16.9163 7.74967 16.9163C6.67426 16.9163 5.73176 17.3876 5.06717 18.1247H4.12467V7.24967H18.6247V18.1247H10.4322ZM22.2497 21.7497C21.5851 21.7497 21.0413 21.2059 21.0413 20.5413C21.0413 19.8768 21.5851 19.333 22.2497 19.333C22.9143 19.333 23.458 19.8768 23.458 20.5413C23.458 21.2059 22.9143 21.7497 22.2497 21.7497Z" fill="#FBFBFB"/>
</g>
<defs>
<clipPath id="clip0_3593_40530">
<rect width="29" height="29" fill="white" transform="translate(0.5)"/>
</clipPath>
</defs>
</svg>
