<svg width="31" height="31" viewBox="0 0 31 31" fill="none" xmlns="http://www.w3.org/2000/svg">
<path d="M27.8293 8.04643L21.1017 0.462876C20.8354 0.133156 20.5057 0 20.1126 0H4.15286C3.43002 0 2.83398 0.596032 2.83398 1.31888V29.6811C2.83398 30.404 3.43002 31 4.15286 31H26.8465C27.5693 31 28.1019 30.404 28.1653 29.7445V8.90878C28.159 8.57906 28.0322 8.31274 27.8293 8.04643ZM21.368 4.6668L23.9487 7.5899H21.368V4.6668ZM25.5212 28.432H5.47174V2.57435H18.7937V8.83903C18.7937 9.56187 19.3897 10.1579 20.1126 10.1579H25.5212V28.432Z" fill="#FBFBFB"/>
<path d="M8.63574 14.9068C8.63574 15.6296 9.23177 16.2256 9.95462 16.2256H21.0383C21.7611 16.2256 22.3572 15.6296 22.3572 14.9068C22.3572 14.1839 21.7611 13.5879 21.0383 13.5879H9.95462C9.23177 13.5879 8.63574 14.1839 8.63574 14.9068Z" fill="#FBFBFB"/>
<path d="M21.0383 21.7676H9.95462C9.23177 21.7676 8.63574 22.3636 8.63574 23.0865C8.63574 23.8093 9.23177 24.4053 9.95462 24.4053H21.0383C21.7611 24.4053 22.3572 23.8093 22.3572 23.0865C22.3572 22.3636 21.7611 21.7676 21.0383 21.7676Z" fill="#FBFBFB"/>
</svg>
