<svg width="35" height="25" viewBox="0 0 35 25" fill="none" xmlns="http://www.w3.org/2000/svg">
<g clip-path="url(#clip0_3593_20846)">
<path d="M33.2383 15.1184C32.5871 15.0718 31.243 15.771 30.8759 15.9509C29.5665 16.5835 27.7444 17.5759 26.5459 18.3684C26.4628 18.4217 26.3519 18.4949 26.2688 18.5482C25.7369 18.8757 25.1478 19.1081 24.5299 19.2342C21.052 19.9468 15.9877 20.02 15.9877 20.02L15.6898 20.0334C15.5833 20.0404 15.4778 20.0087 15.3944 19.9446C15.311 19.8804 15.2557 19.7885 15.2395 19.687C15.2316 19.6321 15.2356 19.5761 15.2511 19.5227C15.2667 19.4693 15.2935 19.4195 15.3298 19.3764C15.3662 19.3333 15.4114 19.2979 15.4626 19.2723C15.5138 19.2467 15.5699 19.2314 15.6275 19.2275L23.1581 18.5415C23.5719 18.493 23.9496 18.2911 24.211 17.9789C24.4723 17.6668 24.5967 17.2689 24.5576 16.8699C24.4675 16.0308 23.6639 15.4181 22.8325 15.5047L16.1332 15.4247C15.585 15.4051 15.041 15.3247 14.5121 15.185C10.1959 13.9729 7.75731 15.1051 6.46179 15.6378C6.31204 15.402 6.09783 15.2103 5.84251 15.0835C5.5872 14.9566 5.30056 14.8996 5.01385 14.9186L2.1249 15.1051C1.16191 15.165 0.441408 15.9375 0.503759 16.83L0.967931 22.997C1.03721 23.8894 1.86856 24.5621 2.83155 24.4955L5.7205 24.309C6.00555 24.2931 6.28036 24.2012 6.5141 24.0436C6.74783 23.886 6.93124 23.6688 7.04374 23.4166L19.7357 23.9427C21.149 24.0892 22.4723 23.9227 23.7193 23.2967L24.0795 23.1169L33.6747 17.7224C34.1458 17.456 34.4784 16.9965 34.4992 16.4903C34.52 15.8709 34.1528 15.185 33.2383 15.1184ZM22.6385 6.33403C22.6385 6.13777 22.6991 5.94592 22.8125 5.78273C22.9259 5.61954 23.0871 5.49236 23.2758 5.41725C23.4644 5.34214 23.6719 5.32249 23.8722 5.36078C24.0724 5.39907 24.2564 5.49358 24.4007 5.63236C24.5451 5.77114 24.6434 5.94795 24.6832 6.14044C24.7231 6.33293 24.7026 6.53245 24.6245 6.71378C24.5464 6.8951 24.414 7.05008 24.2443 7.15912C24.0745 7.26815 23.875 7.32635 23.6708 7.32635C23.3972 7.3257 23.1351 7.22094 22.9416 7.03498C22.7482 6.84903 22.6392 6.59701 22.6385 6.33403ZM11.8102 6.33403C11.8102 6.13777 11.8707 5.94592 11.9841 5.78273C12.0976 5.61954 12.2588 5.49236 12.4474 5.41725C12.636 5.34214 12.8436 5.32249 13.0438 5.36078C13.244 5.39907 13.428 5.49358 13.5723 5.63236C13.7167 5.77114 13.815 5.94795 13.8549 6.14044C13.8947 6.33293 13.8742 6.53245 13.7961 6.71378C13.718 6.8951 13.5857 7.05008 13.4159 7.15912C13.2462 7.26815 13.0466 7.32635 12.8424 7.32635C12.5689 7.3257 12.3067 7.22094 12.1133 7.03498C11.9198 6.84903 11.8108 6.59701 11.8102 6.33403ZM10.1475 12.1681H26.3588C26.8088 12.1674 27.2401 11.9952 27.5582 11.6894C27.8764 11.3835 28.0555 10.9689 28.0562 10.5364V2.13166C28.0555 1.69914 27.8764 1.28452 27.5582 0.978677C27.2401 0.672832 26.8088 0.5007 26.3588 0.5H10.1475C9.69751 0.5007 9.26621 0.672832 8.94805 0.978677C8.6299 1.28452 8.45084 1.69914 8.45011 2.13166V10.5364C8.45084 10.9689 8.6299 11.3835 8.94805 11.6894C9.26621 11.9952 9.69751 12.1674 10.1475 12.1681ZM9.89805 3.82327C9.99841 3.84233 10.1006 3.85126 10.2029 3.84991C10.4285 3.84994 10.652 3.80725 10.8604 3.72426C11.0689 3.64127 11.2583 3.51961 11.4179 3.36624C11.5774 3.21286 11.704 3.03077 11.7903 2.83036C11.8766 2.62996 11.921 2.41517 11.921 2.19826C11.9224 2.09551 11.9131 1.99289 11.8933 1.89191H24.516C24.4797 2.02452 24.4611 2.16103 24.4606 2.29816C24.4605 2.51507 24.505 2.72986 24.5913 2.93026C24.6776 3.13067 24.8042 3.31276 24.9637 3.46613C25.1233 3.61951 25.3127 3.74117 25.5212 3.82416C25.7296 3.90715 25.9531 3.94984 26.1787 3.94981C26.3214 3.94935 26.4634 3.93145 26.6013 3.89653V8.96468C26.3478 8.90104 26.0825 8.89429 25.8259 8.94493C25.5692 8.99557 25.3281 9.10226 25.1212 9.25675C24.9143 9.41124 24.7471 9.6094 24.6326 9.8359C24.518 10.0624 24.4592 10.3112 24.4606 10.563C24.4606 10.6296 24.4675 10.7029 24.4744 10.7695H11.8933C11.9131 10.6685 11.9224 10.5659 11.921 10.4631C11.921 10.2462 11.8766 10.0314 11.7903 9.83104C11.704 9.63064 11.5774 9.44855 11.4179 9.29517C11.2583 9.14179 11.0689 9.02014 10.8604 8.93715C10.652 8.85416 10.4285 8.81146 10.2029 8.8115C10.1006 8.81045 9.99846 8.81937 9.89805 8.83814V3.82327ZM16.7775 6.33403C16.7775 6.05084 16.8649 5.774 17.0285 5.53853C17.1922 5.30306 17.4248 5.11953 17.697 5.01116C17.9692 4.90278 18.2687 4.87443 18.5576 4.92968C18.8465 4.98493 19.1119 5.1213 19.3202 5.32155C19.5286 5.5218 19.6704 5.77693 19.7279 6.05469C19.7854 6.33244 19.7559 6.62035 19.6431 6.88199C19.5304 7.14363 19.3395 7.36725 19.0945 7.52459C18.8496 7.68192 18.5616 7.7659 18.267 7.7659C17.8721 7.76536 17.4936 7.61433 17.2144 7.34592C16.9352 7.07751 16.7781 6.71362 16.7775 6.33403ZM18.267 3.94315C18.7589 3.94315 19.2398 4.08337 19.6488 4.34608C20.0578 4.6088 20.3766 4.9822 20.5648 5.41908C20.7531 5.85596 20.8023 6.33669 20.7063 6.80047C20.6104 7.26426 20.3735 7.69027 20.0257 8.02465C19.6778 8.35902 19.2347 8.58673 18.7522 8.67898C18.2698 8.77123 17.7697 8.72389 17.3152 8.54293C16.8608 8.36197 16.4723 8.05552 16.199 7.66234C15.9257 7.26916 15.7799 6.80691 15.7799 6.33403C15.7805 5.70012 16.0427 5.09234 16.509 4.64409C16.9753 4.19585 17.6076 3.94376 18.267 3.94315Z" fill="#FBFBFB"/>
</g>
<defs>
<clipPath id="clip0_3593_20846">
<rect width="34" height="24" fill="white" transform="translate(0.5 0.5)"/>
</clipPath>
</defs>
</svg>
