<svg width="17" height="25" viewBox="0 0 17 25" fill="none" xmlns="http://www.w3.org/2000/svg">
<path d="M11.8371 7.36878C11.8371 7.952 11.6441 8.55765 11.2581 9.18573C10.8721 9.81382 10.2829 10.3522 9.49048 10.8008C8.6981 11.227 7.69238 11.4401 6.47333 11.4401H6.10762V17.4293H9.82572C9.82572 17.4293 9.7343 14.603 9.94762 14.603C10.1609 14.6029 12.0911 13.9973 13.0867 13.3917C14.0822 12.7636 14.8949 11.9448 15.5248 10.9354C16.1749 9.92598 16.5 8.7371 16.5 7.36878C16.5 6.20233 16.2765 5.17048 15.8295 4.27322C15.4029 3.35352 14.8238 2.57963 14.0924 1.95155C13.361 1.30103 12.5279 0.818752 11.5933 0.50471C10.679 0.168237 9.72413 0 8.72857 0C7.52984 0 6.44286 0.179453 5.46762 0.538359C4.49238 0.874833 3.24286 1.68712 2.63333 2.53067C1.91876 3.51961 1.17046 4.30687 0.5 7.20054H4.14189C4.59903 6.19108 5.13237 5.39961 5.74191 5.04711C6.59524 4.55361 7.48921 4.30686 8.42381 4.30686C9.13492 4.30686 9.74445 4.43024 10.2524 4.67699C10.7806 4.9013 11.1768 5.24899 11.441 5.72005C11.7051 6.16869 11.8371 6.71826 11.8371 7.36878ZM5.10191 22.2073C5.10191 22.9699 5.37619 23.6317 5.92476 24.1925C6.47333 24.7308 7.16413 25 7.99714 25C8.83016 25 9.51079 24.7308 10.039 24.1925C10.5876 23.6317 10.8619 22.9699 10.8619 22.2073C10.8619 21.467 10.5876 20.8165 10.039 20.2557C9.51079 19.6949 8.83016 19.4145 7.99714 19.4145C7.16413 19.4145 6.47333 19.6949 5.92476 20.2557C5.37619 20.8165 5.10191 21.467 5.10191 22.2073Z" fill="#FBFBFB"/>
</svg>
