<svg width="24" height="20" viewBox="0 0 24 20" fill="none" xmlns="http://www.w3.org/2000/svg">
<path d="M23.7202 2.8796C22.8802 3.2396 21.9202 3.47961 20.9602 3.59961C21.9202 2.99961 22.7602 2.03961 23.1202 0.959613C22.1602 1.55961 21.2002 1.91961 20.0002 2.15961C19.1602 1.19961 17.8402 0.599609 16.5202 0.599609C13.8802 0.599609 11.7202 2.75961 11.7202 5.39961C11.7202 5.75961 11.7202 6.1196 11.8402 6.4796C7.88019 6.2396 4.28019 4.31961 1.88019 1.43961C1.52019 2.15961 1.28019 2.99961 1.28019 3.83961C1.28019 5.51961 2.12019 6.95961 3.44019 7.79961C2.60019 7.79961 1.88019 7.55961 1.28019 7.19961C1.28019 9.47961 2.96018 11.5196 5.12018 11.8796C4.76018 11.9996 4.2802 11.9996 3.8002 11.9996C3.4402 11.9996 3.20019 11.9996 2.84019 11.8796C3.44019 13.7996 5.2402 15.2396 7.4002 15.2396C5.7202 16.5596 3.6802 17.2796 1.4002 17.2796C1.0402 17.2796 0.680195 17.2796 0.200195 17.1596C2.3602 18.4796 4.88019 19.3196 7.64019 19.3196C16.5202 19.3196 21.3202 11.9996 21.3202 5.63961V5.03961C22.2802 4.67961 23.1202 3.8396 23.7202 2.8796Z" fill="#FF8B02"/>
</svg>
