<svg width="50" height="48" viewBox="0 0 50 48" fill="none" xmlns="http://www.w3.org/2000/svg">
<path d="M47.7205 23.9638L20.7226 8.16102C20.3545 7.94633 19.7472 7.94633 19.3791 8.16102L3.29446 17.6446C2.92639 17.8593 2.92639 18.214 3.29446 18.438L30.2832 34.2408C30.6605 34.4648 31.2586 34.4555 31.6266 34.2408L47.7205 24.7572C48.0886 24.5425 48.0978 24.1878 47.7205 23.9638ZM34.2348 30.2479C33.89 30.4506 33.4589 30.3819 33.1081 30.1897V30.1897C31.7371 29.387 29.5194 29.387 28.1484 30.1897V30.1897C27.9696 30.2984 27.7449 30.3164 27.5644 30.2106L10.1579 20.006C9.96257 19.8915 9.98107 19.5962 10.1774 19.4834V19.4834C11.5392 18.6807 11.53 17.3739 10.159 16.5711V16.5711C9.97037 16.4622 9.95194 16.178 10.1396 16.0675L16.7618 12.1688C17.0129 12.021 17.3261 12.0522 17.5756 12.2027V12.2027C18.9466 13.0055 21.1734 13.0055 22.5353 12.2027V12.2027C22.7939 12.0558 23.1137 12.0151 23.3703 12.1654L40.5394 22.2268C40.7899 22.3736 40.7569 22.7623 40.5063 22.9091V22.9091C39.1445 23.7118 39.1537 25.0186 40.5247 25.8213V25.8213C40.7922 25.9694 40.8249 26.3734 40.5613 26.5283L34.2348 30.2479ZM45.3596 29.1443C45.6923 28.9484 46.105 28.9482 46.4379 29.1437V29.1437C47.1371 29.5543 47.1379 30.5651 46.4393 30.9769L31.6784 39.6767C31.3392 39.8765 30.9189 39.8788 30.5776 39.6826V39.6826L29.0225 38.7772L4.54721 24.4144C3.85364 24.0074 3.8532 23.0048 4.54642 22.5972V22.5972C4.87561 22.4036 5.28376 22.4033 5.61325 22.5963L29.5908 36.6449C30.5295 37.1949 31.6924 37.1936 32.6298 36.6415L45.3596 29.1443ZM30.8629 18.0459C27.8907 16.3098 23.0782 16.3098 20.1244 18.0459C17.1799 19.7821 17.1891 22.6104 20.1613 24.3559C23.1242 26.092 27.9367 26.092 30.8905 24.3559C33.8442 22.6197 33.8259 19.7914 30.8629 18.0459ZM24.6609 22.1063H23.7735C23.11 22.1063 22.5721 21.5684 22.5721 20.9049V20.7518C22.5721 20.1706 23.0446 19.7002 23.6258 19.7028L24.0781 19.7048C24.4055 19.7063 24.6701 19.972 24.6701 20.2994V20.2994C24.6701 20.6274 24.9356 20.8934 25.2636 20.894L28.8414 20.901C29.1805 20.9017 29.455 21.1768 29.455 21.5159V21.5159C29.455 21.8568 29.1775 22.1327 28.8366 22.1307L24.6609 22.1063Z" fill="#FF8B02"/>
</svg>
