<svg width="18" height="18" viewBox="0 0 18 18" fill="none" xmlns="http://www.w3.org/2000/svg">
<path d="M14.9107 11.1782C14.2842 10.5598 13.5022 10.5598 12.8797 11.1782C12.4049 11.649 11.9301 12.1198 11.4633 12.5986C11.3356 12.7303 11.2278 12.7582 11.0722 12.6704C10.765 12.5029 10.4378 12.3672 10.1425 12.1837C8.76597 11.3178 7.61283 10.2046 6.59137 8.9518C6.08463 8.32936 5.63376 7.66304 5.31854 6.91292C5.2547 6.76131 5.26667 6.66156 5.39036 6.53787C5.86518 6.07902 6.32803 5.6082 6.79487 5.13739C7.44525 4.48303 7.44525 3.71696 6.79088 3.05861C6.4198 2.68356 6.04872 2.31648 5.67765 1.94142C5.2946 1.55839 4.91554 1.17136 4.5285 0.792312C3.90206 0.181847 3.12001 0.181847 2.49756 0.796302C2.01875 1.26712 1.55989 1.7499 1.0731 2.21274C0.622219 2.63967 0.394785 3.16235 0.346904 3.77282C0.271092 4.76632 0.514487 5.70396 0.857634 6.61767C1.55989 8.50891 2.62923 10.1887 3.926 11.7288C5.67765 13.8116 7.76845 15.4594 10.2144 16.6484C11.3156 17.1831 12.4568 17.5941 13.6977 17.6619C14.5516 17.7098 15.2937 17.4943 15.8883 16.828C16.2952 16.3731 16.7541 15.9582 17.185 15.5233C17.8234 14.8769 17.8274 14.0949 17.193 13.4565C16.4349 12.6944 15.6728 11.9363 14.9107 11.1782Z" fill="#FBFBFB"/>
</svg>
