<svg width="30" height="33" viewBox="0 0 30 33" fill="none" xmlns="http://www.w3.org/2000/svg">
<path d="M12.9933 6.259C12.9933 7.37868 13.8936 8.2896 15.0003 8.2896C16.1069 8.2896 17.0072 7.37868 17.0072 6.259C17.0072 5.13938 16.1069 4.22846 15.0003 4.22846C13.8936 4.22846 12.9933 5.13938 12.9933 6.259Z" fill="#FBFBFB"/>
<path d="M14.122 19.0267L12.1794 21.0597L14.5682 24.7739C14.6144 24.8454 14.6405 24.9282 14.6439 25.0136C14.6472 25.0989 14.6277 25.1836 14.5872 25.2586C14.505 25.4121 14.346 25.5031 14.1735 25.5031H13.4278C13.2607 25.5031 13.1016 25.418 13.0171 25.2721L11.1674 22.0897L9.97852 23.3084V24.7761C9.97852 25.1827 9.64729 25.5123 9.2454 25.5123C8.84352 25.5123 8.51229 25.1827 8.51229 24.7761V18.9556C8.51229 18.549 8.84352 18.2194 9.2454 18.2194C9.64729 18.2194 9.97852 18.549 9.97852 18.9556V21.4578L12.788 18.3813C12.8771 18.2831 13.0118 18.2351 13.1436 18.2351H13.7835C13.9725 18.2351 14.1431 18.3415 14.217 18.5175C14.253 18.6023 14.2633 18.6961 14.2464 18.7868C14.2294 18.8775 14.1862 18.961 14.122 19.0267Z" fill="#FBFBFB"/>
<path d="M21.2861 21.5804C21.5462 21.5804 21.7182 21.8155 21.7182 22.0785L21.7182 24.292C21.7182 24.4368 21.6722 24.5743 21.5604 24.6646C21.27 24.899 20.9068 25.1095 20.432 25.2958C19.8533 25.523 19.2674 25.6365 18.6741 25.6365C17.9204 25.6366 17.2631 25.4766 16.7023 25.1565C16.1418 24.8365 15.7206 24.3789 15.4387 23.7835C15.1568 23.1883 15.0159 22.5408 15.0159 21.8409C15.0159 21.0813 15.1732 20.4065 15.4879 19.8163C15.8026 19.2261 16.2631 18.7733 16.8697 18.4581C17.3318 18.2159 17.907 18.0949 18.5954 18.0949C19.4902 18.095 20.1892 18.2849 20.6925 18.6646C20.9063 18.8248 21.0931 19.0191 21.2453 19.2399C21.3161 19.3428 21.3603 19.4621 21.3739 19.5868C21.3875 19.7115 21.3699 19.8377 21.323 19.9538C21.276 20.0699 21.201 20.1722 21.1049 20.2515C21.0088 20.3308 20.8946 20.3845 20.7727 20.4076L20.771 20.408C20.6291 20.4348 20.4826 20.4179 20.3504 20.3594C20.2181 20.3009 20.1063 20.2035 20.0295 20.0799C19.9286 19.9179 19.7981 19.7768 19.6449 19.6644C19.3644 19.4571 19.0144 19.3535 18.5949 19.3535C17.9584 19.3536 17.4526 19.5575 17.0775 19.9653C16.7015 20.3733 16.5134 20.9786 16.5134 21.7812C16.5134 22.6468 16.7012 23.296 17.0816 23.7288C17.4618 24.1615 17.9556 24.3779 18.572 24.3779C18.8768 24.3779 19.1737 24.3175 19.4803 24.1964C19.7866 24.0753 20.0748 23.9285 20.2519 23.7562V22.8547H19.2273C18.8919 22.8547 18.6202 22.5568 18.6202 22.2175C18.6202 21.8782 18.892 21.5804 19.2273 21.5804H21.2861Z" fill="#FBFBFB"/>
<path fill-rule="evenodd" clip-rule="evenodd" d="M26.6133 11.5683L29.9671 30.5058C30.0211 30.8104 30.0085 31.1233 29.9302 31.4225C29.852 31.7217 29.7099 31.9999 29.514 32.2376C29.3181 32.4754 29.0731 32.6668 28.7963 32.7985C28.5195 32.9302 28.2175 32.999 27.9116 33H2.08851C1.46856 33 0.884863 32.7181 0.487053 32.2372C0.290679 31.9992 0.148261 31.7206 0.0698295 31.4209C-0.00860166 31.1212 -0.0211381 30.8078 0.0331031 30.5027L3.38689 11.5683C3.56561 10.5601 4.43006 9.8222 5.44237 9.8222H9.92758C9.20545 8.79672 8.81681 7.54881 8.81681 6.25133C8.81681 2.80182 11.5906 0 15.0001 0C18.4096 0 21.1834 2.80336 21.1834 6.25287C21.1834 7.55041 20.7948 8.79672 20.0726 9.8222H24.5578C25.5703 9.8222 26.4347 10.5601 26.6133 11.5683ZM27.9116 31.9845C28.2302 31.9845 28.5301 31.8325 28.7346 31.5854C28.8355 31.4625 28.9086 31.3188 28.9489 31.1643C28.9892 31.0098 28.9956 30.8483 28.9677 30.6911L25.6139 11.7536C25.5698 11.5026 25.4398 11.2753 25.2467 11.1115C25.0537 10.9477 24.8098 10.8578 24.5578 10.8576H17.7414L18.6238 9.98006C19.6197 8.98758 20.1682 7.6672 20.1682 6.25876C20.1682 3.3756 17.8498 1.02973 15.0001 1.02973C12.1504 1.02973 9.83201 3.37487 9.83201 6.25802C9.83201 7.66651 10.3805 8.98777 11.3763 9.98018L12.2588 10.8576H5.44237C4.92218 10.8576 4.47802 11.2382 4.38619 11.7562L1.0324 30.6921C1.00453 30.8492 1.01096 31.0105 1.05125 31.1648C1.09154 31.3191 1.16471 31.4626 1.26563 31.5853C1.47004 31.8325 1.76995 31.9845 2.08851 31.9845H27.9116Z" fill="#FBFBFB"/>
</svg>
