<svg width="32" height="32" viewBox="0 0 32 32" fill="none" xmlns="http://www.w3.org/2000/svg">
<path d="M31 8H28V3C28 2.20435 27.6839 1.44129 27.1213 0.87868C26.5587 0.31607 25.7956 0 25 0C24.2044 0 23.4413 0.31607 22.8787 0.87868C22.3161 1.44129 22 2.20435 22 3V8H3C2.20435 8 1.44129 8.31607 0.87868 8.87868C0.31607 9.44129 0 10.2044 0 11L0 29C0 29.7956 0.31607 30.5587 0.87868 31.1213C1.44129 31.6839 2.20435 32 3 32H23C23.2652 32 23.5196 31.8946 23.7071 31.7071C23.8946 31.5196 24 31.2652 24 31V28H31C31.2652 28 31.5196 27.8946 31.7071 27.7071C31.8946 27.5196 32 27.2652 32 27V9C32 8.73478 31.8946 8.48043 31.7071 8.29289C31.5196 8.10536 31.2652 8 31 8ZM24 6H26V14.59L25 15.59L24 14.59V6ZM25 2C25.2652 2 25.5196 2.10536 25.7071 2.29289C25.8946 2.48043 26 2.73478 26 3V4H24V3C24 2.73478 24.1054 2.48043 24.2929 2.29289C24.4804 2.10536 24.7348 2 25 2ZM22 30H3C2.73478 30 2.48043 29.8946 2.29289 29.7071C2.10536 29.5196 2 29.2652 2 29C2 28.7348 2.10536 28.4804 2.29289 28.2929C2.48043 28.1054 2.73478 28 3 28H22V30ZM30 26H3C2.65886 26.0027 2.32067 26.0636 2 26.18V11C2 10.7348 2.10536 10.4804 2.29289 10.2929C2.48043 10.1054 2.73478 10 3 10H22V15C21.9992 15.1316 22.0245 15.2621 22.0742 15.3839C22.124 15.5057 22.1973 15.6166 22.29 15.71L24.29 17.71C24.383 17.8037 24.4936 17.8781 24.6154 17.9289C24.7373 17.9797 24.868 18.0058 25 18.0058C25.132 18.0058 25.2627 17.9797 25.3846 17.9289C25.5064 17.8781 25.617 17.8037 25.71 17.71L27.71 15.71C27.8027 15.6166 27.876 15.5057 27.9258 15.3839C27.9755 15.2621 28.0008 15.1316 28 15V10H30V26Z" fill="#FBFBFB"/>
<path d="M5 14H13C13.2652 14 13.5196 13.8946 13.7071 13.7071C13.8946 13.5196 14 13.2652 14 13C14 12.7348 13.8946 12.4804 13.7071 12.2929C13.5196 12.1054 13.2652 12 13 12H5C4.73478 12 4.48043 12.1054 4.29289 12.2929C4.10536 12.4804 4 12.7348 4 13C4 13.2652 4.10536 13.5196 4.29289 13.7071C4.48043 13.8946 4.73478 14 5 14Z" fill="#FBFBFB"/>
<path d="M18 17C18 16.7348 17.8946 16.4804 17.7071 16.2929C17.5196 16.1054 17.2652 16 17 16H5C4.73478 16 4.48043 16.1054 4.29289 16.2929C4.10536 16.4804 4 16.7348 4 17C4 17.2652 4.10536 17.5196 4.29289 17.7071C4.48043 17.8946 4.73478 18 5 18H17C17.2652 18 17.5196 17.8946 17.7071 17.7071C17.8946 17.5196 18 17.2652 18 17Z" fill="#FBFBFB"/>
<path d="M27 21.9969H25.54L23.83 19.4429C23.7385 19.3066 23.615 19.1949 23.4702 19.1176C23.3255 19.0404 23.164 19 23 19C22.836 19 22.6745 19.0404 22.5298 19.1176C22.385 19.1949 22.2615 19.3066 22.17 19.4429L20.46 21.9969H18C17.7348 21.9969 17.4804 22.1024 17.2929 22.2902C17.1054 22.4781 17 22.7328 17 22.9984C17 23.2641 17.1054 23.5188 17.2929 23.7067C17.4804 23.8945 17.7348 24 18 24H21C21.1647 23.9991 21.3267 23.9576 21.4715 23.8789C21.6162 23.8003 21.7394 23.6871 21.83 23.5493L23 21.7966L24.17 23.5493C24.2606 23.6871 24.3838 23.8003 24.5285 23.8789C24.6733 23.9576 24.8353 23.9991 25 24H27C27.2652 24 27.5196 23.8945 27.7071 23.7067C27.8946 23.5188 28 23.2641 28 22.9984C28 22.7328 27.8946 22.4781 27.7071 22.2902C27.5196 22.1024 27.2652 21.9969 27 21.9969Z" fill="#FBFBFB"/>
</svg>
