<svg width="28" height="18" viewBox="0 0 28 18" fill="none" xmlns="http://www.w3.org/2000/svg">
<path fill-rule="evenodd" clip-rule="evenodd" d="M3.51479 17.4682C3.04408 17.3289 2.61458 17.0812 2.26255 16.7458C1.91052 16.4105 1.64629 15.9974 1.49214 15.5415C0.61131 13.1848 0.350322 3.34432 2.04674 1.40169C2.61134 0.769738 3.40848 0.380662 4.26513 0.318911C8.81609 -0.158784 22.8768 -0.0950911 24.4916 0.478143C24.9458 0.621987 25.3608 0.864307 25.7054 1.18695C26.0501 1.50959 26.3154 1.90418 26.4817 2.34116C27.4441 4.7774 27.4767 13.6307 26.3512 15.9714C26.0526 16.5807 25.5528 17.0742 24.932 17.3726C23.2356 18.2006 5.76581 18.1847 3.51479 17.4682ZM10.7409 12.8505L18.8967 8.71043L10.7409 4.53855V12.8505Z" fill="#FF8B02"/>
</svg>
