<svg width="48" height="49" viewBox="0 0 48 49" fill="none" xmlns="http://www.w3.org/2000/svg">
<path d="M1 8.5V11.3182H27.7187V32.4545H19.0615C18.4353 30.0327 16.26 28.2273 13.6562 28.2273C11.0525 28.2273 8.8772 30.0327 8.25098 32.4545H6.625V25.4091H3.8125V35.2727H8.25098C8.8772 37.6946 11.0525 39.5 13.6562 39.5C16.26 39.5 18.4353 37.6946 19.0615 35.2727H30.751C31.3772 37.6946 33.5525 39.5 36.1562 39.5C38.76 39.5 40.9353 37.6946 41.5615 35.2727H46V23.7798L45.9121 23.5597L43.0996 15.1051L42.792 14.1364H30.5312V8.5H1ZM2.35 15.1509V17.18H15.0062V15.1509H2.35ZM30.5312 16.9545H40.7705L43.1875 24.1761V32.4545H41.5615C40.9353 30.0327 38.76 28.2273 36.1562 28.2273C33.5525 28.2273 31.3772 30.0327 30.751 32.4545H30.5312V16.9545ZM3.8125 19.04V20.9564H12.25V19.04H3.8125ZM13.6562 31.0455C14.2125 31.0455 14.7563 31.2107 15.2188 31.5204C15.6813 31.8301 16.0418 32.2702 16.2547 32.7852C16.4675 33.3001 16.5232 33.8668 16.4147 34.4134C16.3062 34.9601 16.0383 35.4623 15.645 35.8564C15.2517 36.2505 14.7505 36.5189 14.2049 36.6277C13.6594 36.7364 13.0939 36.6806 12.58 36.4673C12.066 36.254 11.6268 35.8928 11.3177 35.4293C11.0087 34.9659 10.8437 34.421 10.8437 33.8636C10.8408 33.4927 10.9115 33.1249 11.0518 32.7816C11.192 32.4384 11.3991 32.1265 11.6609 31.8642C11.9226 31.6019 12.2339 31.3945 12.5764 31.2539C12.919 31.1133 13.2861 31.0425 13.6562 31.0455V31.0455ZM36.1562 31.0455C36.7125 31.0455 37.2563 31.2107 37.7188 31.5204C38.1813 31.8301 38.5418 32.2702 38.7547 32.7852C38.9675 33.3001 39.0232 33.8668 38.9147 34.4134C38.8062 34.9601 38.5383 35.4623 38.145 35.8564C37.7517 36.2505 37.2505 36.5189 36.7049 36.6277C36.1594 36.7364 35.5939 36.6806 35.08 36.4673C34.566 36.254 34.1268 35.8928 33.8177 35.4293C33.5087 34.9659 33.3437 34.421 33.3437 33.8636C33.3408 33.4927 33.4115 33.1249 33.5518 32.7816C33.692 32.4384 33.8991 32.1265 34.1609 31.8642C34.4226 31.6019 34.7339 31.3945 35.0764 31.2539C35.419 31.1133 35.7861 31.0425 36.1562 31.0455V31.0455Z" fill="#FF8B02"/>
</svg>
