<svg width="48" height="49" viewBox="0 0 48 49" fill="none" xmlns="http://www.w3.org/2000/svg">
<path d="M31.5 39.5V39.5018V39.5098V39.5179V39.5259V39.5339V39.5418V39.5497V39.5575V39.5653V39.573V39.5807V39.5884V39.596V39.6036V39.6111V39.6186V39.6261V39.6335V39.6408V39.6482V39.6554V39.6627V39.6699V39.677V39.6841V39.6912V39.6982V39.7052V39.7122V39.7191V39.726V39.7328V39.7396V39.7463V39.753V39.7597V39.7663V39.7729V39.7795V39.786V39.7925V39.7989V39.8053V39.8116V39.818V39.8242V39.8305V39.8367V39.8428V39.849V39.855V39.8611V39.8671V39.8731V39.879V39.8849V39.8908V39.8966V39.9024V39.9081V39.9138V39.9195V39.9251V39.9307V39.9363V39.9418V39.9473V39.9528V39.9582V39.9636V39.9689V39.9742V39.9795V39.9847V39.9899V39.9951V40.0002V40.0053V40.0104V40.0154V40.0204V40.0254V40.0303V40.0352V40.0401V40.0449V40.0497V40.0544V40.0592V40.0639V40.0685V40.0731V40.0777V40.0823V40.0868V40.0913V40.0958V40.1002V40.1046V40.1089V40.1133V40.1176V40.1218V40.1261V40.1303V40.1344V40.1386V40.1427V40.1468V40.1508V40.1548V40.1588V40.1627V40.1667V40.1706V40.1744V40.1782V40.182V40.1858V40.1896V40.1933V40.197V40.2006V40.2042V40.2078V40.2114V40.2149V40.2184V40.2219V40.2253V40.2288V40.2322V40.2355V40.2388V40.2422V40.2454V40.2487V40.2519V40.2551V40.2583V40.2614V40.2645V40.2676V40.2707V40.2737V40.2767V40.2797V40.2826V40.2855V40.2884V40.2913V40.2942V40.297V40.2998V40.3025V40.3053V40.308V40.3107V40.3134V40.316V40.3186V40.3212V40.3238V40.3263V40.3288V40.3313V40.3338V40.3362V40.3387V40.3411V40.3434V40.3458V40.3481V40.3504V40.3527V40.3549V40.3572V40.3594V40.3616V40.3637V40.3659V40.368V40.3701V40.3722V40.3742V40.3762V40.3782V40.3802V40.3822V40.3841V40.386V40.3879V40.3898V40.3917V40.3935V40.3953V40.3971V40.3989V40.4007V40.4024V40.4041V40.4058V40.4075V40.4091V40.4107V40.4124V40.414V40.4155V40.4171V40.4186V40.4201V40.4216V40.4231V40.4246V40.426V40.4274V40.4288V40.4302V40.4316V40.4329V40.4343V40.4356V40.4369V40.4382V40.4394V40.4407V40.4419V40.4431V40.4443V40.4455V40.4466V40.4478V40.4489V40.45V40.4511V40.4522V40.4533V40.4543V40.4553V40.4564V40.4573V40.4583V40.4593V40.4603V40.4612V40.4621V40.463V40.4639V40.4648V40.4657V40.4665V40.4674V40.4682V40.469V40.4698V40.4706V40.4713V40.4721V40.4728V40.4736V40.4743V40.475V40.4757V40.4763V40.477V40.4777V40.4783V40.4789V40.4795V40.4801V40.4807V40.4813V40.4819V40.4824V40.483V40.4835V40.484V40.4845V40.485V40.4855V40.486V40.4865V40.4869V40.4874V40.4878V40.4882V40.4886V40.489V40.4894V40.4898V40.4902V40.4906V40.4909V40.4913V40.4916V40.4919V40.4923V40.4926V40.4929V40.4932V40.4935V40.4938V40.494V40.4943V40.4945V40.4948V40.495V40.4953V40.4955V40.4957V40.4959V40.4961V40.4963V40.4965V40.4967V40.4969V40.497V40.4972V40.4974V40.4975V40.4977V40.4978V40.4979V40.4981V40.4982V40.4983V40.4984V40.4985V40.4986V40.4987V40.4988V40.4989V40.499V40.4991V40.4991V40.4992V40.4993V40.4993V40.4994V40.4995V40.4995V40.4996V40.4996V40.4997V40.4997V40.4997V40.4998V40.4998V40.4998V40.4998V40.4999V40.4999V40.4999V40.4999V40.4999V40.5V40.5L32.5 40.5H1.5V40.5V40.4999V40.4999V40.4999V40.4999V40.4999V40.4998V40.4998V40.4998V40.4998V40.4997V40.4997V40.4997V40.4996V40.4996V40.4995V40.4995V40.4994V40.4993V40.4993V40.4992V40.4991V40.4991V40.499V40.4989V40.4988V40.4987V40.4986V40.4985V40.4984V40.4983V40.4982V40.4981V40.4979V40.4978V40.4977V40.4975V40.4974V40.4972V40.497V40.4969V40.4967V40.4965V40.4963V40.4961V40.4959V40.4957V40.4955V40.4953V40.495V40.4948V40.4945V40.4943V40.494V40.4938V40.4935V40.4932V40.4929V40.4926V40.4923V40.4919V40.4916V40.4913V40.4909V40.4906V40.4902V40.4898V40.4894V40.489V40.4886V40.4882V40.4878V40.4874V40.4869V40.4865V40.486V40.4855V40.485V40.4845V40.484V40.4835V40.483V40.4824V40.4819V40.4813V40.4807V40.4801V40.4795V40.4789V40.4783V40.4777V40.477V40.4763V40.4757V40.475V40.4743V40.4736V40.4728V40.4721V40.4713V40.4706V40.4698V40.469V40.4682V40.4674V40.4665V40.4657V40.4648V40.4639V40.463V40.4621V40.4612V40.4603V40.4593V40.4583V40.4573V40.4564V40.4553V40.4543V40.4533V40.4522V40.4511V40.45V40.4489V40.4478V40.4466V40.4455V40.4443V40.4431V40.4419V40.4407V40.4394V40.4382V40.4369V40.4356V40.4343V40.4329V40.4316V40.4302V40.4288V40.4274V40.426V40.4246V40.4231V40.4216V40.4201V40.4186V40.4171V40.4155V40.414V40.4124V40.4107V40.4091V40.4075V40.4058V40.4041V40.4024V40.4007V40.3989V40.3971V40.3953V40.3935V40.3917V40.3898V40.3879V40.386V40.3841V40.3822V40.3802V40.3782V40.3762V40.3742V40.3722V40.3701V40.368V40.3659V40.3637V40.3616V40.3594V40.3572V40.3549V40.3527V40.3504V40.3481V40.3458V40.3434V40.3411V40.3387V40.3362V40.3338V40.3313V40.3288V40.3263V40.3238V40.3212V40.3186V40.316V40.3134V40.3107V40.308V40.3053V40.3025V40.2998V40.297V40.2942V40.2913V40.2884V40.2855V40.2826V40.2797V40.2767V40.2737V40.2707V40.2676V40.2645V40.2614V40.2583V40.2551V40.2519V40.2487V40.2454V40.2422V40.2388V40.2355V40.2322V40.2288V40.2253V40.2219V40.2184V40.2149V40.2114V40.2078V40.2042V40.2006V40.197V40.1933V40.1896V40.1858V40.182V40.1782V40.1744V40.1706V40.1667V40.1627V40.1588V40.1548V40.1508V40.1468V40.1427V40.1386V40.1344V40.1303V40.1261V40.1218V40.1176V40.1133V40.1089V40.1046V40.1002V40.0958V40.0913V40.0868V40.0823V40.0777V40.0731V40.0685V40.0639V40.0592V40.0544V40.0497V40.0449V40.0401V40.0352V40.0303V40.0254V40.0204V40.0154V40.0104V40.0053V40.0002V39.9951V39.9899V39.9847V39.9795V39.9742V39.9689V39.9636V39.9582V39.9528V39.9473V39.9418V39.9363V39.9307V39.9251V39.9195V39.9138V39.9081V39.9024V39.8966V39.8908V39.8849V39.879V39.8731V39.8671V39.8611V39.855V39.849V39.8428V39.8367V39.8305V39.8242V39.818V39.8116V39.8053V39.7989V39.7925V39.786V39.7795V39.7729V39.7663V39.7597V39.753V39.7463V39.7396V39.7328V39.726V39.7191V39.7122V39.7052V39.6982V39.6912V39.6841V39.677V39.6699V39.6627V39.6554V39.6482V39.6408V39.6335V39.6261V39.6186V39.6111V39.6036V39.596V39.5884V39.5807V39.573V39.5653V39.5575V39.5497V39.5418V39.5339V39.5259V39.5179V39.5098V39.5018V39.5M31.5 39.5H32.5V37.8333C32.5 35.1667 29.8333 27.1667 16.5 27.1667C3.16667 27.1667 0.5 35.1667 0.5 37.8333V39.5H1.5M31.5 39.5V39.4936V39.4854V39.4772V39.4689V39.4606V39.4523V39.4439V39.4354V39.4269V39.4184V39.4098V39.4012V39.3925V39.3838V39.375V39.3662V39.3573V39.3484V39.3395V39.3305V39.3214V39.3123V39.3032V39.294V39.2848V39.2755V39.2662V39.2568V39.2474V39.2379V39.2284V39.2189V39.2093V39.1996V39.1899V39.1802V39.1704V39.1605V39.1506V39.1407V39.1307V39.1206V39.1105V39.1004V39.0902V39.08V39.0697V39.0593V39.0489V39.0385V39.028V39.0175V39.0069V38.9962V38.9855V38.9748V38.964V38.9532V38.9423V38.9313V38.9203V38.9093V38.8982V38.887V38.8758V38.8646V38.8533V38.8419V38.8305V38.8191V38.8075V38.796V38.7844V38.7727V38.761V38.7492V38.7374V38.7255V38.7135V38.7016V38.6895V38.6774V38.6653V38.6531V38.6408V38.6285V38.6161V38.6037V38.5912V38.5787V38.5661V38.5535V38.5408V38.528V38.5152V38.5024V38.4894V38.4765V38.4634V38.4504V38.4372V38.424V38.4108V38.3975V38.3841V38.3707V38.3572V38.3437V38.3301V38.3164V38.3027V38.289V38.2752V38.2613V38.2473V38.2334V38.2193V38.2052V38.191V38.1768V38.1625V38.1482V38.1338V38.1193V38.1048V38.0902V38.0756V38.0609V38.0462V38.0313V38.0165V38.0015V37.9866V37.9715V37.9564V37.9412V37.926V37.9107V37.8953V37.8799V37.8645V37.8489V37.8333C31.5 36.7568 30.9328 34.347 28.7929 32.2071C26.6823 30.0965 22.9558 28.1667 16.5 28.1667C10.0442 28.1667 6.3177 30.0965 4.20711 32.2071C2.06721 34.347 1.5 36.7568 1.5 37.8333V37.8489V37.8645V37.8799V37.8953V37.9107V37.926V37.9412V37.9564V37.9715V37.9866V38.0015V38.0165V38.0313V38.0462V38.0609V38.0756V38.0902V38.1048V38.1193V38.1338V38.1482V38.1625V38.1768V38.191V38.2052V38.2193V38.2334V38.2473V38.2613V38.2752V38.289V38.3027V38.3164V38.3301V38.3437V38.3572V38.3707V38.3841V38.3975V38.4108V38.424V38.4372V38.4504V38.4634V38.4765V38.4894V38.5024V38.5152V38.528V38.5408V38.5535V38.5661V38.5787V38.5912V38.6037V38.6161V38.6285V38.6408V38.6531V38.6653V38.6774V38.6895V38.7016V38.7135V38.7255V38.7374V38.7492V38.761V38.7727V38.7844V38.796V38.8075V38.8191V38.8305V38.8419V38.8533V38.8646V38.8758V38.887V38.8982V38.9093V38.9203V38.9313V38.9423V38.9532V38.964V38.9748V38.9855V38.9962V39.0069V39.0175V39.028V39.0385V39.0489V39.0593V39.0697V39.08V39.0902V39.1004V39.1105V39.1206V39.1307V39.1407V39.1506V39.1605V39.1704V39.1802V39.1899V39.1996V39.2093V39.2189V39.2284V39.2379V39.2474V39.2568V39.2662V39.2755V39.2848V39.294V39.3032V39.3123V39.3214V39.3305V39.3395V39.3484V39.3573V39.3662V39.375V39.3838V39.3925V39.4012V39.4098V39.4184V39.4269V39.4354V39.4439V39.4523V39.4606V39.4689V39.4772V39.4854V39.4936V39.5M31.5 39.5H1.5M21.4497 21.4497C20.137 22.7625 18.3565 23.5 16.5 23.5C14.6435 23.5 12.863 22.7625 11.5503 21.4497C10.2375 20.137 9.5 18.3565 9.5 16.5C9.5 14.6435 10.2375 12.863 11.5503 11.5503C12.863 10.2375 14.6435 9.5 16.5 9.5C18.3565 9.5 20.137 10.2375 21.4497 11.5503C22.7625 12.863 23.5 14.6435 23.5 16.5C23.5 18.3565 22.7625 20.137 21.4497 21.4497Z" stroke="#FF8B02" stroke-width="2"/>
<path d="M46.3886 20.1071L46.3904 20.1089C46.4246 20.1433 46.4522 20.1846 46.4712 20.2307C46.4901 20.2768 46.5 20.3265 46.5 20.3768C46.5 20.4272 46.4901 20.4769 46.4712 20.523C46.4522 20.5691 46.4246 20.6104 46.3904 20.6448L46.3895 20.6457L38.21 28.892L38.2091 28.8929C38.175 28.9274 38.1349 28.9543 38.0913 28.9725L38.4772 29.895L38.0913 28.9725C38.0478 28.9907 38.0014 29 37.9548 29C37.9081 29 37.8617 28.9907 37.8182 28.9725L37.4323 29.895L37.8182 28.9725C37.7746 28.9543 37.7345 28.9274 37.7004 28.8929L37.6995 28.892L33.6098 24.7688L32.8998 25.4731L33.6098 24.7688C33.5404 24.6989 33.5 24.6024 33.5 24.5C33.5 24.3976 33.5404 24.3011 33.6098 24.2312C33.6789 24.1615 33.7708 24.1239 33.865 24.1239C33.959 24.1239 34.0508 24.1614 34.1199 24.2309C34.1199 24.2309 34.1199 24.2309 34.12 24.2309C34.12 24.231 34.1201 24.2311 34.1202 24.2312L37.2445 27.3837L37.9546 28.1002L38.6649 27.3839L45.8792 20.1079L45.88 20.1071C45.9141 20.0726 45.9542 20.0457 45.9977 20.0275C46.0413 20.0093 46.0877 20 46.1343 20C46.181 20 46.2273 20.0093 46.2709 20.0275C46.3144 20.0457 46.3545 20.0726 46.3886 20.1071Z" stroke="#FF8B02" stroke-width="2"/>
</svg>
