<svg width="22" height="22" viewBox="0 0 22 22" fill="none" xmlns="http://www.w3.org/2000/svg">
<path d="M18.4268 3.5625C16.4512 1.59375 13.8171 0.5 11.0366 0.5C5.2561 0.5 0.57317 5.16667 0.57317 10.9271C0.57317 12.75 1.08537 14.5729 1.96341 16.1042L0.5 21.5L6.06098 20.0417C7.59756 20.8438 9.28049 21.2812 11.0366 21.2812C16.8171 21.2812 21.5 16.6146 21.5 10.8542C21.4268 8.15625 20.4024 5.53125 18.4268 3.5625ZM16.0854 14.6458C15.8659 15.2292 14.8415 15.8125 14.3293 15.8854C13.8902 15.9583 13.3049 15.9583 12.7195 15.8125C12.3537 15.6667 11.8415 15.5208 11.2561 15.2292C8.62195 14.1354 6.93903 11.5104 6.79268 11.2917C6.64634 11.1458 5.69512 9.90625 5.69512 8.59375C5.69512 7.28125 6.35366 6.69792 6.57317 6.40625C6.79268 6.11458 7.08536 6.11458 7.30488 6.11458C7.45122 6.11458 7.67073 6.11458 7.81707 6.11458C7.96341 6.11458 8.18293 6.04167 8.40244 6.55208C8.62195 7.0625 9.13414 8.375 9.20731 8.44792C9.28049 8.59375 9.28049 8.73958 9.20731 8.88542C9.13414 9.03125 9.06097 9.17708 8.91463 9.32292C8.76829 9.46875 8.62195 9.6875 8.54878 9.76042C8.40244 9.90625 8.2561 10.0521 8.40244 10.2708C8.54878 10.5625 9.06097 11.3646 9.86585 12.0937C10.8902 12.9687 11.6951 13.2604 11.9878 13.4063C12.2805 13.5521 12.4268 13.4792 12.5732 13.3333C12.7195 13.1875 13.2317 12.6042 13.378 12.3125C13.5244 12.0208 13.7439 12.0938 13.9634 12.1667C14.1829 12.2396 15.5 12.8958 15.7195 13.0417C16.0122 13.1875 16.1585 13.2604 16.2317 13.3333C16.3049 13.5521 16.3049 14.0625 16.0854 14.6458Z" fill="#FF8B02"/>
</svg>
