<svg width="20" height="24" viewBox="0 0 20 24" fill="none" xmlns="http://www.w3.org/2000/svg">
<path d="M4.01338 0V24H7.99331V0H4.01338ZM6.25418 3.56572H11.204C12.252 3.56572 13.1438 3.69143 13.8796 3.94286C14.6154 4.17143 15.1951 4.54857 15.6187 5.07429C16.0424 5.6 16.2542 6.27429 16.2542 7.09714C16.2542 7.94286 16.0424 8.62857 15.6187 9.15429C15.1951 9.68 14.6154 10.0686 13.8796 10.32C13.1438 10.5486 12.252 10.6629 11.204 10.6629H6.25418V14.2286H11.204C12.9208 14.2286 14.437 14 15.7525 13.5429C17.068 13.0629 18.1048 12.2971 18.8629 11.2457C19.621 10.1714 20 8.78857 20 7.09714C20 5.38286 19.621 4.01143 18.8629 2.98286C18.1048 1.93143 17.068 1.17714 15.7525 0.720001C14.437 0.24 12.9208 0 11.204 0H6.25418V3.56572ZM7.52508 20.7771H14.3813V17.4514H7.52508V20.7771ZM0 14.1257H6.85619V10.8H0V14.1257ZM0 20.7771H6.85619V17.4514H0V20.7771Z" fill="#FBFBFB"/>
</svg>
