<svg width="48" height="48" viewBox="0 0 48 48" fill="none" xmlns="http://www.w3.org/2000/svg">
<path d="M24.9603 25.9474L24.9605 25.9473L24.9404 25.8867C24.6928 25.1696 24.3002 24.7421 23.9233 24.5526L23.8585 24.5241C23.7065 24.4571 23.5639 24.433 23.4465 24.4407C23.3705 24.4461 23.3082 24.4661 23.2618 24.4941L23.2359 24.5152C23.17 24.5691 23.1081 24.6774 23.0927 24.8693L24.7566 31.3794L28.133 36.4428L28.1333 36.4433C28.1838 36.5197 28.2227 36.6035 28.2452 36.6927C28.2453 36.6929 28.2453 36.6931 28.2454 36.6932L30.0071 43.5112H40.9035L42.1891 36.6569V29.9839V24.4099C42.1891 24.2418 42.1453 24.0876 42.0714 23.9603L42.0677 23.954L42.0678 23.9539L42.0531 23.9254C41.9749 23.8024 41.8643 23.6968 41.7361 23.6223C41.3463 23.3962 41.2122 22.8958 41.4384 22.5055C41.6643 22.1154 42.165 21.9813 42.5554 22.2075L42.5556 22.2077C42.9272 22.424 43.2434 22.7358 43.4656 23.1073C43.4658 23.1075 43.4659 23.1078 43.4661 23.108L43.4845 23.1382L43.4864 23.1413L43.4863 23.1413C43.704 23.5172 43.8292 23.9504 43.8292 24.41V29.984V36.7215V36.8715H43.8131C43.813 36.8719 43.8129 36.8724 43.8128 36.8728C43.8128 36.8729 43.8128 36.873 43.8128 36.8732L42.3977 44.4199C42.3529 44.8302 42.0048 45.1498 41.5833 45.1498H29.3767H29.2267V45.1331C28.9252 45.0764 28.6684 44.8515 28.5862 44.5357L28.5861 44.5354L26.699 37.2347L23.3471 32.2081C23.2818 32.1222 23.2328 32.0232 23.2048 31.9132L23.2049 31.9132L23.3502 31.8761L23.2048 31.913L24.9603 25.9474ZM24.9603 25.9474L24.9625 25.9531M24.9603 25.9474L24.9625 25.9531M24.9625 25.9531L26.1656 29.1413M24.9625 25.9531L22.3094 23.1665C22.6061 22.9568 22.9565 22.8358 23.3266 22.8084C23.7112 22.7791 24.1239 22.8512 24.5195 23.0258L24.609 23.0652V23.0684C25.3668 23.4344 26.0861 24.1941 26.4883 25.3644L26.4929 25.3768L26.4933 25.378L27.6945 28.5638C27.8536 28.9855 27.6412 29.4579 27.2188 29.617M27.2188 29.617L27.166 29.477L27.2189 29.617C27.2188 29.617 27.2188 29.617 27.2188 29.617ZM27.2188 29.617C26.7971 29.7761 26.3248 29.5636 26.1656 29.1413M26.1656 29.1413L26.1657 29.1413L26.3055 29.0886L26.1656 29.1413ZM21.4871 25.1954C21.4875 25.1965 21.4878 25.1976 21.4882 25.1988L21.6317 25.1551L21.4863 25.1923L21.4871 25.1954Z" fill="#FF8B02" stroke="#FF8B02" stroke-width="0.3"/>
<path d="M30.0036 31.7122V31.5622H30.0007V15.7668C30.0007 15.5205 30.0987 15.297 30.2561 15.1348L30.2596 15.1324L30.2697 15.1223C30.4328 14.9593 30.6603 14.8572 30.9101 14.8572C31.1581 14.8572 31.3868 14.9601 31.5516 15.126C31.717 15.2926 31.8197 15.5205 31.8197 15.7681V30.8482C31.8197 31.3001 32.1878 31.6681 32.6397 31.6681C33.0916 31.6681 33.4596 31.3001 33.4596 30.8482V15.7681C33.4596 15.0673 33.1716 14.4296 32.7118 13.9683L32.7116 13.9681C32.2514 13.5079 31.6122 13.2201 30.9116 13.2201C30.2204 13.2201 29.587 13.5022 29.1264 13.9575L29.1222 13.9603L29.1117 13.9708C28.6503 14.4322 28.3637 15.0687 28.3637 15.7681V31.7122C28.3637 32.1659 28.7319 32.5321 29.1836 32.5321C29.6355 32.5321 30.0036 32.1642 30.0036 31.7122ZM32.6056 14.0742C33.0389 14.509 33.3096 15.1091 33.3096 15.7681V30.8482C33.3096 31.2173 33.0088 31.5181 32.6397 31.5181C32.2706 31.5181 31.9697 31.2173 31.9697 30.8482V15.7681C31.9697 15.4783 31.8494 15.2131 31.658 15.0203C31.4665 14.8275 31.2 14.7072 30.9101 14.7072C30.6189 14.7072 30.3537 14.8262 30.1637 15.0162L32.6056 14.0742Z" fill="#FF8B02" stroke="#FF8B02" stroke-width="0.3"/>
<path d="M36.9166 30.7052V30.8482C36.9166 31.3001 36.5485 31.6681 36.0966 31.6681C35.6447 31.6681 35.2767 31.3 35.2767 30.8482V22.6819C35.2767 22.5147 35.2319 22.3601 35.1573 22.2304C35.0775 22.092 34.9597 21.9742 34.8223 21.8943L36.9166 30.7052ZM36.9166 30.7052L36.9152 30.7051M36.9166 30.7052L36.9152 30.7051M36.9152 30.7051V22.6819C36.9152 22.2223 36.79 21.7878 36.5723 21.4118L36.4425 21.487M36.9152 30.7051L35.5662 20.6092C35.9285 20.8212 36.2348 21.126 36.4425 21.487M36.4425 21.487L36.5725 21.4121C36.3514 21.0279 36.0262 20.7045 35.6419 20.4798L35.6419 20.4798L35.6413 20.4794C35.251 20.2533 34.7504 20.3873 34.5244 20.7774L34.5244 20.7774M36.4425 21.487C36.6476 21.8411 36.7652 22.2499 36.7652 22.6819L34.5244 20.7774M34.5244 20.7774C34.2983 21.1678 34.4322 21.6682 34.8222 21.8942L34.5244 20.7774Z" fill="#FF8B02" stroke="#FF8B02" stroke-width="0.3"/>
<path d="M39.1005 21.3438L39.1003 21.3437C38.71 21.1176 38.2093 21.2516 37.9834 21.6417C37.7573 22.032 37.8912 22.5324 38.2811 22.7585C38.4185 22.8384 38.5359 22.9559 38.6142 23.0948L38.6142 23.0949L38.6154 23.097C38.6906 23.2254 38.7343 23.381 38.7343 23.5462V30.8496C38.7343 31.3016 39.1023 31.6696 39.5543 31.6696C40.0063 31.6696 40.3742 31.3016 40.3742 30.8496V23.5461C40.3742 23.0892 40.2489 22.6547 40.0314 22.2776L40.0314 22.2776C39.8091 21.8927 39.4855 21.5676 39.1005 21.3438Z" fill="#FF8B02" stroke="#FF8B02" stroke-width="0.3"/>
<path d="M27.8608 7.25374L27.8608 7.25373L27.8604 7.25431L26.6634 8.91159L25.4598 7.26234L25.4597 7.26217C25.3198 7.07225 25.1117 6.97246 24.874 6.97246C24.4614 6.97246 24.1473 7.30996 24.1473 7.69102C24.1473 7.83805 24.1881 7.99524 24.2871 8.12825L24.2872 8.12842L25.9219 10.3053V11.8787C25.9219 12.2831 26.2527 12.6041 26.6555 12.6041C27.0662 12.6041 27.3973 12.2835 27.3973 11.8787V10.3039L29.0307 8.12706L29.0308 8.12692C29.1296 7.99434 29.172 7.84543 29.172 7.68961V7.68958C29.1718 7.30928 28.8582 6.97246 28.4313 6.97246C28.2176 6.97246 28.0024 7.06335 27.8608 7.25374Z" fill="#FF8B02" stroke="#FF8B02" stroke-width="0.1"/>
<path d="M16.2455 9.58106C16.2505 9.57525 16.2559 9.56883 16.2616 9.56182C16.2943 9.52156 16.3374 9.46146 16.3802 9.38071C16.4661 9.21897 16.5508 8.97515 16.5508 8.64362C16.5508 8.22366 16.3943 7.8241 16.089 7.52962C15.7835 7.23495 15.3326 7.0487 14.7494 7.0487L12.9748 7.04863C12.5769 7.04863 12.2645 7.37985 12.2645 7.76719V11.8154C12.2645 12.1972 12.5945 12.5258 12.9748 12.5258H14.7112C15.9109 12.5258 16.7204 11.7305 16.7204 10.7163C16.7204 10.3059 16.5919 10.0139 16.4621 9.82396C16.3974 9.72921 16.3324 9.66013 16.2834 9.61449C16.2693 9.60147 16.2566 9.59034 16.2455 9.58106ZM14.7029 8.38594C14.8422 8.38594 14.9465 8.4287 15.0155 8.49341C15.0844 8.55806 15.1219 8.64803 15.1219 8.75019C15.1219 8.86138 15.0839 8.95308 15.0155 9.01721C14.9469 9.08156 14.8429 9.12262 14.7029 9.12262H13.7234V8.38588L14.7029 8.38594ZM14.7412 10.3069C14.9185 10.3069 15.0562 10.3493 15.1483 10.4211C15.239 10.4917 15.2901 10.594 15.2901 10.7258C15.2901 10.8621 15.2381 10.9789 15.1456 11.0621C15.0528 11.1455 14.9158 11.1981 14.7412 11.1981H13.7234V10.3069H14.7412Z" fill="#FF8B02" stroke="#FF8B02" stroke-width="0.1"/>
<path d="M18.0594 7.69102V10.0645C18.0594 11.5686 19.1974 12.6027 20.599 12.6027C22.0002 12.6027 23.1536 11.5676 23.1536 10.0645V7.68279C23.1536 7.29312 22.8307 6.97246 22.4201 6.97246C22.0172 6.97246 21.6947 7.29351 21.6947 7.68279V10.0795C21.6947 10.4368 21.5722 10.7234 21.376 10.9206C21.1797 11.1179 20.9067 11.2286 20.6004 11.2286C20.0066 11.2286 19.5211 10.7908 19.5211 10.0795V7.69102C19.5211 7.28456 19.1895 6.97246 18.7875 6.97246C18.3821 6.97246 18.0594 7.28521 18.0594 7.69102Z" fill="#FF8B02" stroke="#FF8B02" stroke-width="0.1"/>
<path d="M35.8477 15.1315L35.8474 15.1317C35.5495 15.4699 35.0308 15.5035 34.6924 15.2053C34.3543 14.9075 34.3206 14.3891 34.6185 14.0506C34.8289 13.8103 34.9983 13.5345 35.1105 13.2392L35.8477 15.1315ZM35.8477 15.1315C36.1818 14.7506 36.4537 14.3059 36.6394 13.8156L36.6395 13.8152C36.8165 13.344 36.9157 12.8353 36.9157 12.3105V7.12752C36.9157 5.9497 36.4336 4.87987 35.6604 4.10661C34.8871 3.33206 33.8174 2.85 32.6409 2.85H8.44312C7.2928 2.85 6.24165 3.3152 5.46946 4.06679H5.46747L5.42352 4.11082C4.64908 4.88666 4.16836 5.95505 4.16836 7.12617V12.3105C4.16836 13.4309 4.60756 14.4564 5.32082 15.222M35.8477 15.1315L5.32082 15.222M5.32082 15.222L5.31763 15.2252L5.42352 15.3313C6.19674 16.1059 7.2666 16.588 8.44312 16.588H26.591C27.0435 16.588 27.4096 16.2197 27.4096 15.7681C27.4096 15.3165 27.0434 14.9482 26.591 14.9482H8.44305C7.72219 14.9482 7.06108 14.6498 6.58312 14.1718L6.49417 14.0829C6.06795 13.615 5.80683 12.9906 5.80683 12.3105V7.12617C5.80683 6.40231 6.10404 5.74267 6.58048 5.26624L6.59098 5.25573L6.59357 5.25185C7.06919 4.78145 7.72451 4.48854 8.44312 4.48854H32.6409C33.3632 4.48854 34.0243 4.78695 34.5022 5.26488C34.9799 5.74262 35.2772 6.40369 35.2772 7.12617V12.3119C35.2772 12.641 35.2177 12.9552 35.1106 13.2389L5.32082 15.222Z" fill="#FF8B02" stroke="#FF8B02" stroke-width="0.3"/>
</svg>
