<svg width="24" height="24" viewBox="0 0 24 24" fill="none" xmlns="http://www.w3.org/2000/svg">
<mask id="path-1-outside-1_441_12526" maskUnits="userSpaceOnUse" x="2" y="1" width="20" height="22" fill="black">
<rect fill="white" x="2" y="1" width="20" height="22"/>
<path fill-rule="evenodd" clip-rule="evenodd" d="M18.968 9.01108L20.9803 20.4883C21.0127 20.673 21.0051 20.8626 20.9581 21.0439C20.9112 21.2253 20.8259 21.3939 20.7084 21.538C20.5909 21.682 20.4439 21.7981 20.2778 21.8779C20.1117 21.9577 19.9305 21.9994 19.747 22H4.2531C3.88114 22 3.53092 21.8292 3.29223 21.5377C3.17441 21.3935 3.08896 21.2246 3.0419 21.043C2.99484 20.8614 2.98732 20.6714 3.01986 20.4865L5.03214 9.01108C5.13936 8.40005 5.65804 7.95285 6.26542 7.95285H8.95655C8.52327 7.33135 8.29009 6.57504 8.29009 5.78869C8.29009 3.69807 9.95438 2 12.0001 2C14.0457 2 15.71 3.69901 15.71 5.78962C15.71 6.576 15.4769 7.33135 15.0436 7.95285H17.7347C18.3422 7.95285 18.8608 8.40005 18.968 9.01108ZM19.747 21.3845C19.9381 21.3845 20.118 21.2924 20.2407 21.1426C20.3013 21.0682 20.3452 20.9811 20.3693 20.8875C20.3935 20.7938 20.3974 20.696 20.3806 20.6007L18.3684 9.12341C18.3419 8.97129 18.2639 8.83353 18.148 8.73426C18.0322 8.63498 17.8859 8.58051 17.7347 8.58039H13.6448L14.1743 8.04852C14.7718 7.44702 15.1009 6.64679 15.1009 5.79319C15.1009 4.04582 13.7099 2.62408 12.0001 2.62408C10.2902 2.62408 8.89921 4.04537 8.89921 5.79274C8.89921 6.64637 9.22828 7.44713 9.82581 8.0486L10.3553 8.58039H6.26542C5.95331 8.58039 5.68681 8.81104 5.63172 9.12499L3.61944 20.6013C3.60272 20.6965 3.60657 20.7943 3.63075 20.8878C3.65492 20.9813 3.69883 21.0683 3.75938 21.1426C3.88203 21.2924 4.06197 21.3845 4.2531 21.3845H19.747ZM10.796 5.79333C10.796 6.47193 11.3362 7.024 12.0002 7.024C12.6641 7.024 13.2043 6.47193 13.2043 5.79333C13.2043 5.11477 12.6641 4.56271 12.0002 4.56271C11.3362 4.56271 10.796 5.11477 10.796 5.79333ZM11.4732 13.5313L10.3077 14.7635L11.7409 17.0145C11.7686 17.0578 11.7843 17.108 11.7863 17.1597C11.7883 17.2115 11.7766 17.2628 11.7523 17.3082C11.703 17.4012 11.6076 17.4564 11.5041 17.4564H11.0567C10.9564 17.4564 10.861 17.4049 10.8103 17.3164L9.70046 15.3877L8.98711 16.1263V17.0158C8.98711 17.2622 8.78837 17.462 8.54724 17.462C8.30611 17.462 8.10737 17.2622 8.10737 17.0158V13.4883C8.10737 13.2418 8.30611 13.042 8.54724 13.042C8.78837 13.042 8.98711 13.2418 8.98711 13.4883V15.0047L10.6728 13.1402C10.7263 13.0807 10.8071 13.0516 10.8861 13.0516H11.2701C11.3835 13.0516 11.4859 13.1161 11.5302 13.2227C11.5518 13.2741 11.558 13.331 11.5478 13.3859C11.5377 13.4409 11.5117 13.4915 11.4732 13.5313ZM15.7717 15.079C15.9277 15.079 16.0309 15.2215 16.0309 15.3809H16.0309V16.7224C16.0309 16.8102 16.0033 16.8935 15.9363 16.9482C15.762 17.0903 15.5441 17.2179 15.2592 17.3308C14.912 17.4685 14.5604 17.5373 14.2045 17.5373C13.7522 17.5374 13.3579 17.4404 13.0214 17.2464C12.6851 17.0525 12.4324 16.7751 12.2632 16.4142C12.0941 16.0535 12.0095 15.6611 12.0095 15.2369C12.0095 14.7766 12.1039 14.3676 12.2928 14.0099C12.4815 13.6522 12.7579 13.3778 13.1218 13.1867C13.3991 13.04 13.7442 12.9666 14.1572 12.9666C14.6941 12.9666 15.1135 13.0817 15.4155 13.3119C15.5438 13.409 15.6558 13.5267 15.7472 13.6605C15.7897 13.7229 15.8162 13.7952 15.8243 13.8708C15.8325 13.9464 15.822 14.0228 15.7938 14.0932C15.7656 14.1636 15.7206 14.2256 15.6629 14.2736C15.6053 14.3217 15.5368 14.3542 15.4636 14.3683L15.4626 14.3685C15.3775 14.3847 15.2896 14.3745 15.2102 14.339C15.1309 14.3036 15.0638 14.2446 15.0177 14.1697C14.9572 14.0714 14.8789 13.986 14.787 13.9178C14.6186 13.7922 14.4086 13.7294 14.1569 13.7294C13.7751 13.7295 13.4716 13.8531 13.2465 14.1002C13.0209 14.3475 12.9081 14.7143 12.9081 15.2007C12.9081 15.7254 13.0207 16.1188 13.249 16.3811C13.4771 16.6434 13.7734 16.7745 14.1432 16.7745C14.3261 16.7745 14.5042 16.7379 14.6882 16.6645C14.8719 16.5911 15.0449 16.5021 15.1512 16.3977V15.8514H14.5364C14.3352 15.8514 14.1721 15.6708 14.1721 15.4652C14.1721 15.2595 14.3352 15.079 14.5364 15.079H15.7717Z"/>
</mask>
<path fill-rule="evenodd" clip-rule="evenodd" d="M18.968 9.01108L20.9803 20.4883C21.0127 20.673 21.0051 20.8626 20.9581 21.0439C20.9112 21.2253 20.8259 21.3939 20.7084 21.538C20.5909 21.682 20.4439 21.7981 20.2778 21.8779C20.1117 21.9577 19.9305 21.9994 19.747 22H4.2531C3.88114 22 3.53092 21.8292 3.29223 21.5377C3.17441 21.3935 3.08896 21.2246 3.0419 21.043C2.99484 20.8614 2.98732 20.6714 3.01986 20.4865L5.03214 9.01108C5.13936 8.40005 5.65804 7.95285 6.26542 7.95285H8.95655C8.52327 7.33135 8.29009 6.57504 8.29009 5.78869C8.29009 3.69807 9.95438 2 12.0001 2C14.0457 2 15.71 3.69901 15.71 5.78962C15.71 6.576 15.4769 7.33135 15.0436 7.95285H17.7347C18.3422 7.95285 18.8608 8.40005 18.968 9.01108ZM19.747 21.3845C19.9381 21.3845 20.118 21.2924 20.2407 21.1426C20.3013 21.0682 20.3452 20.9811 20.3693 20.8875C20.3935 20.7938 20.3974 20.696 20.3806 20.6007L18.3684 9.12341C18.3419 8.97129 18.2639 8.83353 18.148 8.73426C18.0322 8.63498 17.8859 8.58051 17.7347 8.58039H13.6448L14.1743 8.04852C14.7718 7.44702 15.1009 6.64679 15.1009 5.79319C15.1009 4.04582 13.7099 2.62408 12.0001 2.62408C10.2902 2.62408 8.89921 4.04537 8.89921 5.79274C8.89921 6.64637 9.22828 7.44713 9.82581 8.0486L10.3553 8.58039H6.26542C5.95331 8.58039 5.68681 8.81104 5.63172 9.12499L3.61944 20.6013C3.60272 20.6965 3.60657 20.7943 3.63075 20.8878C3.65492 20.9813 3.69883 21.0683 3.75938 21.1426C3.88203 21.2924 4.06197 21.3845 4.2531 21.3845H19.747ZM10.796 5.79333C10.796 6.47193 11.3362 7.024 12.0002 7.024C12.6641 7.024 13.2043 6.47193 13.2043 5.79333C13.2043 5.11477 12.6641 4.56271 12.0002 4.56271C11.3362 4.56271 10.796 5.11477 10.796 5.79333ZM11.4732 13.5313L10.3077 14.7635L11.7409 17.0145C11.7686 17.0578 11.7843 17.108 11.7863 17.1597C11.7883 17.2115 11.7766 17.2628 11.7523 17.3082C11.703 17.4012 11.6076 17.4564 11.5041 17.4564H11.0567C10.9564 17.4564 10.861 17.4049 10.8103 17.3164L9.70046 15.3877L8.98711 16.1263V17.0158C8.98711 17.2622 8.78837 17.462 8.54724 17.462C8.30611 17.462 8.10737 17.2622 8.10737 17.0158V13.4883C8.10737 13.2418 8.30611 13.042 8.54724 13.042C8.78837 13.042 8.98711 13.2418 8.98711 13.4883V15.0047L10.6728 13.1402C10.7263 13.0807 10.8071 13.0516 10.8861 13.0516H11.2701C11.3835 13.0516 11.4859 13.1161 11.5302 13.2227C11.5518 13.2741 11.558 13.331 11.5478 13.3859C11.5377 13.4409 11.5117 13.4915 11.4732 13.5313ZM15.7717 15.079C15.9277 15.079 16.0309 15.2215 16.0309 15.3809H16.0309V16.7224C16.0309 16.8102 16.0033 16.8935 15.9363 16.9482C15.762 17.0903 15.5441 17.2179 15.2592 17.3308C14.912 17.4685 14.5604 17.5373 14.2045 17.5373C13.7522 17.5374 13.3579 17.4404 13.0214 17.2464C12.6851 17.0525 12.4324 16.7751 12.2632 16.4142C12.0941 16.0535 12.0095 15.6611 12.0095 15.2369C12.0095 14.7766 12.1039 14.3676 12.2928 14.0099C12.4815 13.6522 12.7579 13.3778 13.1218 13.1867C13.3991 13.04 13.7442 12.9666 14.1572 12.9666C14.6941 12.9666 15.1135 13.0817 15.4155 13.3119C15.5438 13.409 15.6558 13.5267 15.7472 13.6605C15.7897 13.7229 15.8162 13.7952 15.8243 13.8708C15.8325 13.9464 15.822 14.0228 15.7938 14.0932C15.7656 14.1636 15.7206 14.2256 15.6629 14.2736C15.6053 14.3217 15.5368 14.3542 15.4636 14.3683L15.4626 14.3685C15.3775 14.3847 15.2896 14.3745 15.2102 14.339C15.1309 14.3036 15.0638 14.2446 15.0177 14.1697C14.9572 14.0714 14.8789 13.986 14.787 13.9178C14.6186 13.7922 14.4086 13.7294 14.1569 13.7294C13.7751 13.7295 13.4716 13.8531 13.2465 14.1002C13.0209 14.3475 12.9081 14.7143 12.9081 15.2007C12.9081 15.7254 13.0207 16.1188 13.249 16.3811C13.4771 16.6434 13.7734 16.7745 14.1432 16.7745C14.3261 16.7745 14.5042 16.7379 14.6882 16.6645C14.8719 16.5911 15.0449 16.5021 15.1512 16.3977V15.8514H14.5364C14.3352 15.8514 14.1721 15.6708 14.1721 15.4652C14.1721 15.2595 14.3352 15.079 14.5364 15.079H15.7717Z" fill="#FF8B02"/>
<path d="M20.9803 20.4883L20.6848 20.5402L20.6848 20.5402L20.9803 20.4883ZM18.968 9.01108L19.2635 8.95928V8.95927L18.968 9.01108ZM20.2778 21.8779L20.1478 21.6075L20.1478 21.6075L20.2778 21.8779ZM19.747 22V22.3L19.748 22.3L19.747 22ZM3.29223 21.5377L3.05991 21.7275L3.06012 21.7277L3.29223 21.5377ZM3.0419 21.043L3.33231 20.9677L3.0419 21.043ZM3.01986 20.4865L3.31532 20.5385L3.31535 20.5383L3.01986 20.4865ZM5.03214 9.01108L4.73665 8.95923L4.73665 8.95927L5.03214 9.01108ZM8.95655 7.95285V8.25285H9.5314L9.20265 7.78128L8.95655 7.95285ZM15.0436 7.95285L14.7975 7.78127L14.4687 8.25285H15.0436V7.95285ZM20.2407 21.1426L20.4728 21.3327L20.4735 21.3319L20.2407 21.1426ZM20.3806 20.6007L20.0851 20.6525L20.0852 20.6525L20.3806 20.6007ZM18.3684 9.12341L18.0728 9.17484L18.0729 9.17522L18.3684 9.12341ZM18.148 8.73426L18.3433 8.50646L18.3433 8.50646L18.148 8.73426ZM17.7347 8.58039L17.7349 8.28039H17.7347V8.58039ZM13.6448 8.58039L13.4322 8.36874L12.9229 8.88039H13.6448V8.58039ZM14.1743 8.04852L14.3869 8.26017L14.3871 8.25995L14.1743 8.04852ZM9.82581 8.0486L9.61298 8.26003L9.61322 8.26027L9.82581 8.0486ZM10.3553 8.58039V8.88039H11.0774L10.5679 8.36872L10.3553 8.58039ZM5.63172 9.12499L5.33623 9.07314L5.33622 9.07318L5.63172 9.12499ZM3.61944 20.6013L3.91492 20.6532L3.91493 20.6531L3.61944 20.6013ZM3.63075 20.8878L3.3403 20.9628H3.3403L3.63075 20.8878ZM3.75938 21.1426L3.52677 21.3321L3.52725 21.3326L3.75938 21.1426ZM13.2043 5.79333L13.5043 5.79333V5.79333H13.2043ZM10.3077 14.7635L10.0897 14.5573L9.92895 14.7273L10.0546 14.9246L10.3077 14.7635ZM11.4732 13.5313L11.2575 13.3228L11.2553 13.3252L11.4732 13.5313ZM11.7409 17.0145L11.4878 17.1756L11.4882 17.1761L11.7409 17.0145ZM11.7863 17.1597L12.0861 17.1481L12.0861 17.1481L11.7863 17.1597ZM11.7523 17.3082L11.4877 17.167L11.4874 17.1676L11.7523 17.3082ZM10.8103 17.3164L11.0705 17.1672L11.0703 17.1668L10.8103 17.3164ZM9.70046 15.3877L9.96048 15.2381L9.76164 14.8925L9.48466 15.1793L9.70046 15.3877ZM8.98711 16.1263L8.77131 15.9179L8.68711 16.0051V16.1263H8.98711ZM8.98711 15.0047H8.68711V15.7839L9.20965 15.2059L8.98711 15.0047ZM10.6728 13.1402L10.8953 13.3414L10.896 13.3407L10.6728 13.1402ZM11.5302 13.2227L11.2531 13.3379L11.2537 13.3392L11.5302 13.2227ZM16.0309 15.3809H15.7309V15.6809H16.0309V15.3809ZM16.0309 15.3809H16.3309V15.0809H16.0309V15.3809ZM15.9363 16.9482L16.1259 17.1807L16.1259 17.1807L15.9363 16.9482ZM15.2592 17.3308L15.1486 17.0519L15.1486 17.0519L15.2592 17.3308ZM14.2045 17.5373V17.2373H14.2044L14.2045 17.5373ZM13.0214 17.2464L13.1713 16.9865L13.1713 16.9865L13.0214 17.2464ZM12.2632 16.4142L12.5349 16.2869L12.5349 16.2869L12.2632 16.4142ZM12.0095 15.2369H12.3095V15.2369L12.0095 15.2369ZM12.2928 14.0099L12.5581 14.1499L12.5581 14.1499L12.2928 14.0099ZM13.1218 13.1867L13.2612 13.4523L13.2621 13.4519L13.1218 13.1867ZM14.1572 12.9666L14.1573 12.6666H14.1572V12.9666ZM15.4155 13.3119L15.2336 13.5505L15.2345 13.5511L15.4155 13.3119ZM15.7472 13.6605L15.9952 13.4917L15.995 13.4913L15.7472 13.6605ZM15.8243 13.8708L15.5261 13.9029V13.9029L15.8243 13.8708ZM15.7938 14.0932L16.0723 14.2048L16.0723 14.2048L15.7938 14.0932ZM15.6629 14.2736L15.855 14.5041L15.855 14.5041L15.6629 14.2736ZM15.4636 14.3683L15.4071 14.0736L15.4053 14.074L15.4636 14.3683ZM15.4626 14.3685L15.5189 14.6631L15.521 14.6627L15.4626 14.3685ZM15.2102 14.339L15.0878 14.6129L15.0878 14.6129L15.2102 14.339ZM15.0177 14.1697L15.2731 14.0124L15.2731 14.0123L15.0177 14.1697ZM14.787 13.9178L14.6075 14.1582L14.6083 14.1588L14.787 13.9178ZM14.1569 13.7294V13.4294H14.1569L14.1569 13.7294ZM13.2465 14.1002L13.4681 14.3024L13.4683 14.3022L13.2465 14.1002ZM13.249 16.3811L13.4753 16.1842L13.4753 16.1842L13.249 16.3811ZM14.6882 16.6645L14.7993 16.9431L14.7994 16.9431L14.6882 16.6645ZM15.1512 16.3977L15.3614 16.6117L15.4512 16.5235V16.3977H15.1512ZM15.1512 15.8514H15.4512V15.5514H15.1512V15.8514ZM21.2757 20.4365L19.2635 8.95928L18.6725 9.06289L20.6848 20.5402L21.2757 20.4365ZM21.2486 21.1192C21.3063 20.8963 21.3155 20.6633 21.2757 20.4365L20.6848 20.5402C20.7098 20.6826 20.7039 20.8289 20.6677 20.9687L21.2486 21.1192ZM20.9408 21.7276C21.0859 21.5498 21.1908 21.3421 21.2486 21.1192L20.6677 20.9687C20.6315 21.1085 20.5659 21.238 20.4759 21.3483L20.9408 21.7276ZM20.4077 22.1483C20.6139 22.0492 20.7957 21.9055 20.9408 21.7276L20.4759 21.3483C20.386 21.4586 20.2739 21.5469 20.1478 21.6075L20.4077 22.1483ZM19.748 22.3C19.9764 22.2992 20.2016 22.2473 20.4077 22.1483L20.1478 21.6075C20.0218 21.668 19.8847 21.6995 19.746 21.7L19.748 22.3ZM4.2531 22.3H19.747V21.7H4.2531V22.3ZM3.06012 21.7277C3.35365 22.0862 3.78788 22.3 4.2531 22.3V21.7C3.97439 21.7 3.70819 21.5721 3.52435 21.3476L3.06012 21.7277ZM2.75149 21.1182C2.80933 21.3414 2.91447 21.5495 3.05991 21.7275L3.52455 21.3479C3.43434 21.2374 3.36858 21.1077 3.33231 20.9677L2.75149 21.1182ZM2.7244 20.4345C2.68442 20.6617 2.69365 20.895 2.75149 21.1182L3.33231 20.9677C3.29603 20.8277 3.29021 20.6811 3.31532 20.5385L2.7244 20.4345ZM4.73665 8.95927L2.72437 20.4347L3.31535 20.5383L5.32763 9.0629L4.73665 8.95927ZM6.26542 7.65285C5.50648 7.65285 4.86803 8.21057 4.73665 8.95923L5.32762 9.06294C5.4107 8.58952 5.80959 8.25285 6.26542 8.25285V7.65285ZM8.95655 7.65285H6.26542V8.25285H8.95655V7.65285ZM7.99009 5.78869C7.99009 6.63403 8.24076 7.45068 8.71045 8.12442L9.20265 7.78128C8.80579 7.21201 8.59009 6.51604 8.59009 5.78869H7.99009ZM12.0001 1.7C9.78287 1.7 7.99009 3.53827 7.99009 5.78869H8.59009C8.59009 3.85787 10.1259 2.3 12.0001 2.3V1.7ZM16.01 5.78962C16.01 3.53931 14.2174 1.7 12.0001 1.7V2.3C13.8741 2.3 15.41 3.8587 15.41 5.78962H16.01ZM15.2897 8.12442C15.7594 7.45074 16.01 6.63507 16.01 5.78962H15.41C15.41 6.51694 15.1944 7.21195 14.7975 7.78127L15.2897 8.12442ZM17.7347 7.65285H15.0436V8.25285H17.7347V7.65285ZM19.2635 8.95927C19.1322 8.21056 18.4937 7.65285 17.7347 7.65285V8.25285C18.1906 8.25285 18.5895 8.58953 18.6725 9.0629L19.2635 8.95927ZM20.0087 20.9525C19.9378 21.039 19.8404 21.0845 19.747 21.0845V21.6845C20.0358 21.6845 20.2983 21.5458 20.4728 21.3327L20.0087 20.9525ZM20.0789 20.8125C20.0654 20.8646 20.0411 20.9127 20.008 20.9534L20.4735 21.3319C20.5615 21.2237 20.6249 21.0975 20.6598 20.9624L20.0789 20.8125ZM20.0852 20.6525C20.0945 20.7057 20.0923 20.7603 20.0789 20.8125L20.6598 20.9624C20.6947 20.8274 20.7002 20.6862 20.6761 20.5488L20.0852 20.6525ZM18.0729 9.17522L20.0851 20.6525L20.6761 20.5489L18.6639 9.0716L18.0729 9.17522ZM17.9528 8.96206C18.0151 9.01539 18.0581 9.09048 18.0728 9.17484L18.6639 9.07197C18.6257 8.8521 18.5127 8.65167 18.3433 8.50646L17.9528 8.96206ZM17.7344 8.88039C17.8134 8.88045 17.8907 8.90885 17.9528 8.96206L18.3433 8.50646C18.1737 8.36111 17.9584 8.28057 17.7349 8.28039L17.7344 8.88039ZM13.6448 8.88039H17.7347V8.28039H13.6448V8.88039ZM13.9617 7.83687L13.4322 8.36874L13.8575 8.79204L14.3869 8.26017L13.9617 7.83687ZM14.8009 5.79319C14.8009 6.56806 14.5028 7.29214 13.9615 7.8371L14.3871 8.25995C15.0408 7.60189 15.4009 6.72552 15.4009 5.79319H14.8009ZM12.0001 2.92408C13.5381 2.92408 14.8009 4.20531 14.8009 5.79319H15.4009C15.4009 3.88633 13.8817 2.32408 12.0001 2.32408V2.92408ZM9.19921 5.79274C9.19921 4.20492 10.462 2.92408 12.0001 2.92408V2.32408C10.1185 2.32408 8.59921 3.88583 8.59921 5.79274H9.19921ZM10.0386 7.83716C9.49733 7.29229 9.19921 6.5677 9.19921 5.79274H8.59921C8.59921 6.72504 8.95923 7.60197 9.61298 8.26003L10.0386 7.83716ZM10.5679 8.36872L10.0384 7.83692L9.61322 8.26027L10.1427 8.79206L10.5679 8.36872ZM6.26542 8.88039H10.3553V8.28039H6.26542V8.88039ZM5.9272 9.17685C5.95825 8.99994 6.10543 8.88039 6.26542 8.88039V8.28039C5.80119 8.28039 5.41538 8.62214 5.33623 9.07314L5.9272 9.17685ZM3.91493 20.6531L5.92721 9.17681L5.33622 9.07318L3.32395 20.5494L3.91493 20.6531ZM3.9212 20.8127C3.90776 20.7607 3.9056 20.7062 3.91492 20.6532L3.32397 20.5493C3.29983 20.6867 3.30539 20.8278 3.3403 20.9628L3.9212 20.8127ZM3.99198 20.9531C3.95894 20.9126 3.93464 20.8647 3.9212 20.8127L3.3403 20.9628C3.37521 21.0979 3.43872 21.224 3.52678 21.3321L3.99198 20.9531ZM4.2531 21.0845C4.15971 21.0845 4.0623 21.039 3.99151 20.9526L3.52725 21.3326C3.70175 21.5458 3.96423 21.6845 4.2531 21.6845V21.0845ZM19.747 21.0845H4.2531V21.6845H19.747V21.0845ZM12.0002 6.724C11.508 6.724 11.096 6.31242 11.096 5.79333H10.496C10.496 6.63143 11.1644 7.324 12.0002 7.324V6.724ZM12.9043 5.79333C12.9043 6.31243 12.4923 6.724 12.0002 6.724V7.324C12.8359 7.324 13.5043 6.63143 13.5043 5.79333L12.9043 5.79333ZM12.0002 4.86271C12.4923 4.86271 12.9043 5.27428 12.9043 5.79333H13.5043C13.5043 4.95527 12.8359 4.26271 12.0002 4.26271V4.86271ZM11.096 5.79333C11.096 5.27429 11.508 4.86271 12.0002 4.86271V4.26271C11.1644 4.26271 10.496 4.95526 10.496 5.79333H11.096ZM10.5256 14.9696L11.6912 13.7375L11.2553 13.3252L10.0897 14.5573L10.5256 14.9696ZM11.994 16.8534L10.5607 14.6023L10.0546 14.9246L11.4878 17.1756L11.994 16.8534ZM12.0861 17.1481C12.082 17.0434 12.0503 16.9414 11.9936 16.8528L11.4882 17.1761C11.487 17.1742 11.4866 17.1726 11.4866 17.1714L12.0861 17.1481ZM12.017 17.4495C12.0665 17.3568 12.0902 17.2527 12.0861 17.1481L11.4866 17.1714C11.4865 17.1702 11.4867 17.1687 11.4877 17.167L12.017 17.4495ZM11.5041 17.7564C11.7153 17.7564 11.9144 17.6429 12.0173 17.4489L11.4874 17.1676C11.489 17.1645 11.492 17.1612 11.4958 17.159C11.4993 17.1569 11.5024 17.1564 11.5041 17.1564V17.7564ZM11.0567 17.7564H11.5041V17.1564H11.0567V17.7564ZM10.55 17.4656C10.6575 17.6531 10.8558 17.7564 11.0567 17.7564V17.1564C11.0577 17.1564 11.0593 17.1566 11.0615 17.1578C11.064 17.1592 11.0677 17.1623 11.0705 17.1672L10.55 17.4656ZM9.44043 15.5373L10.5502 17.466L11.0703 17.1668L9.96048 15.2381L9.44043 15.5373ZM9.20291 16.3347L9.91625 15.5961L9.48466 15.1793L8.77131 15.9179L9.20291 16.3347ZM9.28711 17.0158V16.1263H8.68711V17.0158H9.28711ZM8.54724 17.762C8.9573 17.762 9.28711 17.4247 9.28711 17.0158H8.68711C8.68711 17.0998 8.61944 17.162 8.54724 17.162V17.762ZM7.80737 17.0158C7.80737 17.4247 8.13718 17.762 8.54724 17.762V17.162C8.47504 17.162 8.40737 17.0998 8.40737 17.0158H7.80737ZM7.80737 13.4883V17.0158H8.40737V13.4883H7.80737ZM8.54724 12.742C8.13718 12.742 7.80737 13.0794 7.80737 13.4883H8.40737C8.40737 13.4042 8.47504 13.342 8.54724 13.342V12.742ZM9.28711 13.4883C9.28711 13.0794 8.9573 12.742 8.54724 12.742V13.342C8.61944 13.342 8.68711 13.4042 8.68711 13.4883H9.28711ZM9.28711 15.0047V13.4883H8.68711V15.0047H9.28711ZM10.4503 12.939L8.76457 14.8035L9.20965 15.2059L10.8953 13.3414L10.4503 12.939ZM10.8861 12.7516C10.7397 12.7516 10.5709 12.8047 10.4497 12.9397L10.896 13.3407C10.8885 13.349 10.8822 13.3517 10.8813 13.3521C10.8807 13.3523 10.8827 13.3516 10.8861 13.3516V12.7516ZM11.2701 12.7516H10.8861V13.3516H11.2701V12.7516ZM11.8072 13.1076C11.7142 12.8837 11.4989 12.7516 11.2701 12.7516V13.3516C11.2697 13.3516 11.2667 13.3514 11.2625 13.3487C11.2605 13.3473 11.2584 13.3456 11.2567 13.3435C11.2548 13.3413 11.2537 13.3392 11.2532 13.3379L11.8072 13.1076ZM11.8428 13.4404C11.8636 13.328 11.8511 13.2118 11.8067 13.1063L11.2537 13.3392C11.2526 13.3365 11.2524 13.3339 11.2528 13.3315L11.8428 13.4404ZM11.6889 13.7398C11.7688 13.6572 11.8221 13.5528 11.8428 13.4404L11.2528 13.3315C11.2533 13.329 11.2546 13.3259 11.2575 13.3228L11.6889 13.7398ZM16.3309 15.3809C16.3309 15.1159 16.1477 14.779 15.7717 14.779V15.379C15.7639 15.379 15.7535 15.377 15.7436 15.372C15.7342 15.3672 15.7291 15.362 15.7273 15.3598C15.7257 15.3578 15.7267 15.3584 15.7282 15.3627C15.7296 15.3669 15.7309 15.3732 15.7309 15.3809H16.3309ZM16.0309 15.0809H16.0309V15.6809H16.0309V15.0809ZM16.3309 16.7224V15.3809H15.7309V16.7224H16.3309ZM16.1259 17.1807C16.2841 17.0516 16.3309 16.8687 16.3309 16.7224H15.7309C15.7309 16.7358 15.7287 16.74 15.7298 16.7374C15.7304 16.7358 15.7319 16.7325 15.735 16.7282C15.7381 16.7238 15.742 16.7195 15.7466 16.7158L16.1259 17.1807ZM15.3698 17.6097C15.6782 17.4874 15.924 17.3454 16.1259 17.1807L15.7467 16.7157C15.6001 16.8353 15.41 16.9483 15.1486 17.0519L15.3698 17.6097ZM14.2045 17.8373C14.6001 17.8373 14.9891 17.7606 15.3698 17.6097L15.1486 17.0519C14.8349 17.1763 14.5207 17.2373 14.2045 17.2373V17.8373ZM12.8715 17.5062C13.2606 17.7306 13.7084 17.8374 14.2045 17.8373L14.2044 17.2373C13.7961 17.2374 13.4551 17.1502 13.1713 16.9865L12.8715 17.5062ZM11.9916 16.5416C12.1861 16.9564 12.4805 17.2808 12.8716 17.5063L13.1713 16.9865C12.8896 16.8241 12.6787 16.5937 12.5349 16.2869L11.9916 16.5416ZM11.7095 15.2369C11.7095 15.7022 11.8026 16.1385 11.9916 16.5416L12.5349 16.2869C12.3856 15.9686 12.3095 15.6199 12.3095 15.2369H11.7095ZM12.0275 13.8698C11.8129 14.2763 11.7095 14.7346 11.7095 15.2369L12.3095 15.2369C12.3095 14.8186 12.395 14.4588 12.5581 14.1499L12.0275 13.8698ZM12.9823 12.9211C12.5657 13.1399 12.245 13.4576 12.0274 13.8698L12.5581 14.1499C12.7181 13.8467 12.9501 13.6157 13.2612 13.4523L12.9823 12.9211ZM14.1572 12.6666C13.7102 12.6666 13.3135 12.7458 12.9815 12.9216L13.2621 13.4519C13.4847 13.3341 13.7782 13.2666 14.1572 13.2666V12.6666ZM15.5973 13.0733C15.2254 12.7898 14.7334 12.6666 14.1573 12.6666L14.1572 13.2666C14.6549 13.2666 15.0017 13.3737 15.2336 13.5505L15.5973 13.0733ZM15.995 13.4913C15.8854 13.3309 15.7509 13.1895 15.5965 13.0726L15.2345 13.5511C15.3367 13.6285 15.4263 13.7225 15.4995 13.8297L15.995 13.4913ZM16.1226 13.8387C16.1092 13.7145 16.0656 13.5952 15.9952 13.4917L15.4992 13.8293C15.5138 13.8507 15.5232 13.876 15.5261 13.9029L16.1226 13.8387ZM16.0723 14.2048C16.1188 14.0887 16.136 13.9629 16.1226 13.8387L15.5261 13.9029C15.529 13.9298 15.5252 13.957 15.5153 13.9816L16.0723 14.2048ZM15.855 14.5041C15.9513 14.4239 16.0257 14.3209 16.0723 14.2048L15.5153 13.9816C15.5054 14.0063 15.4899 14.0273 15.4709 14.0432L15.855 14.5041ZM15.5202 14.6629C15.6436 14.6392 15.7586 14.5844 15.855 14.5041L15.4709 14.0432C15.4519 14.059 15.4299 14.0693 15.4071 14.0736L15.5202 14.6629ZM15.521 14.6627L15.522 14.6625L15.4053 14.074L15.4042 14.0742L15.521 14.6627ZM15.0878 14.6129C15.223 14.6733 15.3733 14.6909 15.5189 14.6631L15.4063 14.0738C15.3817 14.0785 15.3561 14.0756 15.3326 14.0651L15.0878 14.6129ZM14.7622 14.3269C14.8396 14.4525 14.9527 14.5525 15.0878 14.6129L15.3326 14.0651C15.309 14.0546 15.288 14.0366 15.2731 14.0124L14.7622 14.3269ZM14.6083 14.1588C14.6693 14.204 14.7216 14.261 14.7622 14.327L15.2731 14.0123C15.1928 13.8819 15.0885 13.7679 14.9657 13.6768L14.6083 14.1588ZM14.1569 14.0294C14.3571 14.0294 14.5007 14.0785 14.6075 14.1582L14.9664 13.6774C14.7366 13.5059 14.4601 13.4294 14.1569 13.4294V14.0294ZM13.4683 14.3022C13.6282 14.1266 13.8463 14.0294 14.157 14.0294L14.1569 13.4294C13.7038 13.4295 13.315 13.5795 13.0247 13.8982L13.4683 14.3022ZM13.2081 15.2007C13.2081 14.7557 13.3117 14.4739 13.4681 14.3024L13.0249 13.898C12.7301 14.2211 12.6081 14.673 12.6081 15.2007H13.2081ZM13.4753 16.1842C13.314 15.9988 13.2081 15.6894 13.2081 15.2007H12.6081C12.6081 15.7613 12.7275 16.2388 13.0227 16.578L13.4753 16.1842ZM14.1432 16.4745C13.8547 16.4745 13.6429 16.3769 13.4753 16.1842L13.0226 16.578C13.3112 16.9098 13.6921 17.0745 14.1432 17.0745V16.4745ZM14.577 16.3858C14.4244 16.4467 14.2839 16.4745 14.1432 16.4745V17.0745C14.3682 17.0745 14.5841 17.029 14.7993 16.9431L14.577 16.3858ZM14.9409 16.1837C14.8795 16.244 14.754 16.3152 14.5769 16.3859L14.7994 16.9431C14.9899 16.867 15.2103 16.7602 15.3614 16.6117L14.9409 16.1837ZM14.8512 15.8514V16.3977H15.4512V15.8514H14.8512ZM14.5364 16.1514H15.1512V15.5514H14.5364V16.1514ZM13.8721 15.4652C13.8721 15.8157 14.1495 16.1514 14.5364 16.1514V15.5514C14.5285 15.5514 14.5143 15.5481 14.4984 15.531C14.4819 15.5133 14.4721 15.4889 14.4721 15.4652H13.8721ZM14.5364 14.779C14.1496 14.779 13.8721 15.1145 13.8721 15.4652H14.4721C14.4721 15.4414 14.4819 15.4171 14.4984 15.3994C14.5143 15.3822 14.5285 15.379 14.5364 15.379V14.779ZM15.7717 14.779H14.5364V15.379H15.7717V14.779Z" fill="#FF8B02" mask="url(#path-1-outside-1_441_12526)"/>
</svg>
