<svg width="36" height="36" viewBox="0 0 36 36" fill="none" xmlns="http://www.w3.org/2000/svg">
<g clip-path="url(#clip0_3936_16908)">
<path d="M35.6023 17.9235L20.8803 3.20142C20.35 2.67114 19.4903 2.67114 18.96 3.20142C18.4299 3.73169 18.4299 4.59137 18.96 5.12165L19.2801 5.44173L17.3598 7.36196L15.4398 5.44182L15.7598 5.12174C16.29 4.59155 16.29 3.73178 15.7598 3.20151C15.2296 2.67123 14.3699 2.67123 13.8395 3.20151L0.397638 16.6432C-0.132546 17.1734 -0.132546 18.0332 0.397638 18.5634C0.662866 18.8286 1.01029 18.9612 1.3578 18.9612C1.55794 18.9612 1.75754 18.9158 1.94202 18.8277L15.1192 32.005C15.1193 32.0051 15.1195 32.0053 15.1197 32.0055C15.9138 32.7996 16.957 33.1964 18.0001 33.1964C19.0431 33.1964 20.0862 32.7993 20.8801 32.0053C21.5965 31.2891 22.0128 30.3529 22.0669 29.3491C23.0332 29.2957 23.9841 28.9013 24.7206 28.1649C25.4578 27.4277 25.8522 26.4758 25.905 25.5087C26.8721 25.4558 27.824 25.0613 28.5613 24.3244C28.5627 24.323 28.564 24.3214 28.5655 24.32L33.3617 19.5236L33.6819 19.8438C33.947 20.1089 34.2946 20.2415 34.6419 20.2415C34.9895 20.2415 35.3369 20.109 35.602 19.8438C36.1326 19.3134 36.1326 18.4536 35.6023 17.9235ZM22.8004 26.2446C22.2714 26.7738 21.4103 26.774 20.8807 26.2449C20.8805 26.2448 20.8804 26.2445 20.8804 26.2445L18.96 24.3242C18.4296 23.794 17.57 23.794 17.0396 24.3243C16.5095 24.8546 16.5095 25.7143 17.0397 26.2445L18.9592 28.164C18.9595 28.1643 18.9598 28.1646 18.96 28.1649C18.9603 28.1651 18.9607 28.1654 18.961 28.1658C19.2169 28.4221 19.3579 28.7627 19.3579 29.1249C19.3579 29.4876 19.2165 29.8286 18.96 30.0852C18.4306 30.6146 17.5693 30.6145 17.0397 30.085L3.91829 16.9633L13.5195 7.36205L15.4396 9.28219L12.5594 12.1625C12.559 12.1628 12.5588 12.1631 12.5585 12.1634C10.9713 13.7517 10.9714 16.3353 12.5594 17.9233C13.3533 18.7174 14.3965 19.1144 15.4396 19.1144C16.4822 19.1144 17.5248 18.7178 18.3188 17.9245C18.3192 17.9241 18.3197 17.9238 18.3201 17.9235L21.2005 15.0431L26.6411 20.4838C26.6413 20.4839 26.6417 20.4842 26.6419 20.4844C27.1701 21.0132 27.1703 21.8727 26.643 22.4021L26.6412 22.4039C26.641 22.4042 26.6407 22.4045 26.6404 22.4048C26.111 22.9331 25.2507 22.933 24.7216 22.4046C24.7212 22.4043 24.7208 22.4038 24.7205 22.4034L22.8006 20.4838C22.2704 19.9535 21.4106 19.9536 20.8804 20.4839C20.3501 21.0141 20.3501 21.8738 20.8805 22.4041L22.799 24.3224C22.7996 24.323 22.8001 24.3237 22.8006 24.3243C23.33 24.8537 23.33 25.7152 22.8004 26.2446ZM29.3563 19.6887C29.1624 19.2815 28.8978 18.9 28.5613 18.5634C28.5609 18.5632 28.5606 18.5629 28.5603 18.5626L22.1606 12.1628C21.6304 11.6325 20.7707 11.6326 20.2404 12.1628L16.3997 16.0033L16.3996 16.0035C15.8699 16.5328 15.0087 16.5326 14.4795 16.0034C13.9501 15.4739 13.9501 14.6125 14.4793 14.0832L14.4796 14.083L18.3198 10.2427L18.32 10.2425L18.3201 10.2424L21.2002 7.36205L31.4417 17.6033L29.3563 19.6887Z" fill="#FBFBFB"/>
</g>
<defs>
<clipPath id="clip0_3936_16908">
<rect width="36" height="36" fill="white"/>
</clipPath>
</defs>
</svg>
