<svg width="40" height="24" viewBox="0 0 40 24" fill="none" xmlns="http://www.w3.org/2000/svg">
<path d="M0 13.9188C0.0474129 13.6614 0.0948258 13.4554 0.142239 13.198C0.284477 12.4772 0.66378 11.9109 1.37497 11.6534C2.27582 11.3445 3.22408 10.9841 4.03009 10.4693C4.31457 10.3148 4.59905 10.1089 4.88353 9.95445C5.35765 11.602 5.83178 13.198 6.30591 14.7425H6.35332C6.40074 14.6911 6.40074 14.6396 6.44815 14.5366C6.68521 13.8158 6.92228 13.095 7.15934 12.3742C7.20676 12.2198 7.20676 12.1168 7.11193 12.0138C6.96969 11.7049 6.78004 11.396 6.68521 11.0871C6.49556 10.4693 6.73263 10.1089 7.30158 9.95445C7.63347 9.85148 7.91795 9.90297 8.20243 10.0574C8.58173 10.2634 8.77138 10.6238 8.62914 11.0356C8.4869 11.396 8.29725 11.7564 8.15501 12.1168C8.1076 12.1683 8.1076 12.3228 8.1076 12.3742C8.34467 13.095 8.58173 13.8158 8.81879 14.5366C8.81879 14.5881 8.86621 14.6396 8.91362 14.7425H8.96103C9.43516 13.1465 9.90929 11.602 10.3834 9.95445C10.5257 10.0574 10.6205 10.1089 10.7627 10.1604C11.6636 10.7782 12.6118 11.1901 13.6075 11.5505C13.8446 11.6534 14.0342 11.7049 14.2713 11.8594C14.7928 12.1168 15.0299 12.6317 15.1721 13.198C15.1721 13.2495 15.0773 13.4554 15.0299 13.4554C14.5558 13.7128 14.0816 14.0218 13.6075 14.2277C12.8489 14.5366 12.1377 14.8455 11.3791 15.1544C10.905 15.3604 10.5731 15.7208 10.336 16.1841C10.0515 16.699 9.9567 17.2653 9.86188 17.8831C9.76705 18.0891 9.67223 18.2435 9.48257 18.2435C9.29292 18.2435 9.10327 18.295 8.86621 18.295C7.68089 18.2435 6.49556 18.295 5.31024 18.1405C3.74562 17.9346 2.2284 17.4712 0.806019 16.7504C0.284477 16.493 0 16.1326 0.0474129 15.5148C0.0474129 15.3604 0 15.2574 0 15.1029C0 14.6911 0 14.3307 0 13.9188Z" fill="#FF8B02"/>
<path d="M23.1599 14.0986C23.3312 14.1909 23.4596 14.2833 23.5881 14.3294C24.7015 15.0679 25.8577 15.6218 27.0995 15.991C28.1701 16.3141 28.6839 17.0526 28.8552 18.2064C29.0265 19.1757 28.9409 20.1911 28.8552 21.1604C28.8124 21.4835 28.6411 21.7142 28.3842 21.8527C27.3565 22.4527 26.2431 22.8681 25.0869 23.2373C23.2883 23.7912 21.447 23.9297 19.5628 23.8835C18.792 23.8374 18.0212 23.8835 17.2504 23.7912C15.2378 23.5143 13.3108 22.9143 11.5122 21.8988C11.2553 21.7604 11.084 21.5296 11.084 21.2527C11.0412 20.2834 10.9984 19.3142 11.0412 18.3449C11.1268 17.2372 11.6835 16.4525 12.6684 16.1295C13.9959 15.7141 15.2806 15.114 16.4368 14.3294C16.5224 14.2833 16.6081 14.2371 16.6937 14.1909C17.2504 16.0833 17.8071 17.9295 18.3638 19.7757C18.4066 19.7757 18.4066 19.7757 18.4494 19.7757C18.4922 19.7296 18.4922 19.6834 18.5351 19.6372C18.8348 18.7603 19.0918 17.9295 19.3915 17.0526C19.4343 16.9602 19.3915 16.8679 19.3487 16.8218C19.1774 16.4064 18.9633 15.991 18.792 15.5294C18.4922 14.7448 19.0061 14.2833 19.52 14.1909C19.8626 14.0986 20.2051 14.1448 20.5477 14.2371C21.0616 14.4217 21.3185 14.8833 21.1044 15.4371C20.9759 15.8525 20.719 16.2679 20.5049 16.6833C20.4621 16.8218 20.4192 16.9141 20.4621 17.0064C20.7618 17.8372 21.0188 18.668 21.3185 19.4988C21.3613 19.5911 21.3613 19.6372 21.447 19.7296C22.0037 17.8372 22.6032 15.991 23.1599 14.0986Z" fill="#FF8B02"/>
<path d="M15.1719 6.86851C15.2695 6.12199 15.2695 5.33155 15.4647 4.62894C15.9041 2.69676 17.8565 1.42328 20.0531 1.51111C20.9805 1.55502 21.8591 1.68676 22.6401 2.12589C23.7139 2.74068 24.3485 3.66285 24.5926 4.76068C24.9831 6.4733 24.8854 8.142 24.2997 9.8107C24.0068 10.6011 23.5187 11.3477 22.7377 11.8746C20.9317 13.1481 17.4172 13.1481 15.9529 10.4255C15.4159 9.45939 15.2207 8.44939 15.1719 7.35156C15.1719 7.21982 15.1719 7.04417 15.1719 6.91243C15.2207 6.86851 15.1719 6.86851 15.1719 6.86851Z" fill="#FF8B02"/>
<path d="M34.2591 14.7015C34.6923 13.119 35.1256 11.5875 35.5588 10.005C35.6455 10.0561 35.6888 10.1071 35.7755 10.1071C36.5986 10.7197 37.5085 11.1792 38.4183 11.5365C38.505 11.5875 38.5916 11.6386 38.6783 11.6386C39.5448 11.8938 39.9347 12.6596 39.978 13.6295C40.0213 14.4463 39.978 15.263 39.9347 16.0798C39.9347 16.2329 39.8047 16.4371 39.6747 16.4882C39.1982 16.7434 38.7649 17.0497 38.245 17.2539C37.2052 17.7134 36.1221 18.0196 35.0389 18.1728C33.8691 18.3259 32.656 18.3259 31.4863 18.2238C31.183 18.2238 31.1397 18.1217 31.053 17.7644C30.9664 17.4071 30.923 16.9987 30.8364 16.6413C30.5764 15.8246 30.0998 15.212 29.4066 14.9567C28.4535 14.5994 27.5437 14.191 26.6338 13.6805C26.1139 13.3742 26.1139 13.3232 26.3739 12.7106C26.5472 12.2512 26.8071 11.8938 27.2404 11.7407C28.3668 11.3323 29.45 10.8218 30.4898 10.0561C30.4898 10.0561 30.5331 10.0561 30.5764 10.005C31.0097 11.5875 31.4429 13.119 31.8762 14.7015C31.9195 14.7015 31.9195 14.7015 31.9628 14.7015C32.0062 14.5484 32.0495 14.4463 32.0928 14.2931C32.2661 13.6805 32.4394 13.0679 32.6127 12.4554C32.656 12.3533 32.6127 12.2512 32.5694 12.1491C32.4394 11.7917 32.2661 11.4854 32.1795 11.1281C32.0062 10.5666 32.1795 10.1071 32.6994 9.954C33.0026 9.8519 33.3059 9.90295 33.5659 10.0561C33.8691 10.2092 33.9991 10.5155 33.9125 10.8729C33.8258 11.2813 33.6525 11.6896 33.4792 12.098C33.4359 12.2001 33.3926 12.3022 33.4359 12.4554C33.6525 13.119 33.8258 13.7826 34.0424 14.4463C34.0858 14.5484 34.0858 14.5994 34.1291 14.6504C34.2158 14.7015 34.2158 14.7015 34.2591 14.7015Z" fill="#FF8B02"/>
<path d="M35.82 4.91827C35.7749 5.92499 35.6395 6.93171 35.2784 7.88809C34.6917 9.2975 33.6987 9.90153 32.3446 9.90153C31.0357 9.90153 30.0879 9.19683 29.5462 7.83776C28.8692 6.076 28.779 4.26391 29.3206 2.40148C29.7268 1.04241 30.6295 0.287371 31.8933 0.136363C32.48 0.0860269 33.0668 0.0860269 33.6535 0.287371C34.7368 0.690058 35.3687 1.54577 35.5944 2.80417C35.7298 3.50887 35.7749 4.21357 35.8652 4.86794L35.82 4.91827Z" fill="#FF8B02"/>
<path d="M11.0292 4.614C10.9833 5.32251 10.9373 5.98041 10.8453 6.68891C10.6614 7.65046 10.2476 8.51079 9.55799 9.16869C8.31664 10.3327 5.55807 10.2821 4.59257 7.75167C4.22476 6.79013 4.13281 5.77798 4.13281 4.71522C4.13281 3.9561 4.13281 3.19699 4.36269 2.48848C4.7305 1.42572 5.32819 0.666607 6.29369 0.261746C6.52357 0.16053 6.79943 0.16053 7.07528 0.109923C7.30516 0.109923 7.58102 0.109923 7.8109 0.109923C9.32811 0.0593152 10.6154 1.2739 10.8913 2.99456C10.9373 3.50063 10.9833 4.05732 11.0292 4.614Z" fill="#FF8B02"/>
</svg>
