<svg width="60" height="60" viewBox="0 0 60 60" fill="none" xmlns="http://www.w3.org/2000/svg">
<path d="M45.2618 9.25244L39.4187 15.0955L39.9619 15.6597C39.5749 15.9722 39.1833 16.2771 38.8031 16.5478C38.1895 16.9861 37.6005 17.3377 37.2013 17.5026C37.1755 17.514 37.067 17.5445 36.8516 17.5436C36.5075 17.5473 35.932 17.4597 35.2269 17.3521C34.5189 17.2453 33.6718 17.1292 32.7171 17.1281C31.8841 17.1253 30.9656 17.2263 29.9985 17.4921C29.0333 17.2273 28.1166 17.1281 27.2857 17.1292C26.3299 17.1292 25.4829 17.2454 24.7748 17.3531C24.0697 17.4607 23.4952 17.5485 23.1512 17.5446C22.9349 17.5465 22.8272 17.5142 22.8053 17.5036C22.3793 17.3292 21.737 16.9404 21.0758 16.4592C20.7337 16.2106 20.385 15.938 20.0391 15.6579L20.5813 15.0956L14.7382 9.25256L0 24.5175L5.84309 30.3606L7.55344 28.5892L11.3287 31.8842C11.4345 32.5159 11.6337 33.1124 11.8634 33.6785C12.0129 34.0388 12.1768 34.3855 12.3446 34.7114C11.9796 35.3156 11.7805 36.0055 11.7824 36.7049C11.7814 37.3986 11.972 38.1075 12.3636 38.7374C12.9592 39.6951 13.9131 40.2973 14.943 40.4878C14.9489 41.1692 15.1376 41.8638 15.5215 42.4813C16.2505 43.6534 17.5121 44.3032 18.7985 44.3012C18.8481 44.3012 18.8986 44.2936 18.948 44.2917C19.0129 44.8368 19.192 45.3799 19.4988 45.8735C20.2279 47.0455 21.4903 47.6954 22.7748 47.6935C22.9025 47.6935 23.0293 47.6801 23.1579 47.6677C23.2188 48.1585 23.3818 48.6482 23.6572 49.0903C24.3214 50.1577 25.4706 50.7503 26.6396 50.7475C27.2705 50.7484 27.9165 50.5769 28.4902 50.2205L30.2416 49.1305C30.5866 49.3534 30.9486 49.5497 31.3288 49.7098C32.0368 50.008 32.802 50.191 33.5977 50.1919C34.4705 50.1958 35.3919 49.9566 36.1847 49.3991C36.7011 49.039 37.1385 48.5453 37.4967 47.9632C37.552 47.9651 37.5968 47.9747 37.654 47.9756C38.017 47.9756 38.4154 47.9213 38.8099 47.7983C39.2072 47.6774 39.6018 47.4962 40.0229 47.2553C41.0272 46.6893 41.6295 45.8564 41.9221 45.1427C41.9869 44.9865 42.0335 44.8397 42.0755 44.6978C42.3185 44.6207 42.551 44.5262 42.7615 44.4044C43.5381 43.9574 44.0441 43.2781 44.3557 42.5958C44.6682 41.9067 44.8055 41.1912 44.8073 40.5033C44.8073 40.4356 44.7988 40.3698 44.7959 40.3031C45.3037 40.0955 45.7601 39.8067 46.1489 39.4665C46.5472 39.1177 46.8817 38.7119 47.1303 38.2487C47.3782 37.7876 47.544 37.2597 47.545 36.6813C47.5459 36.3049 47.4687 35.9085 47.3 35.5369C47.2457 35.4188 47.1686 35.3101 47.098 35.2006C47.3945 34.6697 47.6964 34.0715 47.9441 33.4254C48.13 32.9365 48.2863 32.4239 48.3758 31.8854L52.3121 28.4503L54.1569 30.3608L60 24.5175L45.2618 9.25244ZM16.2591 37.5502L16.1913 37.5931C16.0151 37.7018 15.8302 37.7503 15.6396 37.7513C15.2861 37.7494 14.9468 37.5769 14.7477 37.2558C14.6391 37.0795 14.5895 36.8937 14.5895 36.705C14.5914 36.3496 14.7629 36.0122 15.0831 35.8131L17.3977 34.3752C17.5739 34.2656 17.7588 34.2181 17.9474 34.2161C18.3028 34.2198 18.6402 34.3895 18.8404 34.7125L20.0324 33.9721L18.8404 34.7134C18.949 34.8887 18.9975 35.0735 18.9986 35.2623C18.9966 35.5101 18.908 35.7464 18.748 35.937L16.7602 37.1719C16.5792 37.2843 16.4143 37.4148 16.2591 37.5502ZM19.3492 41.3359C19.1729 41.4445 18.988 41.4941 18.7984 41.4941C18.4439 41.4922 18.1048 41.3207 17.9055 40.9996C17.7968 40.8233 17.7483 40.6365 17.7473 40.4479C17.7482 40.2021 17.8369 39.9658 17.996 39.7771L19.9847 38.5394C20.1648 38.4278 20.3278 38.2983 20.4831 38.1629L20.5555 38.1191C20.7318 38.0095 20.9176 37.9609 21.1054 37.9609C21.4617 37.9628 21.798 38.1344 21.9981 38.4564C22.1067 38.6326 22.1554 38.8165 22.1563 39.0062C22.1544 39.3597 21.9839 39.6989 21.6599 39.9L19.3492 41.3359ZM25.6372 43.2913L23.3256 44.7283C23.1503 44.837 22.9654 44.8865 22.7748 44.8865C22.4212 44.8846 22.082 44.713 21.8829 44.3919C21.7743 44.2147 21.7257 44.0298 21.7247 43.8402C21.7276 43.4848 21.8981 43.1485 22.2183 42.9483L24.5329 41.5104C24.7091 41.4008 24.894 41.3533 25.0826 41.3533C25.438 41.3541 25.7754 41.5256 25.9755 41.8478C26.0841 42.0242 26.1327 42.209 26.1337 42.3986C26.1318 42.7519 25.9613 43.0892 25.6372 43.2913ZM29.2211 45.6353C29.2943 45.7525 29.3258 45.8745 29.3268 46.0021C29.3249 46.2394 29.2114 46.4652 28.9932 46.6015L27.0083 47.8344C26.8902 47.9087 26.7682 47.9401 26.6395 47.9401C26.4014 47.9392 26.1756 47.8239 26.0412 47.6086C25.9678 47.4894 25.9363 47.3674 25.9354 47.2399C25.9382 47.0006 26.0516 46.7767 26.2659 46.6433H26.2669L28.2537 45.4084C28.3747 45.3332 28.4958 45.3017 28.6225 45.3017C28.8616 45.3035 29.0856 45.417 29.2199 45.6333L30.4129 44.8938L29.2211 45.6353ZM44.6568 36.9212C44.5548 37.1185 44.3223 37.3757 44.0279 37.5558C43.7334 37.7379 43.3914 37.8445 43.0636 37.8436C42.9472 37.8436 42.8348 37.8635 42.7253 37.8921C42.5251 37.8483 42.325 37.7874 42.1278 37.7092C41.5171 37.471 40.9464 37.0851 40.5432 36.7592C40.3412 36.5963 40.1811 36.4495 40.0744 36.3476L39.9562 36.2304L39.9305 36.2037L39.9266 36.1999H39.9258C39.5331 35.773 38.868 35.7444 38.4402 36.137C38.0123 36.5297 37.9828 37.1947 38.3764 37.6254C38.4116 37.6616 38.9406 38.239 39.8067 38.8337C40.2412 39.131 40.7605 39.4341 41.3579 39.6685C41.4961 39.7228 41.64 39.7732 41.7878 39.819C41.8288 39.9114 41.8812 39.9992 41.943 40.082L41.9402 40.084C41.9479 40.0896 42.005 40.2708 42.0002 40.5033C42.007 40.8911 41.8659 41.399 41.663 41.679C41.5639 41.822 41.4629 41.9125 41.3648 41.9687C41.2648 42.024 41.1637 42.0602 40.9741 42.0631L40.9064 42.0621C40.8663 42.0602 40.8284 42.0669 40.7892 42.0688C40.7873 42.0688 40.7864 42.0688 40.7864 42.0688C39.8735 42.0727 39.0237 41.681 38.3966 41.2522C38.0841 41.0407 37.8334 40.8253 37.6648 40.6672C37.5818 40.5891 37.518 40.5243 37.4789 40.4843L37.438 40.4405L37.4313 40.4319H37.4304C37.0502 39.9955 36.388 39.9478 35.9487 40.3281C35.5084 40.7092 35.4608 41.3734 35.8419 41.8136L35.841 41.8128C35.882 41.8585 36.368 42.4186 37.2132 42.9942C37.7696 43.3705 38.4957 43.7603 39.3581 43.9852C39.3486 44.01 39.3429 44.0347 39.3314 44.0596C39.2209 44.3092 39.0627 44.5664 38.632 44.818C38.3413 44.984 38.1336 45.0706 37.9879 45.1144C37.8411 45.1582 37.7592 45.1669 37.6543 45.1677C37.5182 45.1697 37.3132 45.1391 36.9721 45.0695C36.9102 45.0563 36.8483 45.0524 36.7863 45.0486C36.7634 45.039 36.7416 45.0305 36.7167 45.0181C36.368 44.8541 35.9429 44.5578 35.6295 44.3053C35.4722 44.1805 35.3388 44.0661 35.2473 43.9852L35.1444 43.8918L35.1206 43.8689L35.1158 43.8652C34.6956 43.4631 34.0286 43.4783 33.6265 43.8985C33.2254 44.3187 33.2406 44.9857 33.6608 45.3869C33.6827 45.4068 34.1258 45.8319 34.747 46.2778C34.8575 46.356 34.9795 46.4351 35.1015 46.5131C34.93 46.7867 34.7509 46.9744 34.5756 47.0992C34.2954 47.2917 33.9905 47.3831 33.5979 47.3851C33.2463 47.3861 32.8327 47.2994 32.4192 47.124C32.282 47.0669 32.1477 46.9859 32.0123 46.9106C32.0914 46.6152 32.1353 46.3093 32.1343 46.0024C32.1353 45.3707 31.9618 44.7246 31.6055 44.1519C31.0004 43.179 29.9913 42.6073 28.9345 42.5139C28.9345 42.4757 28.9411 42.4377 28.9411 42.3986C28.942 41.7059 28.7515 40.995 28.3608 40.3661V40.3681C27.6309 39.1922 26.3673 38.5423 25.0828 38.5451C25.0334 38.5451 24.9827 38.5536 24.9333 38.5556C24.8685 38.0095 24.6893 37.4684 24.3826 36.9748H24.3834C23.7879 36.0153 22.8332 35.4131 21.8031 35.2244C21.7965 34.543 21.6088 33.8483 21.2246 33.2309H21.2256C20.4967 32.0579 19.2321 31.4071 17.9476 31.409C17.2529 31.409 16.545 31.5996 15.9151 31.9902L14.563 32.8307C14.5305 32.7564 14.4896 32.684 14.4601 32.6095C14.2248 32.0465 14.077 31.4909 14.0609 31.1079L14.0295 30.5152L9.50625 26.5665L18.082 17.6847C18.5204 18.044 18.9702 18.4003 19.4314 18.7338C20.1956 19.2846 20.9531 19.7706 21.7269 20.0965C22.2234 20.3013 22.7074 20.3519 23.1516 20.3528C23.8624 20.35 24.5141 20.228 25.1936 20.1288C25.2374 20.1212 25.2831 20.1175 25.3279 20.1107C24.3941 20.912 23.5793 21.7792 22.8904 22.5864C22.31 23.2677 21.8203 23.9099 21.4324 24.434C21.0495 24.9552 20.754 25.3754 20.6244 25.5413C19.986 26.3721 19.7116 27.366 19.7059 28.3617C19.7087 29.288 19.9546 30.2522 20.593 31.067C20.9113 31.47 21.3343 31.8226 21.8393 32.0627C22.3434 32.3047 22.9208 32.4286 23.5221 32.4286C24.2682 32.4266 25.0505 32.2457 25.8786 31.8978C28.4781 30.7982 31.1576 30.0654 33.1738 29.6138C34.182 29.3889 35.0252 29.2327 35.6132 29.1345C35.7238 29.1163 35.8161 29.1011 35.9077 29.086L44.7285 36.69L44.7322 36.6919L44.7352 36.6967C44.734 36.724 44.7205 36.8031 44.6568 36.9212ZM45.6773 30.5151L45.6468 31.1078C45.6306 31.4469 45.5153 31.9253 45.3218 32.4209C45.2236 32.68 45.1036 32.9412 44.9779 33.1983L37.2528 26.5396C36.9527 26.2805 36.5525 26.1604 36.159 26.2099C36.0905 26.2233 30.4246 26.9342 24.7863 29.3107C24.2251 29.5479 23.8039 29.6213 23.5219 29.6194C23.2923 29.6194 23.1521 29.5784 23.0483 29.5288C22.8977 29.4554 22.79 29.3515 22.6834 29.1524C22.5814 28.9562 22.5118 28.6665 22.5129 28.3616C22.5071 27.9233 22.6635 27.4773 22.8387 27.2659C23.057 26.9838 23.3237 26.5989 23.6916 26.1014C24.2374 25.362 24.9789 24.4053 25.863 23.4743C26.7454 22.5434 27.7717 21.642 28.8475 21.0092C30.3026 20.1545 31.5423 19.9401 32.7172 19.9362C33.4404 19.9353 34.134 20.0257 34.8107 20.1277C35.4891 20.2278 36.1427 20.3478 36.8517 20.3516C37.2948 20.3507 37.776 20.3002 38.2706 20.0981L38.2772 20.0963C39.051 19.7704 39.8085 19.2844 40.5727 18.7336C41.0311 18.402 41.4827 18.0437 41.9191 17.6855L50.3607 26.4281L45.6773 30.5151Z" fill="#FF8B02"/>
</svg>
