<svg width="22" height="24" viewBox="0 0 22 24" fill="none" xmlns="http://www.w3.org/2000/svg">
<path d="M5.69531 5.78728C5.80259 4.9815 5.80259 4.12832 6.01715 3.36994C6.49991 1.28438 8.6455 -0.0901851 11.0593 0.00461277C12.0784 0.0520117 13.044 0.194208 13.9022 0.668198C15.0823 1.33178 15.7796 2.32716 16.0478 3.51213C16.4769 5.36069 16.3696 7.16185 15.7259 8.96301C15.4041 9.81619 14.8677 10.622 14.0095 11.1908C12.0248 12.5653 8.16274 12.5653 6.55355 9.6266C5.96351 8.58382 5.74895 7.49365 5.69531 6.30867C5.69531 6.16648 5.69531 5.97688 5.69531 5.83468C5.74895 5.78728 5.69531 5.78728 5.69531 5.78728Z" fill="#FF8B02"/>
<path fill-rule="evenodd" clip-rule="evenodd" d="M8.62289 17.248C7.12881 16.6263 5.95357 15.4159 5.40304 13.9154C4.45169 14.4108 3.44999 14.8148 2.42657 15.1274C1.27306 15.4966 0.621078 16.3935 0.520774 17.6596C0.470622 18.7675 0.520774 19.8754 0.570926 20.9832L0.570926 20.9832C0.570926 21.2998 0.771537 21.5636 1.07245 21.7218C3.17884 22.8825 5.43572 23.5683 7.79287 23.8848C8.33452 23.9481 8.87617 23.9545 9.41782 23.9608C9.77891 23.965 10.14 23.9692 10.5011 23.9903C12.7078 24.0431 14.8644 23.8848 16.9708 23.2517C18.3249 22.8297 19.6289 22.3549 20.8325 21.6691C21.1334 21.5108 21.334 21.247 21.3842 20.8777C21.4845 19.7699 21.5848 18.6092 21.3842 17.5014C21.1836 16.1825 20.5817 15.3384 19.3279 14.9691C18.334 14.6807 17.3868 14.2937 16.4705 13.8081C15.8899 15.4965 14.5235 16.8329 12.7954 17.4034C12.7418 17.4211 12.6878 17.4381 12.6336 17.4543C12.0909 17.6163 11.5148 17.7035 10.9177 17.7035C10.1907 17.7035 9.49468 17.5742 8.85239 17.3379C8.7751 17.3095 8.69859 17.2795 8.62289 17.248ZM12.5695 18.9232C12.5618 18.9591 12.5574 18.9785 12.5574 18.9785C12.5612 18.9866 12.5653 18.9667 12.5695 18.9232Z" fill="#FF8B02"/>
</svg>
