<svg width="60" height="60" viewBox="0 0 60 60" fill="none" xmlns="http://www.w3.org/2000/svg">
<path d="M11.0998 11.0832H43.8996V33.5413H48V7H7V56H29.5429V51.9168H11.0998V11.0832Z" fill="#FF8B02"/>
<path d="M16 15H40V19.0998H16V15ZM16 23.2001H35.9996V27.2999H16V23.2001ZM16 31.3997H28V35.4994H16V31.3997ZM41.9999 35.5C36.4771 35.5 31.9998 40.0891 31.9998 45.75C31.9998 51.4109 36.4771 56 41.9999 56C47.5228 56 52 51.4109 52 45.75C52 40.0891 47.5228 35.5 41.9999 35.5ZM41.9999 51.8997C38.6913 51.8997 36.0002 49.1407 36.0002 45.75C36.0002 42.3587 38.6919 39.6003 41.9999 39.6003C45.3085 39.6003 47.9996 42.3593 47.9996 45.75C47.9996 49.1407 45.3079 51.8997 41.9999 51.8997Z" fill="#FF8B02"/>
<path d="M43.2362 44.3039L42.0003 42L40.7638 44.3039L38 44.6737L40.0004 46.4674L39.5279 49L42.0003 47.8042L44.4721 49L44.0001 46.4674L46 44.6737L43.2362 44.3039Z" fill="#FF8B02"/>
</svg>
