<svg width="431" height="490" viewBox="0 0 431 490" fill="none" xmlns="http://www.w3.org/2000/svg">
<path d="M260.309 233.565C260.309 236.976 259.177 240.519 256.911 244.192C254.646 247.866 251.188 251.015 246.538 253.639C241.888 256.131 235.987 257.378 228.833 257.378H226.687V292.408H248.506C248.506 292.408 247.969 275.877 249.221 275.877C250.473 275.877 261.8 272.335 267.642 268.792C273.484 265.119 278.253 260.33 281.95 254.426C285.765 248.522 287.673 241.568 287.673 233.565C287.673 226.743 286.361 220.707 283.738 215.459C281.234 210.08 277.836 205.554 273.544 201.88C269.252 198.075 264.363 195.255 258.879 193.418C253.513 191.45 247.91 190.466 242.067 190.466C235.033 190.466 228.654 191.515 222.931 193.615C217.208 195.583 209.875 200.334 206.298 205.267C202.105 211.052 197.714 215.656 193.779 232.581H215.151C217.834 226.677 220.964 222.048 224.541 219.986C229.548 217.099 234.794 215.656 240.279 215.656C244.452 215.656 248.029 216.378 251.009 217.821C254.109 219.133 256.434 221.167 257.984 223.922C259.534 226.546 260.309 229.76 260.309 233.565ZM220.785 320.354C220.785 324.814 222.394 328.685 225.614 331.965C228.833 335.114 232.887 336.688 237.775 336.688C242.663 336.688 246.658 335.114 249.758 331.965C252.977 328.685 254.586 324.814 254.586 320.354C254.586 316.024 252.977 312.219 249.758 308.939C246.658 305.659 242.663 304.019 237.775 304.019C232.887 304.019 228.833 305.659 225.614 308.939C222.394 312.219 220.785 316.024 220.785 320.354Z" fill="#FF8B02"/>
<path fill-rule="evenodd" clip-rule="evenodd" d="M53.8618 201.713L199.89 456.883L356.391 365.902L299.838 350.716L215.129 399.877L110.414 216.899L292.434 110.682L341.216 195.923L397.769 211.109L307.673 53.6756L53.8618 201.713Z" fill="url(#paint0_linear_429_8878)"/>
<defs>
<linearGradient id="paint0_linear_429_8878" x1="169.317" y1="100.166" x2="311.658" y2="362.807" gradientUnits="userSpaceOnUse">
<stop stop-color="#C4C4C4"/>
<stop offset="0.451" stop-color="#F5F5F5"/>
<stop offset="0.6784" stop-color="#CECECE"/>
<stop offset="1" stop-color="#D4D4D4"/>
</linearGradient>
</defs>
</svg>
