<svg width="166" height="52" viewBox="0 0 166 52" fill="none" xmlns="http://www.w3.org/2000/svg">
<g clip-path="url(#clip0_1_423)">
<path d="M99.8556 19.2765H95.3923V30.7875H98.0844V27.1579H99.8556C100.422 27.1579 100.989 27.0542 101.485 26.8468C101.981 26.6394 102.406 26.3629 102.796 26.0172C103.185 25.6715 103.469 25.2221 103.681 24.7727C103.894 24.2888 104 23.7703 104 23.2172C104 22.6641 103.894 22.1456 103.681 21.6617C103.469 21.1777 103.185 20.7629 102.796 20.4172C102.406 20.0716 101.981 19.7605 101.485 19.5876C100.989 19.3802 100.422 19.2765 99.8556 19.2765ZM99.8556 24.7036H98.0844V21.7308H99.8556C100.139 21.7308 100.387 21.7999 100.599 21.9382C100.812 22.0765 100.989 22.2493 101.095 22.4567C101.202 22.6641 101.272 22.9407 101.272 23.2172C101.272 23.4937 101.202 23.7357 101.095 23.9777C100.989 24.1851 100.812 24.3579 100.599 24.4962C100.387 24.6345 100.139 24.7036 99.8556 24.7036Z" fill="#FF8B02"/>
<path d="M93.7988 19.2765H85.0141V21.7999H88.0604V30.7875H90.7525V21.7999H93.7988V19.2765Z" fill="#FF8B02"/>
<path d="M80.7274 19.2767V23.7013H77.0434V19.2767H74.3159V30.7877H77.0434V26.2248H80.7274V30.7877H83.4195V19.2767H80.7274Z" fill="#FF8B02"/>
<path d="M67.6912 28.2642V26.2248H71.9065V23.7359H67.6912V21.8001H72.2961V19.2767H64.9991V30.7877H72.4024V28.2642H67.6912Z" fill="#FF8B02"/>
<path d="M61.8828 28.2642V19.2767H59.1553V28.2642H55.6485V19.2767H52.9564V30.7877H60.4305V33H63.1226V28.2642H61.8828Z" fill="#FF8B02"/>
<path d="M7.297 24.8073C7.6158 24.5308 7.86376 24.2197 8.04087 23.8394C8.21798 23.4592 8.32425 23.0444 8.32425 22.5605C8.32425 22.0765 8.21798 21.5926 8.04087 21.2123C7.86376 20.7975 7.58038 20.4518 7.22616 20.1753C6.87193 19.8988 6.48229 19.6568 6.05722 19.5185C5.59673 19.3802 5.13624 19.2765 4.6049 19.2765H0V30.7875H4.95913C5.49046 30.7875 5.98637 30.7184 6.44686 30.5455C6.90736 30.3727 7.297 30.1653 7.65122 29.8542C8.00545 29.5431 8.28883 29.1974 8.46594 28.7826C8.64305 28.3678 8.74932 27.9184 8.74932 27.3999C8.74932 27.0197 8.67847 26.6394 8.57221 26.3283C8.46594 26.0172 8.28883 25.7061 8.07629 25.4641C7.86376 25.2221 7.6158 25.0147 7.297 24.8073ZM4.6049 21.7308C4.81744 21.7308 4.99455 21.7654 5.13624 21.8691C5.27793 21.9728 5.41962 22.0765 5.49046 22.2148C5.56131 22.353 5.63215 22.5259 5.63215 22.7333C5.63215 22.9407 5.59673 23.1135 5.49046 23.2518C5.41962 23.3901 5.27793 23.5283 5.13624 23.5975C4.99455 23.6666 4.81744 23.7357 4.6049 23.7357H2.6921V21.6963L4.6049 21.7308ZM4.95913 28.3332H2.6921V26.1209H4.95913C5.17166 26.1209 5.38419 26.1555 5.56131 26.2592C5.73842 26.3629 5.84469 26.5011 5.95095 26.6394C6.05722 26.8123 6.09264 26.9851 6.09264 27.1925C6.09264 27.3999 6.05722 27.6073 5.95095 27.7456C5.84469 27.9184 5.73842 28.0567 5.56131 28.1258C5.38419 28.2641 5.17166 28.3332 4.95913 28.3332ZM18.455 19.2765H9.6703V21.8H12.7166V30.7875H15.4087V21.8H18.455V19.2765ZM25.6812 31.0295C26.3542 31.0295 26.9918 30.9258 27.6294 30.7184C28.2316 30.511 28.7984 30.2344 29.3297 29.8888C29.8256 29.5431 30.2861 29.0937 30.6403 28.6098C31.03 28.1258 31.3133 27.5727 31.5259 26.9505C31.7384 26.3629 31.8447 25.7061 31.8447 25.0147C31.8447 24.3234 31.7384 23.7012 31.5259 23.079C31.3133 22.4913 31.03 21.9382 30.6403 21.4197C30.2507 20.9358 29.8256 20.4864 29.3297 20.1407C28.8338 19.7951 28.267 19.5185 27.6294 19.3111C27.0272 19.1037 26.3896 19.0346 25.6812 19C25.0082 19 24.3706 19.1037 23.733 19.3111C23.1308 19.5185 22.564 19.7951 22.0327 20.1407C21.5368 20.4864 21.0763 20.9358 20.7221 21.4197C20.3324 21.9037 20.049 22.4567 19.8365 23.079C19.624 23.6666 19.5177 24.3234 19.5177 25.0147C19.5177 25.7061 19.624 26.3283 19.8365 26.9505C20.049 27.5382 20.3324 28.0912 20.7221 28.6098C21.1117 29.0937 21.5368 29.5431 22.0327 29.8888C22.5286 30.2344 23.0954 30.511 23.733 30.7184C24.3351 30.9258 24.9727 31.0295 25.6812 31.0295ZM25.6812 28.4715C25.1853 28.4715 24.7602 28.4024 24.3351 28.2295C23.9101 28.0567 23.5559 27.8493 23.2371 27.5382C22.9183 27.2271 22.6703 26.8814 22.4932 26.4666C22.3161 26.0518 22.2452 25.5678 22.2098 25.0493C22.2098 24.5308 22.3161 24.0814 22.4932 23.632C22.6703 23.2172 22.9183 22.837 23.2371 22.5605C23.5559 22.2493 23.9101 22.0419 24.3351 21.8691C24.7602 21.6963 25.1853 21.6271 25.6812 21.6271C26.1771 21.6271 26.6022 21.6963 27.0272 21.8691C27.4523 22.0419 27.8065 22.2493 28.1253 22.5605C28.4441 22.8716 28.6921 23.2172 28.8692 23.632C29.0463 24.0468 29.1172 24.5308 29.1526 25.0493C29.1526 25.5678 29.0463 26.0172 28.8692 26.4666C28.6921 26.8814 28.4441 27.2616 28.1253 27.5382C27.8065 27.8493 27.4523 28.0567 27.0272 28.2295C26.6022 28.3678 26.1417 28.4369 25.6812 28.4715ZM38.1853 19.2765H33.7221V30.7875H36.4142V27.1579H38.1853C38.752 27.1579 39.3188 27.0542 39.8147 26.8468C40.3106 26.6394 40.7357 26.3629 41.1253 26.0172C41.515 25.6715 41.7984 25.2221 42.0109 24.7728C42.2234 24.2888 42.3297 23.7703 42.3297 23.2172C42.3297 22.6642 42.2234 22.1456 42.0109 21.6617C41.7984 21.1777 41.515 20.7629 41.1253 20.4173C40.7357 20.0716 40.3106 19.7605 39.8147 19.5876C39.3188 19.3802 38.7875 19.2765 38.1853 19.2765ZM38.1853 24.7036H36.4142V21.7308H38.1853C38.4687 21.7308 38.7166 21.8 38.9291 21.9382C39.1417 22.0765 39.3188 22.2493 39.4251 22.4567C39.5313 22.6642 39.6022 22.9407 39.6022 23.2172C39.6022 23.4938 39.5313 23.7357 39.4251 23.9777C39.3188 24.1851 39.1417 24.358 38.9291 24.4962C38.7166 24.6345 38.4687 24.7036 38.1853 24.7036ZM44.1008 27.0542H50.5122V24.7036H44.1008V27.0542Z" fill="url(#paint0_linear_1_423)"/>
<path fill-rule="evenodd" clip-rule="evenodd" d="M161.011 19.1431L153.265 21.4618V20.3873H140.061V17.9272H153.265V16.8245L161.011 19.1431Z" fill="#FF8B02"/>
<path fill-rule="evenodd" clip-rule="evenodd" d="M161.011 32.7722L153.265 35.0909V34.0446H140.061V31.6129H153.265V30.4536L161.011 32.7722Z" fill="#FF8B02"/>
<path fill-rule="evenodd" clip-rule="evenodd" d="M126.086 25.9861L137.332 14.4494L148.578 25.9861L137.332 37.5228L126.086 25.9861ZM129.449 25.9861L137.332 17.8991L145.216 25.9861L137.332 34.0731L129.449 25.9861Z" fill="#FF8B02"/>
<path fill-rule="evenodd" clip-rule="evenodd" d="M112 25.9859L137.332 0L152.961 16.0044H145.794L137.332 7.35182L119.167 25.9859L137.332 44.6482L145.794 35.9674H152.961L137.332 52L112 25.9859Z" fill="url(#paint1_linear_1_423)"/>
<path fill-rule="evenodd" clip-rule="evenodd" d="M156.848 24.7416H166V27.1734H156.848V28.2761L149.103 25.9575L156.848 23.6388V24.7416Z" fill="#FF8B02"/>
</g>
<defs>
<linearGradient id="paint0_linear_1_423" x1="28.8185" y1="18.1863" x2="20.1664" y2="30.8582" gradientUnits="userSpaceOnUse">
<stop stop-color="#C4C4C4"/>
<stop offset="0.451" stop-color="#F5F5F5"/>
<stop offset="0.6784" stop-color="#CECECE"/>
<stop offset="1" stop-color="#D4D4D4"/>
</linearGradient>
<linearGradient id="paint1_linear_1_423" x1="122.442" y1="41.9354" x2="148.048" y2="15.3881" gradientUnits="userSpaceOnUse">
<stop stop-color="#C4C4C4"/>
<stop offset="0.451" stop-color="#F5F5F5"/>
<stop offset="0.6784" stop-color="#CECECE"/>
<stop offset="1" stop-color="#D4D4D4"/>
</linearGradient>
<clipPath id="clip0_1_423">
<rect width="166" height="52" fill="white"/>
</clipPath>
</defs>
</svg>
