<svg width="105" height="90" viewBox="0 0 105 90" fill="none" xmlns="http://www.w3.org/2000/svg">
<path fill-rule="evenodd" clip-rule="evenodd" d="M71.9008 26.1407H81.7531V28.71H71.9008V29.8751L63.5619 27.4254L71.9008 24.9756V26.1407Z" fill="#FF8B02"/>
<path fill-rule="evenodd" clip-rule="evenodd" d="M23.6176 27.4554L50.8895 0L67.7156 16.9094H59.9999L50.8895 7.76756L31.3333 27.4554L50.8895 47.173L59.9999 38.0013H67.7156L50.8895 54.9406L23.6176 27.4554Z" fill="url(#paint0_linear_1_45)"/>
<path fill-rule="evenodd" clip-rule="evenodd" d="M38.7819 27.4556L50.8896 15.2665L62.9972 27.4556L50.8896 39.6447L38.7819 27.4556ZM42.4023 27.4556L50.8896 18.9113L59.3768 27.4556L50.8896 35.9999L42.4023 27.4556Z" fill="#FF8B02"/>
<path fill-rule="evenodd" clip-rule="evenodd" d="M76.3816 34.6255L68.0427 37.0752V35.9699H53.8281V33.4006H68.0427V32.1757L76.3816 34.6255Z" fill="#FF8B02"/>
<path fill-rule="evenodd" clip-rule="evenodd" d="M76.3816 20.2256L68.0427 22.6754V21.5402H53.8281V18.941H68.0427V17.7759L76.3816 20.2256Z" fill="#FF8B02"/>
<path d="M13.1128 65.0684C13.3799 64.8294 13.5876 64.5605 13.736 64.2319C13.8844 63.9032 13.9734 63.5447 13.9734 63.1265C13.9734 62.7082 13.8844 62.29 13.736 61.9613C13.5876 61.6028 13.3502 61.3041 13.0534 61.0651C12.7567 60.8261 12.4303 60.617 12.0742 60.4975C11.6884 60.378 11.3026 60.2883 10.8575 60.2883H6.99962V70.2368H11.1542C11.5993 70.2368 12.0148 70.177 12.4006 70.0277C12.7864 69.8783 13.1128 69.699 13.4096 69.4302C13.7063 69.1613 13.9437 68.8625 14.0921 68.504C14.2405 68.1455 14.3295 67.7572 14.3295 67.309C14.3295 66.9804 14.2701 66.6518 14.1811 66.3829C14.0921 66.114 13.9437 65.8451 13.7657 65.636C13.5876 65.4269 13.3799 65.2476 13.1128 65.0684ZM10.8575 62.4095C11.0355 62.4095 11.1839 62.4394 11.3026 62.529C11.4213 62.6186 11.54 62.7082 11.5993 62.8277C11.6587 62.9472 11.718 63.0966 11.718 63.2759C11.718 63.4551 11.6884 63.6045 11.5993 63.724C11.54 63.8435 11.4213 63.963 11.3026 64.0227C11.1839 64.0825 11.0355 64.1422 10.8575 64.1422H9.25497V62.3796L10.8575 62.4095ZM11.1542 68.1157H9.25497V66.2036H11.1542C11.3323 66.2036 11.5103 66.2335 11.6587 66.3231C11.8071 66.4128 11.8961 66.5323 11.9851 66.6518C12.0742 66.8011 12.1038 66.9505 12.1038 67.1298C12.1038 67.309 12.0742 67.4883 11.9851 67.6078C11.8961 67.7572 11.8071 67.8766 11.6587 67.9364C11.5103 68.0559 11.3323 68.1157 11.1542 68.1157ZM22.4606 60.2883H15.1011V62.4692H17.6532V70.2368H19.9085V62.4692H22.4606V60.2883ZM28.5145 70.4459C29.0783 70.4459 29.6125 70.3563 30.1466 70.177C30.6511 69.9978 31.1259 69.7588 31.571 69.46C31.9865 69.1613 32.3723 68.7729 32.669 68.3547C32.9955 67.9364 33.2329 67.4584 33.4109 66.9206C33.589 66.4128 33.678 65.8451 33.678 65.2476C33.678 64.6501 33.589 64.1124 33.4109 63.5746C33.2329 63.0667 32.9955 62.5887 32.669 62.1406C32.3426 61.7223 31.9865 61.334 31.571 61.0352C31.1556 60.7365 30.6808 60.4975 30.1466 60.3182C29.6421 60.139 29.108 60.0792 28.5145 60.0493C27.9506 60.0493 27.4165 60.139 26.8823 60.3182C26.3778 60.4975 25.903 60.7365 25.4579 61.0352C25.0424 61.334 24.6566 61.7223 24.3599 62.1406C24.0334 62.5589 23.796 63.0369 23.618 63.5746C23.4399 64.0825 23.3509 64.6501 23.3509 65.2476C23.3509 65.8451 23.4399 66.3829 23.618 66.9206C23.796 67.4285 24.0334 67.9065 24.3599 68.3547C24.6863 68.7729 25.0424 69.1613 25.4579 69.46C25.8733 69.7588 26.3481 69.9978 26.8823 70.177C27.3868 70.3563 27.9209 70.4459 28.5145 70.4459ZM28.5145 68.2352C28.099 68.2352 27.7429 68.1754 27.3868 68.026C27.0307 67.8766 26.7339 67.6974 26.4668 67.4285C26.1998 67.1596 25.992 66.8609 25.8436 66.5024C25.6953 66.1439 25.6359 65.7256 25.6062 65.2775C25.6062 64.8294 25.6953 64.441 25.8436 64.0526C25.992 63.6941 26.1998 63.3655 26.4668 63.1265C26.7339 62.8576 27.0307 62.6784 27.3868 62.529C27.7429 62.3796 28.099 62.3199 28.5145 62.3199C28.9299 62.3199 29.286 62.3796 29.6421 62.529C29.9982 62.6784 30.295 62.8576 30.5621 63.1265C30.8292 63.3954 31.0369 63.6941 31.1853 64.0526C31.3336 64.4111 31.393 64.8294 31.4227 65.2775C31.4227 65.7256 31.3336 66.114 31.1853 66.5024C31.0369 66.8609 30.8292 67.1895 30.5621 67.4285C30.295 67.6974 29.9982 67.8766 29.6421 68.026C29.286 68.1455 28.9002 68.2053 28.5145 68.2352ZM38.99 60.2883H35.2508V70.2368H37.5062V67.0999H38.99C39.4648 67.0999 39.9396 67.0103 40.355 66.831C40.7705 66.6518 41.1266 66.4128 41.453 66.114C41.7795 65.8153 42.0169 65.4269 42.1949 65.0385C42.373 64.6202 42.462 64.1721 42.462 63.6941C42.462 63.2161 42.373 62.768 42.1949 62.3497C42.0169 61.9315 41.7795 61.573 41.453 61.2742C41.1266 60.9755 40.7705 60.7066 40.355 60.5572C39.9396 60.378 39.4944 60.2883 38.99 60.2883ZM38.99 64.9788H37.5062V62.4095H38.99C39.2274 62.4095 39.4351 62.4692 39.6131 62.5887C39.7912 62.7082 39.9396 62.8576 40.0286 63.0369C40.1176 63.2161 40.177 63.4551 40.177 63.6941C40.177 63.9331 40.1176 64.1422 40.0286 64.3514C39.9396 64.5306 39.7912 64.68 39.6131 64.7995C39.4351 64.919 39.2274 64.9788 38.99 64.9788ZM43.9458 67.0103H49.3171V64.9788H43.9458V67.0103Z" fill="url(#paint1_linear_1_45)"/>
<path d="M58.8429 68.0561V60.2885H56.5579V68.0561H53.62V60.2885H51.3647V70.2369H57.6262V72.149H59.8816V68.0561H58.8429Z" fill="#FF8B02"/>
<path d="M63.7091 68.0561V66.2934H67.2405V64.1424H63.7091V62.4694H67.5669V60.2885H61.4537V70.237H67.6559V68.0561H63.7091Z" fill="#FF8B02"/>
<path d="M74.6303 60.2885V64.1125H71.544V60.2885H69.259V70.237H71.544V66.2934H74.6303V70.237H76.8856V60.2885H74.6303Z" fill="#FF8B02"/>
<path d="M85.5811 60.2883H78.2215V62.4692H80.7736V70.2368H83.029V62.4692H85.5811V60.2883Z" fill="#FF8B02"/>
<path d="M90.6552 60.2883H86.9161V70.2368H89.1714V67.0999H90.6552C91.13 67.0999 91.6048 67.0102 92.0203 66.831C92.4358 66.6517 92.7919 66.4127 93.1183 66.114C93.4447 65.8152 93.6821 65.4269 93.8602 65.0385C94.0382 64.6202 94.1273 64.1721 94.1273 63.6941C94.1273 63.2161 94.0382 62.768 93.8602 62.3497C93.6821 61.9315 93.4447 61.573 93.1183 61.2742C92.7919 60.9754 92.4358 60.7066 92.0203 60.5572C91.6048 60.3779 91.13 60.2883 90.6552 60.2883ZM90.6552 64.9787H89.1714V62.4095H90.6552C90.8926 62.4095 91.1004 62.4692 91.2784 62.5887C91.4565 62.7082 91.6048 62.8576 91.6939 63.0368C91.7829 63.2161 91.8423 63.4551 91.8423 63.6941C91.8423 63.9331 91.7829 64.1422 91.6939 64.3513C91.6048 64.5306 91.4565 64.68 91.2784 64.7995C91.1004 64.919 90.8926 64.9787 90.6552 64.9787Z" fill="#FF8B02"/>
<path d="M2.59711 81.1C2.59711 81.7907 2.75111 82.3973 3.05911 82.92C3.37644 83.4427 3.78711 83.8487 4.29111 84.138C4.80444 84.418 5.35978 84.558 5.95711 84.558C6.42378 84.558 6.84378 84.4973 7.21711 84.376C7.59044 84.2547 7.92644 84.0913 8.22511 83.886C8.53311 83.6713 8.79911 83.4333 9.02311 83.172V85.132C8.61244 85.468 8.16911 85.7247 7.69311 85.902C7.21711 86.0793 6.61978 86.168 5.90111 86.168C5.18244 86.168 4.51044 86.0467 3.88511 85.804C3.26911 85.5613 2.73244 85.2113 2.27511 84.754C1.81778 84.2967 1.45844 83.76 1.19711 83.144C0.945111 82.5187 0.819111 81.8373 0.819111 81.1C0.819111 80.3627 0.945111 79.686 1.19711 79.07C1.45844 78.4447 1.81778 77.9033 2.27511 77.446C2.73244 76.9887 3.26911 76.6387 3.88511 76.396C4.51044 76.1533 5.18244 76.032 5.90111 76.032C6.61978 76.032 7.21711 76.1207 7.69311 76.298C8.16911 76.4753 8.61244 76.732 9.02311 77.068V79.028C8.79911 78.7667 8.53311 78.5333 8.22511 78.328C7.92644 78.1133 7.59044 77.9453 7.21711 77.824C6.84378 77.7027 6.42378 77.642 5.95711 77.642C5.35978 77.642 4.80444 77.7867 4.29111 78.076C3.78711 78.356 3.37644 78.7573 3.05911 79.28C2.75111 79.7933 2.59711 80.4 2.59711 81.1Z" fill="#FBFBFB"/>
<path d="M11.8848 84.096C11.8848 84.292 11.9361 84.4553 12.0388 84.586C12.1508 84.7167 12.2955 84.8193 12.4728 84.894C12.6501 84.9593 12.8508 84.992 13.0748 84.992C13.4015 84.992 13.6955 84.9407 13.9568 84.838C14.2181 84.7353 14.4235 84.572 14.5728 84.348C14.7221 84.124 14.7968 83.8253 14.7968 83.452L15.0208 84.18C15.0208 84.5907 14.9135 84.9453 14.6988 85.244C14.4841 85.5333 14.1948 85.7573 13.8308 85.916C13.4668 86.0653 13.0608 86.14 12.6128 86.14C12.1928 86.14 11.8101 86.0653 11.4648 85.916C11.1288 85.7667 10.8581 85.5473 10.6528 85.258C10.4568 84.9593 10.3588 84.5907 10.3588 84.152C10.3588 83.7133 10.4708 83.3353 10.6948 83.018C10.9188 82.7007 11.2361 82.458 11.6468 82.29C12.0668 82.122 12.5568 82.038 13.1168 82.038C13.4901 82.038 13.8215 82.0847 14.1108 82.178C14.4095 82.2713 14.6568 82.3787 14.8528 82.5C15.0488 82.6213 15.1841 82.7287 15.2588 82.822V83.62C14.9695 83.4053 14.6755 83.2513 14.3768 83.158C14.0781 83.0553 13.7328 83.004 13.3408 83.004C13.0235 83.004 12.7528 83.0507 12.5288 83.144C12.3141 83.228 12.1508 83.354 12.0388 83.522C11.9361 83.6807 11.8848 83.872 11.8848 84.096ZM11.5488 81.254L10.9468 80.176C11.2361 79.9987 11.6048 79.826 12.0528 79.658C12.5008 79.49 13.0141 79.406 13.5928 79.406C14.1248 79.406 14.5915 79.4853 14.9928 79.644C15.3941 79.8027 15.7068 80.0313 15.9308 80.33C16.1641 80.6193 16.2808 80.9787 16.2808 81.408V86H14.7968V81.576C14.7968 81.2773 14.6708 81.0487 14.4188 80.89C14.1761 80.722 13.8775 80.638 13.5228 80.638C13.2148 80.638 12.9301 80.6753 12.6688 80.75C12.4075 80.8247 12.1788 80.9133 11.9828 81.016C11.7961 81.1093 11.6515 81.1887 11.5488 81.254Z" fill="#FBFBFB"/>
<path d="M18.7138 83.228V81.982H23.6418V83.228H18.7138ZM22.8298 79.56H24.3138V86H22.8298V79.56ZM18.0558 79.56H19.5398V86H18.0558V79.56Z" fill="#FBFBFB"/>
<path d="M26.1893 79.56H27.6733V86H26.1893V79.56ZM30.0393 79.56H31.8873L29.1153 82.22L32.1673 86H30.3333L27.2533 82.22L30.0393 79.56Z" fill="#FBFBFB"/>
<path d="M32.2809 79.56H36.3549V80.89H32.2809V79.56ZM33.5829 79.84H35.0669V86H33.5829V79.84Z" fill="#FBFBFB"/>
<path d="M36.4919 83.354V81.996H39.3619V83.354H36.4919Z" fill="#FBFBFB"/>
<path d="M46.9617 77.726H42.2297V86H40.5497V76.2H48.6277V86H46.9617V77.726Z" fill="#FBFBFB"/>
<path d="M51.124 83.13V82.094H55.17C55.1326 81.786 55.0486 81.52 54.918 81.296C54.7966 81.0627 54.624 80.8853 54.4 80.764C54.176 80.6333 53.9006 80.568 53.574 80.568C53.238 80.568 52.9346 80.6427 52.664 80.792C52.3933 80.932 52.1786 81.142 52.02 81.422C51.8613 81.6927 51.782 82.0147 51.782 82.388L51.754 82.78C51.754 83.256 51.8286 83.6527 51.978 83.97C52.1366 84.278 52.3513 84.5113 52.622 84.67C52.902 84.8193 53.224 84.894 53.588 84.894C53.8866 84.894 54.148 84.852 54.372 84.768C54.6053 84.684 54.8106 84.5673 54.988 84.418C55.1653 84.2593 55.3146 84.0773 55.436 83.872L56.738 84.404C56.5233 84.7493 56.276 85.0527 55.996 85.314C55.7253 85.5753 55.3893 85.7807 54.988 85.93C54.596 86.07 54.106 86.14 53.518 86.14C52.8553 86.14 52.2766 85.9953 51.782 85.706C51.2873 85.4167 50.9046 85.02 50.634 84.516C50.3633 84.0027 50.228 83.424 50.228 82.78C50.228 82.6587 50.2326 82.542 50.242 82.43C50.2513 82.318 50.2653 82.206 50.284 82.094C50.3773 81.562 50.564 81.0953 50.844 80.694C51.1333 80.2927 51.5113 79.98 51.978 79.756C52.4446 79.532 52.9813 79.42 53.588 79.42C54.2506 79.42 54.82 79.5553 55.296 79.826C55.7813 80.0873 56.1546 80.4653 56.416 80.96C56.6773 81.4453 56.808 82.0287 56.808 82.71C56.808 82.766 56.808 82.8313 56.808 82.906C56.808 82.9713 56.7986 83.046 56.78 83.13H51.124Z" fill="#FBFBFB"/>
<path d="M57.3688 79.56H61.4428V80.89H57.3688V79.56ZM58.6708 79.84H60.1548V86H58.6708V79.84Z" fill="#FBFBFB"/>
<path d="M62.6767 83.13V82.094H66.7227C66.6854 81.786 66.6014 81.52 66.4707 81.296C66.3494 81.0627 66.1767 80.8853 65.9527 80.764C65.7287 80.6333 65.4534 80.568 65.1267 80.568C64.7907 80.568 64.4874 80.6427 64.2167 80.792C63.946 80.932 63.7314 81.142 63.5727 81.422C63.414 81.6927 63.3347 82.0147 63.3347 82.388L63.3067 82.78C63.3067 83.256 63.3814 83.6527 63.5307 83.97C63.6894 84.278 63.904 84.5113 64.1747 84.67C64.4547 84.8193 64.7767 84.894 65.1407 84.894C65.4394 84.894 65.7007 84.852 65.9247 84.768C66.158 84.684 66.3634 84.5673 66.5407 84.418C66.718 84.2593 66.8674 84.0773 66.9887 83.872L68.2907 84.404C68.076 84.7493 67.8287 85.0527 67.5487 85.314C67.278 85.5753 66.942 85.7807 66.5407 85.93C66.1487 86.07 65.6587 86.14 65.0707 86.14C64.408 86.14 63.8294 85.9953 63.3347 85.706C62.84 85.4167 62.4574 85.02 62.1867 84.516C61.916 84.0027 61.7807 83.424 61.7807 82.78C61.7807 82.6587 61.7854 82.542 61.7947 82.43C61.804 82.318 61.818 82.206 61.8367 82.094C61.93 81.562 62.1167 81.0953 62.3967 80.694C62.686 80.2927 63.064 79.98 63.5307 79.756C63.9974 79.532 64.534 79.42 65.1407 79.42C65.8034 79.42 66.3727 79.5553 66.8487 79.826C67.334 80.0873 67.7074 80.4653 67.9687 80.96C68.23 81.4453 68.3607 82.0287 68.3607 82.71C68.3607 82.766 68.3607 82.8313 68.3607 82.906C68.3607 82.9713 68.3514 83.046 68.3327 83.13H62.6767Z" fill="#FBFBFB"/>
<path d="M71.2876 89.08H69.7616V79.56H71.2876V89.08ZM76.6216 82.78C76.6216 83.4893 76.4769 84.1007 76.1876 84.614C75.8982 85.118 75.5156 85.5053 75.0396 85.776C74.5636 86.0373 74.0456 86.168 73.4856 86.168C72.9349 86.168 72.4542 86.0327 72.0436 85.762C71.6422 85.482 71.3296 85.09 71.1056 84.586C70.8909 84.0727 70.7836 83.4707 70.7836 82.78C70.7836 82.08 70.8909 81.478 71.1056 80.974C71.3296 80.47 71.6422 80.0827 72.0436 79.812C72.4542 79.532 72.9349 79.392 73.4856 79.392C74.0456 79.392 74.5636 79.5273 75.0396 79.798C75.5156 80.0593 75.8982 80.442 76.1876 80.946C76.4769 81.45 76.6216 82.0613 76.6216 82.78ZM75.0536 82.78C75.0536 82.3507 74.9649 81.9867 74.7876 81.688C74.6102 81.38 74.3722 81.1513 74.0736 81.002C73.7842 80.8433 73.4622 80.764 73.1076 80.764C72.8182 80.764 72.5336 80.8433 72.2536 81.002C71.9736 81.1513 71.7402 81.3753 71.5536 81.674C71.3762 81.9727 71.2876 82.3413 71.2876 82.78C71.2876 83.2187 71.3762 83.5873 71.5536 83.886C71.7402 84.1847 71.9736 84.4133 72.2536 84.572C72.5336 84.7213 72.8182 84.796 73.1076 84.796C73.4622 84.796 73.7842 84.7213 74.0736 84.572C74.3722 84.4133 74.6102 84.1847 74.7876 83.886C74.9649 83.578 75.0536 83.2093 75.0536 82.78Z" fill="#FBFBFB"/>
<path d="M81.1277 80.75L81.1977 79.42C81.851 79.42 82.4344 79.5647 82.9477 79.854C83.461 80.1433 83.8624 80.54 84.1517 81.044C84.4504 81.548 84.5997 82.1267 84.5997 82.78C84.5997 83.424 84.4504 84.0027 84.1517 84.516C83.853 85.02 83.4424 85.4167 82.9197 85.706C82.4064 85.9953 81.809 86.14 81.1277 86.14C80.4557 86.14 79.849 85.986 79.3077 85.678C78.7757 85.3607 78.3557 84.8893 78.0477 84.264C77.7397 83.6387 77.5857 82.864 77.5857 81.94L79.1957 82.78C79.1957 83.1813 79.2797 83.536 79.4477 83.844C79.625 84.1427 79.8584 84.3807 80.1477 84.558C80.437 84.726 80.7637 84.81 81.1277 84.81C81.4917 84.81 81.8184 84.726 82.1077 84.558C82.397 84.3807 82.6257 84.1427 82.7937 83.844C82.9617 83.536 83.0457 83.1813 83.0457 82.78C83.0457 82.3787 82.9617 82.024 82.7937 81.716C82.6257 81.408 82.397 81.17 82.1077 81.002C81.8184 80.834 81.4917 80.75 81.1277 80.75ZM78.5097 82.78C78.5097 82.2573 78.575 81.7907 78.7057 81.38C78.8364 80.96 79.0184 80.6053 79.2517 80.316C79.4944 80.0267 79.779 79.8073 80.1057 79.658C80.4324 79.4993 80.7964 79.42 81.1977 79.42L81.1277 80.75C80.9037 80.75 80.675 80.7967 80.4417 80.89C80.2177 80.974 80.0124 81.1047 79.8257 81.282C79.639 81.45 79.485 81.66 79.3637 81.912C79.2517 82.164 79.1957 82.4533 79.1957 82.78H78.5097ZM77.5857 81.94C77.5857 81.0627 77.665 80.288 77.8237 79.616C77.9917 78.944 78.281 78.3747 78.6917 77.908C79.1117 77.432 79.6904 77.0587 80.4277 76.788C81.0624 76.5547 81.543 76.298 81.8697 76.018C82.1964 75.7287 82.3924 75.416 82.4577 75.08H83.9277C83.881 75.4907 83.7317 75.8733 83.4797 76.228C83.2277 76.5827 82.8964 76.8953 82.4857 77.166C82.0844 77.4273 81.627 77.6467 81.1137 77.824C80.535 78.0293 80.0824 78.3093 79.7557 78.664C79.4384 79.0187 79.219 79.42 79.0977 79.868C78.9764 80.316 78.9157 80.7733 78.9157 81.24L79.0557 82.71L77.5857 81.94Z" fill="#FBFBFB"/>
<path d="M91.7578 79.56L87.5578 89.08H85.9478L87.6278 85.244L85.0378 79.56H86.7738L88.8318 84.656L88.1177 84.614L90.1338 79.56H91.7578Z" fill="#FBFBFB"/>
<path d="M94.1333 89.08H92.6073V79.56H94.1333V89.08ZM99.4673 82.78C99.4673 83.4893 99.3226 84.1007 99.0333 84.614C98.7439 85.118 98.3613 85.5053 97.8853 85.776C97.4093 86.0373 96.8913 86.168 96.3313 86.168C95.7806 86.168 95.2999 86.0327 94.8893 85.762C94.4879 85.482 94.1753 85.09 93.9513 84.586C93.7366 84.0727 93.6293 83.4707 93.6293 82.78C93.6293 82.08 93.7366 81.478 93.9513 80.974C94.1753 80.47 94.4879 80.0827 94.8893 79.812C95.2999 79.532 95.7806 79.392 96.3313 79.392C96.8913 79.392 97.4093 79.5273 97.8853 79.798C98.3613 80.0593 98.7439 80.442 99.0333 80.946C99.3226 81.45 99.4673 82.0613 99.4673 82.78ZM97.8993 82.78C97.8993 82.3507 97.8106 81.9867 97.6333 81.688C97.4559 81.38 97.2179 81.1513 96.9193 81.002C96.6299 80.8433 96.3079 80.764 95.9533 80.764C95.6639 80.764 95.3793 80.8433 95.0993 81.002C94.8193 81.1513 94.5859 81.3753 94.3993 81.674C94.2219 81.9727 94.1333 82.3413 94.1333 82.78C94.1333 83.2187 94.2219 83.5873 94.3993 83.886C94.5859 84.1847 94.8193 84.4133 95.0993 84.572C95.3793 84.7213 95.6639 84.796 95.9533 84.796C96.3079 84.796 96.6299 84.7213 96.9193 84.572C97.2179 84.4133 97.4559 84.1847 97.6333 83.886C97.8106 83.578 97.8993 83.2093 97.8993 82.78Z" fill="#FBFBFB"/>
<path d="M100.963 79.56H104.659V80.89H102.461V86H100.963V79.56Z" fill="#FBFBFB"/>
<defs>
<linearGradient id="paint0_linear_1_45" x1="34.8593" y1="44.3068" x2="61.8897" y2="15.7509" gradientUnits="userSpaceOnUse">
<stop stop-color="#C4C4C4"/>
<stop offset="0.451" stop-color="#F5F5F5"/>
<stop offset="0.6784" stop-color="#CECECE"/>
<stop offset="1" stop-color="#D4D4D4"/>
</linearGradient>
<linearGradient id="paint1_linear_1_45" x1="31.1428" y1="59.3461" x2="23.5831" y2="70.0787" gradientUnits="userSpaceOnUse">
<stop stop-color="#C4C4C4"/>
<stop offset="0.451" stop-color="#F5F5F5"/>
<stop offset="0.6784" stop-color="#CECECE"/>
<stop offset="1" stop-color="#D4D4D4"/>
</linearGradient>
</defs>
</svg>
