<svg width="215" height="186" viewBox="0 0 215 186" fill="none" xmlns="http://www.w3.org/2000/svg">
<path fill-rule="evenodd" clip-rule="evenodd" d="M147.225 54.0242H167.399V59.334H147.225V61.7419L130.151 56.6791L147.225 51.6162V54.0242Z" fill="#FF8B02"/>
<path fill-rule="evenodd" clip-rule="evenodd" d="M48.3599 56.7411L104.202 0L138.656 34.9461H122.857L104.202 16.053L64.1586 56.7411L104.202 97.4909L122.857 78.536H138.656L104.202 113.544L48.3599 56.7411Z" fill="url(#paint0_linear_14_76)"/>
<path fill-rule="evenodd" clip-rule="evenodd" d="M79.4106 56.7416L104.203 31.5508L128.994 56.7416L104.203 81.9324L79.4106 56.7416ZM86.8239 56.7416L104.203 39.0833L121.581 56.7416L104.203 74.3998L86.8239 56.7416Z" fill="#FF8B02"/>
<path fill-rule="evenodd" clip-rule="evenodd" d="M156.4 71.5593L139.326 76.6222V74.3377H110.219V69.0279H139.326V66.4965L156.4 71.5593Z" fill="#FF8B02"/>
<path fill-rule="evenodd" clip-rule="evenodd" d="M156.4 41.7997L139.326 46.8625V44.5163H110.219V39.1448H139.326V36.7368L156.4 41.7997Z" fill="#FF8B02"/>
<path d="M26.85 134.475C27.3969 133.981 27.8222 133.425 28.126 132.746C28.4299 132.067 28.6121 131.326 28.6121 130.461C28.6121 129.597 28.4299 128.733 28.126 128.053C27.8222 127.313 27.3361 126.695 26.7285 126.201C26.1208 125.707 25.4524 125.275 24.7232 125.028C23.9333 124.781 23.1434 124.596 22.2319 124.596H14.3325V145.156H22.8395C23.751 145.156 24.6017 145.033 25.3916 144.724C26.1816 144.415 26.85 144.045 27.4576 143.489C28.0653 142.933 28.5514 142.316 28.8552 141.575C29.159 140.834 29.3413 140.031 29.3413 139.105C29.3413 138.426 29.2198 137.747 29.0375 137.191C28.8552 136.636 28.5514 136.08 28.1868 135.648C27.8222 135.216 27.3969 134.845 26.85 134.475ZM22.2319 128.98C22.5965 128.98 22.9003 129.041 23.1434 129.227C23.3864 129.412 23.6295 129.597 23.751 129.844C23.8725 130.091 23.9941 130.4 23.9941 130.77C23.9941 131.141 23.9333 131.449 23.751 131.696C23.6295 131.943 23.3864 132.19 23.1434 132.314C22.9003 132.437 22.5965 132.561 22.2319 132.561H18.9506V128.918L22.2319 128.98ZM22.8395 140.772H18.9506V136.821H22.8395C23.2041 136.821 23.5687 136.883 23.8725 137.068C24.1763 137.253 24.3586 137.5 24.5409 137.747C24.7232 138.056 24.784 138.364 24.784 138.735C24.784 139.105 24.7232 139.476 24.5409 139.723C24.3586 140.031 24.1763 140.278 23.8725 140.402C23.5687 140.649 23.2041 140.772 22.8395 140.772ZM45.9908 124.596H30.9212V129.103H36.1469V145.156H40.765V129.103H45.9908V124.596ZM58.3867 145.588C59.5412 145.588 60.635 145.403 61.7287 145.033C62.7617 144.662 63.734 144.168 64.6454 143.551C65.4961 142.933 66.2861 142.131 66.8937 141.266C67.5621 140.402 68.0482 139.414 68.4128 138.303C68.7774 137.253 68.9597 136.08 68.9597 134.845C68.9597 133.61 68.7774 132.499 68.4128 131.388C68.0482 130.338 67.5621 129.35 66.8937 128.424C66.2253 127.559 65.4961 126.757 64.6454 126.139C63.7947 125.522 62.8225 125.028 61.7287 124.658C60.6957 124.287 59.602 124.164 58.3867 124.102C57.2322 124.102 56.1384 124.287 55.0447 124.658C54.0117 125.028 53.0394 125.522 52.128 126.139C51.2773 126.757 50.4873 127.559 49.8797 128.424C49.2113 129.288 48.7252 130.276 48.3606 131.388C47.996 132.437 47.8137 133.61 47.8137 134.845C47.8137 136.08 47.996 137.191 48.3606 138.303C48.7252 139.352 49.2113 140.34 49.8797 141.266C50.5481 142.131 51.2773 142.933 52.128 143.551C52.9787 144.168 53.9509 144.662 55.0447 145.033C56.0777 145.403 57.1714 145.588 58.3867 145.588ZM58.3867 141.019C57.536 141.019 56.8068 140.896 56.0777 140.587C55.3485 140.278 54.7408 139.908 54.194 139.352C53.6471 138.797 53.2217 138.179 52.9179 137.438C52.6141 136.697 52.4926 135.833 52.4318 134.907C52.4318 133.981 52.6141 133.178 52.9179 132.375C53.2217 131.634 53.6471 130.955 54.194 130.461C54.7408 129.906 55.3485 129.535 56.0777 129.227C56.8068 128.918 57.536 128.794 58.3867 128.794C59.2374 128.794 59.9666 128.918 60.6957 129.227C61.4249 129.535 62.0326 129.906 62.5794 130.461C63.1263 131.017 63.5517 131.634 63.8555 132.375C64.1593 133.116 64.2808 133.981 64.3416 134.907C64.3416 135.833 64.1593 136.636 63.8555 137.438C63.5517 138.179 63.1263 138.858 62.5794 139.352C62.0326 139.908 61.4249 140.278 60.6957 140.587C59.9666 140.834 59.1766 140.958 58.3867 141.019ZM79.8365 124.596H72.1802V145.156H76.7983V138.673H79.8365C80.8088 138.673 81.781 138.488 82.6317 138.117C83.4824 137.747 84.2116 137.253 84.88 136.636C85.5484 136.018 86.0345 135.216 86.3991 134.413C86.7637 133.548 86.946 132.622 86.946 131.634C86.946 130.647 86.7637 129.72 86.3991 128.856C86.0345 127.992 85.5484 127.251 84.88 126.633C84.2116 126.016 83.4824 125.46 82.6317 125.152C81.781 124.781 80.8695 124.596 79.8365 124.596ZM79.8365 134.289H76.7983V128.98H79.8365C80.3226 128.98 80.748 129.103 81.1126 129.35C81.4772 129.597 81.781 129.906 81.9633 130.276C82.1456 130.647 82.2671 131.141 82.2671 131.634C82.2671 132.128 82.1456 132.561 81.9633 132.993C81.781 133.363 81.4772 133.672 81.1126 133.919C80.748 134.166 80.3226 134.289 79.8365 134.289ZM89.9842 138.488H100.983V134.289H89.9842V138.488Z" fill="url(#paint1_linear_14_76)"/>
<path d="M120.488 140.649V124.596H115.809V140.649H109.794V124.596H105.175V145.156H117.997V149.108H122.615V140.649H120.488Z" fill="#FF8B02"/>
<path d="M130.452 140.649V137.006H137.683V132.561H130.452V129.103H138.351V124.596H125.834V145.156H138.534V140.649H130.452Z" fill="#FF8B02"/>
<path d="M152.814 124.596V132.499H146.495V124.596H141.816V145.156H146.495V137.006H152.814V145.156H157.432V124.596H152.814Z" fill="#FF8B02"/>
<path d="M175.238 124.596H160.168V129.103H165.394V145.156H170.012V129.103H175.238V124.596Z" fill="#FF8B02"/>
<path d="M185.627 124.596H177.971V145.156H182.589V138.673H185.627C186.6 138.673 187.572 138.488 188.423 138.117C189.273 137.747 190.002 137.253 190.671 136.636C191.339 136.018 191.825 135.215 192.19 134.413C192.555 133.548 192.737 132.622 192.737 131.634C192.737 130.647 192.555 129.72 192.19 128.856C191.825 127.992 191.339 127.251 190.671 126.633C190.002 126.016 189.273 125.46 188.423 125.152C187.572 124.781 186.6 124.596 185.627 124.596ZM185.627 134.289H182.589V128.98H185.627C186.114 128.98 186.539 129.103 186.903 129.35C187.268 129.597 187.572 129.906 187.754 130.276C187.936 130.647 188.058 131.14 188.058 131.634C188.058 132.128 187.936 132.561 187.754 132.993C187.572 133.363 187.268 133.672 186.903 133.919C186.539 134.166 186.114 134.289 185.627 134.289Z" fill="#FF8B02"/>
<path d="M21.5561 167.361C21.5561 168.551 21.8214 169.595 22.3518 170.496C22.8983 171.396 23.6056 172.095 24.4736 172.593C25.3576 173.076 26.3141 173.317 27.3428 173.317C28.1465 173.317 28.8698 173.212 29.5128 173.003C30.1558 172.794 30.7344 172.513 31.2488 172.159C31.7792 171.79 32.2374 171.38 32.6231 170.93V174.305C31.9159 174.884 31.1524 175.326 30.3326 175.631C29.5128 175.937 28.4841 176.089 27.2464 176.089C26.0086 176.089 24.8513 175.88 23.7744 175.463C22.7135 175.045 21.7892 174.442 21.0016 173.654C20.2139 172.867 19.5951 171.942 19.145 170.881C18.711 169.804 18.494 168.631 18.494 167.361C18.494 166.091 18.711 164.926 19.145 163.865C19.5951 162.788 20.2139 161.856 21.0016 161.068C21.7892 160.281 22.7135 159.678 23.7744 159.26C24.8513 158.842 26.0086 158.633 27.2464 158.633C28.4841 158.633 29.5128 158.786 30.3326 159.091C31.1524 159.396 31.9159 159.839 32.6231 160.417V163.793C32.2374 163.343 31.7792 162.941 31.2488 162.587C30.7344 162.217 30.1558 161.928 29.5128 161.719C28.8698 161.51 28.1465 161.406 27.3428 161.406C26.3141 161.406 25.3576 161.655 24.4736 162.153C23.6056 162.635 22.8983 163.327 22.3518 164.227C21.8214 165.111 21.5561 166.156 21.5561 167.361Z" fill="#FBFBFB"/>
<path d="M37.5516 172.521C37.5516 172.859 37.64 173.14 37.8168 173.365C38.0097 173.59 38.2588 173.767 38.5643 173.895C38.8697 174.008 39.2153 174.064 39.601 174.064C40.1636 174.064 40.67 173.976 41.12 173.799C41.5701 173.622 41.9237 173.341 42.1809 172.955C42.4381 172.569 42.5667 172.055 42.5667 171.412L42.9525 172.666C42.9525 173.373 42.7676 173.984 42.3979 174.498C42.0282 174.996 41.5299 175.382 40.903 175.655C40.2761 175.913 39.5769 176.041 38.8054 176.041C38.082 176.041 37.423 175.913 36.8283 175.655C36.2496 175.398 35.7834 175.02 35.4298 174.522C35.0923 174.008 34.9235 173.373 34.9235 172.617C34.9235 171.862 35.1164 171.211 35.5021 170.664C35.8879 170.118 36.4344 169.7 37.1417 169.411C37.865 169.121 38.7089 168.977 39.6734 168.977C40.3163 168.977 40.887 169.057 41.3853 169.218C41.8996 169.378 42.3256 169.563 42.6631 169.772C43.0007 169.981 43.2338 170.166 43.3624 170.327V171.701C42.8641 171.331 42.3577 171.066 41.8434 170.906C41.329 170.729 40.7343 170.64 40.0591 170.64C39.5126 170.64 39.0465 170.721 38.6607 170.881C38.291 171.026 38.0097 171.243 37.8168 171.532C37.64 171.806 37.5516 172.135 37.5516 172.521ZM36.9729 167.626L35.9361 165.77C36.4344 165.464 37.0694 165.167 37.8409 164.878C38.6125 164.588 39.4966 164.444 40.4931 164.444C41.4094 164.444 42.2131 164.58 42.9043 164.854C43.5954 165.127 44.1339 165.521 44.5197 166.035C44.9216 166.533 45.1225 167.152 45.1225 167.892V175.8H42.5667V168.181C42.5667 167.667 42.3497 167.273 41.9157 167C41.4978 166.71 40.9834 166.566 40.3726 166.566C39.8421 166.566 39.3519 166.63 38.9018 166.758C38.4517 166.887 38.0579 167.04 37.7204 167.217C37.3989 167.377 37.1497 167.514 36.9729 167.626Z" fill="#FBFBFB"/>
<path d="M49.3127 171.026V168.88H57.7998V171.026H49.3127ZM56.4014 164.709H58.9572V175.8H56.4014V164.709ZM48.1795 164.709H50.7353V175.8H48.1795V164.709Z" fill="#FBFBFB"/>
<path d="M62.1871 164.709H64.7429V175.8H62.1871V164.709ZM68.8177 164.709H72.0003L67.2263 169.29L72.4826 175.8H69.324L64.0196 169.29L68.8177 164.709Z" fill="#FBFBFB"/>
<path d="M72.6783 164.709H79.6946V167H72.6783V164.709ZM74.9206 165.191H77.4764V175.8H74.9206V165.191Z" fill="#FBFBFB"/>
<path d="M79.9304 171.243V168.904H84.8732V171.243H79.9304Z" fill="#FBFBFB"/>
<path d="M97.9618 161.55H89.8122V175.8H86.9189V158.922H100.831V175.8H97.9618V161.55Z" fill="#FBFBFB"/>
<path d="M105.13 170.857V169.073H112.098C112.034 168.543 111.889 168.085 111.664 167.699C111.455 167.297 111.158 166.991 110.772 166.783C110.386 166.557 109.912 166.445 109.35 166.445C108.771 166.445 108.249 166.574 107.782 166.831C107.316 167.072 106.947 167.434 106.673 167.916C106.4 168.382 106.263 168.936 106.263 169.579L106.215 170.255C106.215 171.074 106.344 171.757 106.601 172.304C106.874 172.834 107.244 173.236 107.71 173.51C108.192 173.767 108.747 173.895 109.374 173.895C109.888 173.895 110.338 173.823 110.724 173.678C111.126 173.534 111.479 173.333 111.785 173.076C112.09 172.802 112.347 172.489 112.556 172.135L114.799 173.051C114.429 173.646 114.003 174.169 113.521 174.619C113.055 175.069 112.476 175.422 111.785 175.68C111.11 175.921 110.266 176.041 109.253 176.041C108.112 176.041 107.115 175.792 106.263 175.294C105.411 174.795 104.752 174.112 104.286 173.244C103.82 172.36 103.587 171.364 103.587 170.255C103.587 170.046 103.595 169.845 103.611 169.652C103.627 169.459 103.651 169.266 103.683 169.073C103.844 168.157 104.166 167.353 104.648 166.662C105.146 165.971 105.797 165.432 106.601 165.047C107.405 164.661 108.329 164.468 109.374 164.468C110.515 164.468 111.495 164.701 112.315 165.167C113.151 165.617 113.794 166.268 114.244 167.12C114.694 167.956 114.919 168.961 114.919 170.134C114.919 170.23 114.919 170.343 114.919 170.472C114.919 170.584 114.903 170.713 114.871 170.857H105.13Z" fill="#FBFBFB"/>
<path d="M115.885 164.709H122.902V167H115.885V164.709ZM118.128 165.191H120.683V175.8H118.128V165.191Z" fill="#FBFBFB"/>
<path d="M125.027 170.857V169.073H131.995C131.93 168.543 131.786 168.085 131.561 167.699C131.352 167.297 131.054 166.991 130.669 166.783C130.283 166.557 129.809 166.445 129.246 166.445C128.667 166.445 128.145 166.574 127.679 166.831C127.213 167.072 126.843 167.434 126.57 167.916C126.296 168.382 126.16 168.936 126.16 169.579L126.112 170.255C126.112 171.074 126.24 171.757 126.497 172.304C126.771 172.834 127.14 173.236 127.606 173.51C128.089 173.767 128.643 173.895 129.27 173.895C129.784 173.895 130.235 173.823 130.62 173.678C131.022 173.534 131.376 173.333 131.681 173.076C131.987 172.802 132.244 172.489 132.453 172.135L134.695 173.051C134.325 173.646 133.899 174.169 133.417 174.619C132.951 175.069 132.372 175.422 131.681 175.68C131.006 175.921 130.162 176.041 129.15 176.041C128.008 176.041 127.012 175.792 126.16 175.294C125.308 174.795 124.649 174.112 124.183 173.244C123.716 172.36 123.483 171.364 123.483 170.255C123.483 170.046 123.491 169.845 123.508 169.652C123.524 169.459 123.548 169.266 123.58 169.073C123.741 168.157 124.062 167.353 124.544 166.662C125.043 165.971 125.694 165.432 126.497 165.047C127.301 164.661 128.225 164.468 129.27 164.468C130.411 164.468 131.392 164.701 132.212 165.167C133.047 165.617 133.69 166.268 134.141 167.12C134.591 167.956 134.816 168.961 134.816 170.134C134.816 170.23 134.816 170.343 134.816 170.472C134.816 170.584 134.8 170.713 134.767 170.857H125.027Z" fill="#FBFBFB"/>
<path d="M139.856 181.105H137.228V164.709H139.856V181.105ZM149.043 170.255C149.043 171.476 148.794 172.529 148.295 173.413C147.797 174.281 147.138 174.948 146.318 175.414C145.498 175.864 144.606 176.089 143.642 176.089C142.693 176.089 141.866 175.856 141.158 175.39C140.467 174.908 139.929 174.233 139.543 173.365C139.173 172.481 138.988 171.444 138.988 170.255C138.988 169.049 139.173 168.012 139.543 167.144C139.929 166.276 140.467 165.609 141.158 165.143C141.866 164.661 142.693 164.42 143.642 164.42C144.606 164.42 145.498 164.653 146.318 165.119C147.138 165.569 147.797 166.228 148.295 167.096C148.794 167.964 149.043 169.017 149.043 170.255ZM146.342 170.255C146.342 169.515 146.19 168.888 145.884 168.374C145.579 167.843 145.169 167.45 144.654 167.192C144.156 166.919 143.602 166.783 142.991 166.783C142.493 166.783 142.002 166.919 141.52 167.192C141.038 167.45 140.636 167.835 140.314 168.35C140.009 168.864 139.856 169.499 139.856 170.255C139.856 171.01 140.009 171.645 140.314 172.159C140.636 172.674 141.038 173.067 141.52 173.341C142.002 173.598 142.493 173.727 142.991 173.727C143.602 173.727 144.156 173.598 144.654 173.341C145.169 173.067 145.579 172.674 145.884 172.159C146.19 171.629 146.342 170.994 146.342 170.255Z" fill="#FBFBFB"/>
<path d="M156.803 166.758L156.924 164.468C158.049 164.468 159.054 164.717 159.938 165.215C160.822 165.714 161.513 166.397 162.011 167.265C162.526 168.133 162.783 169.129 162.783 170.255C162.783 171.364 162.526 172.36 162.011 173.244C161.497 174.112 160.79 174.795 159.889 175.294C159.005 175.792 157.977 176.041 156.803 176.041C155.646 176.041 154.601 175.776 153.669 175.246C152.753 174.699 152.029 173.887 151.499 172.81C150.968 171.733 150.703 170.399 150.703 168.808L153.476 170.255C153.476 170.946 153.621 171.557 153.91 172.087C154.215 172.601 154.617 173.011 155.115 173.317C155.614 173.606 156.176 173.751 156.803 173.751C157.43 173.751 157.993 173.606 158.491 173.317C158.989 173.011 159.383 172.601 159.672 172.087C159.962 171.557 160.106 170.946 160.106 170.255C160.106 169.563 159.962 168.953 159.672 168.422C159.383 167.892 158.989 167.482 158.491 167.192C157.993 166.903 157.43 166.758 156.803 166.758ZM152.294 170.255C152.294 169.354 152.407 168.551 152.632 167.843C152.857 167.12 153.171 166.509 153.572 166.011C153.99 165.513 154.481 165.135 155.043 164.878C155.606 164.604 156.233 164.468 156.924 164.468L156.803 166.758C156.417 166.758 156.024 166.839 155.622 167C155.236 167.144 154.882 167.369 154.561 167.675C154.239 167.964 153.974 168.326 153.765 168.76C153.572 169.194 153.476 169.692 153.476 170.255H152.294ZM150.703 168.808C150.703 167.297 150.84 165.963 151.113 164.805C151.402 163.648 151.901 162.668 152.608 161.864C153.331 161.044 154.328 160.401 155.598 159.935C156.691 159.533 157.519 159.091 158.081 158.609C158.644 158.111 158.981 157.572 159.094 156.993H161.625C161.545 157.701 161.288 158.36 160.854 158.971C160.42 159.581 159.849 160.12 159.142 160.586C158.451 161.036 157.663 161.414 156.779 161.719C155.783 162.073 155.003 162.555 154.44 163.166C153.894 163.777 153.516 164.468 153.307 165.239C153.098 166.011 152.994 166.799 152.994 167.602L153.235 170.134L150.703 168.808Z" fill="#FBFBFB"/>
<path d="M175.111 164.709L167.877 181.105H165.104L167.998 174.498L163.537 164.709H166.527L170.071 173.485L168.842 173.413L172.314 164.709H175.111Z" fill="#FBFBFB"/>
<path d="M179.202 181.105H176.574V164.709H179.202V181.105ZM188.388 170.255C188.388 171.476 188.139 172.529 187.641 173.413C187.142 174.281 186.483 174.948 185.664 175.414C184.844 175.864 183.952 176.089 182.987 176.089C182.039 176.089 181.211 175.856 180.504 175.39C179.813 174.908 179.274 174.233 178.888 173.365C178.519 172.481 178.334 171.444 178.334 170.255C178.334 169.049 178.519 168.012 178.888 167.144C179.274 166.276 179.813 165.609 180.504 165.143C181.211 164.661 182.039 164.42 182.987 164.42C183.952 164.42 184.844 164.653 185.664 165.119C186.483 165.569 187.142 166.228 187.641 167.096C188.139 167.964 188.388 169.017 188.388 170.255ZM185.688 170.255C185.688 169.515 185.535 168.888 185.23 168.374C184.924 167.843 184.514 167.45 184 167.192C183.502 166.919 182.947 166.783 182.336 166.783C181.838 166.783 181.348 166.919 180.865 167.192C180.383 167.45 179.981 167.835 179.66 168.35C179.354 168.864 179.202 169.499 179.202 170.255C179.202 171.01 179.354 171.645 179.66 172.159C179.981 172.674 180.383 173.067 180.865 173.341C181.348 173.598 181.838 173.727 182.336 173.727C182.947 173.727 183.502 173.598 184 173.341C184.514 173.067 184.924 172.674 185.23 172.159C185.535 171.629 185.688 170.994 185.688 170.255Z" fill="#FBFBFB"/>
<path d="M190.965 164.709H197.33V167H193.545V175.8H190.965V164.709Z" fill="#FBFBFB"/>
<defs>
<linearGradient id="paint0_linear_14_76" x1="71.3785" y1="91.5673" x2="127.267" y2="33.0685" gradientUnits="userSpaceOnUse">
<stop stop-color="#C4C4C4"/>
<stop offset="0.451" stop-color="#F5F5F5"/>
<stop offset="0.6784" stop-color="#CECECE"/>
<stop offset="1" stop-color="#D4D4D4"/>
</linearGradient>
<linearGradient id="paint1_linear_14_76" x1="63.7685" y1="122.649" x2="48.097" y2="144.693" gradientUnits="userSpaceOnUse">
<stop stop-color="#C4C4C4"/>
<stop offset="0.451" stop-color="#F5F5F5"/>
<stop offset="0.6784" stop-color="#CECECE"/>
<stop offset="1" stop-color="#D4D4D4"/>
</linearGradient>
</defs>
</svg>
