<svg width="103" height="16" viewBox="0 0 103 16" fill="none" xmlns="http://www.w3.org/2000/svg">
<g clip-path="url(#clip0_441_13094)">
<path d="M46.0548 4.07524L48.2019 2.58398H41.0137V11.5169H48.2019V10.0256H43.0675V7.74492H47.4551V6.25365H43.0675V4.07524H46.0548Z" fill="#118C27"/>
<path d="M35.5823 6.06359H33.0929V4.07524H37.076L39.2231 2.58398H31.0391V11.5169H35.3178C37.7139 11.5169 39.0987 10.4935 39.0987 8.70985C39.0987 6.99928 37.8539 6.06359 35.5823 6.06359ZM35.24 10.0256H33.0929V7.55485H35.24C36.547 7.55485 37.1538 7.96422 37.1538 8.79757C37.1538 9.63094 36.5003 10.0256 35.24 10.0256Z" fill="#118C27"/>
<path d="M54.0205 2.58398H50.1152V11.5169H52.169V8.98763H54.0361C56.5255 8.98763 58.0814 7.75954 58.0814 5.78581C58.0814 3.81208 56.5255 2.58398 54.0205 2.58398ZM53.9738 7.49637H52.1535V4.07524H53.9738C55.2964 4.07524 56.0121 4.68929 56.0121 5.78581C56.0121 6.88232 55.2964 7.49637 53.9738 7.49637Z" fill="#118C27"/>
<path d="M27.5246 9.58875C26.9801 9.86655 26.3733 10.0127 25.7509 10.0127C23.8994 10.0127 22.5613 8.77006 22.5613 7.05949C22.5613 5.34893 23.8994 4.10621 25.7509 4.10621C26.4199 4.09159 27.0734 4.29627 27.618 4.66178L29.0961 3.63836L29.0027 3.55064C28.147 2.83425 26.9956 2.46875 25.6887 2.46875C24.2728 2.46875 22.9814 2.92197 22.0479 3.7407C21.1143 4.58868 20.5853 5.77291 20.6165 7.00101C20.6009 8.24373 21.1143 9.44259 22.0479 10.3198C23.0281 11.1823 24.335 11.6648 25.6731 11.6356C27.1512 11.6356 28.4426 11.1531 29.3139 10.2759L27.9914 9.35487L27.5246 9.58875Z" fill="#118C27"/>
<path d="M82.7727 2.5986V11.5315H84.8265V7.8765H89.1986V11.5315H91.2524V2.5986H89.1986V6.26827H84.8265V2.5986H82.7727ZM79.2409 11.5315H81.4036L77.3894 2.5986H75.3045L71.2125 11.5315H73.2818L74.1064 9.73324H78.4629L79.2409 11.5315ZM74.7288 8.242L76.3158 4.66005L77.8095 8.242H74.7288ZM95.8578 7.92036H97.1336L100.276 11.5169H102.921L98.7206 6.89694L102.392 2.58398H100.043L96.9936 6.41448H95.8578V2.58398H93.804V11.5169H95.8578V7.92036ZM64.4288 6.07821V4.08986H69.7966V2.5986H62.375V11.5315H66.6537C69.0498 11.5315 70.4345 10.5081 70.4345 8.72447C70.4345 7.0139 69.1898 6.07821 66.9182 6.07821H64.4288ZM64.4288 10.0402V7.56947H66.5759C67.8829 7.56947 68.4897 7.97884 68.4897 8.81219C68.4897 9.64554 67.8517 10.0549 66.5759 10.0549H64.4288V10.0402Z" fill="#118C27"/>
<path d="M14.1892 2.52734C14.5626 2.98056 14.8738 3.47765 15.1383 4.00398L7.95007 8.98947L4.93164 7.20581V5.07125L7.93451 6.8403L14.1892 2.52734Z" fill="#118C27"/>
<path d="M1.86726 7.05785C1.86726 6.95551 1.86726 6.86779 1.88282 6.76545L0.0624339 6.67773C0.0624339 6.79469 0.046875 6.92627 0.046875 7.04323C0.046875 9.09006 0.933733 10.9468 2.36515 12.2919L3.65654 11.0784C2.55186 10.055 1.86726 8.63684 1.86726 7.05785Z" fill="url(#paint0_linear_441_13094)"/>
<path d="M7.93532 1.35705C8.04423 1.35705 8.13758 1.35705 8.2465 1.37167L8.33985 -0.338896C8.21538 -0.338896 8.07535 -0.353516 7.95088 -0.353516C5.77263 -0.353516 3.79665 0.479837 2.36523 1.82489L3.65662 3.03837C4.74574 2.00034 6.27051 1.35705 7.93532 1.35705Z" fill="url(#paint1_linear_441_13094)"/>
<path d="M7.93578 12.7614C7.82687 12.7614 7.73351 12.7614 7.6246 12.7468L7.53125 14.4574C7.65572 14.4574 7.79575 14.472 7.92022 14.472C10.0984 14.472 12.0744 13.6387 13.5058 12.2936L12.2144 11.0801C11.1253 12.1328 9.61614 12.7614 7.93578 12.7614Z" fill="url(#paint2_linear_441_13094)"/>
<path d="M11.3585 2.35022L12.8989 1.28295C11.5452 0.259528 9.81818 -0.369141 7.93555 -0.369141V1.34143C9.21138 1.35605 10.3939 1.72155 11.3585 2.35022Z" fill="url(#paint3_linear_441_13094)"/>
<path d="M15.8392 7.05896C15.8392 6.60573 15.7925 6.16713 15.7147 5.72852L14.0188 6.91276C14.0188 6.95662 14.0188 7.0151 14.0188 7.05896C14.0188 8.74029 13.2408 10.2461 12.0117 11.2842L13.2408 12.5561C14.8278 11.2111 15.8392 9.23737 15.8392 7.05896Z" fill="#118C27"/>
<path d="M7.93413 12.761C6.14485 12.761 4.54229 12.03 3.4376 10.875L2.08398 12.03C3.53096 13.5359 5.61585 14.4716 7.93413 14.4716V12.761Z" fill="url(#paint4_linear_441_13094)"/>
<path d="M3.87436 2.83251L2.64521 1.56055C1.04264 2.92023 0.046875 4.87934 0.046875 7.05775H1.86726C1.86726 5.39105 2.64521 3.87055 3.87436 2.83251Z" fill="url(#paint5_linear_441_13094)"/>
</g>
<defs>
<linearGradient id="paint0_linear_441_13094" x1="2.17685" y1="12.0837" x2="0.510703" y2="6.97483" gradientUnits="userSpaceOnUse">
<stop offset="0.1444" stop-color="#F2E913"/>
<stop offset="0.3037" stop-color="#E7E518"/>
<stop offset="0.5823" stop-color="#CADB26"/>
<stop offset="0.891" stop-color="#A3CD39"/>
</linearGradient>
<linearGradient id="paint1_linear_441_13094" x1="2.88413" y1="1.62657" x2="7.52941" y2="-0.251282" gradientUnits="userSpaceOnUse">
<stop offset="0.0592" stop-color="#0FA8E0"/>
<stop offset="0.5385" stop-color="#0099F9"/>
<stop offset="0.9234" stop-color="#0291EB"/>
</linearGradient>
<linearGradient id="paint2_linear_441_13094" x1="7.42436" y1="13.0129" x2="13.0161" y2="11.6722" gradientUnits="userSpaceOnUse">
<stop offset="0.1226" stop-color="#A3CD39"/>
<stop offset="0.2846" stop-color="#86C339"/>
<stop offset="0.8693" stop-color="#21A038"/>
</linearGradient>
<linearGradient id="paint3_linear_441_13094" x1="7.56153" y1="0.725307" x2="12.1891" y2="2.23994" gradientUnits="userSpaceOnUse">
<stop offset="0.0566" stop-color="#0291EB"/>
<stop offset="0.79" stop-color="#0C8ACB"/>
</linearGradient>
<linearGradient id="paint4_linear_441_13094" x1="2.54684" y1="12.3078" x2="7.4936" y2="14.2685" gradientUnits="userSpaceOnUse">
<stop offset="0.1324" stop-color="#F2E913"/>
<stop offset="0.2977" stop-color="#EBE716"/>
<stop offset="0.5306" stop-color="#D9E01F"/>
<stop offset="0.8023" stop-color="#BBD62D"/>
<stop offset="0.9829" stop-color="#A3CD39"/>
</linearGradient>
<linearGradient id="paint5_linear_441_13094" x1="1.43202" y1="7.26437" x2="3.23829" y2="2.27991" gradientUnits="userSpaceOnUse">
<stop offset="0.0698" stop-color="#A3CD39"/>
<stop offset="0.2599" stop-color="#81C55F"/>
<stop offset="0.9216" stop-color="#0FA8E0"/>
</linearGradient>
<clipPath id="clip0_441_13094">
<rect width="103" height="16" fill="white"/>
</clipPath>
</defs>
</svg>
