<svg width="113" height="34" viewBox="0 0 113 34" fill="none" xmlns="http://www.w3.org/2000/svg">
<path d="M10.7349 0.5C13.0124 0.5 13.7277 2.10917 14.3258 3.72061C14.5796 4.40167 20.4943 20.3835 20.6709 20.8631C20.7025 20.9456 20.7002 21.0369 20.6643 21.1177C20.6284 21.1984 20.562 21.2622 20.4791 21.2951C20.2695 21.3728 17.1956 22.5533 17.0264 22.6154C16.9437 22.6442 16.853 22.6397 16.7736 22.603C16.6943 22.5663 16.6328 22.5003 16.6023 22.4193C16.5394 22.2532 15.2659 18.769 15.1217 18.3788H6.35886C6.21531 18.769 4.92792 22.2591 4.86848 22.4193C4.85423 22.4598 4.83191 22.4972 4.80282 22.5291C4.77372 22.561 4.73843 22.5869 4.69905 22.6052C4.65968 22.6234 4.61701 22.6338 4.57353 22.6355C4.53005 22.6373 4.48664 22.6304 4.44588 22.6154C4.26535 22.5445 1.17822 21.365 0.996177 21.2951C0.912939 21.2625 0.845915 21.199 0.809437 21.1183C0.772959 21.0376 0.769899 20.946 0.800921 20.8631C1.01883 20.2632 6.84243 4.53806 7.14102 3.72061C7.71657 2.13531 8.45935 0.5 10.7349 0.5ZM0.332074 29.0954C0.287911 29.096 0.244284 29.105 0.203687 29.1222C0.16309 29.1394 0.126307 29.1643 0.0954678 29.1955C0.0646284 29.2267 0.0403354 29.2636 0.023957 29.304C0.00757866 29.3445 -0.000542214 29.3878 3.81626e-05 29.4313V33.1641C-0.000627675 33.2077 0.00742472 33.251 0.0237726 33.2915C0.0401205 33.332 0.064427 33.3689 0.0952833 33.4002C0.12614 33.4314 0.162959 33.4563 0.203595 33.4734C0.244231 33.4905 0.287886 33.4996 0.332074 33.5H21.1382C21.1822 33.4994 21.2257 33.4902 21.2661 33.473C21.3064 33.4557 21.343 33.4308 21.3735 33.3996C21.4041 33.3683 21.4282 33.3315 21.4442 33.2911C21.4603 33.2507 21.4681 33.2075 21.4673 33.1641V29.4313C21.4681 29.388 21.4602 29.3448 21.4441 29.3045C21.4279 29.2641 21.4039 29.2273 21.3733 29.1961C21.3428 29.1649 21.3063 29.1399 21.266 29.1227C21.2256 29.1054 21.1822 29.0961 21.1382 29.0954H0.332074ZM10.7172 5.71903L7.75394 14.4985H13.7277L10.7546 5.71903H10.7172ZM88.1283 18.6031C88.1539 18.8183 88.1313 19.0364 88.062 19.242C87.9927 19.4476 87.8784 19.6356 87.7273 19.7928C87.5762 19.95 87.3919 20.0725 87.1875 20.1516C86.9831 20.2307 86.7635 20.2644 86.5444 20.2505C86.1168 20.2676 85.6891 20.2198 85.2763 20.1088V17.1022C85.6948 17.0299 86.1196 16.999 86.5444 17.01C86.7613 16.9847 86.9811 17.0089 87.187 17.0805C87.3929 17.1521 87.5795 17.2693 87.7324 17.4231C87.8853 17.5769 88.0005 17.7632 88.0691 17.9678C88.1377 18.1723 88.158 18.3896 88.1283 18.6031V18.6031ZM90.2347 18.4545C90.2347 16.6129 89.1406 15.344 86.8434 15.344C86.3146 15.3415 85.7878 15.4071 85.2763 15.5392L85.2723 12.887C85.85 12.8171 86.4317 12.7839 87.0137 12.7875C87.7763 12.7868 88.5383 12.8291 89.2961 12.9141L89.3483 11.3779C88.3433 11.1778 87.3207 11.0758 86.2955 11.0735C85.2438 11.1051 84.1985 11.2461 83.1768 11.4944L83.1758 21.2951C84.2168 21.6771 85.3186 21.872 86.4292 21.8708C88.934 21.8708 90.2347 20.5602 90.2347 18.4545ZM66.3359 17.9205C66.3359 19.2874 65.7831 20.1699 64.875 20.1699C64.5297 20.1817 64.1854 20.128 63.8607 20.0116V15.9062C64.2035 15.7348 64.5871 15.6586 64.9704 15.6858C65.8805 15.6858 66.3359 16.4275 66.3359 17.9205ZM59.4128 17.9672C59.4128 16.4745 59.8689 15.6858 60.7774 15.6858C61.161 15.6584 61.545 15.7346 61.8882 15.9062V20.0116C61.5632 20.1283 61.2184 20.182 60.8728 20.1699C59.8379 20.1699 59.4128 19.336 59.4128 17.9672M63.8607 24.1182V21.4465C64.3492 21.7076 64.9004 21.8331 65.4554 21.8096C67.1328 21.8096 68.3685 20.4339 68.3685 17.9205C68.3685 15.2135 67.1407 14.0549 65.1219 14.0549C64.6872 14.0326 64.2538 14.1175 63.8607 14.3019V11.1104H61.8882V14.3019C61.4947 14.1175 61.0609 14.0326 60.6259 14.0549C58.6081 14.0549 57.3793 15.2615 57.3793 17.9672C57.3793 20.4815 58.49 21.8096 60.2904 21.8096C60.8465 21.8335 61.3987 21.708 61.8882 21.4465V24.1182H63.8607M48.8758 21.6824V14.5179C47.9015 14.2098 46.884 14.0552 45.8609 14.0597C44.8448 14.0553 43.8346 14.21 42.8676 14.5179V18.1866C42.915 18.7296 42.8719 19.2766 42.7402 19.8059C42.6279 20.1643 42.3972 20.4753 42.085 20.6893L42.6241 21.8329C44.2145 21.3903 44.8131 20.7077 44.8131 18.538V15.8392C45.1585 15.7751 45.5094 15.7439 45.8609 15.7459C46.2075 15.7437 46.5535 15.775 46.8939 15.8392V21.6824H48.8758ZM73.2679 20.1116C72.9276 20.2371 72.5666 20.2993 72.2034 20.2951C71.495 20.2951 71.0917 20.0185 71.0917 19.302C71.0917 18.5555 71.6003 18.3031 72.5811 18.3031C72.7788 18.3003 72.9759 18.3251 73.1666 18.3768V18.9118C73.148 19.3143 73.1821 19.7176 73.2679 20.1116ZM75.7844 20.9689C75.3035 20.3248 75.0703 19.5331 75.1263 18.7351V16.7323C75.2152 16.078 75.0671 15.4138 74.7081 14.8567C74.3077 14.3004 73.6377 14.0597 72.4011 14.0597C71.5428 14.0545 70.6872 14.1549 69.854 14.3587L70.1472 15.7931C70.6625 15.7138 71.1823 15.6662 71.7036 15.6503C73.015 15.6503 73.1666 15.8392 73.1666 16.8081V17.1711C72.8401 17.0833 72.5033 17.0385 72.165 17.0381C70.1846 17.0381 69.1418 17.9914 69.1418 19.5641C69.1343 19.8802 69.1947 20.1942 69.3188 20.4857C69.443 20.7772 69.6282 21.0394 69.8623 21.2553C70.0964 21.4712 70.3741 21.6358 70.6772 21.7384C70.9803 21.8409 71.3019 21.8791 71.621 21.8504C72.1178 21.853 72.6108 21.7648 73.0751 21.5902C73.3175 21.4859 73.5482 21.357 73.7636 21.2058C73.9592 21.4724 74.218 21.6877 74.5173 21.8329L75.7844 20.9689ZM95.1153 20.1116C94.7747 20.2373 94.4135 20.2995 94.0499 20.2951C93.3406 20.2951 92.9411 20.0185 92.9411 19.302C92.9411 18.5555 93.4488 18.3031 94.4296 18.3031C94.6263 18.2998 94.8225 18.3247 95.012 18.3768V18.9118C94.9944 19.3144 95.0291 19.7177 95.1153 20.1116V20.1116ZM97.6329 20.9689C97.1505 20.3255 96.9165 19.5335 96.9727 18.7351V16.7323C97.0617 16.0784 96.9148 15.4144 96.5576 14.8567C96.1542 14.3004 95.4853 14.0597 94.2486 14.0597C93.3906 14.0543 92.5353 14.1548 91.7025 14.3587L91.9957 15.7931C92.511 15.7138 93.0308 15.6661 93.552 15.6503C94.8606 15.6503 95.012 15.8392 95.012 16.8081V17.1711C94.6863 17.0832 94.3502 17.0384 94.0125 17.0381C92.033 17.0381 90.9903 17.9914 90.9903 19.5641C90.9827 19.88 91.043 20.1939 91.167 20.4853C91.291 20.7767 91.476 21.0389 91.7099 21.2548C91.9438 21.4706 92.2213 21.6353 92.5241 21.7379C92.827 21.8406 93.1485 21.8789 93.4674 21.8504C93.9642 21.8531 94.4573 21.7649 94.9215 21.5902C95.1642 21.4863 95.395 21.3575 95.6102 21.2058C95.8064 21.4725 96.0658 21.6878 96.3658 21.8329L97.6329 20.9689ZM54.5047 19.1088C54.5047 19.8427 54.2429 20.3457 53.2916 20.3457C52.9977 20.3584 52.7038 20.3192 52.4238 20.2301V18.0856C52.707 18.0111 52.9986 17.9722 53.2916 17.97C54.2006 17.97 54.5047 18.406 54.5047 19.1088ZM50.4455 14.1795L50.4376 21.2912C51.3529 21.6648 52.3336 21.8577 53.3241 21.8591C55.4275 21.8591 56.553 20.7864 56.553 19.0185C56.553 17.4186 55.5563 16.4285 53.6949 16.4285C53.265 16.4329 52.8376 16.4953 52.4248 16.6139V14.1795H50.4455ZM104.872 21.6824V14.247H102.89V17.0585H100.648V14.247H98.6708V21.6824H100.648V18.6467H102.89V21.6824H104.872ZM113 21.6824C113 21.6824 111.92 19.4068 111.654 18.8924C111.357 18.3089 111.082 17.906 110.472 17.7623V17.7284C110.881 17.6526 111.206 17.408 111.557 16.6644C111.895 15.9372 111.996 15.7819 112.193 15.6101C112.257 15.5589 112.331 15.5227 112.411 15.504C112.491 15.4854 112.574 15.4848 112.654 15.5023L112.754 14.149C112.448 14.1146 112.139 14.1078 111.832 14.1286C111.631 14.126 111.432 14.1643 111.247 14.2412C111.062 14.3182 110.894 14.432 110.756 14.5757C110.538 14.8308 110.362 15.1187 110.236 15.4285C110.049 15.8042 109.903 16.1081 109.716 16.4906C109.526 16.8823 109.433 17.0576 108.92 17.0576H108.588V14.247H106.599V21.6824H108.588V18.6448L108.858 18.64C109.423 18.64 109.52 18.7787 109.82 19.3671C110.173 20.0709 110.842 21.6824 110.842 21.6824H113ZM39.1867 21.6824H41.4681L38.0218 11.289C37.6039 11.1562 37.1672 11.09 36.7282 11.0929C36.3459 11.0858 35.966 11.1524 35.6096 11.289L31.9556 21.6824H34.1407C34.1407 21.6824 34.4339 20.7728 34.7921 19.6418H38.5709C38.9117 20.7718 39.1867 21.6824 39.1867 21.6824V21.6824ZM35.3479 17.9002C35.3479 17.9002 35.9785 15.8168 36.0744 15.4907C36.3297 14.6432 36.7105 13.3093 36.7105 13.3093H36.7735C36.7735 13.3093 37.1241 14.6922 37.3534 15.479C37.4434 15.7848 38.0455 17.9002 38.0455 17.9002H35.3479ZM79.15 16.7139C78.8996 16.7133 78.6547 16.7861 78.4462 16.923C78.2378 17.0599 78.0752 17.2547 77.979 17.4829C77.8828 17.711 77.8574 17.9622 77.906 18.2046C77.9546 18.4469 78.0749 18.6697 78.2519 18.8445C78.4288 19.0193 78.6543 19.1384 78.8999 19.1867C79.1455 19.235 79.4 19.2103 79.6314 19.1157C79.8627 19.0212 80.0604 18.861 80.1994 18.6555C80.3384 18.45 80.4125 18.2084 80.4123 17.9613C80.4117 17.631 80.2785 17.3143 80.042 17.0806C79.8054 16.8469 79.4848 16.715 79.15 16.7139Z" fill="#D35243"/>
</svg>
