<svg width="490" height="490" viewBox="0 0 490 490" fill="none" xmlns="http://www.w3.org/2000/svg">
<mask id="mask0_101_61" style="mask-type:alpha" maskUnits="userSpaceOnUse" x="0" y="0" width="490" height="490">
<rect width="490" height="490" fill="#D9D9D9"/>
</mask>
<g mask="url(#mask0_101_61)">
</g>
<path d="M237.125 34.125L237.126 77.4375C237.12 77.9562 237.217 78.4709 237.413 78.9513C237.609 79.4317 237.899 79.8681 238.266 80.235C238.632 80.6018 239.069 80.8916 239.549 81.0874C240.03 81.2831 240.544 81.3809 241.063 81.375C241.582 81.3809 242.097 81.2831 242.577 81.0874C243.057 80.8916 243.494 80.6018 243.861 80.235C244.227 79.8681 244.517 79.4317 244.713 78.9513C244.909 78.4709 245.006 77.9562 245.001 77.4375" stroke="#FF8B02" stroke-width="2.79429" stroke-miterlimit="10" stroke-linecap="round"/>
<path d="M245 55.125L245.001 77.4375C244.995 77.9562 245.092 78.4709 245.288 78.9513C245.484 79.4317 245.774 79.8681 246.141 80.235C246.507 80.6018 246.944 80.8916 247.424 81.0874C247.905 81.2831 248.419 81.3809 248.938 81.375C249.457 81.3809 249.972 81.2831 250.452 81.0874C250.932 80.8916 251.369 80.6018 251.736 80.235C252.102 79.8681 252.392 79.4317 252.588 78.9513C252.784 78.4709 252.882 77.9562 252.876 77.4375L252.875 34.125" stroke="#FF8B02" stroke-width="2.79429" stroke-miterlimit="10" stroke-linecap="round"/>
<path d="M237.125 31.5L237.125 45.9375C237.132 46.4563 237.034 46.9711 236.838 47.4516C236.643 47.9321 236.353 48.3686 235.986 48.7355C235.619 49.1023 235.183 49.3921 234.702 49.5878C234.222 49.7835 233.707 49.8812 233.188 49.875C232.669 49.8812 232.154 49.7835 231.674 49.5878C231.193 49.3921 230.757 49.1023 230.39 48.7355C230.023 48.3686 229.733 47.9321 229.538 47.4516C229.342 46.9711 229.244 46.4563 229.25 45.9375L229.25 31.5C229.25 29.4114 230.08 27.4084 231.557 25.9315C233.034 24.4547 235.037 23.625 237.125 23.625H252.875C254.964 23.625 256.967 24.4547 258.444 25.9315C259.92 27.4084 260.75 29.4114 260.75 31.5L260.75 45.9375C260.756 46.4563 260.659 46.9711 260.463 47.4516C260.267 47.9321 259.978 48.3686 259.611 48.7355C259.244 49.1023 258.807 49.3921 258.327 49.5878C257.846 49.7835 257.332 49.8812 256.813 49.875C256.294 49.8812 255.779 49.7835 255.299 49.5878C254.818 49.3921 254.382 49.1023 254.015 48.7355C253.648 48.3686 253.358 47.9321 253.162 47.4516C252.967 46.9711 252.869 46.4563 252.875 45.9375L252.875 31.5" stroke="#FF8B02" stroke-width="2.79429" stroke-miterlimit="10" stroke-linecap="round"/>
<path d="M245 15.75C248.624 15.75 251.562 12.8119 251.562 9.1875C251.562 5.56313 248.624 2.625 245 2.625C241.376 2.625 238.438 5.56313 238.438 9.1875C238.438 12.8119 241.376 15.75 245 15.75Z" stroke="#FF8B02" stroke-width="2.79429" stroke-miterlimit="10" stroke-linecap="round"/>
</svg>
