<svg width="127" height="256" viewBox="0 0 127 256" fill="none" xmlns="http://www.w3.org/2000/svg">
<path d="M5 14H123V236C123 244.837 115.837 252 107 252H21C12.1634 252 5 244.837 5 236V14Z" fill="#1E2021"/>
<path d="M4 12.8143C4 7.94629 7.94629 4 12.8143 4H115.186C120.054 4 124 7.94629 124 12.8143V14.1201H4V12.8143Z" fill="#1E2021"/>
<path opacity="0.4" d="M105.78 8.62055C105.78 8.2299 106.097 7.91323 106.488 7.91323H112.14C112.531 7.91323 112.847 8.22991 112.847 8.62055V10.8105C112.847 11.2012 112.531 11.5178 112.14 11.5178H106.488C106.097 11.5178 105.78 11.2012 105.78 10.8105V8.62055Z" stroke="#FBFBFB" stroke-width="0.326455"/>
<path opacity="0.5" d="M113.348 9.01953V10.407C113.619 10.2895 113.796 10.0161 113.796 9.71325C113.796 9.41039 113.619 9.13704 113.348 9.01953Z" fill="#FBFBFB"/>
<path d="M106.289 8.87668C106.289 8.63629 106.484 8.44141 106.724 8.44141H111.903C112.143 8.44141 112.338 8.63628 112.338 8.87668V10.5498C112.338 10.7902 112.143 10.985 111.903 10.985H106.724C106.484 10.985 106.289 10.7902 106.289 10.5498V8.87668Z" fill="#FBFBFB"/>
<path fill-rule="evenodd" clip-rule="evenodd" d="M101.358 8.52716C102.105 8.52719 102.825 8.81775 103.366 9.33879C103.407 9.37901 103.472 9.3785 103.513 9.33765L103.903 8.93951C103.923 8.91879 103.934 8.89072 103.934 8.86152C103.934 8.83231 103.922 8.80438 103.902 8.7839C102.48 7.40537 100.236 7.40537 98.8137 8.7839C98.7931 8.80436 98.7814 8.83229 98.7813 8.86149C98.7811 8.8907 98.7924 8.91878 98.8127 8.93951L99.2029 9.33765C99.243 9.37857 99.3083 9.37907 99.3491 9.33879C99.891 8.81772 100.61 8.52716 101.358 8.52716ZM101.36 9.82102C101.771 9.821 102.167 9.97937 102.472 10.2654C102.513 10.306 102.578 10.3051 102.619 10.2634L103.009 9.85509C103.029 9.83367 103.041 9.80462 103.04 9.77442C103.04 9.74423 103.028 9.71543 103.007 9.69445C102.079 8.79977 100.641 8.79977 99.7129 9.69445C99.6919 9.71543 99.68 9.74425 99.6797 9.77445C99.6794 9.80465 99.6909 9.8337 99.7114 9.85509L100.101 10.2634C100.142 10.3051 100.206 10.306 100.248 10.2654C100.552 9.97956 100.949 9.8212 101.36 9.82102ZM102.139 10.765C102.139 10.7946 102.128 10.8232 102.107 10.844L101.43 11.5346C101.41 11.5549 101.383 11.5663 101.354 11.5663C101.326 11.5663 101.299 11.5549 101.279 11.5346L100.602 10.844C100.581 10.8232 100.57 10.7946 100.57 10.765C100.571 10.7353 100.584 10.7073 100.605 10.6874C101.038 10.3177 101.671 10.3177 102.104 10.6874C102.125 10.7073 102.138 10.7354 102.139 10.765Z" fill="#FBFBFB"/>
<path fill-rule="evenodd" clip-rule="evenodd" d="M97.1019 8.21014C97.1019 8.01857 96.9515 7.86328 96.7659 7.86328H96.4298C96.2442 7.86328 96.0938 8.01857 96.0938 8.21014V11.2162C96.0938 11.4078 96.2442 11.5631 96.4298 11.5631H96.7659C96.9515 11.5631 97.1019 11.4078 97.1019 11.2162V8.21014ZM94.8595 8.67188H95.1956C95.3811 8.67188 95.5316 8.82717 95.5316 9.01873V11.2155C95.5316 11.4071 95.3811 11.5624 95.1956 11.5624H94.8595C94.6739 11.5624 94.5234 11.4071 94.5234 11.2155V9.01873C94.5234 8.82717 94.6739 8.67188 94.8595 8.67188ZM93.6331 9.48438H93.297C93.1114 9.48438 92.9609 9.63967 92.9609 9.83123V11.2187C92.9609 11.4102 93.1114 11.5655 93.297 11.5655H93.6331C93.8186 11.5655 93.9691 11.4102 93.9691 11.2187V9.83123C93.9691 9.63967 93.8186 9.48438 93.6331 9.48438ZM92.3988 10.5226C92.3988 10.3311 92.2483 10.1758 92.0627 10.1758H91.7267C91.5411 10.1758 91.3906 10.3311 91.3906 10.5226V11.2164C91.3906 11.4079 91.5411 11.5632 91.7267 11.5632H92.0627C92.2483 11.5632 92.3988 11.4079 92.3988 11.2164V10.5226Z" fill="#FBFBFB"/>
<path d="M16.1172 8.1542C16.3181 8.1542 16.503 8.18529 16.6719 8.24745C16.8425 8.30962 16.9788 8.40367 17.0808 8.52959C17.1828 8.65393 17.2338 8.81014 17.2338 8.99823C17.2338 9.13851 17.2059 9.26125 17.1501 9.36645C17.0959 9.47166 17.0218 9.56411 16.9278 9.64381C16.8337 9.72192 16.7269 9.79046 16.6074 9.84944C16.7317 9.91479 16.8497 9.99131 16.9612 10.079C17.0728 10.1651 17.1637 10.2663 17.2338 10.3826C17.3056 10.499 17.3414 10.6345 17.3414 10.7891C17.3414 10.9836 17.2896 11.1525 17.186 11.296C17.0824 11.4379 16.9389 11.5479 16.7556 11.626C16.5723 11.7041 16.3595 11.7431 16.1172 11.7431C15.8558 11.7431 15.6334 11.7057 15.4501 11.6308C15.2668 11.5558 15.1273 11.449 15.0317 11.3104C14.936 11.1701 14.8882 11.0027 14.8882 10.8082C14.8882 10.6488 14.9177 10.5102 14.9767 10.3922C15.0373 10.2742 15.1186 10.173 15.2206 10.0885C15.3226 10.0025 15.435 9.92914 15.5577 9.86857C15.4541 9.80321 15.3593 9.72909 15.2732 9.6462C15.1887 9.56331 15.121 9.46847 15.0699 9.36167C15.0205 9.25487 14.9958 9.13213 14.9958 8.99345C14.9958 8.80855 15.0476 8.65393 15.1512 8.52959C15.2564 8.40526 15.3943 8.31201 15.5649 8.24984C15.7354 8.18608 15.9196 8.1542 16.1172 8.1542ZM15.5721 10.7652C15.5721 10.8911 15.6167 10.9955 15.706 11.0784C15.7968 11.1597 15.9307 11.2004 16.1077 11.2004C16.291 11.2004 16.428 11.1613 16.5189 11.0832C16.6098 11.0035 16.6552 10.8991 16.6552 10.77C16.6552 10.6807 16.6289 10.6026 16.5763 10.5357C16.5253 10.4687 16.4607 10.4089 16.3826 10.3563C16.3045 10.3021 16.2256 10.2519 16.1459 10.2057L16.0814 10.1722C15.9793 10.2185 15.8901 10.2703 15.8136 10.3276C15.7386 10.385 15.6797 10.4496 15.6366 10.5213C15.5936 10.593 15.5721 10.6743 15.5721 10.7652ZM16.1124 8.69457C15.9913 8.69457 15.8909 8.72566 15.8112 8.78782C15.7315 8.84999 15.6916 8.93766 15.6916 9.05084C15.6916 9.13054 15.7107 9.20068 15.749 9.26125C15.7888 9.32023 15.8407 9.37203 15.9044 9.41666C15.9698 9.4613 16.0407 9.50274 16.1172 9.541C16.1905 9.50593 16.2591 9.46688 16.3228 9.42384C16.3866 9.3808 16.4384 9.32899 16.4783 9.26842C16.5181 9.20785 16.538 9.13532 16.538 9.05084C16.538 8.93766 16.4974 8.84999 16.4161 8.78782C16.3364 8.72566 16.2352 8.69457 16.1124 8.69457ZM17.8741 11.3534C17.8741 11.2036 17.9148 11.0984 17.9961 11.0378C18.0789 10.9772 18.1786 10.9469 18.2949 10.9469C18.4081 10.9469 18.5053 10.9772 18.5866 11.0378C18.6695 11.0984 18.711 11.2036 18.711 11.3534C18.711 11.4969 18.6695 11.6005 18.5866 11.6642C18.5053 11.728 18.4081 11.7599 18.2949 11.7599C18.1786 11.7599 18.0789 11.728 17.9961 11.6642C17.9148 11.6005 17.8741 11.4969 17.8741 11.3534ZM17.8741 9.37841C17.8741 9.22857 17.9148 9.12337 17.9961 9.06279C18.0789 9.00222 18.1786 8.97193 18.2949 8.97193C18.4081 8.97193 18.5053 9.00222 18.5866 9.06279C18.6695 9.12337 18.711 9.22857 18.711 9.37841C18.711 9.52346 18.6695 9.62787 18.5866 9.69163C18.5053 9.7538 18.4081 9.78488 18.2949 9.78488C18.1786 9.78488 18.0789 9.7538 17.9961 9.69163C17.9148 9.62787 17.8741 9.52346 17.8741 9.37841ZM21.0895 11.6953H20.3507V9.6725C20.3507 9.61671 20.3515 9.54817 20.3531 9.46688C20.3547 9.38399 20.3571 9.2995 20.3603 9.21343C20.3635 9.12576 20.3667 9.04685 20.3698 8.97672C20.3523 8.99744 20.3164 9.0333 20.2623 9.08431C20.2096 9.13373 20.1602 9.17836 20.114 9.21821L19.7123 9.541L19.3561 9.09627L20.4822 8.19963H21.0895V11.6953ZM23.4131 9.46209C23.6267 9.46209 23.8164 9.50274 23.9822 9.58404C24.1496 9.66533 24.2811 9.78488 24.3767 9.94269C24.4723 10.1005 24.5202 10.295 24.5202 10.5261C24.5202 10.778 24.4676 10.9955 24.3624 11.1789C24.2587 11.3606 24.1033 11.5 23.8961 11.5973C23.6905 11.6945 23.4338 11.7431 23.1262 11.7431C22.9429 11.7431 22.7699 11.7272 22.6073 11.6953C22.4464 11.665 22.3053 11.618 22.1841 11.5542V10.9158C22.3053 10.9796 22.4503 11.0338 22.6193 11.0784C22.7899 11.1215 22.9501 11.143 23.0999 11.143C23.2465 11.143 23.3701 11.1239 23.4705 11.0856C23.5709 11.0458 23.6466 10.9852 23.6977 10.9039C23.7503 10.821 23.7766 10.7158 23.7766 10.5883C23.7766 10.4177 23.7192 10.287 23.6044 10.1961C23.4896 10.1053 23.3135 10.0599 23.076 10.0599C22.9851 10.0599 22.8903 10.0686 22.7915 10.0862C22.6942 10.1037 22.6129 10.1212 22.5476 10.1388L22.2535 9.98095L22.385 8.19963H24.2811V8.82608H23.0329L22.9684 9.51231C23.0226 9.50115 23.0816 9.48999 23.1453 9.47883C23.2091 9.46767 23.2984 9.46209 23.4131 9.46209Z" fill="#FBFBFB"/>
<path d="M44 4H83.1746C83.1746 8.6877 79.3744 12.4878 74.6867 12.4878H52.4878C47.8001 12.4878 44 8.6877 44 4Z" fill="#101213"/>
<rect x="54.1211" y="7.26562" width="17.6286" height="1.30582" rx="0.65291" fill="#101213"/>
<circle cx="73.7076" cy="7.91853" r="0.65291" fill="#101213"/>
<rect x="2.5" y="2.5" width="122" height="251" rx="16.5" stroke="#101213" stroke-width="5"/>
</svg>
