<svg width="390" height="835" viewBox="0 0 390 835" fill="none" xmlns="http://www.w3.org/2000/svg">
<path d="M15 429H375V800C375 811.598 365.598 821 354 821H36C24.402 821 15 811.598 15 800V429Z" fill="#FF8B02"/>
<path d="M15 42H375V343H15V42Z" fill="#1E2021"/>
<path d="M12 38C12 23.0883 24.0883 11 39 11H352C366.912 11 379 23.0883 379 38V42H12V38Z" fill="#1E2021"/>
<path opacity="0.4" d="M325.932 22.9792H343.246C344.443 22.9792 345.413 23.9493 345.413 25.1459V31.8542C345.413 33.0509 344.443 34.0209 343.246 34.0209H325.932C324.736 34.0209 323.766 33.0509 323.766 31.8542V25.1459C323.766 23.9493 324.736 22.9792 325.932 22.9792Z" stroke="#FBFBFB"/>
<path opacity="0.5" d="M346.941 26.375V30.625C347.773 30.265 348.314 29.4277 348.314 28.5C348.314 27.5723 347.773 26.735 346.941 26.375" fill="#FBFBFB"/>
<path d="M325.324 25.9376C325.324 25.2012 325.921 24.6042 326.658 24.6042H342.52C343.257 24.6042 343.854 25.2012 343.854 25.9376V31.0626C343.854 31.799 343.257 32.3959 342.52 32.3959H326.658C325.921 32.3959 325.324 31.799 325.324 31.0626V25.9376Z" fill="#FBFBFB"/>
<path fill-rule="evenodd" clip-rule="evenodd" d="M310.225 24.8598C312.515 24.8599 314.717 25.75 316.377 27.346C316.502 27.4693 316.702 27.4677 316.825 27.3425L318.02 26.123C318.082 26.0595 318.117 25.9735 318.116 25.8841C318.116 25.7946 318.08 25.709 318.017 25.6463C313.661 21.4236 306.788 21.4236 302.432 25.6463C302.368 25.709 302.333 25.7945 302.332 25.884C302.331 25.9734 302.366 26.0595 302.428 26.123L303.624 27.3425C303.747 27.4679 303.946 27.4694 304.071 27.346C305.731 25.7499 307.934 24.8598 310.225 24.8598ZM310.222 28.8182C311.482 28.8181 312.696 29.3032 313.63 30.1793C313.757 30.3037 313.956 30.301 314.079 30.1732L315.273 28.9225C315.336 28.8569 315.371 28.7679 315.37 28.6754C315.369 28.583 315.333 28.4947 315.269 28.4304C312.425 25.6899 308.021 25.6899 305.178 28.4304C305.114 28.4947 305.077 28.583 305.076 28.6755C305.075 28.768 305.11 28.857 305.173 28.9225L306.368 30.1732C306.491 30.301 306.69 30.3037 306.816 30.1793C307.749 29.3038 308.963 28.8187 310.222 28.8182ZM312.626 31.7121C312.628 31.8029 312.593 31.8904 312.528 31.954L310.454 34.0696C310.394 34.1318 310.311 34.1667 310.224 34.1667C310.138 34.1667 310.055 34.1318 309.994 34.0696L307.92 31.954C307.856 31.8903 307.82 31.8028 307.822 31.712C307.824 31.6212 307.863 31.5352 307.93 31.4743C309.254 30.342 311.194 30.342 312.519 31.4743C312.585 31.5353 312.624 31.6213 312.626 31.7121Z" fill="#FBFBFB"/>
<path fill-rule="evenodd" clip-rule="evenodd" d="M297.186 23.8958C297.186 23.3089 296.725 22.8333 296.156 22.8333H295.127C294.559 22.8333 294.098 23.3089 294.098 23.8958V33.1041C294.098 33.6909 294.559 34.1666 295.127 34.1666H296.156C296.725 34.1666 297.186 33.6909 297.186 33.1041V23.8958ZM290.322 25.3125H291.352C291.92 25.3125 292.381 25.7882 292.381 26.375V33.1042C292.381 33.691 291.92 34.1667 291.352 34.1667H290.322C289.754 34.1667 289.293 33.691 289.293 33.1042V26.375C289.293 25.7882 289.754 25.3125 290.322 25.3125ZM286.549 27.7915H285.52C284.951 27.7915 284.49 28.2672 284.49 28.854V33.104C284.49 33.6908 284.951 34.1665 285.52 34.1665H286.549C287.118 34.1665 287.578 33.6908 287.578 33.104V28.854C287.578 28.2672 287.118 27.7915 286.549 27.7915ZM282.774 30.9791C282.774 30.3923 282.313 29.9166 281.744 29.9166H280.715C280.146 29.9166 279.686 30.3923 279.686 30.9791V33.1041C279.686 33.6909 280.146 34.1666 280.715 34.1666H281.744C282.313 34.1666 282.774 33.6909 282.774 33.1041V30.9791Z" fill="#FBFBFB"/>
<path d="M49.1436 24.4138C50.169 24.4138 50.9942 24.6482 51.6192 25.1169C52.2491 25.5808 52.564 26.2083 52.564 26.9993C52.564 27.5461 52.4127 28.0344 52.1099 28.4641C51.8072 28.8889 51.3189 29.2698 50.6451 29.6067C51.4459 30.0364 52.0196 30.4856 52.3663 30.9543C52.7179 31.4182 52.8936 31.9285 52.8936 32.4851C52.8936 33.364 52.5494 34.072 51.8609 34.6091C51.1724 35.1414 50.2667 35.4075 49.1436 35.4075C47.9718 35.4075 47.0513 35.1584 46.3824 34.6604C45.7135 34.1624 45.379 33.4568 45.379 32.5437C45.379 31.9333 45.5401 31.3914 45.8624 30.9177C46.1895 30.4441 46.712 30.0266 47.4298 29.6653C46.8194 29.2795 46.38 28.8669 46.1114 28.4275C45.8429 27.988 45.7086 27.5071 45.7086 26.9846C45.7086 26.218 46.026 25.5979 46.6607 25.1243C47.2955 24.6506 48.1231 24.4138 49.1436 24.4138ZM47.4737 32.4119C47.4737 32.8318 47.6202 33.1589 47.9132 33.3933C48.2061 33.6277 48.6065 33.7449 49.1143 33.7449C49.6759 33.7449 50.0958 33.6252 50.3741 33.386C50.6524 33.1418 50.7916 32.822 50.7916 32.4265C50.7916 32.0994 50.6524 31.7942 50.3741 31.511C50.1007 31.2229 49.6539 30.9177 49.0338 30.5955C47.9937 31.074 47.4737 31.6794 47.4737 32.4119ZM49.129 26.0691C48.7432 26.0691 48.4307 26.1692 48.1915 26.3694C47.9571 26.5647 47.8399 26.8284 47.8399 27.1604C47.8399 27.4534 47.9327 27.717 48.1182 27.9514C48.3087 28.1809 48.6505 28.4177 49.1436 28.6619C49.6221 28.4373 49.9566 28.2078 50.147 27.9734C50.3375 27.739 50.4327 27.468 50.4327 27.1604C50.4327 26.8235 50.3106 26.5574 50.0665 26.3621C49.8223 26.1667 49.5098 26.0691 49.129 26.0691ZM54.5107 34.2136C54.5107 33.8035 54.6206 33.4934 54.8403 33.2834C55.0601 33.0735 55.3799 32.9685 55.7998 32.9685C56.2051 32.9685 56.5176 33.0759 56.7373 33.2908C56.9619 33.5056 57.0742 33.8132 57.0742 34.2136C57.0742 34.5994 56.9619 34.9045 56.7373 35.1292C56.5127 35.3489 56.2002 35.4587 55.7998 35.4587C55.3897 35.4587 55.0723 35.3513 54.8477 35.1365C54.6231 34.9167 54.5107 34.6091 54.5107 34.2136ZM54.5107 28.1638C54.5107 27.7537 54.6206 27.4436 54.8403 27.2336C55.0601 27.0237 55.3799 26.9187 55.7998 26.9187C56.2051 26.9187 56.5176 27.0261 56.7373 27.241C56.9619 27.4558 57.0742 27.7634 57.0742 28.1638C57.0742 28.5593 56.9595 28.8669 56.73 29.0867C56.5054 29.3015 56.1953 29.4089 55.7998 29.4089C55.3897 29.4089 55.0723 29.3015 54.8477 29.0867C54.6231 28.8718 54.5107 28.5642 54.5107 28.1638ZM64.3603 35.261H62.0971V29.0647L62.1191 28.0466L62.1557 26.9333C61.7797 27.3093 61.5185 27.5559 61.372 27.6731L60.1415 28.6619L59.0502 27.2996L62.4999 24.553H64.3603V35.261ZM71.4632 28.4202C72.4984 28.4202 73.3211 28.7107 73.9315 29.2917C74.5467 29.8728 74.8543 30.6687 74.8543 31.6794C74.8543 32.8757 74.4857 33.7961 73.7484 34.4407C73.0111 35.0852 71.9564 35.4075 70.5843 35.4075C69.3929 35.4075 68.431 35.2146 67.6986 34.8289V32.8733C68.0843 33.0784 68.5335 33.2468 69.0462 33.3787C69.5589 33.5056 70.0448 33.5691 70.5038 33.5691C71.8856 33.5691 72.5765 33.0027 72.5765 31.8699C72.5765 30.7908 71.8612 30.2512 70.4305 30.2512C70.1717 30.2512 69.8861 30.2781 69.5736 30.3318C69.2611 30.3806 69.0072 30.4343 68.8119 30.4929L67.911 30.0095L68.3138 24.553H74.1219V26.4719H70.2987L70.1009 28.574L70.3573 28.5227C70.6551 28.4543 71.0238 28.4202 71.4632 28.4202Z" fill="#FBFBFB"/>
<path d="M135 11H255V11C255 25.3594 243.359 37 229 37H161C146.641 37 135 25.3594 135 11V11Z" fill="#222222"/>
<rect x="166" y="21" width="54" height="4" rx="2" fill="#393939"/>
<circle cx="226" cy="23" r="2" fill="#393939"/>
<rect x="7.5" y="7.5" width="375" height="820" rx="49.5" stroke="#222222" stroke-width="15"/>
</svg>
