<svg width="287" height="580" viewBox="0 0 287 580" fill="none" xmlns="http://www.w3.org/2000/svg">
<path d="M11.3008 31.6377H277.962V533.323C277.962 553.292 261.774 569.48 241.805 569.48H47.4582C27.489 569.48 11.3008 553.292 11.3008 533.323V31.6377Z" fill="#1E2021"/>
<path d="M9.03906 28.9599C9.03906 17.959 17.957 9.04102 28.9579 9.04102H260.301C271.302 9.04102 280.22 17.959 280.22 28.9599V31.9108H9.03906V28.9599Z" fill="#1E2021"/>
<path opacity="0.4" d="M239.045 19.4771C239.045 18.5943 239.76 17.8786 240.643 17.8786H253.416C254.299 17.8786 255.014 18.5943 255.014 19.4771V24.426C255.014 25.3088 254.299 26.0245 253.416 26.0245H240.643C239.76 26.0245 239.045 25.3088 239.045 24.426V19.4771Z" stroke="#FBFBFB" stroke-width="0.737736"/>
<path opacity="0.5" d="M256.152 20.3828V23.5182C256.766 23.2526 257.165 22.6349 257.165 21.9505C257.165 21.2661 256.766 20.6484 256.152 20.3828Z" fill="#FBFBFB"/>
<path d="M240.195 20.0608C240.195 19.5175 240.636 19.0771 241.179 19.0771H252.881C253.425 19.0771 253.865 19.5175 253.865 20.0608V23.8417C253.865 24.385 253.425 24.8253 252.881 24.8253H241.179C240.636 24.8253 240.195 24.385 240.195 23.8417V20.0608Z" fill="#FBFBFB"/>
<path fill-rule="evenodd" clip-rule="evenodd" d="M229.053 19.267C230.743 19.2671 232.368 19.9237 233.592 21.1011C233.684 21.1921 233.832 21.1909 233.922 21.0986L234.804 20.1989C234.85 20.152 234.876 20.0886 234.875 20.0226C234.875 19.9566 234.848 19.8935 234.802 19.8472C231.588 16.7319 226.518 16.7319 223.304 19.8472C223.257 19.8934 223.231 19.9565 223.23 20.0225C223.23 20.0885 223.256 20.152 223.302 20.1989L224.183 21.0986C224.274 21.191 224.422 21.1922 224.514 21.1011C225.738 19.9236 227.363 19.267 229.053 19.267ZM229.058 22.1891C229.987 22.1891 230.884 22.547 231.572 23.1933C231.666 23.285 231.812 23.283 231.903 23.1888L232.785 22.2661C232.831 22.2177 232.857 22.1521 232.856 22.0838C232.855 22.0156 232.828 21.9505 232.781 21.9031C230.683 19.8813 227.435 19.8813 225.337 21.9031C225.289 21.9505 225.262 22.0156 225.262 22.0839C225.261 22.1521 225.287 22.2178 225.333 22.2661L226.215 23.1888C226.305 23.283 226.452 23.285 226.545 23.1933C227.234 22.5474 228.129 22.1895 229.058 22.1891ZM230.817 24.3224C230.819 24.3894 230.793 24.454 230.745 24.5009L229.215 26.0616C229.17 26.1075 229.109 26.1333 229.046 26.1333C228.982 26.1333 228.921 26.1075 228.876 26.0616L227.345 24.5009C227.298 24.4539 227.272 24.3893 227.273 24.3224C227.275 24.2554 227.304 24.1919 227.353 24.147C228.33 23.3117 229.761 23.3117 230.738 24.147C230.787 24.192 230.816 24.2554 230.817 24.3224Z" fill="#FBFBFB"/>
<path fill-rule="evenodd" clip-rule="evenodd" d="M219.438 18.5563C219.438 18.1234 219.098 17.7725 218.679 17.7725H217.92C217.5 17.7725 217.16 18.1234 217.16 18.5563V25.3496C217.16 25.7825 217.5 26.1335 217.92 26.1335H218.679C219.098 26.1335 219.438 25.7825 219.438 25.3496V18.5563ZM214.365 19.5986H215.124C215.544 19.5986 215.884 19.9496 215.884 20.3825V25.3468C215.884 25.7797 215.544 26.1307 215.124 26.1307H214.365C213.945 26.1307 213.605 25.7797 213.605 25.3468V20.3825C213.605 19.9496 213.945 19.5986 214.365 19.5986ZM211.597 21.4316H210.838C210.418 21.4316 210.078 21.7826 210.078 22.2155V25.3509C210.078 25.7838 210.418 26.1347 210.838 26.1347H211.597C212.016 26.1347 212.356 25.7838 212.356 25.3509V22.2155C212.356 21.7826 212.016 21.4316 211.597 21.4316ZM208.806 23.7821C208.806 23.3492 208.466 22.9982 208.046 22.9982H207.287C206.867 22.9982 206.527 23.3492 206.527 23.7821V25.3498C206.527 25.7827 206.867 26.1336 207.287 26.1336H208.046C208.466 26.1336 208.806 25.7827 208.806 25.3498V23.7821Z" fill="#FBFBFB"/>
<path d="M36.4393 19.1324C37.1958 19.1324 37.8046 19.3053 38.2656 19.6511C38.7303 19.9933 38.9627 20.4562 38.9627 21.0398C38.9627 21.4432 38.851 21.8035 38.6277 22.1205C38.4043 22.4339 38.0441 22.7148 37.547 22.9634C38.1378 23.2804 38.561 23.6118 38.8168 23.9576C39.0762 24.2998 39.2058 24.6762 39.2058 25.0869C39.2058 25.7353 38.9519 26.2576 38.444 26.6539C37.936 27.0465 37.2678 27.2428 36.4393 27.2428C35.5748 27.2428 34.8958 27.0591 34.4023 26.6917C33.9088 26.3243 33.662 25.8037 33.662 25.1301C33.662 24.6798 33.7809 24.28 34.0186 23.9306C34.26 23.5812 34.6454 23.2732 35.1749 23.0066C34.7247 22.722 34.4005 22.4176 34.2023 22.0934C34.0042 21.7692 33.9052 21.4144 33.9052 21.029C33.9052 20.4634 34.1393 20.006 34.6076 19.6565C35.0759 19.3071 35.6865 19.1324 36.4393 19.1324ZM35.2074 25.0329C35.2074 25.3427 35.3154 25.584 35.5316 25.7569C35.7477 25.9298 36.0431 26.0163 36.4177 26.0163C36.832 26.0163 37.1418 25.928 37.3471 25.7515C37.5524 25.5714 37.6551 25.3355 37.6551 25.0437C37.6551 24.8023 37.5524 24.5772 37.3471 24.3683C37.1454 24.1557 36.8158 23.9306 36.3583 23.6928C35.591 24.0459 35.2074 24.4925 35.2074 25.0329ZM36.4285 20.3536C36.1439 20.3536 35.9134 20.4274 35.7369 20.5751C35.564 20.7192 35.4775 20.9137 35.4775 21.1587C35.4775 21.3748 35.546 21.5693 35.6829 21.7422C35.8233 21.9115 36.0755 22.0862 36.4393 22.2664C36.7923 22.1007 37.0391 21.9313 37.1796 21.7584C37.3201 21.5855 37.3903 21.3856 37.3903 21.1587C37.3903 20.9101 37.3003 20.7138 37.1201 20.5697C36.94 20.4256 36.7095 20.3536 36.4285 20.3536ZM40.3988 26.3621C40.3988 26.0595 40.4799 25.8308 40.642 25.6759C40.8041 25.521 41.04 25.4435 41.3498 25.4435C41.6488 25.4435 41.8794 25.5228 42.0415 25.6813C42.2072 25.8398 42.29 26.0667 42.29 26.3621C42.29 26.6467 42.2072 26.8718 42.0415 27.0375C41.8757 27.1996 41.6452 27.2807 41.3498 27.2807C41.0472 27.2807 40.8131 27.2014 40.6474 27.0429C40.4817 26.8808 40.3988 26.6539 40.3988 26.3621ZM40.3988 21.8989C40.3988 21.5963 40.4799 21.3676 40.642 21.2127C40.8041 21.0578 41.04 20.9804 41.3498 20.9804C41.6488 20.9804 41.8794 21.0596 42.0415 21.2181C42.2072 21.3766 42.29 21.6035 42.29 21.8989C42.29 22.1907 42.2054 22.4176 42.036 22.5797C41.8703 22.7382 41.6416 22.8175 41.3498 22.8175C41.0472 22.8175 40.8131 22.7382 40.6474 22.5797C40.4817 22.4212 40.3988 22.1943 40.3988 21.8989ZM47.6652 27.1348H45.9956V22.5635L46.0118 21.8125L46.0388 20.9912C45.7614 21.2685 45.5687 21.4504 45.4606 21.5369L44.5529 22.2664L43.7478 21.2613L46.2927 19.2351H47.6652V27.1348ZM52.9053 22.088C53.669 22.088 54.276 22.3024 54.7262 22.731C55.1801 23.1597 55.4071 23.7469 55.4071 24.4925C55.4071 25.3751 55.1351 26.0541 54.5911 26.5296C54.0472 27.0051 53.2691 27.2428 52.2569 27.2428C51.378 27.2428 50.6683 27.1005 50.128 26.816V25.3733C50.4126 25.5246 50.744 25.6488 51.1222 25.7461C51.5004 25.8398 51.8589 25.8866 52.1975 25.8866C53.2169 25.8866 53.7266 25.4687 53.7266 24.633C53.7266 23.8369 53.1989 23.4389 52.1434 23.4389C51.9525 23.4389 51.7418 23.4587 51.5112 23.4983C51.2807 23.5343 51.0934 23.574 50.9493 23.6172L50.2847 23.2606L50.5819 19.2351H54.8667V20.6508H52.0462L51.9003 22.2015L52.0894 22.1637C52.3091 22.1133 52.5811 22.088 52.9053 22.088Z" fill="#FBFBFB"/>
<path d="M99.4297 9.03906H187.958C187.958 19.6325 179.37 28.2202 168.777 28.2202H118.611C108.017 28.2202 99.4297 19.6325 99.4297 9.03906Z" fill="#101213"/>
<rect x="122.305" y="16.417" width="39.8378" height="2.95095" rx="1.47547" fill="#101213"/>
<circle cx="166.565" cy="17.8925" r="1.47547" fill="#101213"/>
<rect x="5.64961" y="5.64961" width="275.701" height="568.22" rx="37.2874" stroke="#101213" stroke-width="11.2992"/>
</svg>
