<svg width="42" height="16" viewBox="0 0 42 16" fill="none" xmlns="http://www.w3.org/2000/svg">
<path d="M1 7C0.447715 7 0 7.44772 0 8C0 8.55228 0.447715 9 1 9V7ZM41.7071 8.70711C42.0976 8.31658 42.0976 7.68342 41.7071 7.29289L35.3431 0.928932C34.9526 0.538408 34.3195 0.538408 33.9289 0.928932C33.5384 1.31946 33.5384 1.95262 33.9289 2.34315L39.5858 8L33.9289 13.6569C33.5384 14.0474 33.5384 14.6805 33.9289 15.0711C34.3195 15.4616 34.9526 15.4616 35.3431 15.0711L41.7071 8.70711ZM4.33333 9C4.88562 9 5.33333 8.55228 5.33333 8C5.33333 7.44772 4.88562 7 4.33333 7V9ZM11 7C10.4477 7 10 7.44772 10 8C10 8.55228 10.4477 9 11 9V7ZM17.6667 9C18.219 9 18.6667 8.55228 18.6667 8C18.6667 7.44772 18.219 7 17.6667 7V9ZM24.3333 7C23.781 7 23.3333 7.44772 23.3333 8C23.3333 8.55228 23.781 9 24.3333 9V7ZM31 9C31.5523 9 32 8.55228 32 8C32 7.44772 31.5523 7 31 7V9ZM37.6667 7C37.1144 7 36.6667 7.44772 36.6667 8C36.6667 8.55228 37.1144 9 37.6667 9V7ZM1 9H4.33333V7H1V9ZM11 9H17.6667V7H11V9ZM24.3333 9H31V7H24.3333V9ZM37.6667 9H41V7H37.6667V9Z" fill="#FF8B02"/>
</svg>
