<svg width="62" height="16" viewBox="0 0 62 16" fill="none" xmlns="http://www.w3.org/2000/svg">
<path d="M1 7.00391C0.447715 7.00391 0 7.45162 0 8.00391C0 8.55619 0.447715 9.00391 1 9.00391V7.00391ZM61.7071 8.71101C62.0976 8.32049 62.0976 7.68732 61.7071 7.2968L55.3431 0.932838C54.9526 0.542314 54.3195 0.542314 53.9289 0.932838C53.5384 1.32336 53.5384 1.95653 53.9289 2.34705L59.5858 8.00391L53.9289 13.6608C53.5384 14.0513 53.5384 14.6844 53.9289 15.075C54.3195 15.4655 54.9526 15.4655 55.3431 15.075L61.7071 8.71101ZM4.75 9.00391C5.30228 9.00391 5.75 8.55619 5.75 8.00391C5.75 7.45162 5.30228 7.00391 4.75 7.00391V9.00391ZM12.25 7.00391C11.6977 7.00391 11.25 7.45162 11.25 8.00391C11.25 8.55619 11.6977 9.00391 12.25 9.00391V7.00391ZM19.75 9.00391C20.3023 9.00391 20.75 8.55619 20.75 8.00391C20.75 7.45162 20.3023 7.00391 19.75 7.00391V9.00391ZM27.25 7.00391C26.6977 7.00391 26.25 7.45162 26.25 8.00391C26.25 8.55619 26.6977 9.00391 27.25 9.00391V7.00391ZM34.75 9.00391C35.3023 9.00391 35.75 8.55619 35.75 8.00391C35.75 7.45162 35.3023 7.00391 34.75 7.00391V9.00391ZM42.25 7.00391C41.6977 7.00391 41.25 7.45162 41.25 8.00391C41.25 8.55619 41.6977 9.00391 42.25 9.00391V7.00391ZM49.75 9.00391C50.3023 9.00391 50.75 8.55619 50.75 8.00391C50.75 7.45162 50.3023 7.00391 49.75 7.00391V9.00391ZM57.25 7.00391C56.6977 7.00391 56.25 7.45162 56.25 8.00391C56.25 8.55619 56.6977 9.00391 57.25 9.00391V7.00391ZM1 9.00391H4.75V7.00391H1V9.00391ZM12.25 9.00391H19.75V7.00391H12.25V9.00391ZM27.25 9.00391H34.75V7.00391H27.25V9.00391ZM42.25 9.00391H49.75V7.00391H42.25V9.00391ZM57.25 9.00391H61V7.00391H57.25V9.00391Z" fill="#FF8B02"/>
</svg>
