<svg width="104" height="52" viewBox="0 0 104 52" fill="none" xmlns="http://www.w3.org/2000/svg">
<path d="M0.851562 0.850586V51.8506H103.852V0.850586H0.851562ZM37.2957 31.2939C36.9901 31.8488 36.5858 32.2966 36.0835 32.6376C35.5807 32.9785 35.0036 33.2261 34.3517 33.3796C33.6997 33.5331 33.0274 33.6102 32.3347 33.6102C31.805 33.6102 31.2615 33.5701 30.7048 33.4899C30.1477 33.4097 29.6046 33.2927 29.0749 33.1389C28.5452 32.9854 28.0325 32.8013 27.5367 32.5874C27.0407 32.3737 26.5823 32.1262 26.1615 31.8454L27.6284 28.9777C27.6825 29.0448 27.8593 29.1715 28.1581 29.3587C28.4567 29.5461 28.827 29.7331 29.2685 29.9202C29.7097 30.1076 30.2023 30.2745 30.7456 30.4216C31.2886 30.5689 31.8387 30.6422 32.3958 30.6422C33.5775 30.6422 34.1683 30.2881 34.1683 29.5793C34.1683 29.3121 34.0798 29.0915 33.9035 28.9175C33.7269 28.7439 33.4824 28.5866 33.17 28.4462C32.8574 28.3059 32.4875 28.1755 32.0597 28.0552C31.6318 27.9349 31.1664 27.8014 30.6641 27.6541C29.9985 27.4536 29.4213 27.2363 28.9323 27.0023C28.4433 26.7686 28.039 26.4979 27.7201 26.1902C27.4009 25.8829 27.163 25.5284 27.007 25.1273C26.8508 24.7262 26.7727 24.2585 26.7727 23.7235C26.7727 22.9748 26.9153 22.313 27.2005 21.7381C27.4858 21.1635 27.8729 20.6788 28.3618 20.2842C28.8508 19.89 29.4179 19.5923 30.063 19.3918C30.708 19.1912 31.3905 19.091 32.1106 19.091C32.6129 19.091 33.1089 19.138 33.5979 19.2314C34.0868 19.3249 34.5554 19.4453 35.0036 19.5923C35.4519 19.7396 35.8695 19.9067 36.2566 20.0937C36.6437 20.2811 37.0003 20.468 37.3262 20.6552L35.8593 23.3826C35.8186 23.3293 35.676 23.229 35.4315 23.0818C35.187 22.9347 34.8814 22.7809 34.5147 22.6205C34.148 22.4601 33.747 22.3197 33.3126 22.1994C32.8778 22.079 32.4434 22.0189 32.0087 22.0189C30.8132 22.0189 30.2158 22.4135 30.2158 23.2021C30.2158 23.4427 30.2801 23.6433 30.4094 23.8037C30.5384 23.9641 30.7284 24.1081 30.9799 24.2349C31.2311 24.3621 31.5469 24.4789 31.9272 24.5858C32.3073 24.693 32.749 24.8133 33.2515 24.9468C33.9442 25.1342 34.5688 25.3379 35.1259 25.5584C35.6825 25.779 36.1548 26.0533 36.5419 26.3807C36.929 26.7084 37.2275 27.106 37.4383 27.5739C37.6488 28.042 37.7541 28.6036 37.7541 29.2584C37.7541 30.0606 37.6011 30.7393 37.2957 31.2939ZM49.2853 33.4498L48.1648 30.2612H43.6622L42.562 33.4498H39.1393L44.416 19.2113H47.4313L52.7081 33.4498H49.2853ZM65.5027 33.4498H55.1529V19.2113H58.4942V30.562H65.5027V33.4498ZM78.2566 33.4498H68.0902V19.2113H78.0733V22.0991H71.4315V24.8666H77.1361V27.5338H71.4315V30.562H78.2566V33.4498Z" fill="#FF8B02"/>
</svg>
