<svg width="381" height="102" viewBox="0 0 381 102" fill="none" xmlns="http://www.w3.org/2000/svg">
<path d="M378.273 0H380.273V60H378.273V0Z" fill="#FF8B02"/>
<path fill-rule="evenodd" clip-rule="evenodd" d="M380.273 60L1.27344 60L1.27344 58L380.273 58L380.273 60Z" fill="#FF8B02"/>
<path d="M0.273438 1H2.27344V60H0.273438V1Z" fill="#FF8B02"/>
<path fill-rule="evenodd" clip-rule="evenodd" d="M189.981 95.3431L183.617 101.707C183.226 102.098 182.593 102.098 182.202 101.707L175.838 95.3431C175.448 94.9526 175.448 94.3195 175.838 93.9289C176.229 93.5384 176.862 93.5384 177.253 93.9289L181.909 98.5858L181.909 58L183.909 58L183.909 98.5858L188.566 93.9289C188.957 93.5384 189.59 93.5384 189.981 93.9289C190.371 94.3195 190.371 94.9526 189.981 95.3431Z" fill="#FF8B02"/>
</svg>
