<svg width="16" height="16" viewBox="0 0 16 16" fill="none" xmlns="http://www.w3.org/2000/svg">
<path d="M4.52356 13.625L4.03008 13.5445L3.86432 14.5607L4.76545 14.0626L4.52356 13.625ZM5.1875 9.55471L5.68098 9.63521L5.7216 9.38615L5.54538 9.20554L5.1875 9.55471ZM8 11.7033L8.24189 11.2657L8 11.132L7.7581 11.2657L8 11.7033ZM11.4764 13.625L11.2345 14.0626L12.1357 14.5607L11.9699 13.5445L11.4764 13.625ZM10.8125 9.55471L10.4546 9.20554L10.2784 9.38615L10.319 9.63521L10.8125 9.55471ZM13.625 6.67212L13.9829 7.02129L14.6624 6.32482L13.7005 6.17785L13.625 6.67212ZM9.73822 6.07827L9.2856 6.29072L9.39896 6.53224L9.6627 6.57253L9.73822 6.07827ZM8 2.375L8.45262 2.16255L8 1.19824L7.54738 2.16255L8 2.375ZM6.26178 6.07827L6.3373 6.57253L6.60104 6.53224L6.7144 6.29072L6.26178 6.07827ZM2.375 6.67212L2.29948 6.17785L1.33758 6.32482L2.01712 7.02129L2.375 6.67212ZM5.01704 13.7055L5.68098 9.63521L4.69402 9.47422L4.03008 13.5445L5.01704 13.7055ZM7.7581 11.2657L4.28166 13.1874L4.76545 14.0626L8.24189 12.1409L7.7581 11.2657ZM11.7183 13.1874L8.24189 11.2657L7.7581 12.1409L11.2345 14.0626L11.7183 13.1874ZM10.319 9.63521L10.983 13.7055L11.9699 13.5445L11.306 9.47422L10.319 9.63521ZM13.2671 6.32294L10.4546 9.20554L11.1704 9.90389L13.9829 7.02129L13.2671 6.32294ZM9.6627 6.57253L13.5495 7.16638L13.7005 6.17785L9.81374 5.58401L9.6627 6.57253ZM7.54738 2.58745L9.2856 6.29072L10.1908 5.86582L8.45262 2.16255L7.54738 2.58745ZM6.7144 6.29072L8.45262 2.58745L7.54738 2.16255L5.80916 5.86582L6.7144 6.29072ZM2.45052 7.16638L6.3373 6.57253L6.18626 5.58401L2.29948 6.17785L2.45052 7.16638ZM5.54538 9.20554L2.73288 6.32294L2.01712 7.02129L4.82962 9.90389L5.54538 9.20554Z" fill="#FF8B02"/>
</svg>
